<?xml version="1.0" encoding="utf-8"?>
<!-- Generator: Adobe Illustrator 22.0.0, SVG Export Plug-In . SVG Version: 6.00 Build 0)  -->
<svg version="1.1" id="Layer_1" xmlns="http://www.w3.org/2000/svg" xmlns:xlink="http://www.w3.org/1999/xlink" x="0px" y="0px"
	 viewBox="0 0 150 150" style="enable-background:new 0 0 150 150;" xml:space="preserve">
<style type="text/css">
	.st0{fill:#E2C466;}
	.st1{fill:#2D2D2D;}
</style>
<g>
	<g>
		<g>
			<path class="st0" d="M86,50.5H50.4H37.2h-9.9c-1.6,0-2.9,1.3-2.9,2.9v0.5c0,1.6,1.3,2.9,2.9,2.9h6.3v0h17c1.6,0,2.9,1.3,2.9,2.9
				v0.5c0,1.6-1.3,2.9-2.9,2.9h-17v0H19c-1.6,0-2.9,1.3-2.9,2.9v0.5c0,1.6,1.3,2.9,2.9,2.9h14.7v0h4.6c1.6,0,2.9,1.3,2.9,2.9v0.5
				c0,1.6-1.3,2.9-2.9,2.9h-4.6v0h-3.5c-1.6,0-2.9,1.3-2.9,2.9v0.5c0,1.6,1.3,2.9,2.9,2.9h9.7v4.2h13.3c1.6-1.9,4-3.1,6.7-3.1
				c2.7,0,5.1,1.2,6.7,3.1h23V54.1C89.6,52.1,88,50.5,86,50.5z"/>
		</g>
		<g>
			<g id="XMLID_70_">
				<path class="st1" d="M128.1,93.4h-12.4c-0.2,0-0.3-0.1-0.4-0.3c-0.8-3.7-4.2-6.3-8-6.3c-3.8,0-7.1,2.7-8,6.3
					c0,0.2-0.2,0.3-0.4,0.3h-2.9c-0.2,0-0.4-0.2-0.4-0.4V58.2c0-1.6,1.3-2.9,2.9-2.9h17.5c2.9,0,5.6,1.8,6.6,4.6l5.2,14
					c0.3,0.8,0.5,1.7,0.5,2.5V93C128.5,93.2,128.3,93.4,128.1,93.4z M116,92.6h11.8V76.4c0-0.8-0.1-1.5-0.4-2.3c0,0,0,0,0,0l-5.2-14
					c-0.9-2.4-3.3-4.1-5.9-4.1H98.6c-1.2,0-2.1,1-2.1,2.1v34.4h2.2c1-3.9,4.5-6.6,8.6-6.6C111.4,86,114.9,88.7,116,92.6z"/>
			</g>
			<g id="XMLID_69_">
				<path class="st1" d="M107.4,102.3c-4.1,0-7.4-3.3-7.4-7.4s3.3-7.4,7.4-7.4s7.4,3.3,7.4,7.4S111.4,102.3,107.4,102.3z
					 M107.4,88.2c-3.7,0-6.7,3-6.7,6.7c0,3.7,3,6.7,6.7,6.7c3.7,0,6.7-3,6.7-6.7C114.1,91.2,111.1,88.2,107.4,88.2z"/>
			</g>
			<g id="XMLID_67_">
				<path class="st1" d="M107.4,98.4c-1.9,0-3.5-1.6-3.5-3.5s1.6-3.5,3.5-3.5c1.9,0,3.5,1.6,3.5,3.5S109.3,98.4,107.4,98.4z
					 M107.4,92.1c-1.6,0-2.9,1.3-2.9,2.9c0,1.6,1.3,2.9,2.9,2.9c1.6,0,2.9-1.3,2.9-2.9C110.2,93.3,108.9,92.1,107.4,92.1z"/>
			</g>
			<g id="XMLID_66_">
				<path class="st1" d="M126.4,95.1h-10.5c-0.2,0-0.4-0.2-0.4-0.4c0-1.9-0.7-3.6-1.9-5c-0.1-0.1-0.1-0.3-0.1-0.4
					c0.1-0.1,0.2-0.2,0.3-0.2h12.8c1,0,1.8,0.8,1.8,1.8V93C128.5,94.1,127.6,95.1,126.4,95.1z M116.3,94.3h10.2
					c0.7,0,1.3-0.6,1.3-1.3v-2.1c0-0.6-0.5-1-1-1h-12C115.6,91.2,116.2,92.7,116.3,94.3z"/>
			</g>
			<g id="XMLID_65_">
				<path class="st1" d="M107,74.7h-5.7c-0.9,0-1.6-0.7-1.6-1.6V60.4c0-0.9,0.7-1.6,1.6-1.6h5.7c0.9,0,1.6,0.7,1.6,1.6v12.7
					C108.6,74,107.9,74.7,107,74.7z M101.3,59.5c-0.5,0-0.9,0.4-0.9,0.9v12.7c0,0.5,0.4,0.9,0.9,0.9h5.7c0.5,0,0.9-0.4,0.9-0.9V60.4
					c0-0.5-0.4-0.9-0.9-0.9H101.3z"/>
			</g>
			<g id="XMLID_55_">
				<path class="st1" d="M122.4,74.7h-10.7c-0.9,0-1.6-0.7-1.6-1.6V60.4c0-0.9,0.7-1.6,1.6-1.6h4.5c1.5,0,2.9,1,3.5,2.4l4.3,11.4
					c0.2,0.5,0.1,1.1-0.2,1.5C123.4,74.5,122.9,74.7,122.4,74.7z M111.7,59.5c-0.5,0-0.9,0.4-0.9,0.9v12.7c0,0.5,0.4,0.9,0.9,0.9
					h10.7c0.3,0,0.6-0.1,0.7-0.4c0.2-0.2,0.2-0.5,0.1-0.8l-4.3-11.4c-0.4-1.1-1.5-1.9-2.8-1.9H111.7z"/>
			</g>
			<g id="XMLID_54_">
				<path class="st1" d="M59.6,102.1c-4,0-7.2-3.2-7.2-7.2c0-4,3.2-7.2,7.2-7.2s7.2,3.2,7.2,7.2C66.8,98.9,63.6,102.1,59.6,102.1z
					 M59.6,88.4c-3.6,0-6.6,2.9-6.6,6.6c0,3.6,2.9,6.6,6.6,6.6c3.6,0,6.6-2.9,6.6-6.6C66.2,91.3,63.2,88.4,59.6,88.4z"/>
			</g>
			<g id="XMLID_41_">
				<path class="st1" d="M59.6,98.4c-1.9,0-3.4-1.5-3.4-3.4c0-1.9,1.5-3.4,3.4-3.4c1.9,0,3.4,1.5,3.4,3.4
					C63.1,96.8,61.5,98.4,59.6,98.4z M59.6,92.1c-1.5,0-2.8,1.2-2.8,2.8c0,1.5,1.2,2.8,2.8,2.8c1.5,0,2.8-1.2,2.8-2.8
					C62.4,93.4,61.2,92.1,59.6,92.1z"/>
			</g>
			<g id="XMLID_35_">
				<path class="st1" d="M98.8,95.1H68.4c-0.2,0-0.4-0.2-0.4-0.4c0-1.9-0.7-3.6-1.9-5c-0.1-0.1-0.1-0.3-0.1-0.4
					c0.1-0.1,0.2-0.2,0.3-0.2h34.3c0.1,0,0.3,0.1,0.3,0.2c0.1,0.1,0,0.3-0.1,0.4c-1.2,1.4-1.8,3.2-1.9,5
					C99.2,94.9,99,95.1,98.8,95.1z M68.8,94.3h29.7c0.1-1.6,0.6-3.2,1.6-4.5H67.2C68.1,91.2,68.7,92.7,68.8,94.3z"/>
			</g>
			<g id="XMLID_33_">
				<path class="st1" d="M51.1,95.1h-5.6c-0.9,0-1.7-0.8-1.7-1.7v-2.6c0-0.9,0.8-1.7,1.7-1.7H53c0.1,0,0.3,0.1,0.3,0.2
					c0.1,0.1,0,0.3-0.1,0.4c-1.2,1.4-1.8,3.2-1.9,5C51.4,94.9,51.3,95.1,51.1,95.1z M45.4,89.8c-0.5,0-0.9,0.4-0.9,0.9v2.6
					c0,0.5,0.4,0.9,0.9,0.9h5.3c0.1-1.6,0.6-3.2,1.6-4.5H45.4z"/>
			</g>
			<g id="XMLID_2_">
				<path class="st1" d="M53,89.8c-0.1,0-0.2,0-0.2-0.1c-0.2-0.1-0.2-0.4,0-0.5c1.7-2.1,4.3-3.2,7-3.2c2.6,0,5.1,1.1,6.9,3.1h25.7
					V57.6c0-1.8-1.4-3.2-3.2-3.2H42.2c-0.2,0-0.4-0.2-0.4-0.4c0-0.2,0.2-0.4,0.4-0.4H89c2.2,0,4,1.8,4,4v31.9c0,0.2-0.2,0.4-0.4,0.4
					H66.4c-0.1,0-0.2,0-0.3-0.1c-1.6-1.9-3.9-3-6.4-3s-4.8,1.1-6.4,3C53.2,89.8,53.1,89.8,53,89.8z"/>
			</g>
		</g>
		<g>
			<circle class="st0" cx="15.4" cy="53.5" r="2.9"/>
		</g>
		<g>
			<path class="st0" d="M21.1,79c0,1-0.8,1.9-1.9,1.9c-1,0-1.9-0.8-1.9-1.9s0.8-1.9,1.9-1.9C20.3,77.1,21.1,78,21.1,79z"/>
		</g>
	</g>
</g>
</svg>
