<svg xmlns="http://www.w3.org/2000/svg" xmlns:xlink="http://www.w3.org/1999/xlink" version="1.1" id="rot-001" x="0px" y="0px" viewBox="0 0 496 496" style="enable-background:new 0 0 496 496;" xml:space="preserve">
<rect x="40" y="40" style="fill:#F4C70E;" width="272" height="144"/>
<g>
	<path style="fill:#333333;" d="M464,328.808V248c0-13.232-10.768-24-24-24s-24,10.768-24,24v168h16v40c0,13.232-10.768,24-24,24   H152c-13.232,0-24-10.768-24-24V336h96v104c0,13.232,10.768,24,24,24h80c13.232,0,24-10.768,24-24v-24h16v-70.528   c9.288,3.312,16,12.112,16,22.528v48h16v-48c0-19.312-13.768-35.472-32-39.192V248c0-10.416-6.712-19.216-16-22.528V0H0v336h112   v120c0,22.056,17.944,40,40,40h256c22.056,0,40-17.944,40-40v-40h16v-70.528c9.288,3.312,16,12.112,16,22.528v48h16v-48   C496,348.688,482.232,332.528,464,328.808z M336,440c0,4.416-3.592,8-8,8h-80c-4.408,0-8-3.584-8-8V336h80v80h16V440z M344,240   c4.408,0,8,3.584,8,8v8h-16v-8C336,243.584,339.592,240,344,240z M336,400V272h16v128H336z M16,16h320v209.472   c-9.288,3.312-16,12.112-16,22.528v72H16V16z M440,240c4.408,0,8,3.584,8,8v8h-16v-8C432,243.584,435.592,240,440,240z M432,400   V272h16v128H432z"/>
	<path style="fill:#333333;" d="M176,64c-84.304,0-110.288,58.368-111.352,60.848l14.688,6.328C80.256,129.096,102.624,80,176,80   s95.744,49.096,96.648,51.152l14.704-6.296C286.288,122.368,260.304,64,176,64z"/>
	<path style="fill:#333333;" d="M189.216,146.424c-4.16-1.472-8.56-2.424-13.216-2.424c-22.056,0-40,17.944-40,40h16   c0-13.232,10.768-24,24-24s24,10.768,24,24h16c0-11.64-5.088-22.048-13.048-29.36l27.912-46.52l-13.72-8.232L189.216,146.424z"/>
	<path style="fill:#333333;" d="M176,208c-26.472,0-48,21.528-48,48s21.528,48,48,48s48-21.528,48-48S202.472,208,176,208z M176,288   c-17.648,0-32-14.352-32-32s14.352-32,32-32s32,14.352,32,32S193.648,288,176,288z"/>
</g>
<g>
	<rect x="336" y="272" style="fill:#F4C70E;" width="16" height="16"/>
	<rect x="432" y="272" style="fill:#F4C70E;" width="16" height="16"/>
</g>
<g>
</g>
<g>
</g>
<g>
</g>
<g>
</g>
<g>
</g>
<g>
</g>
<g>
</g>
<g>
</g>
<g>
</g>
<g>
</g>
<g>
</g>
<g>
</g>
<g>
</g>
<g>
</g>
<g>
</g>
</svg>
