<svg xmlns="http://www.w3.org/2000/svg" xmlns:xlink="http://www.w3.org/1999/xlink" version="1.1" id="rot-002" x="0px" y="0px" viewBox="0 0 496 496" style="enable-background:new 0 0 496 496;" xml:space="preserve">
<g>
	<rect x="16" y="48" style="fill:#F4C70E;" width="464" height="32"/>
	<polygon style="fill:#F4C70E;" points="392,416 104,416 120,448 376,448  "/>
</g>
<path style="fill:#333333;" d="M400,0h-16h-80h-16h-80h-16h-80H96H0v88v8v16c0,13.232,10.768,24,24,24h29.44l124.248,48.632  L109,212.664l0.12,0.296C102.736,209.816,95.584,208,88,208c-26.472,0-48,21.528-48,48s21.528,48,48,48  c9.568,0,18.48-2.848,25.976-7.696L181.832,324l-127.4,52H36.688L0,412.688V456h32.72c3.824,22.664,23.536,40,47.28,40  s43.448-17.336,47.28-40h241.44c3.824,22.664,23.536,40,47.28,40s43.448-17.336,47.28-40H496v-43.312L459.312,376h-9.744l-127.4-52  l67.856-27.696C397.52,301.152,406.432,304,416,304c26.472,0,48-21.528,48-48s-21.528-48-48-48c-7.584,0-14.736,1.816-21.12,4.96  l0.12-0.296l-68.688-28.032L450.56,136H472c13.232,0,24-10.768,24-24V96v-8V0H400z M400,16h80v64h-80V16z M304,16h80v64h-80V16z   M208,16h80v64h-80V16z M112,16h80v64h-80V16z M207.168,136h89.656L252,154.296L207.168,136z M164.832,136l215.52,87.968  c-4.776,5.312-8.392,11.672-10.432,18.712L97.352,136H164.832z M149.88,253.68L252,213.712l102.12,39.968L252,295.36L149.88,253.68z   M230.04,205.12l-95.96,37.56c-2.04-7.04-5.656-13.4-10.432-18.712l75.656-30.88L230.04,205.12z M56,256c0-17.648,14.352-32,32-32  s32,14.352,32,32s-14.352,32-32,32S56,273.648,56,256z M203,332.64L230.832,344l-78.4,32H96.776L203,332.64z M309.232,376H194.768  L252,352.64L309.232,376z M80,480c-17.648,0-32-14.352-32-32s14.352-32,32-32s32,14.352,32,32S97.648,480,80,480z M416,480  c-17.648,0-32-14.352-32-32s14.352-32,32-32s32,14.352,32,32S433.648,480,416,480z M480,419.312V440h-16.72  c-3.824-22.664-23.536-40-47.28-40s-43.448,17.336-47.28,40H127.28c-3.824-22.664-23.536-40-47.28-40s-43.448,17.336-47.28,40H16  v-20.688L43.312,392h409.376L480,419.312z M351.576,376l-224.84-91.768c4.12-5.632,7.056-12.176,8.4-19.288L407.232,376H351.576z   M273.168,304l95.696-39.056c1.344,7.112,4.28,13.656,8.4,19.288L301,315.36L273.168,304z M448,256c0,17.648-14.352,32-32,32  s-32-14.352-32-32s14.352-32,32-32S448,238.352,448,256z M304.816,175.856l-31.648-12.92l66-26.936h67.48L304.816,175.856z M480,112  c0,4.416-3.592,8-8,8H24c-4.408,0-8-3.584-8-8V96h48V80H16V16h80v64H80v16h16h16h80h16h80h16h80h16h80V112z"/>
<g>
	<circle style="fill:#F4C70E;" cx="416" cy="256" r="16"/>
	<circle style="fill:#F4C70E;" cx="88" cy="256" r="16"/>
</g>
<g>
</g>
<g>
</g>
<g>
</g>
<g>
</g>
<g>
</g>
<g>
</g>
<g>
</g>
<g>
</g>
<g>
</g>
<g>
</g>
<g>
</g>
<g>
</g>
<g>
</g>
<g>
</g>
<g>
</g>
</svg>
