<svg xmlns="http://www.w3.org/2000/svg" xmlns:xlink="http://www.w3.org/1999/xlink" version="1.1" id="rot-003" x="0px" y="0px" viewBox="0 0 496 496" style="enable-background:new 0 0 496 496;" xml:space="preserve">
<g>
	<path style="fill:#F4C70E;" d="M192,368h-48V128h64v56h-16V368z"/>
	<path style="fill:#F4C70E;" d="M432,368h-48V184h-16v-56h64V368z"/>
</g>
<g>
	<path style="fill:#333333;" d="M448,152v56h-16v16h16v48h-16v16h16v56h48V152H448z M480,328h-16V168h16V328z"/>
	<path style="fill:#333333;" d="M96,200H48v16H0v64h48v16h48v24h48v-16h-32V192h32v-16H96V200z M16,264v-32h32v32H16z M64,280v-64   h32v64H64z"/>
	<path style="fill:#333333;" d="M344,200c-13.232,0-24,10.768-24,24v32h-16v-32c0-13.232-10.768-24-24-24   c-10.416,0-19.216,6.712-22.528,16H238.52c-3.312-9.288-12.112-16-22.528-16c-13.232,0-24,10.768-24,24v104   c0,13.232,10.768,24,24,24s24-10.768,24-24v-32h16v32c0,13.232,10.768,24,24,24c10.416,0,19.216-6.712,22.528-16h18.952   c3.312,9.288,12.112,16,22.528,16c13.232,0,24-10.768,24-24v-32h16v-16h-16v-48h16v-16h-17.472   C363.216,206.712,354.416,200,344,200z M320,272v48h-16v-48H320z M224,328c0,4.408-3.584,8-8,8s-8-3.592-8-8V224   c0-4.408,3.584-8,8-8s8,3.592,8,8V328z M240,280v-48h16v48H240z M288,328c0,4.408-3.584,8-8,8s-8-3.592-8-8V224   c0-4.408,3.584-8,8-8s8,3.592,8,8V328z M352,328c0,4.408-3.584,8-8,8s-8-3.592-8-8V224c0-4.408,3.584-8,8-8s8,3.592,8,8V328z"/>
</g>
<g>
</g>
<g>
</g>
<g>
</g>
<g>
</g>
<g>
</g>
<g>
</g>
<g>
</g>
<g>
</g>
<g>
</g>
<g>
</g>
<g>
</g>
<g>
</g>
<g>
</g>
<g>
</g>
<g>
</g>
</svg>
