<svg xmlns="http://www.w3.org/2000/svg" xmlns:xlink="http://www.w3.org/1999/xlink" version="1.1" id="rot-004" x="0px" y="0px" viewBox="0 0 496 496" style="enable-background:new 0 0 496 496;" xml:space="preserve">
<polygon style="fill:#F4C70E;" points="144,72 144,147.312 188.688,192 307.312,192 352,147.312 352,72 "/>
<g>
	<path style="fill:#333333;" d="M400,224V0H96v224h112v100.984c0,2.808-1.536,5.44-4.016,6.872   c-14.624,8.472-26.656,21.168-34.336,36.144H168v-16h-16v16h-16v80h16v16h16v-16h1.648c14.976,29.328,45.168,48,78.352,48   c33.176,0,63.384-18.672,78.36-48H328v16h16v-16h16v-80h-16v-16h-16v16h-1.648c-7.68-14.968-19.72-27.68-34.336-36.144   c-2.48-1.432-4.016-4.064-4.016-6.872V224H400z M112,80h93.808C192.472,91.736,184,108.88,184,128c0,35.288,28.712,64,64,64   s64-28.712,64-64c0-19.12-8.472-36.264-21.808-48H352V64H112V48h240V32H112V16h272v16h-16v16h16v16h-16v16h16v128H112V80z M296,128   c0,26.472-21.528,48-48,48s-48-21.528-48-48s21.528-48,48-48C274.472,80,296,101.528,296,128z M284,345.704   c13.224,7.664,23.872,19.56,29.976,33.504l2.096,4.8H344v48h-27.936l-2.096,4.8C302.496,463.04,276.6,480,248,480   s-54.496-16.96-65.968-43.2l-2.096-4.8H152v-48h27.936l2.096-4.8c6.096-13.936,16.744-25.832,29.968-33.504   c7.4-4.28,12-12.216,12-20.72V224h48v100.984C272,333.488,276.6,341.424,284,345.704z"/>
	<path style="fill:#333333;" d="M192,408c0,30.872,25.12,56,56,56s56-25.128,56-56s-25.12-56-56-56S192,377.128,192,408z M288,408   c0,22.056-17.944,40-40,40s-40-17.944-40-40s17.944-40,40-40S288,385.944,288,408z"/>
</g>
<g>
</g>
<g>
</g>
<g>
</g>
<g>
</g>
<g>
</g>
<g>
</g>
<g>
</g>
<g>
</g>
<g>
</g>
<g>
</g>
<g>
</g>
<g>
</g>
<g>
</g>
<g>
</g>
<g>
</g>
</svg>
