<svg xmlns="http://www.w3.org/2000/svg" xmlns:xlink="http://www.w3.org/1999/xlink" version="1.1" id="rot-005" x="0px" y="0px" viewBox="0 0 496 496" style="enable-background:new 0 0 496 496;" xml:space="preserve">
<g>
	<rect x="152" y="360" style="fill:#F4C70E;" width="192" height="96"/>
	<rect x="152" y="136" style="fill:#F4C70E;" width="192" height="96"/>
</g>
<path style="fill:#333333;" d="M360,80V32h-72V0h-80v32h-72v48h96v48h-88v112h40v16h-24v80h24v16h-40v112h64v32h80v-32h64V352h-88  v-16h72v-80h-24v-16h40V128h-40V80H360z M224,16h48v16h-48V16z M152,48h192v16H152V48z M272,480h-48v-16h48V480z M160,448v-16h144  v-16H160v-16h176v16h-16v16h16v16H160z M336,384H160v-16h176V384z M248,352h-48v-16h48V352z M320,320H176v-48h144V320z M296,256h-96  v-16h96V256z M160,224v-16h176v16H160z M336,160H192v16h144v16H160v-16h16v-16h-16v-16h176V160z M296,128h-48V80h48V128z"/>
<g>
</g>
<g>
</g>
<g>
</g>
<g>
</g>
<g>
</g>
<g>
</g>
<g>
</g>
<g>
</g>
<g>
</g>
<g>
</g>
<g>
</g>
<g>
</g>
<g>
</g>
<g>
</g>
<g>
</g>
</svg>
