<svg xmlns="http://www.w3.org/2000/svg" xmlns:xlink="http://www.w3.org/1999/xlink" version="1.1" id="rot-006" x="0px" y="0px" viewBox="0 0 496 496" style="enable-background:new 0 0 496 496;" xml:space="preserve">
<circle style="fill:#F4C70E;" cx="248" cy="136" r="72"/>
<g>
	<path style="fill:#333333;" d="M416,320h-16v-8c0-13.232-10.768-24-24-24h-24v-32h16v-16h-16V86.176   c0-16.584-10.432-31.632-25.952-37.456l-38.456-14.416C284.824,14.936,268.128,0,248,0s-36.824,14.936-39.592,34.304L169.96,48.72   C154.432,54.544,144,69.592,144,86.176V240h-16v16h16v32h-24c-13.232,0-24,10.768-24,24v8H80v16h64v40   c0,10.416,6.712,19.216,16,22.528V496h16v-96h32v56c0,22.056,17.944,40,40,40s40-17.944,40-40v-56h32v96h16v-97.472   c9.288-3.312,16-12.112,16-22.528v-40h64V320z M160,86.176c0-9.952,6.256-18.976,15.576-22.472L224,45.544V40   c0-13.232,10.768-24,24-24s24,10.768,24,24v5.544l48.432,18.168C329.744,67.2,336,76.224,336,86.176V240h-56v-88h8   c13.232,0,24-10.768,24-24s-10.768-24-24-24s-24,10.768-24,24v8h-32v-8c0-13.232-10.768-24-24-24s-24,10.768-24,24s10.768,24,24,24   h8v88h-56V86.176z M216,136h-8c-4.416,0-8-3.592-8-8s3.584-8,8-8s8,3.592,8,8V136z M264,240h-32v-88h32V240z M280,136v-8   c0-4.408,3.584-8,8-8s8,3.592,8,8s-3.584,8-8,8H280z M160,256h176v32H160V256z M272,456c0,13.232-10.768,24-24,24s-24-10.768-24-24   v-56h48V456z M336,376c0,4.416-3.584,8-8,8h-40h-80h-40c-4.416,0-8-3.584-8-8v-40h144v-16H112v-8c0-4.416,3.584-8,8-8h256   c4.416,0,8,3.584,8,8v8h-64v16h16V376z"/>
	<rect x="240" y="448" style="fill:#333333;" width="16" height="16"/>
</g>
<g>
</g>
<g>
</g>
<g>
</g>
<g>
</g>
<g>
</g>
<g>
</g>
<g>
</g>
<g>
</g>
<g>
</g>
<g>
</g>
<g>
</g>
<g>
</g>
<g>
</g>
<g>
</g>
<g>
</g>
</svg>
