<svg xmlns="http://www.w3.org/2000/svg" xmlns:xlink="http://www.w3.org/1999/xlink" version="1.1" id="rot-007" x="0px" y="0px" viewBox="0 0 496 496" style="enable-background:new 0 0 496 496;" xml:space="preserve">
<g>
	<path style="fill:#F4C70E;" d="M125.824,269.824C106.728,250.728,96,224.832,96,197.824C96,141.584,141.584,96,197.824,96   c27.008,0,52.904,10.728,72,29.824L396,252l4-4v-96h-30.832c-3.72-13.128-8.952-25.76-15.616-37.672l21.808-21.816L307.488,24.64   l-21.816,21.808C273.76,39.784,261.128,34.544,248,30.832V0h-96v30.832c-13.128,3.72-25.76,8.952-37.672,15.616L92.512,24.64   L24.64,92.512l21.808,21.816C39.784,126.24,34.544,138.872,30.832,152H0v96h30.832c3.72,13.128,8.952,25.76,15.616,37.672   L24.64,307.48l67.872,67.88l21.816-21.808c11.912,6.664,24.544,11.896,37.672,15.616V400h96l4-4L125.824,269.824z"/>
	<circle style="fill:#F4C70E;" cx="200" cy="200" r="72"/>
	<circle style="fill:#F4C70E;" cx="384" cy="384" r="72"/>
</g>
<g>
	<path style="fill:#333333;" d="M463.832,308.52L275.48,120.168C254.736,99.424,227.16,88,197.824,88   C137.264,88,88,137.264,88,197.824c0,29.336,11.424,56.912,32.168,77.656l188.36,188.36C329.264,484.576,356.84,496,386.176,496   C446.736,496,496,446.736,496,386.176C496,356.84,484.576,329.264,463.832,308.52z M386.176,480   c-25.064,0-48.624-9.76-66.344-27.48L131.48,264.168C113.76,246.448,104,222.88,104,197.824C104,146.088,146.088,104,197.824,104   c25.064,0,48.624,9.76,66.344,27.48l188.36,188.36C470.24,337.552,480,361.12,480,386.176C480,437.912,437.912,480,386.176,480z"/>
	<path style="fill:#333333;" d="M411.464,367.848l12.128-12.128l-11.312-11.312l-12.128,12.128c-2.528-1.488-5.248-2.64-8.152-3.4   V336h-16v17.136c-2.904,0.752-5.632,1.904-8.152,3.4l-12.128-12.128l-11.312,11.312l12.128,12.128   c-1.488,2.528-2.64,5.248-3.4,8.152H336v16h17.136c0.752,2.904,1.904,5.632,3.4,8.152l-12.128,12.128l11.312,11.312l12.128-12.128   c2.528,1.488,5.248,2.64,8.152,3.4V432h16v-17.136c2.904-0.752,5.632-1.904,8.152-3.4l12.128,12.128l11.312-11.312l-12.128-12.128   c1.488-2.528,2.64-5.248,3.4-8.152H432v-16h-17.136C414.112,373.096,412.96,370.368,411.464,367.848z M384,400   c-8.824,0-16-7.176-16-16s7.176-16,16-16s16,7.176,16,16S392.824,400,384,400z"/>
	<path style="fill:#333333;" d="M227.464,183.848l12.128-12.128l-11.312-11.312l-12.128,12.128c-2.528-1.488-5.248-2.64-8.152-3.4   V152h-16v17.136c-2.904,0.752-5.632,1.904-8.152,3.4l-12.128-12.128l-11.312,11.312l12.128,12.128   c-1.488,2.528-2.64,5.248-3.4,8.152H152v16h17.136c0.752,2.904,1.904,5.632,3.4,8.152l-12.128,12.128l11.312,11.312l12.128-12.128   c2.528,1.488,5.248,2.64,8.152,3.4V248h16v-17.136c2.904-0.752,5.632-1.904,8.152-3.4l12.128,12.128l11.312-11.312l-12.128-12.128   c1.488-2.528,2.64-5.248,3.4-8.152H248v-16h-17.136C230.112,189.096,228.96,186.368,227.464,183.848z M200,216   c-8.824,0-16-7.176-16-16s7.176-16,16-16s16,7.176,16,16S208.824,216,200,216z"/>
	<path style="fill:#333333;" d="M200,72c34.104,0,66.184,13.256,90.336,37.32l11.296-11.328C274.464,70.912,238.368,56,200,56   c-66.8,0-124.36,45.288-139.984,110.128l15.544,3.752C89.456,112.248,140.624,72,200,72z"/>
	<path style="fill:#333333;" d="M56,200h16c0-5.064,0.296-10.136,0.872-15.064l-15.888-1.872C56.328,188.616,56,194.312,56,200z"/>
</g>
<g>
</g>
<g>
</g>
<g>
</g>
<g>
</g>
<g>
</g>
<g>
</g>
<g>
</g>
<g>
</g>
<g>
</g>
<g>
</g>
<g>
</g>
<g>
</g>
<g>
</g>
<g>
</g>
<g>
</g>
</svg>
