<svg xmlns="http://www.w3.org/2000/svg" xmlns:xlink="http://www.w3.org/1999/xlink" version="1.1" id="rot-008" x="0px" y="0px" viewBox="0 0 496 496" style="enable-background:new 0 0 496 496;" xml:space="preserve">
<polygon style="fill:#F4C70E;" points="252,360 108,256 108,0 444,0 444,256 300,360 276,344 "/>
<g>
	<path style="fill:#333333;" d="M211.072,158.984l-14.264,14.272l33.936,33.936l14.272-14.264c2.272,1.088,4.6,2.048,6.984,2.888   V216h48v-20.176c2.384-0.84,4.712-1.808,6.984-2.888l14.272,14.264l33.936-33.936l-14.264-14.272   c1.088-2.272,2.048-4.6,2.888-6.984H364v-48h-20.176c-0.84-2.384-1.808-4.712-2.888-6.984L355.2,82.752l-33.936-33.936   L306.992,63.08c-2.28-1.096-4.608-2.056-6.992-2.904V40h-48v20.176c-2.384,0.84-4.712,1.808-6.984,2.888L230.744,48.8   l-33.936,33.936l14.264,14.272c-1.088,2.272-2.048,4.6-2.888,6.984H188v48h20.176C209.024,154.384,209.984,156.712,211.072,158.984   z M204,120h16.288l1.544-6c1.312-5.072,3.32-9.912,5.968-14.392l3.152-5.344l-11.52-11.52l11.312-11.312l11.52,11.52l5.344-3.152   c4.48-2.648,9.32-4.656,14.392-5.968l6-1.544V56h16v16.288l6,1.544c5.072,1.312,9.912,3.32,14.392,5.968l5.344,3.152l11.52-11.52   l11.312,11.312l-11.52,11.52l3.152,5.344c2.648,4.48,4.656,9.32,5.968,14.392l1.544,6H348v16h-16.288l-1.544,6   c-1.312,5.072-3.32,9.912-5.968,14.392l-3.152,5.344l11.52,11.52l-11.312,11.312l-11.52-11.52l-5.344,3.152   c-4.48,2.648-9.32,4.656-14.392,5.968l-6,1.544V200h-16v-16.288l-6-1.544c-5.072-1.312-9.912-3.32-14.392-5.968l-5.344-3.152   l-11.52,11.52l-11.312-11.312l11.52-11.52l-3.152-5.344c-2.648-4.48-4.656-9.32-5.968-14.392l-1.544-6H204V120z"/>
	<path style="fill:#333333;" d="M276,160c17.648,0,32-14.352,32-32s-14.352-32-32-32s-32,14.352-32,32S258.352,160,276,160z    M276,112c8.824,0,16,7.176,16,16s-7.176,16-16,16s-16-7.176-16-16S267.176,112,276,112z"/>
	<rect x="4" y="72" style="fill:#333333;" width="168" height="16"/>
	<rect x="20" y="104" style="fill:#333333;" width="152" height="16"/>
	<rect x="36" y="136" style="fill:#333333;" width="136" height="16"/>
	<path style="fill:#333333;" d="M444,179.832v19.528l26.488,18.536L299.736,349.248L276,332.632l-23.736,16.616L81.512,217.904   L108,199.368V184h64v-16H52v16h50.048L60,213.44V496h432V213.44L444,179.832z M76,233.848l162.528,125.016L76,472.632V233.848z    M93.376,480L276,352.168L458.624,480H93.376z M476,472.632L313.472,358.864L476,233.848V472.632z"/>
</g>
<g>
</g>
<g>
</g>
<g>
</g>
<g>
</g>
<g>
</g>
<g>
</g>
<g>
</g>
<g>
</g>
<g>
</g>
<g>
</g>
<g>
</g>
<g>
</g>
<g>
</g>
<g>
</g>
<g>
</g>
</svg>
