<svg xmlns="http://www.w3.org/2000/svg" xmlns:xlink="http://www.w3.org/1999/xlink" version="1.1" id="rot-010" x="0px" y="0px" viewBox="0 0 496 496" style="enable-background:new 0 0 496 496;" xml:space="preserve">
<g>
	<rect x="352" y="184" style="fill:#333333;" width="16" height="192"/>
	<rect x="352" y="144" style="fill:#333333;" width="16" height="24"/>
	<rect x="304" y="128" style="fill:#333333;" width="16" height="256"/>
	<path style="fill:#333333;" d="M16,112V80h288V64H0v64h16v264H0v64h41.44l8,40h37.112l8-40H304v-16H16v-32h288v-16h-32V128h32v-16   H16z M73.448,480H62.552l-4.8-24H78.24L73.448,480z M176,128h32v264h-32V128z M160,392h-32V128h32V392z M32,128h32v96h16v-96h32   v264H80v-16H64v16H32V128z M256,392h-32V128h32V392z"/>
	<rect x="64" y="88" style="fill:#333333;" width="16" height="16"/>
	<rect x="120" y="88" style="fill:#333333;" width="16" height="16"/>
	<rect x="176" y="88" style="fill:#333333;" width="16" height="16"/>
	<rect x="64" y="288" style="fill:#333333;" width="16" height="72"/>
	<rect x="232" y="88" style="fill:#333333;" width="16" height="16"/>
	<rect x="64" y="248" style="fill:#333333;" width="16" height="16"/>
	<rect x="432" y="248" style="fill:#333333;" width="16" height="16"/>
	<path style="fill:#333333;" d="M496,48V0H384v48h32v16h-32v16h96v32h-96v16h16v88v8v64v8v96h-16v16h96v32h-96v16h17.44l8,40h37.112   l8-40H496v-64h-16V128h16V64h-32V48H496z M433.448,480H422.56l-4.8-24h20.488L433.448,480z M464,280h-48v-48h48V280z M416,392v-96   h48v96H416z M464,216h-48v-88h48V216z M400,16h80v16h-80V16z M448,64h-16V48h16V64z"/>
</g>
<g>
	<path style="fill:#F4C70E;" d="M72,216H16v80h56c22.056,0,40-17.944,40-40S94.056,216,72,216z"/>
	<path style="fill:#F4C70E;" d="M344,152c-30.872,0-56-25.128-56-56s25.128-56,56-56s56,25.128,56,56S374.872,152,344,152z"/>
	<path style="fill:#F4C70E;" d="M344,480c-30.872,0-56-25.128-56-56s25.128-56,56-56s56,25.128,56,56S374.872,480,344,480z"/>
</g>
<g>
	<path style="fill:#333333;" d="M344,72c-13.232,0-24,10.768-24,24s10.768,24,24,24s24-10.768,24-24S357.232,72,344,72z M344,104   c-4.416,0-8-3.592-8-8s3.584-8,8-8s8,3.592,8,8S348.416,104,344,104z"/>
	<path style="fill:#333333;" d="M344,400c-13.232,0-24,10.768-24,24s10.768,24,24,24s24-10.768,24-24S357.232,400,344,400z M344,432   c-4.416,0-8-3.584-8-8s3.584-8,8-8s8,3.584,8,8S348.416,432,344,432z"/>
</g>
<g>
</g>
<g>
</g>
<g>
</g>
<g>
</g>
<g>
</g>
<g>
</g>
<g>
</g>
<g>
</g>
<g>
</g>
<g>
</g>
<g>
</g>
<g>
</g>
<g>
</g>
<g>
</g>
<g>
</g>
</svg>
