<svg xmlns="http://www.w3.org/2000/svg" xmlns:xlink="http://www.w3.org/1999/xlink" version="1.1" id="rot-011" x="0px" y="0px" viewBox="0 0 496 496" style="enable-background:new 0 0 496 496;" xml:space="preserve">
<g>
	<rect x="352" y="416" style="fill:#333333;" width="24" height="16"/>
	<rect x="144" y="448" style="fill:#333333;" width="232" height="16"/>
	<rect x="184" y="416" style="fill:#333333;" width="152" height="16"/>
	<rect x="144" y="416" style="fill:#333333;" width="24" height="16"/>
	<path style="fill:#333333;" d="M440,306.368v-43.392l-24,2.912V256h32v-32c0-13.232-10.768-24-24-24   c-4.28,0-8.296,1.128-11.776,3.088C407.96,196.424,400.488,192,392,192s-15.96,4.424-20.224,11.088   C368.296,201.128,364.28,200,360,200c-13.232,0-24,10.768-24,24v32h32v15.696l-193.008,23.392l-104.92-272.8   C64.944,8.96,51.896,0,37.616,0h-2.848C15.6,0,0,15.6,0,34.768c0,4.512,0.856,8.912,2.56,13.088l96.648,237.912   C79.816,281.992,60.056,280,40,280h-8v48h8c8.048,0,16.048,0.392,24,1.064V448h16V330.832c18.256,2.6,36.2,7.016,53.696,13.168H88   v48h96v-33.472c8.568-3.056,14.824-10.792,15.76-20.152l49.424,13.304l0.032,0.224l0.512-0.08L397.92,391.72L400,384h8v-24.32   l16-2.528V376h16v-21.376l24-3.792v-48.16L440,306.368z M424,308.832l-64,9.848v-29.888l64-7.76V308.832z M352,224   c0-4.408,3.592-8,8-8s8,3.592,8,8h16v-8c0-4.408,3.592-8,8-8s8,3.592,8,8v8h16c0-4.408,3.592-8,8-8s8,3.592,8,8v16h-80V224z    M384,256h16v11.824l-16,1.936V256z M344,290.728v30.416l-93.36,14.36l-56.56-15.224l-0.024,0.088   c-3.176-3.664-7.4-6.352-12.256-7.568l-0.88-2.296L344,290.728z M16,34.768C16,24.424,24.424,16,34.768,16h2.84   c7.712,0,14.752,4.832,17.52,12.032L71.432,70.4L35.28,85.896L17.376,41.832C16.464,39.576,16,37.2,16,34.768z M41.304,100.72   l35.88-15.376L161.664,305c-14.2-6.072-28.688-11.088-43.44-14.952L41.304,100.72z M48,296.104   c37.96,1.016,74.808,9.288,109.696,24.552c-3.064,3.648-5.032,8.192-5.48,13.208l-1.248-0.496   C118,320.176,83.392,313.04,48,312.104V296.104z M168,376h-64v-16h64V376z M176,344c-4.408,0-8-3.592-8-8s3.592-8,8-8s8,3.592,8,8   S180.408,344,176,344z M392,373.56l-26.584-7.16L392,362.208V373.56z M448,337.168L327.488,356.2l-38.592-10.392L448,321.328   V337.168z"/>
</g>
<path style="fill:#F4C70E;" d="M432,496c-35.288,0-64-28.712-64-64s28.712-64,64-64s64,28.712,64,64S467.288,496,432,496z"/>
<path style="fill:#333333;" d="M432,400c-17.648,0-32,14.352-32,32s14.352,32,32,32s32-14.352,32-32S449.648,400,432,400z M432,448  c-8.824,0-16-7.176-16-16s7.176-16,16-16s16,7.176,16,16S440.824,448,432,448z"/>
<path style="fill:#F4C70E;" d="M112,496c-26.472,0-48-21.528-48-48s21.528-48,48-48s48,21.528,48,48S138.472,496,112,496z"/>
<rect x="104" y="440" style="fill:#333333;" width="16" height="16"/>
<g>
</g>
<g>
</g>
<g>
</g>
<g>
</g>
<g>
</g>
<g>
</g>
<g>
</g>
<g>
</g>
<g>
</g>
<g>
</g>
<g>
</g>
<g>
</g>
<g>
</g>
<g>
</g>
<g>
</g>
</svg>
