<svg xmlns="http://www.w3.org/2000/svg" xmlns:xlink="http://www.w3.org/1999/xlink" version="1.1" id="rot-012" x="0px" y="0px" viewBox="0 0 496 496" style="enable-background:new 0 0 496 496;" xml:space="preserve">
<g>
	<path style="fill:#F4C70E;" d="M176,360c-17.648,0-32-14.352-32-32s14.352-32,32-32s32,14.352,32,32S193.648,360,176,360z"/>
	<path style="fill:#F4C70E;" d="M416,360c-17.648,0-32-14.352-32-32s14.352-32,32-32s32,14.352,32,32S433.648,360,416,360z"/>
</g>
<g>
	<path style="fill:#333333;" d="M472,224h-38.936l-5.624-44.96c-2.488-19.976-19.56-35.04-39.688-35.04H204.248   c-20.136,0-37.2,15.064-39.688,35.04L160.936,208H136v-16h-16v16h-16v16h56v16H16v-16h72v-16H56v-40H40v40H0v48h56v32   c0,17.648,14.352,32,32,32s32-14.352,32-32v-32h34.936l-2.088,16.72C134.208,276.112,120,292.392,120,312v104   c0,8.824,7.176,16,16,16v40c0,13.232,10.768,24,24,24h32c13.232,0,24-10.768,24-24v-40h160v40c0,13.232,10.768,24,24,24h32   c13.232,0,24-10.768,24-24v-40c8.824,0,16-7.176,16-16V312c0-2.736-0.28-5.416-0.808-8H472c13.232,0,24-10.768,24-24v-32   C496,234.768,485.232,224,472,224z M88,304c-8.824,0-16-7.176-16-16h32C104,296.824,96.824,304,88,304z M104,272H72v-16h32V272z    M176,256v-39.504l4.432-35.472C181.928,169.04,192.168,160,204.248,160h183.504c12.08,0,22.32,9.04,23.816,21.024L422.936,272   h-16.12l-12-96H197.192l-12,96h-16.12l2-16H176z M201.312,272l10.008-80h169.368l10.008,80H201.312z M364.896,288l-18.664,56   H245.76l-18.664-56H364.896z M200,472c0,4.408-3.592,8-8,8h-8v-32h-16v32h-8c-4.408,0-8-3.592-8-8v-40h48V472z M440,472   c0,4.408-3.592,8-8,8h-8v-32h-16v32h-8c-4.408,0-8-3.592-8-8v-40h48V472z M136,416.008V400h288v-16H136v-72   c0-13.232,10.768-24,24-24h50.232l24,72H357.76l24-72H432c13.232,0,24,10.768,24,24v72h-16v16h16v16L136,416.008z M480,280   c0,4.408-3.592,8-8,8h-8.208c-5.936-7.84-14.6-13.448-24.64-15.28L435.064,240H472c4.408,0,8,3.592,8,8V280z"/>
	
		<rect x="263.999" y="198.067" transform="matrix(-0.7071 0.7071 -0.7071 -0.7071 628.3846 203.7282)" style="fill:#333333;" width="16" height="67.879"/>
	<rect x="120" y="128" style="fill:#333333;" width="16" height="32"/>
	<rect x="40" y="112" style="fill:#333333;" width="16" height="24"/>
	
		<rect x="311.996" y="198.07" transform="matrix(-0.7071 0.7071 -0.7071 -0.7071 710.3226 169.7948)" style="fill:#333333;" width="16" height="67.879"/>
</g>
<g>
	<path style="fill:#F4C70E;" d="M33.824,114.696l96.952,24.248c1.904,0.48,3.832,0.712,5.752,0.712c5.176,0,10.232-1.72,14.432-5   c5.752-4.496,9.048-11.248,9.048-18.536c0-10.816-7.328-20.192-17.824-22.816L45.232,69.056c-7.064-1.776-14.432-0.2-20.176,4.288   S16,84.592,16,91.88C16,102.696,23.328,112.08,33.824,114.696z"/>
	<path style="fill:#F4C70E;" d="M142.176,152.952l-96.952-24.248c-7.064-1.776-14.432-0.2-20.176,4.288S16,144.24,16,151.528   c0,10.816,7.328,20.192,17.824,22.816l96.952,24.248c1.904,0.48,3.832,0.712,5.752,0.712c5.176,0,10.232-1.72,14.432-5   c5.752-4.496,9.048-11.248,9.048-18.536C160,164.952,152.672,155.568,142.176,152.952z"/>
</g>
<path style="fill:#333333;" d="M120,87.76l16,4V80h40V32h-40V16c0-8.824-7.176-16-16-16H56c-8.824,0-16,7.176-16,16v16H0v48h120  V87.76z M56,16h64v16H56V16z M16,48h144v16H16V48z"/>
<g>
</g>
<g>
</g>
<g>
</g>
<g>
</g>
<g>
</g>
<g>
</g>
<g>
</g>
<g>
</g>
<g>
</g>
<g>
</g>
<g>
</g>
<g>
</g>
<g>
</g>
<g>
</g>
<g>
</g>
</svg>
