<svg xmlns="http://www.w3.org/2000/svg" xmlns:xlink="http://www.w3.org/1999/xlink" version="1.1" id="rot-013" x="0px" y="0px" viewBox="0 0 496 496" style="enable-background:new 0 0 496 496;" xml:space="preserve">
<g>
	<rect x="160" y="376" style="fill:#F4C70E;" width="32" height="32"/>
	<rect x="160" y="456" style="fill:#F4C70E;" width="32" height="32"/>
	<path style="fill:#F4C70E;" d="M320,352c0-17.672-14.328-32-32-32s-32,14.328-32,32c0,11.816,6.472,22.016,16,27.56V408h32v-28.44   C313.528,374.016,320,363.816,320,352z"/>
	<rect x="272" y="456" style="fill:#F4C70E;" width="32" height="24"/>
</g>
<g>
	<rect x="280" y="168" style="fill:#333333;" width="16" height="16"/>
	<rect x="168" y="168" style="fill:#333333;" width="16" height="16"/>
	<path style="fill:#333333;" d="M232,224c-8.824,0-16-7.176-16-16h-16c0,17.648,14.352,32,32,32s32-14.352,32-32h-16   C248,216.824,240.824,224,232,224z"/>
	<path style="fill:#333333;" d="M404,72h-68.408C331.568,31.632,297.408,0,256,0h-48c-44.112,0-80,35.888-80,80v88   c0,37.064,19.56,69.576,48.832,88H176v8.76l-51.952,5.192c-15.28,1.528-29.664,8.352-40.512,19.2   C70.936,301.752,64,318.496,64,336.304V440c0,13.232,10.768,24,24,24h16v32h256v-32h16c13.232,0,24-10.768,24-24V336.304   c0-17.816-6.936-34.552-19.528-47.152c-10.848-10.848-25.232-17.672-40.512-19.2L288,264.76V256h-0.832   C316.44,237.576,336,205.064,336,168v-40h68c15.44,0,28-12.56,28-28S419.44,72,404,72z M256,112h-48v-8c0-4.416,3.584-8,8-8h32   c4.416,0,8,3.584,8,8V112z M213.12,128c-12.68,10.176-28.616,16-45.12,16h-24v-16H213.12z M224,271.592v11.872l-26.384,15.824   L192,271.208v-7.232C201.976,268.152,212.744,270.728,224,271.592z M94.84,300.472c8.248-8.248,19.184-13.432,30.8-14.592   l51.936-5.192l8.8,44.016L224,302.128V432v48h-24v-17.136c13.768-3.576,24-15.992,24-30.864s-10.232-27.288-24-30.864v-12.952   c9.768-5.264,16-15.416,16-26.816c0-8.176-3.184-15.872-8.968-21.656l-9.376-9.376l-11.312,11.312l9.376,9.376   c2.72,2.728,4.28,6.496,4.28,10.352c0,6.4-4.168,11.968-10.352,13.872L184,376.992V400h-16v-23.008l-5.648-1.744   c-6.184-1.904-10.352-7.472-10.352-13.872c0-3.848,1.56-7.624,4.28-10.344l9.376-9.376l-11.312-11.312l-9.376,9.376   c-5.784,5.784-8.968,13.472-8.968,21.656c0,11.4,6.232,21.544,16,26.816V400h-16v-38.624V360h-16v16H80v-39.696   C80,322.768,85.272,310.04,94.84,300.472z M184,464v16h-16v-16H184z M80,440v-48h40v24h72c8.824,0,16,7.176,16,16s-7.176,16-16,16   H88C83.584,448,80,444.416,80,440z M120,464h32v16h-32V464z M376,448H272c-8.824,0-16-7.176-16-16s7.176-16,16-16h72v-24h40v48   C384,444.416,380.416,448,376,448z M338.36,285.872c11.608,1.168,22.544,6.344,30.8,14.592c9.568,9.576,14.84,22.304,14.84,35.84   V376h-40v-16h-16v40h-56c-17.648,0-32,14.352-32,32s14.352,32,32,32h72v16H240v-48V302.128l37.616,22.576l8.8-44.016   L338.36,285.872z M272,271.208l-5.616,28.088L240,283.472V271.6c11.256-0.864,22.024-3.448,32-7.616V271.208z M232,256   c-48.52,0-88-39.48-88-88v-8h24c24.232,0,47.496-10.192,64-27.64c16.504,17.448,39.768,27.64,64,27.64h24v8   C320,216.52,280.52,256,232,256z M320,144h-24c-16.504,0-32.44-5.824-45.12-16H288v-16h-16v-8c0-13.232-10.768-24-24-24h-32   c-13.232,0-24,10.768-24,24v8h-48V80c0-35.288,28.712-64,64-64h48c35.288,0,64,28.712,64,64v32h-16v16h16V144z M404,112h-68V88h68   c6.616,0,12,5.384,12,12S410.616,112,404,112z"/>
	<rect x="280" y="344" style="fill:#333333;" width="16" height="16"/>
</g>
<g>
</g>
<g>
</g>
<g>
</g>
<g>
</g>
<g>
</g>
<g>
</g>
<g>
</g>
<g>
</g>
<g>
</g>
<g>
</g>
<g>
</g>
<g>
</g>
<g>
</g>
<g>
</g>
<g>
</g>
</svg>
