<svg xmlns="http://www.w3.org/2000/svg" xmlns:xlink="http://www.w3.org/1999/xlink" version="1.1" id="rot-014" x="0px" y="0px" viewBox="0 0 496 496" style="enable-background:new 0 0 496 496;" xml:space="preserve">
<rect x="8" y="296" style="fill:#F4C70E;" width="224" height="144"/>
<g>
	<path style="fill:#333333;" d="M496,128C496,57.424,438.576,0,368,0S240,57.424,240,128c0,52.24,31.944,99.128,80,118.592V368   c0,13.232,10.768,24,24,24v48h16v56h16v-56h16v-48c13.232,0,24-10.768,24-24V246.592C464.048,227.128,496,180.232,496,128z    M435.696,152c-4.008,11.264-10.752,21.384-19.696,29.448V152H435.696z M296,128c0-2.704,0.176-5.368,0.472-8h143.056   c0.296,2.632,0.472,5.296,0.472,8c0,2.696-0.24,5.352-0.536,8H296.536C296.24,133.352,296,130.696,296,128z M300.2,104   c9.92-27.92,36.52-48,67.8-48s57.88,20.08,67.8,48H300.2z M320,152v29.456c-8.944-8.064-15.688-18.192-19.696-29.456H320z M376,424   h-16v-32h16V424z M392,376h-48c-4.408,0-8-3.592-8-8V152h64v216C400,372.408,396.408,376,392,376z M416,229.144v-27.6   c24.712-16.184,40-43.848,40-73.544c0-48.52-39.48-88-88-88s-88,39.48-88,88c0,29.704,15.288,57.368,40,73.544v27.6   c-38.688-18.376-64-57.64-64-101.144c0-61.76,50.24-112,112-112s112,50.24,112,112C480,171.496,454.688,210.768,416,229.144z"/>
	<path style="fill:#333333;" d="M230.248,120H224V64c0-13.232-10.768-24-24-24h-48c-13.232,0-24,10.768-24,24v56h-8v67.608   L43.704,236.16c-5.808,3.688-11.208,8.024-16.064,12.888C9.816,266.872,0,290.568,0,315.776V456c0,22.056,17.944,40,40,40h160   c22.056,0,40-17.944,40-40V290.384c10.472-16.408,16-35.32,16-54.824c0-8.328-1.024-16.648-3.04-24.72L230.248,120z M215.712,152   H168v16h44.792c-1.768,5.648-4.24,11.016-7.368,16H136v-16h16v-16h-16v-16h80v11.752C216,149.184,215.808,150.584,215.712,152z    M208,64v24h-8V56C204.408,56,208,59.592,208,64z M168,88V56h16v32H168z M152,56v32h-8V64C144,59.592,147.592,56,152,56z M144,104   h64v16h-64V104z M130.328,200h61.12c-3.072,2.576-6.296,4.984-9.832,7.008c-10.296,5.88-22.008,8.992-33.864,8.992h-42.56   L130.328,200z M225.344,283.56L224,285.576V456c0,13.232-10.768,24-24,24H40c-13.232,0-24-10.768-24-24V315.776   c0-20.936,8.152-40.616,22.952-55.416c4.032-4.032,8.52-7.632,13.344-10.696L80.048,232h67.704c14.64,0,29.096-3.84,41.8-11.104   c18.128-10.36,31.336-27.048,37.848-46.304l10.032,40.128c1.704,6.808,2.568,13.824,2.568,20.84   C240,252.584,235.008,269.064,225.344,283.56z"/>
	<path style="fill:#333333;" d="M120,356.688l-10.344,10.344C100.848,375.832,96,387.544,96,400c0,13.232,10.768,24,24,24   s24-10.768,24-24c0-12.456-4.848-24.168-13.656-32.968L120,356.688z M120,408c-4.408,0-8-3.592-8-8c0-7.712,2.832-14.992,8-20.64   c5.168,5.656,8,12.928,8,20.64C128,404.408,124.408,408,120,408z"/>
	<rect x="80" y="320" style="fill:#333333;" width="80" height="16"/>
	<rect x="80" y="352" style="fill:#333333;" width="16" height="16"/>
	<rect x="144" y="352" style="fill:#333333;" width="16" height="16"/>
</g>
<g>
	<rect x="336" y="168" style="fill:#F4C70E;" width="64" height="16"/>
	<rect x="336" y="200" style="fill:#F4C70E;" width="64" height="16"/>
</g>
<g>
</g>
<g>
</g>
<g>
</g>
<g>
</g>
<g>
</g>
<g>
</g>
<g>
</g>
<g>
</g>
<g>
</g>
<g>
</g>
<g>
</g>
<g>
</g>
<g>
</g>
<g>
</g>
<g>
</g>
</svg>
