<svg xmlns="http://www.w3.org/2000/svg" xmlns:xlink="http://www.w3.org/1999/xlink" version="1.1" id="rot-015" x="0px" y="0px" viewBox="0 0 496 496" style="enable-background:new 0 0 496 496;" xml:space="preserve">
<path style="fill:#F4C70E;" d="M329.968,384c-0.44-1.112-0.896-2.216-1.392-3.328l21.24-21.24l-45.248-45.248l-21.24,21.24  c-1.112-0.496-2.216-0.952-3.328-1.392V304h-64v30.032c-1.112,0.44-2.216,0.896-3.328,1.392l-21.24-21.24l-45.248,45.248  l21.24,21.24c-0.496,1.112-0.952,2.216-1.392,3.328H136v39.232C168.336,443.944,206.752,456,248,456c-22.088,0-40-17.912-40-40  s17.912-40,40-40s40,17.912,40,40s-17.912,40-40,40c41.248,0,79.664-12.056,112-32.768V384H329.968z"/>
<g>
	<path style="fill:#333333;" d="M248,0C111.248,0,0,111.256,0,248s111.248,248,248,248s248-111.256,248-248S384.752,0,248,0z    M248,480C120.08,480,16,375.928,16,248S120.08,16,248,16s232,104.072,232,232S375.92,480,248,480z"/>
	<path style="fill:#333333;" d="M248,32c-36.808,0-71.488,9.28-101.848,25.584c-0.064-0.008-0.128-0.032-0.184-0.04l-0.024,0.152   C78.176,94.184,32,165.792,32,248c0,119.104,96.896,216,216,216s216-96.896,216-216S367.104,32,248,32z M447.936,250.64   C434.616,278.216,406.584,296,376,296c-44.112,0-80-35.888-80-80s35.888-80,80-80c17.064,0,33.304,5.392,47.12,15.528   C438.96,180.152,448,213.032,448,248C448,248.888,447.944,249.76,447.936,250.64z M444.944,282.584   c-1.544,8.84-3.64,17.488-6.312,25.888l-7.952-13.768C435.8,291.144,440.584,287.096,444.944,282.584z M189.2,56.832   C225.528,78.432,248,117.6,248,160c0,66.168-53.832,120-120,120c-29.704,0-57.928-10.928-79.968-30.672   c0-0.448-0.032-0.88-0.032-1.328c0-6.872,0.352-13.664,1.032-20.352C68.544,250.464,97.152,264,128,264   c57.344,0,104-46.656,104-104c0-42.528-25.528-79.624-63.184-95.616C175.432,61.512,182.232,58.984,189.2,56.832z M215.592,168   c-1.656,18.264-8.888,34.928-20.008,48.272L149.6,170.288c0.352-0.744,0.656-1.504,0.928-2.28H168v-16h-17.472   c-0.28-0.784-0.576-1.544-0.928-2.28l46.072-46.072c11.152,13.408,18.336,30.136,19.976,48.352H184v16h31.592V168z M128,152   c4.416,0,8,3.592,8,8s-3.584,8-8,8s-8-3.592-8-8S123.584,152,128,152z M117.72,181.592c0.744,0.352,1.504,0.648,2.28,0.928v64.928   c-17.984-1.632-34.736-8.584-48.28-19.864L117.72,181.592z M136,182.528c0.784-0.28,1.544-0.576,2.28-0.928l45.984,45.984   c-13.336,11.128-30.008,18.352-48.272,20.008v-65.064H136z M138.28,138.408c-0.744-0.352-1.504-0.656-2.28-0.928V82.392   c4.112-2.792,8.36-5.384,12.68-7.872c13.432,3.224,25.552,9.392,35.672,17.816L138.28,138.408z M105.472,152H72.6   c4.208-7.664,8.92-15.008,14.064-22.016L106.4,149.72C106.048,150.456,105.752,151.216,105.472,152z M105.472,168   c0.28,0.784,0.576,1.544,0.928,2.28l-45.904,45.904c-2.872-3.448-5.48-7.128-7.832-11.04c2.824-12.888,6.888-25.312,12.08-37.144   H105.472z M120,94.464v43.008c-0.784,0.28-1.544,0.576-2.28,0.928l-21-21C103.856,109.152,111.624,101.464,120,94.464z    M284.352,444.632l-11.2-8.832c-6.12,7.752-15.288,12.2-25.152,12.2c-17.648,0-32-14.352-32-32s14.352-32,32-32s32,14.352,32,32   c0,2.936-0.4,5.848-1.176,8.656l15.408,4.304c1.176-4.208,1.768-8.568,1.768-12.96c0-26.472-21.528-48-48-48s-48,21.528-48,48   c0,10.544,3.456,20.272,9.24,28.2c-84.504-16.664-150.024-86.712-159.904-173.424C72.216,287.064,99.488,296,128,296   c74.992,0,136-61.008,136-136c0-42.872-20.248-82.856-53.848-108.36C222.416,49.28,235.056,48,248,48   c63.744,0,120.568,30.008,157.216,76.6c-6.856-2.208-13.952-3.664-21.216-4.264V104h-16v16.408   c-11.672,0.968-22.728,4.064-32.848,8.848l-8.224-14.248l-13.856,8l8.208,14.224c-9.376,6.528-17.52,14.68-24.056,24.056   l-14.216-8.208l-8,13.856l14.24,8.224c-4.784,10.12-7.872,21.176-8.848,32.848H264v16h16.408   c0.968,11.672,4.064,22.728,8.848,32.848l-14.24,8.224l8,13.856l14.216-8.208c6.528,9.376,14.68,17.52,24.056,24.056l-8.208,14.224   l13.856,8l8.224-14.248c10.12,4.784,21.176,7.872,32.848,8.848V328h16v-16.368c11.52-0.976,22.624-4.032,32.848-8.872L425.08,317   l13.272-7.656C416.008,378.472,357,431.224,284.352,444.632z"/>
	<path style="fill:#333333;" d="M376,160c-30.872,0-56,25.12-56,56s25.128,56,56,56c14.968,0,29.032-5.824,39.592-16.408   l-11.312-11.304C396.736,251.84,386.688,256,376,256c-22.056,0-40-17.944-40-40s17.944-40,40-40s40,17.944,40,40   c0,6.56-1.624,13.064-4.688,18.808l14.112,7.536C429.728,234.288,432,225.176,432,216C432,185.12,406.872,160,376,160z"/>
</g>
<g>
</g>
<g>
</g>
<g>
</g>
<g>
</g>
<g>
</g>
<g>
</g>
<g>
</g>
<g>
</g>
<g>
</g>
<g>
</g>
<g>
</g>
<g>
</g>
<g>
</g>
<g>
</g>
<g>
</g>
</svg>
