<svg xmlns="http://www.w3.org/2000/svg" xmlns:xlink="http://www.w3.org/1999/xlink" version="1.1" id="rot-016" x="0px" y="0px" viewBox="0 0 496 496" style="enable-background:new 0 0 496 496;" xml:space="preserve">
<g>
	<path style="fill:#F4C70E;" d="M176,152c-17.648,0-32,14.352-32,32c0,2.728,0.456,5.392,1.128,8H152c8.84,0,16,7.16,16,16v6.864   c2.608,0.68,5.272,1.136,8,1.136c17.648,0,32-14.352,32-32S193.648,152,176,152z"/>
	<path style="fill:#F4C70E;" d="M416,216c-17.648,0-32-14.352-32-32s14.352-32,32-32s32,14.352,32,32S433.648,216,416,216z"/>
	<rect x="8" y="224" style="fill:#F4C70E;" width="160" height="40"/>
</g>
<g>
	<path style="fill:#333333;" d="M472,80h-38.944l-5.616-44.96C424.944,15.064,407.88,0,387.752,0H204.248   c-20.136,0-37.192,15.064-39.688,35.04L158.944,80H120c-13.232,0-24,10.768-24,24v32c0,13.232,10.768,24,24,24h0.808   c-0.528,2.584-0.808,5.264-0.808,8v16H24c-13.232,0-24,10.768-24,24v112h20.28l16-24H64v110.472   C51.592,413.64,43.136,425.984,40.752,440H24v16h16.72c3.824,22.664,23.536,40,47.28,40s43.448-17.336,47.28-40H152v-16h-16.752   c-2.384-14.016-10.832-26.36-23.248-33.528V296h24v32c0,13.232,10.768,24,24,24h32c13.232,0,24-10.768,24-24v-40h160v40   c0,13.232,10.768,24,24,24h32c13.232,0,24-10.768,24-24v-40c8.824,0,16-7.176,16-16V168c0-2.736-0.28-5.416-0.808-8H472   c13.232,0,24-10.768,24-24v-32C496,90.768,485.232,80,472,80z M180.44,37.024C181.936,25.04,192.168,16,204.248,16h183.504   c12.08,0,22.312,9.04,23.816,21.024L422.936,128h-16.12l-12-96H197.184l-12,96h-16.12L180.44,37.024z M201.312,128l10.008-80   h169.376l10.008,80H201.312z M364.904,144l-18.672,56H245.768l-18.672-56H364.904z M120,144c-4.416,0-8-3.592-8-8v-32   c0-4.408,3.584-8,8-8h36.936l-4.088,32.72c-10.048,1.824-18.712,7.44-24.64,15.28H120z M24,200h128c4.416,0,8,3.592,8,8v8H16v-8   C16,203.592,19.584,200,24,200z M27.72,280L16,297.576V264h112v-16H16v-16h144v16h-16v16h16v33.576L148.28,280H27.72z    M100.792,418.704C112.464,423.816,120,435.312,120,448c0,17.648-14.352,32-32,32s-32-14.352-32-32   c0-12.688,7.536-24.184,19.208-29.296L80,416.608V296h16v120.608L100.792,418.704z M200,328c0,4.408-3.584,8-8,8h-32   c-4.416,0-8-3.592-8-8v-13.576l3.72,5.576H176v-32h24V328z M440,328c0,4.408-3.584,8-8,8h-32c-4.416,0-8-3.592-8-8v-40h48V328z    M176,272v-16h248v-16H176v-32c0-13.232-10.768-24-24-24h-16v-16c0-13.232,10.768-24,24-24h50.24l24,72h123.528l24-72H432   c13.232,0,24,10.768,24,24v72h-16v16h16v16H176z M480,136c0,4.408-3.584,8-8,8h-8.208c-5.936-7.84-14.6-13.448-24.64-15.28   L435.064,96H472c4.416,0,8,3.592,8,8V136z"/>
	
		<rect x="263.995" y="54.031" transform="matrix(-0.7071 0.7071 -0.7071 -0.7071 526.5289 -42.1538)" style="fill:#333333;" width="16" height="67.879"/>
	
		<rect x="311.992" y="54.058" transform="matrix(-0.7071 0.7071 -0.7071 -0.7071 608.4838 -76.0462)" style="fill:#333333;" width="16" height="67.879"/>
	<path style="fill:#333333;" d="M64,448c0,13.232,10.768,24,24,24s24-10.768,24-24s-10.768-24-24-24S64,434.768,64,448z M96,448   c0,4.408-3.584,8-8,8s-8-3.592-8-8s3.584-8,8-8S96,443.592,96,448z"/>
</g>
<g>
</g>
<g>
</g>
<g>
</g>
<g>
</g>
<g>
</g>
<g>
</g>
<g>
</g>
<g>
</g>
<g>
</g>
<g>
</g>
<g>
</g>
<g>
</g>
<g>
</g>
<g>
</g>
<g>
</g>
</svg>
