<svg xmlns="http://www.w3.org/2000/svg" xmlns:xlink="http://www.w3.org/1999/xlink" version="1.1" id="rot-017" x="0px" y="0px" viewBox="0 0 496 496" style="enable-background:new 0 0 496 496;" xml:space="preserve">
<rect x="32" y="224" style="fill:#F4C70E;" width="160" height="240"/>
<g>
	<path style="fill:#333333;" d="M496,306.384c0-24.008-12.784-46.584-33.368-58.928c-7.896-4.736-16.52-7.8-25.64-9.112L400,233.064   v-1.904c32.992-15.208,56-48.504,56-87.16V80c0-44.112-35.888-80-80-80h-32c-41.416,0-75.568,31.632-79.592,72H224   c-13.232,0-24,10.768-24,24s10.768,24,24,24h40v24c0,38.648,23.008,71.952,56,87.16v1.904l-36.992,5.28   c-4.024,0.576-7.968,1.504-11.8,2.768C268.048,226.776,255.272,216,240,216c-5.856,0-11.272,1.696-16,4.448V192h-56h-8h-8.808   c-3.712-18.232-19.88-32-39.192-32s-35.48,13.768-39.192,32H64h-8H0v304h224v-24l16,21.336l32-42.672V360h224V306.384z    M408,250.368v24.688l-26.496-13.248l13.32-13.32L408,250.368z M336.208,236.896C343.832,238.848,351.776,240,360,240   s16.168-1.152,23.792-3.104L360,260.688L336.208,236.896z M344,16h32c35.288,0,64,28.712,64,64v24h-40v-8c0-13.232-10.768-24-24-24   h-32c-13.232,0-24,10.768-24,24v8h-40V80C280,44.712,308.712,16,344,16z M384,104h-48v-8c0-4.416,3.592-8,8-8h32   c4.408,0,8,3.584,8,8V104z M224,104c-4.408,0-8-3.584-8-8s3.592-8,8-8h40v16H224z M280,144v-24h160v24c0,44.112-35.888,80-80,80   S280,188.112,280,144z M325.176,248.488l13.32,13.32L312,275.056v-24.688L325.176,248.488z M256,296h-32v-16h32V296z M224,312h32   v112h-32V312z M240,232c8.824,0,16,7.176,16,16v16h-32v-16C224,239.176,231.176,232,240,232z M72,208h16v-8   c0-13.232,10.768-24,24-24s24,10.768,24,24v8h16v16H72V208z M208,480H16V208h40v32h112v-32h40V480z M240,466.664l-16-21.328V440h32   v5.336L240,466.664z M272,258.12c4.256-1.832,8.656-3.272,13.272-3.928L296,252.656v48.288l54.424-27.208l1.576,1.576V344h-80   V258.12z M480,344h-32v-48h-16v48h-64v-68.688l1.576-1.576L424,300.944v-48.288l10.72,1.536c7,1,13.624,3.352,19.68,6.984   c15.792,9.472,25.6,26.792,25.6,45.208V344z"/>
	<rect x="392" y="144" style="fill:#333333;" width="16" height="16"/>
	<rect x="312" y="144" style="fill:#333333;" width="16" height="16"/>
	<rect x="344" y="192" style="fill:#333333;" width="32" height="16"/>
	<rect x="64" y="256" style="fill:#333333;" width="96" height="16"/>
	<rect x="64" y="320" style="fill:#333333;" width="96" height="16"/>
	<rect x="64" y="352" style="fill:#333333;" width="96" height="16"/>
	<rect x="64" y="288" style="fill:#333333;" width="64" height="16"/>
	<rect x="144" y="288" style="fill:#333333;" width="16" height="16"/>
	<rect x="64" y="384" style="fill:#333333;" width="64" height="16"/>
	<rect x="144" y="384" style="fill:#333333;" width="16" height="16"/>
</g>
<g>
</g>
<g>
</g>
<g>
</g>
<g>
</g>
<g>
</g>
<g>
</g>
<g>
</g>
<g>
</g>
<g>
</g>
<g>
</g>
<g>
</g>
<g>
</g>
<g>
</g>
<g>
</g>
<g>
</g>
</svg>
