<svg xmlns="http://www.w3.org/2000/svg" xmlns:xlink="http://www.w3.org/1999/xlink" version="1.1" id="rot-018" x="0px" y="0px" viewBox="0 0 496 496" style="enable-background:new 0 0 496 496;" xml:space="preserve">
<path style="fill:#F4C70E;" d="M432,368V256h-34.208c-1.296-3.44-2.736-6.872-4.296-10.296l24.208-24.208l-27.16-27.16  c-0.088-0.168-0.176-0.312-0.256-0.48C382.952,202.44,372.176,208,360,208c-22.088,0-40-17.912-40-40H176c0,22.088-17.912,40-40,40  c-12.12,0-22.856-5.504-30.184-14.024l-27.512,27.512l24.208,24.208c-1.56,3.424-3,6.856-4.296,10.296H64v112h34.208  c1.296,3.44,2.736,6.872,4.296,10.296l-24.208,24.208l79.192,79.192l24.208-24.208c3.424,1.56,6.856,3,10.296,4.296V496h112v-34.208  c3.44-1.296,6.872-2.736,10.296-4.296l24.208,24.208l79.192-79.192l-24.208-24.208c1.56-3.424,3-6.856,4.296-10.296H432V368z   M248,424c-61.856,0-112-50.144-112-112s50.144-112,112-112s112,50.144,112,112S309.856,424,248,424z"/>
<g>
	<path style="fill:#333333;" d="M412.648,73.112L390.696,65.8l-8.872-35.496C377.36,12.464,361.408,0,343.016,0H152.984   c-18.392,0-34.344,12.464-38.808,30.304L105.304,65.8l-21.96,7.32C66.992,78.568,56,93.824,56,111.064V160c0,8.824,7.176,16,16,16   h16.72c3.824,22.664,23.536,40,47.28,40s43.448-17.336,47.28-40h129.44c3.824,22.664,23.536,40,47.28,40s43.448-17.336,47.28-40   H424c8.824,0,16-7.176,16-16v-48.936C440,93.824,429.008,78.568,412.648,73.112z M136,200c-17.648,0-32-14.352-32-32   s14.352-32,32-32s32,14.352,32,32S153.648,200,136,200z M224,96h-64V72c0-13.232,10.768-24,24-24h40V96z M160,126.496V112h64v48   h-40.72C180.864,145.688,172.112,133.528,160,126.496z M336,96h-64V48h40c13.232,0,24,10.768,24,24V96z M312.72,160H272v-48h64   v14.496C323.888,133.528,315.136,145.688,312.72,160z M360,200c-17.648,0-32-14.352-32-32s14.352-32,32-32s32,14.352,32,32   S377.648,200,360,200z M424,160h-16.72c-3.824-22.664-23.536-40-47.28-40c-2.728,0-5.392,0.28-8,0.72V72c0-22.056-17.944-40-40-40   h-56v128h-16V32h-56c-22.056,0-40,17.944-40,40v48.72c-2.608-0.44-5.272-0.72-8-0.72c-23.736,0-43.448,17.336-47.28,40H72v-48.936   c0-10.344,6.592-19.496,16.408-22.776L118.696,78.2l11.008-44.024C132.376,23.48,141.952,16,152.984,16h190.032   c11.032,0,20.608,7.48,23.28,18.176L377.304,78.2l30.288,10.088C417.408,91.568,424,100.72,424,111.064V160z"/>
	<path style="fill:#333333;" d="M360,144c-13.232,0-24,10.768-24,24s10.768,24,24,24s24-10.768,24-24S373.232,144,360,144z M360,176   c-4.408,0-8-3.584-8-8s3.592-8,8-8s8,3.584,8,8S364.408,176,360,176z"/>
	<path style="fill:#333333;" d="M136,144c-13.232,0-24,10.768-24,24s10.768,24,24,24s24-10.768,24-24S149.232,144,136,144z M136,176   c-4.408,0-8-3.584-8-8s3.592-8,8-8s8,3.584,8,8S140.408,176,136,176z"/>
	<rect x="240" y="328" style="fill:#333333;" width="16" height="16"/>
	<path style="fill:#333333;" d="M248,192c-66.168,0-120,53.832-120,120s53.832,120,120,120c32.512,0,62.952-12.792,85.712-36.016   l-11.432-11.2c-9.944,10.144-21.584,17.984-34.288,23.272V363.8c19.848-13.304,32-35.808,32-59.8   c0-16.44-5.552-32.008-16.056-45.024L301.544,256H264v40h-32v-40h-37.544l-2.4,2.976C181.552,271.992,176,287.56,176,304   c0,23.992,12.152,46.496,32,59.8v44.176c-37.544-15.704-64-52.8-64-95.976c0-57.344,46.656-104,104-104s104,46.656,104,104   c0,21.4-6.448,41.944-18.64,59.424l13.128,9.16C360.56,360.4,368,336.688,368,312C368,245.832,314.168,192,248,192z    M220.008,352.448C202.736,342.44,192,323.872,192,304c0-11.512,3.528-22.504,10.256-32H216v40h64v-40h13.744   c6.728,9.496,10.256,20.488,10.256,32c0,19.872-10.736,38.44-28.008,48.448L272,354.76v58.368c-5.232,1.232-10.56,2.072-16,2.48   V360h-16v55.592c-5.464-0.416-10.8-1.264-16-2.504v-58.336L220.008,352.448z"/>
</g>
<g>
</g>
<g>
</g>
<g>
</g>
<g>
</g>
<g>
</g>
<g>
</g>
<g>
</g>
<g>
</g>
<g>
</g>
<g>
</g>
<g>
</g>
<g>
</g>
<g>
</g>
<g>
</g>
<g>
</g>
</svg>
