<svg xmlns="http://www.w3.org/2000/svg" xmlns:xlink="http://www.w3.org/1999/xlink" version="1.1" id="rot-019" x="0px" y="0px" viewBox="0 0 496.001 496.001" style="enable-background:new 0 0 496.001 496.001;" xml:space="preserve">
<g>
	<polygon style="fill:#F4C70E;" points="56,184 8,184 8,128 232,128 232,152 80,152  "/>
	<path style="fill:#F4C70E;" d="M304,152h168c8.84,0,16-7.16,16-16v-32H264v8C264,134.088,281.912,152,304,152z"/>
	<circle style="fill:#F4C70E;" cx="336" cy="336" r="96"/>
</g>
<g>
	<path style="fill:#333333;" d="M336,232c-57.344,0-104,46.656-104,104s46.656,104,104,104s104-46.656,104-104S393.344,232,336,232z    M424,336c0,9.512-1.56,18.656-4.368,27.248c-11.32,2.16-31.544,4.312-43.632-0.776c3.816-5.744,6.384-12.368,7.432-19.48   c15.288-3.704,28.944-17.76,37.688-28.92C422.936,321.096,424,328.416,424,336z M336,368c-17.648,0-32-14.352-32-32   s14.352-32,32-32s32,14.352,32,32S353.648,368,336,368z M288.568,329.008c-15.288,3.704-28.944,17.76-37.688,28.92   C249.064,350.904,248,343.584,248,336c0-9.512,1.56-18.664,4.368-27.248c11.32-2.16,31.544-4.32,43.632,0.776   C292.184,315.272,289.616,321.896,288.568,329.008z M414.368,296.176c-6.496,9.52-19.248,25.28-31.336,30.24   c-1.424-7.016-4.432-13.448-8.56-19c8.2-13.424,7.92-33.024,6.216-47.096C395.04,268.832,406.76,281.264,414.368,296.176z    M363.248,252.368c2.16,11.32,4.32,31.544-0.776,43.632c-5.744-3.816-12.368-6.384-19.488-7.432   c-3.704-15.288-17.76-28.944-28.92-37.688c7.032-1.816,14.352-2.88,21.936-2.88C345.512,248,354.664,249.56,363.248,252.368z    M296.176,257.632c9.528,6.496,25.288,19.248,30.24,31.336c-7.016,1.424-13.456,4.432-19,8.568   c-13.424-8.2-33.016-7.92-47.088-6.216C268.832,276.96,281.264,265.24,296.176,257.632z M257.632,375.824   c6.496-9.52,19.248-25.28,31.336-30.24c1.424,7.016,4.432,13.448,8.56,19c-8.2,13.424-7.92,33.024-6.216,47.096   C276.96,403.168,265.24,390.736,257.632,375.824z M308.752,419.632c-2.16-11.32-4.312-31.544,0.776-43.632   c5.744,3.816,12.368,6.384,19.488,7.432c3.704,15.288,17.76,28.944,28.92,37.688C350.904,422.936,343.584,424,336,424   C326.488,424,317.336,422.44,308.752,419.632z M375.832,414.368c-9.528-6.488-25.288-19.248-30.248-31.336   c7.016-1.424,13.448-4.424,18.992-8.56c8.944,5.472,20.64,7.208,31.64,7.208c5.488,0,10.768-0.424,15.448-0.992   C403.16,395.04,390.736,406.76,375.832,414.368z"/>
	<path style="fill:#333333;" d="M440,160h32c13.232,0,24-10.768,24-24V56c0-13.232-10.768-24-24-24H297.888   c-9.144,0-17.368,5.08-21.464,13.264l-16.2,32.4C257.464,83.192,256,89.376,256,95.552v15.256c0,6.056,1.152,11.824,3.16,17.184   H240V40c0-22.056-17.944-40-40-40H40C17.944,0,0,17.944,0,40v152h16v77.512c0,8.784,3.28,17.168,9.232,23.616l103.496,112.12   C181.968,462.92,257.512,496,336,496c43.816,0,84.704-17.368,115.144-48.904c30.416-31.512,46.312-73.04,44.752-116.912   c-1.608-45.288-23.296-85.952-56.28-114.184H440V160z M290.736,52.424c1.36-2.728,4.104-4.424,7.152-4.424H472c4.408,0,8,3.592,8,8   v32h-16v16h16v32c0,4.408-3.592,8-8,8H305.184C286.888,144,272,129.112,272,110.816V104h176V88H273.384   c0.36-1.072,0.648-2.168,1.152-3.176L290.736,52.424z M268.992,144c8.744,9.528,21.168,15.608,35.008,15.936v3.704   c0,5.488,1.632,10.568,4.344,14.912c-51.392,9.016-94.312,42.576-116.344,88.168V160h48v-16H268.992z M40,16h160   c13.232,0,24,10.768,24,24v72h-16v16h16v16H76l-24,32H16v-48h176v-16H16V40C16,26.768,26.768,16,40,16z M32,269.512V264h72   c13.232,0,24,10.768,24,24v92.864l-91.008-98.592C33.776,278.792,32,274.256,32,269.512z M144,398.008V288   c0-22.056-17.944-40-40-40H32v-56h28l24-32h92v176c0,49.896,22.984,94.512,58.896,123.872   C200.896,445.896,169.832,424.936,144,398.008z M479.904,330.744c1.408,39.504-12.896,76.872-40.28,105.24   C412.24,464.368,375.432,480,336,480c-79.4,0-144-64.6-144-144c0-78.792,63.632-142.936,142.208-143.912   C412.024,193.064,477.208,254.848,479.904,330.744z M336,176.176V176c-0.608,0-1.192,0.088-1.8,0.088   c-0.616,0-1.224-0.088-1.848-0.088c-6.808,0-12.352-5.544-12.352-12.352V160h104v44.072   C398.64,187.088,368.352,176.904,336,176.176z"/>
	<rect x="432" y="256" style="fill:#333333;" width="16" height="16"/>
	<rect x="224" y="256" style="fill:#333333;" width="16" height="16"/>
	<rect x="432" y="400" style="fill:#333333;" width="16" height="16"/>
	<rect x="224" y="400" style="fill:#333333;" width="16" height="16"/>
</g>
<g>
</g>
<g>
</g>
<g>
</g>
<g>
</g>
<g>
</g>
<g>
</g>
<g>
</g>
<g>
</g>
<g>
</g>
<g>
</g>
<g>
</g>
<g>
</g>
<g>
</g>
<g>
</g>
<g>
</g>
</svg>
