<svg xmlns="http://www.w3.org/2000/svg" xmlns:xlink="http://www.w3.org/1999/xlink" version="1.1" id="rot-020" x="0px" y="0px" viewBox="0 0 496 496" style="enable-background:new 0 0 496 496;" xml:space="preserve">
<g>
	<path style="fill:#F4C70E;" d="M184,8C86.8,8,8,86.8,8,184s78.8,176,176,176s176-78.8,176-176S281.2,8,184,8z M327.064,168h-81.16   c-1.512-5.856-3.816-11.376-6.816-16.464l57.36-57.36C313.008,114.888,323.992,140.24,327.064,168z M200,40.936   c27.76,3.072,53.112,14.048,73.816,30.616l-57.36,57.36c-5.08-3-10.608-5.304-16.464-6.816v-81.16H200z M168,40.936v81.16   c-5.856,1.512-11.376,3.816-16.464,6.816l-57.36-57.36C114.888,54.992,140.24,44.008,168,40.936z M71.552,94.184l57.36,57.36   c-3,5.08-5.304,10.608-6.816,16.464h-81.16C44.008,140.24,54.992,114.888,71.552,94.184z M40.936,200h81.16   c1.512,5.856,3.816,11.376,6.816,16.464l-57.36,57.36C54.992,253.112,44.008,227.76,40.936,200z M168,327.064   c-27.76-3.072-53.112-14.048-73.816-30.616l57.36-57.36c5.08,3,10.608,5.304,16.464,6.816v81.16H168z M152,184   c0-17.672,14.328-32,32-32s32,14.328,32,32s-14.328,32-32,32S152,201.672,152,184z M200,327.064v-81.16   c5.856-1.512,11.376-3.816,16.464-6.816l57.36,57.36C253.112,313.008,227.76,323.992,200,327.064z M296.448,273.816l-57.36-57.36   c3-5.08,5.304-10.608,6.816-16.464h81.16C323.992,227.76,313.008,253.112,296.448,273.816z"/>
	<rect x="376" y="264" style="fill:#F4C70E;" width="96" height="160"/>
</g>
<g>
	<path style="fill:#333333;" d="M129.832,170c1.312-5.072,3.32-9.92,5.968-14.4l3.152-5.336L70.888,82.2l-5.584,6.984   c-17.992,22.496-29.168,49.448-32.32,77.936L32.008,176h96.28L129.832,170z M116.176,160H50.168   c3.44-19.248,11.016-37.52,22.256-53.632l46.648,46.648C117.992,155.288,117.024,157.624,116.176,160z"/>
	<path style="fill:#333333;" d="M212.392,135.8l5.344,3.16L285.8,70.896l-6.976-5.584c-22.496-17.992-49.448-29.168-77.936-32.328   L192,32v96.296l6,1.544C203.08,131.16,207.92,133.16,212.392,135.8z M208,50.168c19.256,3.44,37.52,11.016,53.632,22.256   l-46.648,46.648c-2.272-1.08-4.6-2.048-6.984-2.888V50.168z"/>
	<path style="fill:#333333;" d="M70.888,285.8l68.064-68.064L135.8,212.4c-2.648-4.48-4.656-9.328-5.968-14.4l-1.544-6h-96.28   l0.976,8.88c3.16,28.496,14.328,55.448,32.32,77.944L70.888,285.8z M116.176,208c0.84,2.376,1.816,4.712,2.896,6.992L72.424,261.64   c-11.24-16.112-18.816-34.384-22.256-53.64H116.176z"/>
	<path style="fill:#333333;" d="M155.608,135.8c4.472-2.64,9.312-4.64,14.392-5.952l6-1.552V32l-8.88,0.984   c-28.496,3.16-55.448,14.336-77.936,32.328l-6.976,5.584l68.064,68.064L155.608,135.8z M160,50.168v66.008   c-2.384,0.84-4.712,1.808-6.984,2.888l-46.648-46.648C122.48,61.192,140.744,53.608,160,50.168z"/>
	<path style="fill:#333333;" d="M238.168,198c-1.312,5.072-3.32,9.92-5.968,14.4l-3.152,5.336l68.064,68.064l5.584-6.976   c17.992-22.496,29.168-49.44,32.32-77.944l0.976-8.88h-96.28L238.168,198z M251.824,208h66.008   c-3.44,19.256-11.016,37.528-22.256,53.632l-46.648-46.648C250.008,212.712,250.976,210.376,251.824,208z"/>
	<path style="fill:#333333;" d="M232.192,155.608c2.648,4.48,4.656,9.328,5.968,14.4l1.552,5.992h96.28l-0.976-8.88   c-3.152-28.488-14.328-55.44-32.32-77.936l-5.584-6.984l-68.064,68.064L232.192,155.608z M295.568,106.368   c11.24,16.112,18.824,34.384,22.256,53.632h-66.008c-0.84-2.376-1.816-4.712-2.896-6.992L295.568,106.368z"/>
	<path style="fill:#333333;" d="M212.392,232.2c-4.472,2.64-9.312,4.64-14.392,5.952l-6,1.552v96.288l8.88-0.976   c28.496-3.16,55.448-14.328,77.936-32.32l6.976-5.584l-68.064-68.064L212.392,232.2z M208,317.832v-66.008   c2.384-0.84,4.712-1.808,6.984-2.888l46.648,46.64C245.52,306.816,227.256,314.392,208,317.832z"/>
	<path style="fill:#333333;" d="M155.608,232.2l-5.344-3.16L82.2,297.104l6.976,5.584c22.496,17.992,49.448,29.168,77.936,32.32   l8.888,0.984v-96.288l-6-1.544C164.92,236.84,160.08,234.84,155.608,232.2z M160,317.832c-19.256-3.44-37.52-11.016-53.632-22.256   l46.648-46.64c2.272,1.08,4.6,2.048,6.984,2.888L160,317.832L160,317.832z"/>
	<path style="fill:#333333;" d="M144,184c0,22.056,17.944,40,40,40s40-17.944,40-40s-17.944-40-40-40S144,161.944,144,184z M184,160   c13.232,0,24,10.768,24,24s-10.768,24-24,24s-24-10.768-24-24S170.768,160,184,160z"/>
	<path style="fill:#333333;" d="M496,240v-43.312L403.312,104h-53.64C319.864,42.504,256.808,0,184,0C82.536,0,0,82.544,0,184v280   h16v32h448v-32h16v-32h16v-16h-16v-16h16v-16h-16v-16h16v-16h-16v-16h16v-16h-16v-16h16v-16h-16v-16h16v-16h-16v-16H496z    M408,131.312L468.688,192H416c-4.416,0-8-3.592-8-8V131.312z M184,16c92.632,0,168,75.36,168,168c0,92.632-75.368,168-168,168   S16,276.632,16,184C16,91.36,91.368,16,184,16z M48,307.808C81.68,344.768,130.176,368,184,368c68.496,0,128.328-37.648,160-93.304   V392c0,13.232-10.768,24-24,24H72c-13.232,0-24-10.768-24-24V307.808z M464,272v16h-88v16h88v16h-88v16h88v16h-88v16h88v16h-88v16   h88v16h-88v16h88v16h-32v16h16v16H32v-16h384v-16H16V258.904c4.576,10.224,10.032,19.96,16.312,29.096H32v104   c0,22.056,17.944,40,40,40h248c22.056,0,40-17.944,40-40V237.648c5.184-16.984,8-34.992,8-53.648c0-22.496-4.072-44.056-11.496-64   H392v64c0,13.232,10.768,24,24,24h64v16h-16v32h-88v16H464z"/>
	<rect x="64" y="384" style="fill:#333333;" width="16" height="16"/>
	<rect x="96" y="384" style="fill:#333333;" width="112" height="16"/>
</g>
<g>
</g>
<g>
</g>
<g>
</g>
<g>
</g>
<g>
</g>
<g>
</g>
<g>
</g>
<g>
</g>
<g>
</g>
<g>
</g>
<g>
</g>
<g>
</g>
<g>
</g>
<g>
</g>
<g>
</g>
</svg>
