<svg xmlns="http://www.w3.org/2000/svg" xmlns:xlink="http://www.w3.org/1999/xlink" version="1.1" id="rot-021" x="0px" y="0px" viewBox="0 0 496 496" style="enable-background:new 0 0 496 496;" xml:space="preserve">
<g>
	<circle style="fill:#F4C70E;" cx="148" cy="88" r="32"/>
	<circle style="fill:#F4C70E;" cx="348" cy="88" r="32"/>
</g>
<g>
	<path style="fill:#333333;" d="M116,56h64v96h16V48c0-26.472-21.528-48-48-48s-48,21.528-48,48v104h16V56z M148,16   c14.864,0,27.288,10.24,30.864,24h-61.728C120.712,26.24,133.136,16,148,16z"/>
	<path style="fill:#333333;" d="M156,144v-33.472c9.288-3.312,16-12.112,16-22.528c0-13.232-10.768-24-24-24s-24,10.768-24,24   c0,10.416,6.712,19.216,16,22.528V144H156z M148,80c4.408,0,8,3.592,8,8s-3.592,8-8,8s-8-3.592-8-8S143.592,80,148,80z"/>
	<path style="fill:#333333;" d="M316,56h64v96h16V48c0-26.472-21.528-48-48-48s-48,21.528-48,48v104h16V56z M348,16   c14.864,0,27.288,10.24,30.864,24h-61.728C320.712,26.24,333.136,16,348,16z"/>
	<path style="fill:#333333;" d="M356,144v-33.472c9.288-3.312,16-12.112,16-22.528c0-13.232-10.768-24-24-24s-24,10.768-24,24   c0,10.416,6.712,19.216,16,22.528V144H356z M348,80c4.408,0,8,3.592,8,8s-3.592,8-8,8s-8-3.592-8-8S343.592,80,348,80z"/>
	<path style="fill:#333333;" d="M452,352v-32h-80v-22.496c14.32-8.312,24-23.784,24-41.504h16v-16h16v-16h-16v-16h-16v-24h-16v24   h-64v-24h-16v24h-16v48h16c0,17.72,9.68,33.192,24,41.504V320H172v-22.496c14.32-8.312,24-23.784,24-41.504h16v-16h16v-16h-16v-16   h-16v-24h-16v24h-64v-24h-16v24H84v48h16c0,17.72,9.68,33.192,24,41.504V320H44v32H28v16h16v128h408V368h16v-16H452z M300,240v-16   h96v16H300z M316,256h64c0,17.648-14.352,32-32,32S316,273.648,316,256z M356,303.28V320h-16v-16.72c2.608,0.44,5.272,0.72,8,0.72   S353.392,303.72,356,303.28z M116,256h32v-16h-48v-16h96v16h-32v16h16c0,17.648-14.352,32-32,32S116,273.648,116,256z M156,303.28   V320h-16v-16.72c2.608,0.44,5.272,0.72,8,0.72S153.392,303.72,156,303.28z M436,480H60V368h376V480z M436,352H60v-16h376V352z"/>
</g>
<g>
	<rect x="60" y="368" style="fill:#F4C70E;" width="376" height="32"/>
	<path style="fill:#F4C70E;" d="M228,192H68v-48h160V192z"/>
	<path style="fill:#F4C70E;" d="M428,192H268v-48h160V192z"/>
</g>
<g>
</g>
<g>
</g>
<g>
</g>
<g>
</g>
<g>
</g>
<g>
</g>
<g>
</g>
<g>
</g>
<g>
</g>
<g>
</g>
<g>
</g>
<g>
</g>
<g>
</g>
<g>
</g>
<g>
</g>
</svg>
