<svg xmlns="http://www.w3.org/2000/svg" xmlns:xlink="http://www.w3.org/1999/xlink" version="1.1" id="rot-022" x="0px" y="0px" viewBox="0 0 496 496" style="enable-background:new 0 0 496 496;" xml:space="preserve">
<rect x="32" y="304" style="fill:#F4C70E;" width="128" height="144"/>
<g>
	<rect x="392" y="144" style="fill:#333333;" width="16" height="16"/>
	<rect x="312" y="144" style="fill:#333333;" width="16" height="16"/>
	<rect x="344" y="192" style="fill:#333333;" width="32" height="16"/>
	<path style="fill:#333333;" d="M462.632,247.456c-7.896-4.736-16.52-7.8-25.64-9.112L400,233.064v-1.904   c32.992-15.208,56-48.504,56-87.16V80c0-44.112-35.888-80-80-80h-32c-41.416,0-75.568,31.632-79.592,72H224   c-13.232,0-24,10.768-24,24s10.768,24,24,24h40v24c0,38.648,23.008,71.952,56,87.16v1.904l-37,5.28   c-9.12,1.312-17.744,4.376-25.632,9.112C236.784,259.8,224,282.376,224,306.384V360h272v-53.616   C496,282.376,483.216,259.8,462.632,247.456z M408,250.368v24.688l-26.496-13.248l13.32-13.32L408,250.368z M336.208,236.896   C343.832,238.848,351.776,240,360,240s16.168-1.152,23.792-3.104L360,260.688L336.208,236.896z M224,104c-4.408,0-8-3.584-8-8   s3.592-8,8-8h40v16H224z M280,144v-24h128v-16h-8v-8c0-13.232-10.768-24-24-24h-32c-13.232,0-24,10.768-24,24v8h-40V80   c0-35.288,28.712-64,64-64h32c35.288,0,64,28.712,64,64v24h-16v16h16v24c0,44.112-35.888,80-80,80S280,188.112,280,144z M384,104   h-48v-8c0-4.416,3.592-8,8-8h32c4.408,0,8,3.584,8,8V104z M325.176,248.488l13.32,13.32L312,275.056v-24.688L325.176,248.488z    M480,344h-32v-48h-16v48H288v-48h-16v48h-32v-37.616c0-18.424,9.808-35.744,25.6-45.208c6.056-3.632,12.672-5.984,19.672-6.984   L296,252.656v48.288l54.424-27.208l1.576,1.576V320h16v-44.688l1.576-1.576L424,300.944v-48.288l10.72,1.536   c7,1,13.624,3.352,19.68,6.984c15.792,9.472,25.6,26.792,25.6,45.208V344z"/>
	<path style="fill:#333333;" d="M96,332.688l-18.344,18.344C68.976,359.712,64,371.728,64,384c0,17.648,14.352,32,32,32   s32-14.352,32-32c0-12.272-4.976-24.288-13.656-32.968L96,332.688z M96,400c-8.824,0-16-7.176-16-16   c0-8.064,3.272-15.952,8.968-21.656L96,355.312l7.032,7.032C108.728,368.048,112,375.936,112,384C112,392.824,104.824,400,96,400z"/>
	<path style="fill:#333333;" d="M136,225.528V176c0-13.232-10.768-24-24-24H48c-13.232,0-24,10.768-24,24v48   c-13.232,0-24,10.768-24,24v224c0,13.232,10.768,24,24,24h160c13.232,0,24-10.768,24-24V312   C208,268.944,176.896,233.08,136,225.528z M120,176v16h-16v-24h8C116.408,168,120,171.584,120,176z M72,192v-24h16v24H72z M48,168   h8v24H40v-16C40,171.584,43.592,168,48,168z M184,480H24c-4.408,0-8-3.584-8-8V248c0-4.416,3.592-8,8-8h64v-16H40v-16h80v16h-16v16   h16c36.992,0,67.536,28.056,71.528,64H176v16h16v16h-16v16h16v16h-16v16h16v16h-16v16h16v16h-16v16h16v24   C192,476.416,188.408,480,184,480z"/>
</g>
<g>
</g>
<g>
</g>
<g>
</g>
<g>
</g>
<g>
</g>
<g>
</g>
<g>
</g>
<g>
</g>
<g>
</g>
<g>
</g>
<g>
</g>
<g>
</g>
<g>
</g>
<g>
</g>
<g>
</g>
</svg>
