<svg xmlns="http://www.w3.org/2000/svg" xmlns:xlink="http://www.w3.org/1999/xlink" version="1.1" id="rot-023" x="0px" y="0px" viewBox="0 0 496 496" style="enable-background:new 0 0 496 496;" xml:space="preserve">
<g>
	<path style="fill:#333333;" d="M456,96h-40v64h-16v16h16v256h40c13.232,0,24,10.768,24,24s-10.768,24-24,24H16V176h80v-16H0v336   h456c22.056,0,40-17.944,40-40V136C496,113.944,478.056,96,456,96z M480,424.016c-6.688-5.032-15-8.016-24-8.016h-24V112h24   c13.232,0,24,10.768,24,24V424.016z"/>
	<rect x="336" y="160" style="fill:#333333;" width="48" height="16"/>
</g>
<path style="fill:#F4C70E;" d="M384,272v-80h-29.792c-2.96-10.232-7.048-20.096-12.208-29.44l21.08-21.072L306.512,84.92L285.44,106  c-9.344-5.168-19.2-9.248-29.44-12.208V64h-80v29.792c-10.232,2.96-20.096,7.048-29.44,12.208l-21.072-21.08L68.92,141.488  L90,162.56c-5.168,9.344-9.248,19.2-12.208,29.44H48v80h29.792c2.96,10.232,7.048,20.096,12.208,29.44l-21.08,21.072l56.568,56.568  L146.56,358c9.344,5.168,19.2,9.248,29.44,12.208V400h80v-29.792c10.232-2.96,20.096-7.048,29.44-12.208l21.072,21.08l56.568-56.568  L342,301.44c5.168-9.344,9.248-19.2,12.208-29.44H384z M216,304c-39.768,0-72-32.232-72-72s32.232-72,72-72s72,32.232,72,72  S255.768,304,216,304z"/>
<g>
	<path style="fill:#333333;" d="M136,232c0,44.112,35.888,80,80,80s80-35.888,80-80s-35.888-80-80-80S136,187.888,136,232z M216,168   c35.288,0,64,28.712,64,64s-28.712,64-64,64s-64-28.712-64-64S180.712,168,216,168z"/>
	<path style="fill:#333333;" d="M216,448v16c47.192,0,92.016-14.032,130.568-40.408C352.248,428.76,359.728,432,368,432   c17.648,0,32-14.352,32-32s-14.352-32-32-32s-32,14.352-32,32c0,3.584,0.728,6.976,1.824,10.2C301.88,434.872,260.048,448,216,448z    M368,384c8.824,0,16,7.176,16,16s-7.176,16-16,16s-16-7.176-16-16S359.176,384,368,384z"/>
	<path style="fill:#333333;" d="M56,104c17.648,0,32-14.352,32-32c0-4.24-0.872-8.272-2.376-11.976   C123.024,31.672,168.832,16,216,16V0c-50.632,0-99.808,16.824-139.968,47.248C70.528,42.784,63.616,40,56,40   c-17.648,0-32,14.352-32,32S38.352,104,56,104z M56,56c8.824,0,16,7.176,16,16s-7.176,16-16,16s-16-7.176-16-16S47.176,56,56,56z"/>
</g>
<g>
</g>
<g>
</g>
<g>
</g>
<g>
</g>
<g>
</g>
<g>
</g>
<g>
</g>
<g>
</g>
<g>
</g>
<g>
</g>
<g>
</g>
<g>
</g>
<g>
</g>
<g>
</g>
<g>
</g>
</svg>
