<svg xmlns="http://www.w3.org/2000/svg" xmlns:xlink="http://www.w3.org/1999/xlink" version="1.1" id="rot-024" x="0px" y="0px" viewBox="0 0 496 496" style="enable-background:new 0 0 496 496;" xml:space="preserve">
<g>
	<rect x="48" y="184.016" style="fill:#F4C70E;" width="96" height="160"/>
	<path style="fill:#F4C70E;" d="M96,104c-17.76,0-33.224-9.664-41.528-24H48v72h96V80h-6.472C129.224,94.336,113.76,104,96,104z"/>
	<rect x="200" y="184.016" style="fill:#F4C70E;" width="96" height="160"/>
	<path style="fill:#F4C70E;" d="M248,104c-17.76,0-33.224-9.664-41.528-24H200v72h96V80h-6.472C281.224,94.336,265.76,104,248,104z"/>
	<rect x="352" y="184.016" style="fill:#F4C70E;" width="96" height="160"/>
	<path style="fill:#F4C70E;" d="M400,104c-17.76,0-33.224-9.664-41.528-24H352v72h96V80h-6.472C433.224,94.336,417.76,104,400,104z"/>
</g>
<g>
	<path style="fill:#333333;" d="M0,352h16v144h464V352h16v-16H0V352z M32,432h56v-16H32v-16h80c13.232,0,24,10.768,24,24v56H32V432z    M312,480H184v-56c0-13.232,10.768-24,24-24h80c13.232,0,24,10.768,24,24V480z M360,480v-56c0-13.232,10.768-24,24-24h80v16h-56v16   h56v48H360z M464,384h-80c-22.056,0-40,17.944-40,40v56h-16v-56c0-22.056-17.944-40-40-40h-80c-22.056,0-40,17.944-40,40v56h-16   v-56c0-22.056-17.944-40-40-40H32v-32h432V384z"/>
	
		<rect x="29.937" y="304.081" transform="matrix(-0.9701 0.2425 -0.2425 -0.9701 264.6144 591.5806)" style="fill:#333333;" width="131.921" height="15.991"/>
	
		<rect x="29.937" y="272.086" transform="matrix(-0.9701 0.2425 -0.2425 -0.9701 256.8552 528.5452)" style="fill:#333333;" width="131.921" height="15.991"/>
	
		<rect x="29.926" y="240.007" transform="matrix(-0.9701 0.2425 -0.2425 -0.9701 249.0537 465.3479)" style="fill:#333333;" width="131.921" height="15.991"/>
	
		<rect x="94.935" y="200.085" transform="matrix(-0.9701 0.2425 -0.2425 -0.9701 302.4795 378.9366)" style="fill:#333333;" width="65.965" height="15.999"/>
	
		<rect x="31.18" y="218.084" transform="matrix(-0.9701 0.2425 -0.2425 -0.9701 164.9966 431.8576)" style="fill:#333333;" width="49.478" height="15.999"/>
	<rect x="112" y="152.016" style="fill:#333333;" width="16" height="32"/>
	<rect x="64" y="152.016" style="fill:#333333;" width="16" height="32"/>
	<path style="fill:#333333;" d="M96,32c-13.232,0-24,10.768-24,24s10.768,24,24,24s24-10.768,24-24S109.232,32,96,32z M96,64   c-4.416,0-8-3.592-8-8s3.584-8,8-8s8,3.592,8,8S100.416,64,96,64z"/>
	
		<rect x="181.92" y="304.087" transform="matrix(-0.9701 0.2425 -0.2425 -0.9701 564.0458 554.7344)" style="fill:#333333;" width="131.921" height="15.991"/>
	
		<rect x="181.92" y="272.084" transform="matrix(-0.9701 0.2425 -0.2425 -0.9701 556.2846 491.6834)" style="fill:#333333;" width="131.921" height="15.991"/>
	
		<rect x="181.917" y="240.003" transform="matrix(-0.9701 0.2425 -0.2425 -0.9701 548.498 428.4803)" style="fill:#333333;" width="131.921" height="15.991"/>
	
		<rect x="181.929" y="208.091" transform="matrix(-0.9701 0.2425 -0.2425 -0.9701 540.7839 365.6145)" style="fill:#333333;" width="131.921" height="15.999"/>
	<rect x="264" y="152.016" style="fill:#333333;" width="16" height="32"/>
	<rect x="216" y="152.016" style="fill:#333333;" width="16" height="32"/>
	<path style="fill:#333333;" d="M248,32c-13.232,0-24,10.768-24,24s10.768,24,24,24s24-10.768,24-24S261.232,32,248,32z M248,64   c-4.416,0-8-3.592-8-8s3.584-8,8-8c4.416,0,8,3.592,8,8S252.416,64,248,64z"/>
	
		<rect x="333.904" y="304.085" transform="matrix(-0.9701 0.2425 -0.2425 -0.9701 863.4753 517.8726)" style="fill:#333333;" width="131.921" height="15.991"/>
	
		<rect x="415.13" y="262.063" transform="matrix(-0.9701 0.2425 -0.2425 -0.9701 932.1002 425.3824)" style="fill:#333333;" width="49.478" height="15.991"/>
	
		<rect x="334.902" y="280.087" transform="matrix(-0.9701 0.2425 -0.2425 -0.9701 794.6511 478.3497)" style="fill:#333333;" width="65.965" height="15.991"/>
	
		<rect x="333.9" y="240.009" transform="matrix(-0.9701 0.2425 -0.2425 -0.9701 847.9294 391.6341)" style="fill:#333333;" width="131.921" height="15.991"/>
	
		<rect x="333.912" y="208.089" transform="matrix(-0.9701 0.2425 -0.2425 -0.9701 840.2133 328.7526)" style="fill:#333333;" width="131.921" height="15.999"/>
	<rect x="416" y="152.016" style="fill:#333333;" width="16" height="32"/>
	<rect x="368" y="152.016" style="fill:#333333;" width="16" height="32"/>
	<path style="fill:#333333;" d="M400,32c-13.232,0-24,10.768-24,24s10.768,24,24,24s24-10.768,24-24S413.232,32,400,32z M400,64   c-4.416,0-8-3.592-8-8s3.584-8,8-8s8,3.592,8,8S404.416,64,400,64z"/>
	<path style="fill:#333333;" d="M496,32h-45.48C441.512,13.112,422.28,0,400,0s-41.504,13.112-50.52,32h-50.96   C289.512,13.112,270.28,0,248,0s-41.504,13.112-50.52,32h-50.96C137.512,13.112,118.28,0,96,0S54.496,13.112,45.48,32H0v16h40.64   C40.264,50.624,40,53.28,40,56s0.264,5.376,0.64,8H0v16h45.48c9.008,18.888,28.24,32,50.52,32s41.504-13.112,50.52-32h50.96   c9.008,18.888,28.24,32,50.52,32s41.504-13.112,50.52-32h50.96c9.008,18.888,28.24,32,50.52,32s41.504-13.112,50.52-32H496V64   h-40.64c0.376-2.624,0.64-5.28,0.64-8s-0.264-5.376-0.64-8H496V32z M96,96c-22.056,0-40-17.944-40-40s17.944-40,40-40   s40,17.944,40,40S118.056,96,96,96z M151.36,64c0.376-2.624,0.64-5.28,0.64-8s-0.264-5.376-0.64-8h41.28   c-0.376,2.624-0.64,5.28-0.64,8s0.264,5.376,0.64,8H151.36z M248,96c-22.056,0-40-17.944-40-40s17.944-40,40-40s40,17.944,40,40   S270.056,96,248,96z M303.36,64c0.376-2.624,0.64-5.28,0.64-8s-0.264-5.376-0.64-8h41.28c-0.376,2.624-0.64,5.28-0.64,8   s0.264,5.376,0.64,8H303.36z M400,96c-22.056,0-40-17.944-40-40s17.944-40,40-40s40,17.944,40,40S422.056,96,400,96z"/>
	<rect x="376" y="416.016" style="fill:#333333;" width="16" height="16"/>
	<rect x="104" y="416.016" style="fill:#333333;" width="16" height="16"/>
	<rect x="200" y="416.016" style="fill:#333333;" width="16" height="16"/>
	<rect x="232" y="416.016" style="fill:#333333;" width="32" height="16"/>
	<rect x="280" y="416.016" style="fill:#333333;" width="16" height="16"/>
</g>
<g>
</g>
<g>
</g>
<g>
</g>
<g>
</g>
<g>
</g>
<g>
</g>
<g>
</g>
<g>
</g>
<g>
</g>
<g>
</g>
<g>
</g>
<g>
</g>
<g>
</g>
<g>
</g>
<g>
</g>
</svg>
