<svg xmlns="http://www.w3.org/2000/svg" xmlns:xlink="http://www.w3.org/1999/xlink" version="1.1" id="rot-025" x="0px" y="0px" viewBox="0 0 496 496" style="enable-background:new 0 0 496 496;" xml:space="preserve">
<g>
	<circle style="fill:#F4C70E;" cx="120" cy="120" r="72"/>
	<rect x="296" y="88" style="fill:#F4C70E;" width="160" height="64"/>
</g>
<g>
	<rect y="480" style="fill:#333333;" width="496" height="16"/>
	<path style="fill:#333333;" d="M104.432,138.112c4.2,3.616,9.6,5.888,15.568,5.888c13.232,0,24-10.768,24-24s-10.768-24-24-24   s-24,10.768-24,24c0,1.456,0.184,2.872,0.432,4.256l-44.4,25.368l7.936,13.888L104.432,138.112z M120,112c4.408,0,8,3.584,8,8   s-3.592,8-8,8s-8-3.584-8-8S115.592,112,120,112z"/>
	<path style="fill:#333333;" d="M416,352h16v-64h-16v-55c46.528-16.528,80-60.872,80-113C496,53.832,442.168,0,376,0   S256,53.832,256,120c0,52.128,33.472,96.472,80,113v55h-16v64h16v64H160v-64h16v-64h-16v-55c46.528-16.528,80-60.872,80-113   C240,53.832,186.168,0,120,0S0,53.832,0,120c0,52.128,33.472,96.472,80,113v55H64v64h16v64H0v16h96v-80h32v-16H80v-32h80v32h-16v8   v8v80h208v-80h32v-16h-48v-32h80v32h-16v8v8v80h96v-16h-80V352z M34.256,178.744l13.528-7.808l-8-13.856l-13.48,7.784   c-5.432-11.328-8.896-23.744-9.896-36.864H32v-16H16.408c1.008-13.12,4.464-25.536,9.904-36.848l13.48,7.784l8-13.856   l-13.536-7.824c7.264-10.568,16.424-19.736,27-27l7.816,13.528l13.856-8l-7.784-13.48c11.32-5.432,23.736-8.896,36.856-9.896V32h16   V16.408c13.12,1.008,25.536,4.464,36.856,9.904l-7.784,13.48l13.856,8l7.816-13.528c10.568,7.264,19.736,16.424,27,27   l-13.528,7.808l8,13.856l13.48-7.784c5.44,11.32,8.904,23.728,9.904,36.848H208v16h15.592c-1.008,13.12-4.464,25.536-9.904,36.848   l-13.48-7.784l-8,13.856l13.528,7.808c-7.264,10.568-16.424,19.736-27,27l-7.816-13.528l-13.856,8l7.784,13.48   c-11.32,5.44-23.728,8.904-36.856,9.904V208h-16v15.592c-13.12-1.008-25.536-4.464-36.856-9.904l7.784-13.48l-13.856-8   l-7.816,13.528C50.688,198.472,41.528,189.312,34.256,178.744z M120,240c8.216,0,16.24-0.84,24-2.416V256H96v-18.416   C103.76,239.16,111.784,240,120,240z M96,272h48v16H96V272z M272,120c0-57.344,46.656-104,104-104s104,46.656,104,104   s-46.656,104-104,104S272,177.344,272,120z M376,240c8.216,0,16.24-0.84,24-2.416V256h-48v-18.416   C359.76,239.16,367.784,240,376,240z M352,272h48v16h-48V272z"/>
	<rect x="336" y="176" style="fill:#333333;" width="80" height="16"/>
</g>
<g>
</g>
<g>
</g>
<g>
</g>
<g>
</g>
<g>
</g>
<g>
</g>
<g>
</g>
<g>
</g>
<g>
</g>
<g>
</g>
<g>
</g>
<g>
</g>
<g>
</g>
<g>
</g>
<g>
</g>
</svg>
