<svg xmlns="http://www.w3.org/2000/svg" xmlns:xlink="http://www.w3.org/1999/xlink" version="1.1" id="rot-026" x="0px" y="0px" viewBox="0 0 496 496" style="enable-background:new 0 0 496 496;" xml:space="preserve">
<g>
	<path style="fill:#F4C70E;" d="M400,238.472V121.528c14.336-8.304,24-23.768,24-41.528c0-20.888-13.368-38.616-32-45.208V80h-32   V34.792c-18.632,6.6-32,24.32-32,45.208c0,17.76,9.664,33.224,24,41.528V238.48c-14.336,8.304-24,23.768-24,41.528   c0,26.512,21.488,48,48,48s48-21.488,48-48C424,262.24,414.336,246.776,400,238.472z"/>
	<circle style="fill:#F4C70E;" cx="184" cy="216" r="72"/>
</g>
<g>
	<path style="fill:#333333;" d="M376,304c13.232,0,24-10.768,24-24s-10.768-24-24-24s-24,10.768-24,24S362.768,304,376,304z    M376,272c4.416,0,8,3.592,8,8s-3.584,8-8,8s-8-3.592-8-8S371.584,272,376,272z"/>
	<path style="fill:#333333;" d="M464,96.808V0H32v96.808C13.768,100.528,0,116.688,0,136v272c0,22.056,17.944,40,40,40h96v32h-32v16   h288v-16h-32v-32h96c22.056,0,40-17.944,40-40V136C496,116.688,482.232,100.528,464,96.808z M48,80h272   c0,18.304,9.088,35.488,24,45.904v108.184c-14.912,10.416-24,27.6-24,45.904c0,30.88,25.128,56,56,56s56-25.12,56-56   c0-18.304-9.088-35.488-24-45.904V125.904c14.912-10.416,24-27.6,24-45.904h16v272H48V80z M400,88V48.056   C409.872,55.48,416,67.24,416,80c0,14.192-7.664,27.456-20.008,34.608L392,116.92V208h-32v-91.08l-3.992-2.312   C343.664,107.456,336,94.192,336,80c0-12.76,6.128-24.52,16-31.944V88H400z M356.008,245.392L360,243.08V224h32v19.08l3.992,2.312   C408.336,252.544,416,265.808,416,280c0,22.056-17.944,40-40,40s-40-17.944-40-40C336,265.808,343.664,252.544,356.008,245.392z    M448,16v48h-18.424c-5.048-16.8-17.784-30.696-34.904-36.752L384,23.472V72h-16V23.472l-10.672,3.776   C340.216,33.304,327.48,47.2,322.424,64H48V16H448z M32,113.472V368h432V113.472c9.288,3.312,16,12.112,16,22.528v248H16V136   C16,125.584,22.712,116.784,32,113.472z M344,480H152v-32h192V480z M456,432H40c-13.232,0-24-10.768-24-24v-8h464v8   C480,421.232,469.232,432,456,432z"/>
	<rect x="64" y="32" style="fill:#333333;" width="16" height="16"/>
	<rect x="96" y="32" style="fill:#333333;" width="16" height="16"/>
	<rect x="128" y="32" style="fill:#333333;" width="16" height="16"/>
	<path style="fill:#333333;" d="M277.688,171.152l14.232-8.216l-8-13.856l-14.184,8.192c-7.264-10.568-16.424-19.736-27-27   l8.184-14.184l-13.856-8l-8.216,14.232c-11.32-5.44-23.728-8.904-36.856-9.904V96h-16v16.408   c-13.12,1.008-25.536,4.464-36.856,9.904l-8.216-14.232l-13.856,8l8.184,14.184c-10.568,7.264-19.736,16.424-27,27l-14.184-8.192   l-8,13.856l14.232,8.216c-5.44,11.32-8.904,23.728-9.904,36.848H64v16h16.408c1.008,13.12,4.464,25.536,9.904,36.848l-14.232,8.216   l8,13.856l14.184-8.192c7.264,10.568,16.424,19.736,27,27l-8.184,14.184l13.856,8l8.216-14.232   c11.32,5.44,23.728,8.904,36.856,9.904V336h16v-16.408c13.12-1.008,25.536-4.464,36.856-9.904l8.216,14.232l13.856-8l-8.184-14.184   c10.568-7.264,19.736-16.424,27-27l14.184,8.192l8-13.856l-14.232-8.216c5.44-11.32,8.904-23.728,9.904-36.848H304v-16h-16.408   C286.592,194.88,283.128,182.464,277.688,171.152z M184,304c-48.52,0-88-39.48-88-88s39.48-88,88-88s88,39.48,88,88   S232.52,304,184,304z"/>
	<path style="fill:#333333;" d="M184,160c-30.872,0-56,25.12-56,56s25.128,56,56,56c13.848,0,27.144-5.096,37.432-14.344   l-10.704-11.896C203.384,252.36,193.888,256,184,256c-22.056,0-40-17.944-40-40s17.944-40,40-40s40,17.944,40,40   c0,7.04-1.848,13.952-5.344,19.992l13.84,8.016C237.408,235.536,240,225.848,240,216C240,185.12,214.872,160,184,160z"/>
	<polygon style="fill:#333333;" points="192,240 192,224 208,224 208,208 192,208 192,192 176,192 176,208 160,208 160,224 176,224    176,240  "/>
</g>
<g>
</g>
<g>
</g>
<g>
</g>
<g>
</g>
<g>
</g>
<g>
</g>
<g>
</g>
<g>
</g>
<g>
</g>
<g>
</g>
<g>
</g>
<g>
</g>
<g>
</g>
<g>
</g>
<g>
</g>
</svg>
