<svg xmlns="http://www.w3.org/2000/svg" xmlns:xlink="http://www.w3.org/1999/xlink" version="1.1" id="rot-027" x="0px" y="0px" viewBox="0 0 496 496" style="enable-background:new 0 0 496 496;" xml:space="preserve">
<path style="fill:#F4C70E;" d="M458.608,200c-5.4-23.848-14.712-46.336-27.736-66.992l26.432-26.432l-67.88-67.88l-26.432,26.432  C342.336,52.104,319.848,42.792,296,37.392V0h-96v37.392c-23.848,5.4-46.336,14.712-66.992,27.736l-26.432-26.432l-67.88,67.88  l26.44,26.432C52.096,153.68,42.792,176.16,37.392,200H0v96h37.392c5.4,23.84,14.704,46.32,27.744,66.992l-26.44,26.432l67.88,67.88  l26.432-26.44c20.672,13.04,43.152,22.344,66.992,27.744V496h96v-37.392c23.84-5.4,46.32-14.704,66.992-27.744l26.432,26.44  l67.88-67.88l-26.432-26.432c13.024-20.656,22.336-43.144,27.736-66.992H496v-96H458.608z M248,416c-92.784,0-168-75.216-168-168  S155.216,80,248,80s168,75.216,168,168S340.784,416,248,416z"/>
<g>
	<path style="fill:#333333;" d="M248,72c-97.048,0-176,78.952-176,176s78.952,176,176,176c43.384,0,85.048-15.92,117.336-44.824   l-10.672-11.92C325.32,393.528,287.44,408,248,408c-55.728,0-104.824-28.672-133.488-72h26.432l16-32H176v16h144v-16h19.056l16,32   h26.392c-4.288,6.496-8.936,12.792-14.192,18.664l11.92,10.672C408.088,333.04,424,291.368,424,248C424,150.952,345.048,72,248,72z    M320,208h28.944l16-32h25.744c7.52,14.832,12.736,30.976,15.312,48h-86V208z M248,88c55.728,0,104.824,28.672,133.488,72h-26.432   l-16,32H320v-16H176v16h-19.056l-16-32h-26.432C143.176,116.672,192.272,88,248,88z M176,208v16h-43.056l-16-32H98.312   c2.056-5.48,4.376-10.824,7-16h25.744l16,32H176z M93.264,208h13.792l16,32H176v16H88.408c-0.136-2.664-0.408-5.296-0.408-8   C88,234.168,89.952,220.808,93.264,208z M147.056,288l-16,32h-25.744c-7.52-14.832-12.736-30.976-15.312-48h86v16H147.056z    M304,304H192V192h112V304z M364.944,320l-16-32H320v-16h43.056l16,32h18.792c-2.04,5.456-4.4,10.792-7.024,16H364.944z    M402.816,288h-13.864l-16-32H320v-16h87.592c0.136,2.664,0.408,5.296,0.408,8C408,261.624,406.16,275.032,402.816,288z"/>
	<rect x="208" y="208" style="fill:#333333;" width="16" height="16"/>
</g>
<g>
</g>
<g>
</g>
<g>
</g>
<g>
</g>
<g>
</g>
<g>
</g>
<g>
</g>
<g>
</g>
<g>
</g>
<g>
</g>
<g>
</g>
<g>
</g>
<g>
</g>
<g>
</g>
<g>
</g>
</svg>
