<svg xmlns="http://www.w3.org/2000/svg" xmlns:xlink="http://www.w3.org/1999/xlink" version="1.1" id="rot-028" x="0px" y="0px" viewBox="0 0 496 496" style="enable-background:new 0 0 496 496;" xml:space="preserve">
<path style="fill:#F4C70E;" d="M288,184v-80h-30.888c-1.408-4.024-3.024-7.944-4.824-11.728l21.824-21.816l-56.568-56.568  l-21.816,21.824c-3.784-1.8-7.704-3.416-11.728-4.824V0h-80v30.888c-4.024,1.408-7.944,3.024-11.728,4.824L70.464,13.888  L13.888,70.464L35.712,92.28c-1.8,3.776-3.416,7.696-4.824,11.72H0v80h30.888c1.408,4.024,3.024,7.944,4.824,11.728l-21.824,21.816  l56.568,56.568l21.816-21.824c3.784,1.8,7.704,3.416,11.728,4.824V288h80v-30.888c4.024-1.408,7.944-3.024,11.728-4.824  l21.816,21.824l50.912-50.912l-7.176-7.176l5.656-5.656l-14.64-14.632c1.8-3.784,3.416-7.704,4.824-11.728H288V184z M144,200  c-30.928,0-56-25.072-56-56c0-25.368,16.872-46.76,40-53.648V56l16-16l16,16v34.352c23.128,6.888,40,28.288,40,53.648  C200,174.928,174.928,200,144,200z"/>
<g>
	<path style="fill:#333333;" d="M465.272,171.696c-4.432-2.208-9.128-3.832-13.952-4.792L424,161.448v-3.928   c14.688-13.192,24-32.264,24-53.512v-32c0-39.704-32.296-72-72-72s-72,32.296-72,72v32c0,21.256,9.312,40.328,24,53.512v3.928   l-27.312,5.464c-4.832,0.96-9.528,2.576-13.96,4.792C267.776,181.168,256,200.208,256,221.408V320c0,17.648,14.352,32,32,32h8v144   h72h8h80V352h8c17.648,0,32-14.352,32-32v-98.592C496,200.208,484.224,181.168,465.272,171.696z M440,180.96V296v16v3.056   l-20.424-10.208l-7.16,14.312L440,332.944V448h-56V190.128l40,24v-36.376L440,180.96z M312,332.944l27.576-13.792l-7.16-14.312   L312,315.056V312v-8V180.96l16-3.2v36.376l40-24V448h-56V332.944z M344,168.4c5.808,2.896,12.04,5.056,18.608,6.304L344,185.864   v-11.312V168.4z M389.392,174.704c6.568-1.24,12.8-3.4,18.608-6.296v6.152v11.312L389.392,174.704z M376,16   c25.312,0,46.736,16.896,53.64,40H322.36C329.264,32.896,350.688,16,376,16z M426.472,72C411.768,82.296,393.984,88,376,88   s-35.76-5.704-50.48-16H426.472z M320,104V87.6c16.64,10.608,36.232,16.4,56,16.4s39.368-5.792,56-16.4V104   c0,30.872-25.128,56-56,56S320,134.872,320,104z M293.88,186.008c0.688-0.344,1.416-0.584,2.12-0.888V296h-24v-74.592   C272,206.312,280.384,192.752,293.88,186.008z M288,336c-8.824,0-16-7.176-16-16v-8h24v24H288z M312,480v-16h56v16H312z M384,480   v-16h56v16H384z M480,320c0,8.824-7.176,16-16,16h-8v-24h24V320z M480,296h-24V185.12c0.704,0.304,1.432,0.544,2.12,0.888   c13.496,6.744,21.88,20.304,21.88,35.4V296z"/>
	<path style="fill:#333333;" d="M144,208c35.288,0,64-28.712,64-64c0-26.032-16.232-49.408-40-59.112v-32.2l-24-24l-24,24v32.2   C96.224,94.584,80,117.96,80,144C80,179.288,108.712,208,144,208z M192,144c0,17.72-9.68,33.192-24,41.504v-82.888   C182.48,111.08,192,126.752,192,144z M144,51.312l8,8V191.28c-2.608,0.44-5.272,0.72-8,0.72s-5.392-0.28-8-0.72V59.312L144,51.312z    M120,102.608v82.896C105.68,177.192,96,161.72,96,144C96,126.752,105.52,111.08,120,102.608z"/>
	<path style="fill:#333333;" d="M168,288h-16v16h-16v-16h-16v16H72v16h16v120c0,30.872,25.128,56,56,56s56-25.128,56-56V320h16v-16   h-48V288z M144,480c-22.056,0-40-17.944-40-40v-88h16v40h16v-40h16v40h16v-40h16v88C184,462.056,166.056,480,144,480z M184,336h-80   v-16h80V336z"/>
</g>
<g>
</g>
<g>
</g>
<g>
</g>
<g>
</g>
<g>
</g>
<g>
</g>
<g>
</g>
<g>
</g>
<g>
</g>
<g>
</g>
<g>
</g>
<g>
</g>
<g>
</g>
<g>
</g>
<g>
</g>
</svg>
