<svg xmlns="http://www.w3.org/2000/svg" xmlns:xlink="http://www.w3.org/1999/xlink" version="1.1" id="rot-029" x="0px" y="0px" viewBox="0 0 496 496" style="enable-background:new 0 0 496 496;" xml:space="preserve">
<path style="fill:#F4C70E;" d="M172,232c-70.696,0-128,57.304-128,128s57.304,128,128,128s128-57.304,128-128S242.696,232,172,232z   M172,440c-44.184,0-80-35.816-80-80s35.816-80,80-80s80,35.816,80,80S216.184,440,172,440z"/>
<g>
	<rect x="324" y="96" style="fill:#333333;" width="16" height="16"/>
	<path style="fill:#333333;" d="M443.16,164.424l-0.896,0.448c-3.104-9.16-10.368-16.312-19.592-19.272   C431.032,133.832,436,119.504,436,104V72c0-39.704-32.296-72-72-72c-28.2,0-52.592,16.336-64.4,40H264c-11.032,0-20,8.968-20,20   s8.968,20,20,20h28v24c0,39.704,32.296,72,72,72c1.664,0,3.296-0.136,4.936-0.248L343.6,201.088l-70.848,25.768   c-10.568,3.84-18.128,13.056-20.152,23.856C230.008,234.008,202.184,224,172,224c-74.992,0-136,61.008-136,136s61.008,136,136,136   s136-61.008,136-136c0-26.456-7.712-51.088-20.832-72h0.304c4.032,0,7.968-0.76,11.704-2.248L340,269.416v173.64l-19.376,9.688   C312.832,456.64,308,464.464,308,473.168C308,485.76,318.24,496,330.832,496h40H388h72V235.776   C460,211.136,454.168,186.464,443.16,164.424z M393.48,151.52c-6.416,4-13.688,6.72-21.48,7.84V135.6c9.12-1.856,16-9.944,16-19.6   s-6.88-17.744-16-19.6V80h48v24c0,17.824-8.4,33.696-21.416,43.96C396.776,148.96,395.072,150.144,393.48,151.52z M364,16   c28.152,0,51.456,20.912,55.36,48H308.64C312.544,36.912,335.848,16,364,16z M260,60c0-2.2,1.8-4,4-4h29.856   c-0.6,2.624-1.08,5.28-1.384,8H264C261.8,64,260,62.2,260,60z M308,104V80h48v32h12c2.2,0,4,1.8,4,4s-1.8,4-4,4h-12v39.36   C328.912,155.456,308,132.152,308,104z M352.4,214.912l50.288-50.288c1.608-1.032,3.16-2.136,4.68-3.28   c1.88-0.856,3.92-1.344,6.008-1.344c8.064,0,14.624,6.56,14.624,14.624c0,3.848-1.56,7.624-4.28,10.344l-56.208,56.208   l-54.496,21.8l-11.784-29.464L352.4,214.912z M262.624,438.424l2.152-15.064l-15.84-2.264l-4.96,34.704   c-17.928,13.504-39.696,22.08-63.4,23.768L192.8,470.4l-9.6-12.8l-28.088,21.072c-23.344-3.312-44.52-13.296-61.536-28.048   l15.064,2.152l2.264-15.84l-34.704-4.96c-13.504-17.928-22.08-39.696-23.768-63.4L61.6,380.8l12.8-9.6l-21.072-28.088   c3.312-23.344,13.296-44.52,28.048-61.536l-2.152,15.064l15.84,2.264l4.96-34.704c17.928-13.504,39.696-22.08,63.4-23.768   L151.2,249.6l9.592,12.8l28.088-21.072c23.344,3.312,44.52,13.296,61.536,28.048l-15.064-2.152l-2.264,15.84l34.704,4.96   c13.504,17.928,22.08,39.696,23.768,63.4L282.4,339.2l-12.8,9.6l21.072,28.088C287.36,400.232,277.376,421.408,262.624,438.424z    M287.472,272h-3.952c-8.56,0-15.52-6.96-15.52-15.52c0-6.496,4.112-12.368,10.216-14.592l7.96-2.896l11.976,29.936l-4.92,1.968   C291.4,271.624,289.456,272,287.472,272z M376.496,254.824l58.536-58.536c0.928-0.928,1.68-1.984,2.472-3.008   C441.76,207.016,444,221.4,444,235.776V440h-48V320h-16v120h-24V263.016L376.496,254.824z M324,473.168   c0-2.6,1.448-4.944,3.784-6.112L349.888,456h5.992c-4.928,4.272-7.88,10.424-7.88,17.168c0,2.4,0.472,4.664,1.16,6.832h-18.328   C327.072,480,324,476.928,324,473.168z M388,480h-17.168c-3.76,0-6.832-3.072-6.832-6.832c0-2.6,1.448-4.944,3.784-6.112   L389.888,456H444v24H388z"/>
	<path style="fill:#333333;" d="M172,272c-48.52,0-88,39.48-88,88s39.48,88,88,88s88-39.48,88-88S220.52,272,172,272z M172,432   c-39.704,0-72-32.296-72-72s32.296-72,72-72s72,32.296,72,72S211.704,432,172,432z"/>
	<path style="fill:#333333;" d="M172,296c-35.288,0-64,28.712-64,64s28.712,64,64,64s64-28.712,64-64S207.288,296,172,296z M220,360   c0,5.88-1.112,11.496-3.056,16.704L195.56,364.36c0.264-1.416,0.44-2.864,0.44-4.36s-0.176-2.944-0.44-4.36l21.384-12.344   C218.888,348.504,220,354.12,220,360z M208.968,329.416l-21.48,12.4c-2.2-1.88-4.712-3.36-7.488-4.344V312.72   C191.576,314.68,201.776,320.744,208.968,329.416z M172,368c-4.416,0-8-3.584-8-8s3.584-8,8-8s8,3.584,8,8S176.416,368,172,368z    M164,312.72v24.752c-2.776,0.992-5.288,2.472-7.488,4.344l-21.48-12.4C142.224,320.744,152.424,314.68,164,312.72z M124,360   c0-5.88,1.112-11.496,3.056-16.704l21.384,12.344c-0.264,1.416-0.44,2.864-0.44,4.36s0.176,2.944,0.44,4.36l-21.384,12.344   C125.112,371.496,124,365.88,124,360z M135.032,390.584l21.48-12.4c2.2,1.88,4.712,3.352,7.488,4.344v24.752   C152.424,405.32,142.224,399.256,135.032,390.584z M180,407.28v-24.752c2.776-0.992,5.288-2.472,7.488-4.344l21.48,12.4   C201.776,399.256,191.576,405.32,180,407.28z"/>
</g>
<g>
</g>
<g>
</g>
<g>
</g>
<g>
</g>
<g>
</g>
<g>
</g>
<g>
</g>
<g>
</g>
<g>
</g>
<g>
</g>
<g>
</g>
<g>
</g>
<g>
</g>
<g>
</g>
<g>
</g>
</svg>
