<svg xmlns="http://www.w3.org/2000/svg" xmlns:xlink="http://www.w3.org/1999/xlink" version="1.1" id="rot-030" x="0px" y="0px" viewBox="0 0 496 496" style="enable-background:new 0 0 496 496;" xml:space="preserve">
<path style="fill:#F4C70E;" d="M464,336V224h-57.592c-1.952-5.48-4.248-10.944-6.848-16.36l40.776-40.784l-60.52-60.52L360,107.048  V200l-18.464,18.464C353.176,236.136,360,257.256,360,280c0,34.424-15.56,65.192-40,85.736V368h-2.864  c-19.048,14.984-43.016,24-69.136,24s-50.088-9.016-69.136-24H176v-2.264c-24.44-20.544-40-51.312-40-85.736  c0-22.008,6.44-42.464,17.4-59.776l-30.472-26.664C115.984,187.488,112,178.704,112,169.48v-53.496l-5.656,0.2l-50.672,50.672  l40.776,40.784c-2.6,5.416-4.896,10.88-6.848,16.36H32v112h57.592c1.952,5.464,4.24,10.928,6.848,16.352l-40.776,40.792  l79.184,79.184l40.792-40.776c5.424,2.608,10.888,4.896,16.352,6.848V496h112v-57.592c5.464-1.952,10.928-4.24,16.352-6.848  l40.792,40.776l79.184-79.184l-40.776-40.792c2.608-5.424,4.896-10.888,6.848-16.352H464V336z"/>
<path style="fill:#333333;" d="M480,64c8.824,0,16-7.176,16-16V15.968l-3.536-2.384C479.256,4.696,463.872,0,448,0  c-28.832,0-54.912,15.2-69.208,40H368c0-17.648-14.352-32-32-32c-9.6,0-18.128,4.336-24,11.056C306.128,12.336,297.6,8,288,8  s-18.128,4.336-24,11.056C258.128,12.336,249.6,8,240,8s-18.128,4.336-24,11.056C210.128,12.336,201.6,8,192,8  c-17.648,0-32,14.352-32,32h-42.792C102.912,15.2,76.832,0,48,0C32.128,0,16.744,4.696,3.536,13.584L0,15.968V48  c0,8.824,7.176,16,16,16h40v32H16c-8.824,0-16,7.176-16,16v32.032l3.536,2.384C16.744,155.304,32.128,160,48,160  c21.48,0,41.312-8.568,56-23.12v32.6c0,11.528,4.984,22.504,13.664,30.112l25.432,22.256C133.248,239.568,128,259.568,128,280  c0,66.168,53.832,120,120,120s120-53.832,120-120c0-21.424-5.616-42.112-16.304-60.384L368,203.312V136v-16h10.792  c14.296,24.8,40.376,40,69.208,40c15.872,0,31.256-4.696,44.464-13.584l3.536-2.384V112c0-8.824-7.176-16-16-16h-40V64H480z M336,24  c8.824,0,16,7.176,16,16v8v88c0,8.824-7.176,16-16,16s-16-7.176-16-16V40C320,31.176,327.176,24,336,24z M288,24  c8.824,0,16,7.176,16,16v96c0,8.824-7.176,16-16,16s-16-7.176-16-16V40C272,31.176,279.176,24,288,24z M240,24  c8.824,0,16,7.176,16,16v96c0,8.824-7.176,16-16,16s-16-7.176-16-16V40C224,31.176,231.176,24,240,24z M176,40  c0-8.824,7.176-16,16-16s16,7.176,16,16v96c0,6.976-4.52,13.016-10.904,15.16L176,132.408V100V40z M48,144  c-11.296,0-22.272-2.976-32-8.648V112h56V48H16V24.648C25.728,18.976,36.704,16,48,16c24.4,0,46.344,13.624,57.264,35.56l2.208,4.44  H160v14.096C154.272,66.256,147.4,64,140,64c-19.848,0-36,16.152-36,36v10.592C92.736,131.216,71.56,144,48,144z M144,280  c0-16.56,3.928-32.8,11.4-47.392l12.6,11.024V346.36C153.024,328.336,144,305.208,144,280z M352,280c0,25.208-9.024,48.336-24,66.36  V243.312l11.904-11.904C347.8,246.312,352,262.864,352,280z M312,236.688V312h-16v16h16v33.808C294.328,375.656,272.144,384,248,384  s-46.328-8.344-64-22.192V328h96v-16h-96v-75.632l-55.8-48.832c-5.208-4.552-8.2-11.136-8.2-18.056V100c0-11.032,8.976-20,20-20  s20,8.968,20,20v36v3.592l74.68,66.384l10.632-11.952l-35.52-31.576c2.312-1.56,4.464-3.32,6.288-5.408  C221.952,163.704,230.44,168,240,168c9.6,0,18.128-4.336,24-11.056c5.872,6.72,14.4,11.056,24,11.056s18.128-4.336,24-11.056  c5.872,6.72,14.4,11.056,24,11.056c5.856,0,11.272-1.696,16-4.448v33.136L312,236.688z M480,112v23.352  c-9.728,5.672-20.704,8.648-32,8.648c-24.4,0-46.344-13.624-57.264-35.56l-2.208-4.44H368V56h20.528l2.208-4.44  C401.656,29.624,423.6,16,448,16c11.296,0,22.272,2.976,32,8.648V48h-56v64H480z"/>
<g>
</g>
<g>
</g>
<g>
</g>
<g>
</g>
<g>
</g>
<g>
</g>
<g>
</g>
<g>
</g>
<g>
</g>
<g>
</g>
<g>
</g>
<g>
</g>
<g>
</g>
<g>
</g>
<g>
</g>
</svg>
