<svg xmlns="http://www.w3.org/2000/svg" xmlns:xlink="http://www.w3.org/1999/xlink" version="1.1" id="rot-031" x="0px" y="0px" viewBox="0 0 64 64" style="enable-background:new 0 0 64 64;" xml:space="preserve">
<g>
	<g>
		<path style="fill:#F4C70E;" d="M33,22h-2c-1.654,0-3-1.346-3-3V9c0-1.654,1.346-3,3-3h2c1.654,0,3,1.346,3,3v10    C36,20.654,34.654,22,33,22z"/>
	</g>
	<g>
		<path style="fill:#333333;" d="M58,1H6C3.243,1,1,3.243,1,6v16c0,2.757,2.243,5,5,5h52c2.757,0,5-2.243,5-5V6    C63,3.243,60.757,1,58,1z M61,22c0,1.654-1.346,3-3,3H6c-1.654,0-3-1.346-3-3V6c0-1.654,1.346-3,3-3h52c1.654,0,3,1.346,3,3V22z"/>
		<path style="fill:#333333;" d="M24,5H7C5.897,5,5,5.897,5,7v14c0,1.103,0.897,2,2,2h17c1.103,0,2-0.897,2-2V7    C26,5.897,25.103,5,24,5z M24,7l0,2H7V7H24z M12,12.5V13H7v-2h5.351C12.133,11.456,12,11.961,12,12.5z M12,15v0.5    c0,0.539,0.133,1.044,0.351,1.5H7v-2H12z M14,15.5v-3c0-0.827,0.673-1.5,1.5-1.5s1.5,0.673,1.5,1.5v3c0,0.827-0.673,1.5-1.5,1.5    S14,16.327,14,15.5z M19,15.5V15h5.001l0,2h-5.352C18.867,16.544,19,16.039,19,15.5z M19,13v-0.5c0-0.539-0.133-1.044-0.351-1.5    H24l0,2H19z M7,21v-2h17.001l0,2H7z"/>
		<path style="fill:#333333;" d="M57,5H40c-1.103,0-2,0.897-2,2v14c0,1.103,0.897,2,2,2h17c1.103,0,2-0.897,2-2V7    C59,5.897,58.103,5,57,5z M57,7l0,2H40V7H57z M45,12.5V13h-5v-2h5.351C45.133,11.456,45,11.961,45,12.5z M45,15v0.5    c0,0.539,0.133,1.044,0.351,1.5H40v-2H45z M47,15.5v-3c0-0.827,0.673-1.5,1.5-1.5s1.5,0.673,1.5,1.5v3c0,0.827-0.673,1.5-1.5,1.5    S47,16.327,47,15.5z M52,15.5V15h5.001l0,2h-5.352C51.867,16.544,52,16.039,52,15.5z M52,13v-0.5c0-0.539-0.133-1.044-0.351-1.5    H57l0,2H52z M40,21v-2h17.001l0,2H40z"/>
		<path style="fill:#333333;" d="M15,58c0,1.654-1.346,3-3,3s-3-1.346-3-3V35H7v23c0,2.757,2.243,5,5,5s5-2.243,5-5v-2h-2V58z"/>
		<rect x="7" y="31" style="fill:#333333;" width="2" height="2"/>
		<path style="fill:#333333;" d="M23,48c0,1.654-1.346,3-3,3s-3-1.346-3-3V33h-2v15c0,2.757,2.243,5,5,5s5-2.243,5-5v-2h-2V48z"/>
		<path style="fill:#333333;" d="M61,55c0,1.654-1.346,3-3,3s-3-1.346-3-3V33h-2v22c0,2.757,2.243,5,5,5s5-2.243,5-5v-2h-2V55z"/>
		<rect x="53" y="29" style="fill:#333333;" width="2" height="2"/>
		<path style="fill:#333333;" d="M48,51c0,1.654-1.346,3-3,3s-3-1.346-3-3V35h-2v16c0,2.757,2.243,5,5,5s5-2.243,5-5v-2h-2V51z"/>
		<rect x="40" y="31" style="fill:#333333;" width="2" height="2"/>
		<rect x="15" y="29" style="fill:#333333;" width="2" height="2"/>
	</g>
	<g>
		<circle style="fill:#F4C70E;" cx="58" cy="55" r="2"/>
	</g>
	<g>
		<circle style="fill:#F4C70E;" cx="45" cy="51" r="2"/>
	</g>
	<g>
		<circle style="fill:#F4C70E;" cx="20" cy="48" r="2"/>
	</g>
	<g>
		<circle style="fill:#F4C70E;" cx="12" cy="58" r="2"/>
	</g>
</g>
</svg>
