<svg xmlns="http://www.w3.org/2000/svg" xmlns:xlink="http://www.w3.org/1999/xlink" version="1.1" id="rot-032" x="0px" y="0px" viewBox="0 0 64 64" style="enable-background:new 0 0 64 64;" xml:space="preserve">
<g>
	<circle style="fill:#F4C70E;" cx="18" cy="18" r="12"/>
	<path style="fill:#F4C70E;" d="M30.5,43h12c0.828,0,1.5-0.672,1.5-1.5l0,0c0-0.828-0.672-1.5-1.5-1.5h-12   c-0.828,0-1.5,0.672-1.5,1.5l0,0C29,42.328,29.672,43,30.5,43z"/>
	<path style="fill:#333333;" d="M15,53c-1.654,0-3,1.346-3,3s1.346,3,3,3s3-1.346,3-3S16.654,53,15,53z M15,57c-0.552,0-1-0.448-1-1   s0.448-1,1-1s1,0.448,1,1S15.552,57,15,57z"/>
	<path style="fill:#333333;" d="M55.92,57H60c2.479,0,3-1.632,3-3v-8c0-2.54-1.361-4.799-3.553-5.895l-0.203-0.075   c-0.036-0.009-3.612-0.942-5.379-3.535l-2.971-5.942C49.674,28.111,46.983,27,45,27H32.445C34.069,24.336,35,21.231,35,18h-2   c0,5.629-3.163,10.837-8,13.419V28h-2v6h6v-2h-1.157c1.189-0.859,2.253-1.872,3.181-3H45c1.433,0,3.303,0.841,4.105,2.447l3,6   l0.063,0.107c2.013,3.019,5.742,4.181,6.47,4.384C60.098,42.709,61,44.256,61,46v8c0,0.859-0.141,1-1,1h-4.08   c-0.488-3.386-3.401-6-6.92-6s-6.432,2.614-6.92,6H21.92c-0.488-3.386-3.401-6-6.92-6s-6.432,2.614-6.92,6H5c-1.065,0-2-0.935-2-2   v-7c0-2.474,1.655-3.699,3.164-4.014l6.032-1.006c1.306-0.262,2.369-0.957,3.604-2.381L20,33h-2c-5.629,0-10.837-3.163-13.419-8H8   v-2H2v6h2v-1.164c2.807,3.886,7.223,6.505,12.082,7.056l-1.837,2.452c-0.898,1.034-1.583,1.504-2.409,1.67l-6.04,1.007   C2.928,40.618,1,43.021,1,46v7c0,2.168,1.832,4,4,4h3.08c0.488,3.386,3.401,6,6.92,6h19v-2H19.889c1.074-1.051,1.807-2.444,2.031-4   h20.16c0.224,1.556,0.957,2.949,2.031,4H40v2h23v-2h-9.111C54.964,59.949,55.696,58.556,55.92,57z M15,61c-2.757,0-5-2.243-5-5   s2.243-5,5-5s5,2.243,5,5S17.757,61,15,61z M44,56c0-2.757,2.243-5,5-5s5,2.243,5,5s-2.243,5-5,5S44,58.757,44,56z"/>
	<path style="fill:#333333;" d="M49,53c-1.654,0-3,1.346-3,3s1.346,3,3,3s3-1.346,3-3S50.654,53,49,53z M49,57c-0.552,0-1-0.448-1-1   s0.448-1,1-1s1,0.448,1,1S49.552,57,49,57z"/>
	<rect x="36" y="61" style="fill:#333333;" width="2" height="2"/>
	<rect x="6" y="61" style="fill:#333333;" width="2" height="2"/>
	<rect x="2" y="61" style="fill:#333333;" width="2" height="2"/>
	<path style="fill:#333333;" d="M48,42v-1c0-2.757-2.243-5-5-5H30c-2.757,0-5,2.243-5,5h2c0-1.654,1.346-3,3-3h13   c1.654,0,3,1.346,3,3v1c0,1.654-1.346,3-3,3h-9.586l2.293-2.293l-1.414-1.414L29.586,46l4.707,4.707l1.414-1.414L33.414,47H43   C45.757,47,48,44.757,48,42z"/>
	<path style="fill:#333333;" d="M11,4.581V8h2V2H7v2h1.157C3.767,7.173,1,12.405,1,18h2C3,12.371,6.163,7.163,11,4.581z"/>
	<path style="fill:#333333;" d="M31.419,11H28v2h6V7h-2v1.157C28.827,3.767,23.595,1,18,1v2C23.629,3,28.837,6.163,31.419,11z"/>
	<polygon style="fill:#333333;" points="12,12 12,13.071 10.53,12.152 9.47,13.848 10.801,14.679 9.684,15.052 10.316,16.948    13,16.054 16.113,18 13,19.946 10.316,19.052 9.684,20.948 10.801,21.321 9.47,22.152 10.53,23.848 12,22.929 12,24 14,24    14,21.679 17,19.804 17,21.667 14.2,25.4 15.8,26.6 17,24.999 17,28 19,28 19,24.999 20.2,26.6 21.8,25.4 19,21.667 19,19.804    22,21.679 22,24 24,24 24,22.929 25.47,23.848 26.53,22.152 25.199,21.321 26.316,20.948 25.684,19.052 23,19.946 19.887,18    23,16.054 25.684,16.948 26.316,15.052 25.199,14.679 26.53,13.848 25.47,12.152 24,13.071 24,12 22,12 22,14.321 19,16.196    19,14.333 21.8,10.6 20.2,9.4 19,11.001 19,8 17,8 17,11.001 15.8,9.4 14.2,10.6 17,14.333 17,16.196 14,14.321 14,12  "/>
</g>
</svg>
