<svg xmlns="http://www.w3.org/2000/svg" xmlns:xlink="http://www.w3.org/1999/xlink" version="1.1" id="rot-033" x="0px" y="0px" viewBox="0 0 64 64" style="enable-background:new 0 0 64 64;" xml:space="preserve">
<g>
	<g>
		<path style="fill:#F4C70E;" d="M35,3.042C34.165,2.389,33.123,2,32,2s-2.165,0.389-3,1.042V56l2,6h2l2-6V3.042z"/>
	</g>
	<g>
		
			<rect x="7.976" y="32.777" transform="matrix(0.9762 -0.2167 0.2167 0.9762 -7.1066 2.7533)" style="fill:#333333;" width="2.049" height="2.001"/>
		<path style="fill:#333333;" d="M57,30.154V25h-7v1.363l-11-5.958v-7.811c0-0.46-0.046-0.922-0.136-1.373l-1.099-5.495    C37.217,2.987,34.792,1,32,1s-5.217,1.987-5.765,4.726l-1.099,5.495C25.046,11.672,25,12.134,25,12.594v7.811l-11,5.958V25H7    v5.154l-6,3.25V39h2.086L25,35.189v7.916c0,2.442,0.374,4.853,1.075,7.186L16,57.485V63h2.123l11.221-2.806L30.279,63h3.441    l0.935-2.806l11.101,2.775L48,63v-5.515l-10.075-7.193C38.626,47.958,39,45.548,39,43.105v-7.916l21.829,3.796L63,39v-5.596    L57,30.154z M52,27h3v2.071l-3-1.625V27z M9,27h3v0.446l-3,1.625V27z M3,36.985v-2.39l22-11.917v6.519l-13.217,2.937l0.434,1.953    L25,31.247v1.912L3,36.985z M18,60.969v-2.454l8.711-6.22l1.999,5.997L18,60.969z M32.279,61h-0.559L28.18,50.378    C27.397,48.029,27,45.582,27,43.105V12.594c0-0.328,0.033-0.658,0.097-0.98l1.099-5.495C28.558,4.312,30.158,3,32,3    s3.442,1.312,3.804,3.118l1.099,5.495C36.967,11.936,37,12.266,37,12.594v30.512c0,2.477-0.397,4.924-1.18,7.272L32.279,61z     M46,60.969l-10.71-2.677l1.999-5.997L46,58.515V60.969z M61,36.985l-22-3.827v-1.912l12.783,2.841l0.434-1.953L39,29.198v-6.519    l22,11.917V36.985z"/>
		
			<rect x="54" y="32.753" transform="matrix(0.2169 -0.9762 0.9762 0.2169 10.0977 80.143)" style="fill:#333333;" width="2.001" height="2.049"/>
	</g>
</g>

	</svg>
