<svg xmlns="http://www.w3.org/2000/svg" xmlns:xlink="http://www.w3.org/1999/xlink" version="1.1" id="rot-034" x="0px" y="0px" viewBox="0 0 64 64" style="enable-background:new 0 0 64 64;" xml:space="preserve">
<g>
	<path style="fill:#F4C70E;" d="M56.001,55H57c2.761,0,5-2.239,5-5V17c0-2.761-2.239-5-5-5h-0.999V55z"/>
	<path style="fill:#F4C70E;" d="M53,55h-0.999c-2.761,0-5-2.239-5-5V17c0-2.761,2.239-5,5-5H53V55z"/>
	<path style="fill:#F4C70E;" d="M11,55h0.999c2.761,0,5-2.239,5-5V17c0-2.761-2.239-5-5-5H11V55z"/>
	<path style="fill:#F4C70E;" d="M7.999,55H7c-2.761,0-5-2.239-5-5V17c0-2.761,2.239-5,5-5h0.999V55z"/>
	<rect x="10" y="24" style="fill:#333333;" width="2" height="2"/>
	<path style="fill:#333333;" d="M63,50V17c0-3.309-2.691-6-6-6h-5c-3.309,0-6,2.691-6,6v13h-9c0-1.654-1.346-3-3-3h-3   c-1.654,0-3,1.346-3,3H18V17c0-3.309-2.691-6-6-6H7c-3.309,0-6,2.691-6,6v33c0,2.086,1.071,3.924,2.69,5H1v2h21v-2h-6.69   c1.62-1.076,2.69-2.914,2.69-5V37h10c0,1.654,1.346,3,3,3h3c1.654,0,3-1.346,3-3h9v13c0,2.086,1.071,3.924,2.69,5H32v2h31v-2h-2.69   C61.929,53.924,63,52.086,63,50z M48,25.414l4-4v8.172l-4,4V25.414z M48,36.414l4-4v8.172l-4,4V36.414z M54,13h1.001v13h2v-4.585   L61,25.414v8.172l-3.999-3.999V28h-2v26H54V13z M57.001,32.415L61,36.414v8.172l-3.999-3.999V32.415z M61,17v5.586l-3.999-3.999V13   C59.207,13.001,61,14.794,61,17z M52,13v5.586l-4,4V17C48,14.794,49.794,13,52,13z M3,25.414l4-4v8.172l-4,4V25.414z M3,36.414l4-4   v8.172l-4,4V36.414z M12.001,32.415L16,36.414v8.172l-3.999-3.999V32.415z M12.001,29.587V28h-2v26H9V13h1.001v9h2v-0.585   L16,25.414v8.172L12.001,29.587z M16,17v5.586l-3.999-3.999V13C14.207,13.001,16,14.794,16,17z M7,13v5.586l-4,4V17   C3,14.794,4.794,13,7,13z M3,47.414l4-4V54c-2.206,0-4-1.794-4-4V47.414z M12.001,54V43.415L16,47.414V50   C16,52.206,14.207,53.999,12.001,54z M18,35v-3h10v3H18z M35,37c0,0.552-0.448,1-1,1h-3c-0.552,0-1-0.448-1-1v-7   c0-0.552,0.448-1,1-1h3c0.552,0,1,0.448,1,1V37z M37,35v-3h9v3H37z M48,47.414l4-4V54c-2.206,0-4-1.794-4-4V47.414z M57.001,54   V43.415L61,47.414V50C61,52.206,59.207,53.999,57.001,54z"/>
	<rect x="31" y="34" style="fill:#333333;" width="2" height="2"/>
	<rect x="11" y="61" style="fill:#333333;" width="52" height="2"/>
	<rect x="24" y="55" style="fill:#333333;" width="2" height="2"/>
	<rect x="28" y="55" style="fill:#333333;" width="2" height="2"/>
	<rect x="1" y="61" style="fill:#333333;" width="8" height="2"/>
	<rect x="2" y="6" style="fill:#333333;" width="25" height="2"/>
	<rect x="16" y="1" style="fill:#333333;" width="11" height="2"/>
	<rect x="49" y="6" style="fill:#333333;" width="13" height="2"/>
	<rect x="41" y="1" style="fill:#333333;" width="13" height="2"/>
	<rect x="45" y="6" style="fill:#333333;" width="2" height="2"/>
	<rect x="41" y="6" style="fill:#333333;" width="2" height="2"/>
</g>

	</svg>
