<svg xmlns="http://www.w3.org/2000/svg" xmlns:xlink="http://www.w3.org/1999/xlink" version="1.1" id="rot-035" x="0px" y="0px" viewBox="0 0 64 64" style="enable-background:new 0 0 64 64;" xml:space="preserve">
<g>
	<g>
		<circle style="fill:#F4C70E;" cx="32" cy="32" r="15"/>
	</g>
	<g>
		<path style="fill:#333333;" d="M47.586,1l-4.291,4.291C39.822,3.816,36.005,3,32,3C16.01,3,3,16.01,3,32    c0,11.232,6.423,20.986,15.785,25.801L15.586,61H1v2h15.414l4.291-4.291C24.178,60.184,27.995,61,32,61s7.822-0.816,11.295-2.291    L47.586,63H63v-2H48.414l-3.199-3.199C54.577,52.986,61,43.232,61,32S54.577,11.014,45.215,6.199L48.414,3H63V1H47.586z     M23.293,53.293l-3.023,3.023C11.242,51.943,5,42.687,5,32c0-6.103,2.038-11.737,5.465-16.264l6.05,5.294    C14.31,24.132,13,27.912,13,32c0,10.139,7.989,18.424,18,18.949v8.025c-3.077-0.113-6.022-0.743-8.755-1.806l2.462-2.462    L23.293,53.293z M49,32c0,9.374-7.626,17-17,17s-17-7.626-17-17s7.626-17,17-17S49,22.626,49,32z M59,32    c0,10.687-6.242,19.943-15.27,24.316l-3.023-3.023l-1.414,1.414l2.462,2.462c-2.733,1.063-5.678,1.693-8.755,1.806v-8.025    C43.011,50.424,51,42.139,51,32c0-5.918-2.722-11.21-6.977-14.698l4.799-6.399C55.019,15.855,59,23.469,59,32z M47.217,9.711    l-4.809,6.412C39.416,14.155,35.842,13,32,13c-5.67,0-10.754,2.51-14.239,6.462l-6.027-5.274C16.686,8.561,23.933,5,32,5    c3.439,0,6.727,0.653,9.755,1.831l-2.462,2.462l1.414,1.414l3.023-3.023C44.946,8.273,46.11,8.953,47.217,9.711z"/>
		<rect x="61" y="5" style="fill:#333333;" width="2" height="2"/>
		<rect x="50" y="5" style="fill:#333333;" width="9" height="2"/>
		<rect x="1" y="57" style="fill:#333333;" width="2" height="2"/>
		<rect x="5" y="57" style="fill:#333333;" width="9" height="2"/>
		<rect x="61" y="57" style="fill:#333333;" width="2" height="2"/>
		<rect x="50" y="57" style="fill:#333333;" width="9" height="2"/>
		<path style="fill:#333333;" d="M21,26.434V37.28l11,6.9l11-6.9V26.434l-11-6.6L21,26.434z M34.604,23.729l-7.584,5.056    l-3.06-1.794L32,22.166L34.604,23.729z M32,31.705l-3.062-1.795l7.564-5.042l3.538,2.123L32,31.705z M23,28.745l3,1.759V34h2    v-2.322l3,1.759v7.755l-8-5.017V28.745z M33,41.192v-7.755l8-4.692v7.429L33,41.192z"/>
	</g>
</g>

	</svg>
