<svg xmlns="http://www.w3.org/2000/svg" xmlns:xlink="http://www.w3.org/1999/xlink" version="1.1" id="rot-039" x="0px" y="0px" viewBox="0 0 64 64" style="enable-background:new 0 0 64 64;" xml:space="preserve">
<g>
	<g>
		<rect x="41" y="6" style="fill:#F4C70E;" width="14" height="6"/>
	</g>
	<g>
		<rect x="19" y="25" style="fill:#F4C70E;" width="42" height="10"/>
	</g>
	<g>
		<path style="fill:#333333;" d="M61,23v-4h-8v4H27v-4h-8v4h-2v8h-4c-2.757,0-5,2.243-5,5v22.5C8,59.878,6.879,61,5.5,61    S3,59.878,3,58.5V13c0-1.654,1.346-3,3-3h21.101c0.406,1.993,2.005,3.548,4.013,3.91C31.529,15.677,33.108,17,35,17h2.752    c0.221,0,0.44-0.018,0.657-0.055L57,13.847V9V4.153L38.41,1.055C38.192,1.018,37.973,1,37.752,1H35    c-1.892,0-3.471,1.323-3.886,3.09C29.106,4.452,27.507,6.007,27.101,8H6c-2.757,0-5,2.243-5,5v45.5C1,60.981,3.019,63,5.5,63    s4.5-2.019,4.5-4.5V36c0-1.654,1.346-3,3-3h4v30h46V23H61z M38.08,14.973C37.972,14.991,37.861,15,37.752,15H35    c-0.801,0-1.49-0.477-1.808-1.159c1.862-0.459,3.322-1.951,3.707-3.841H43v2h2v-2h2v2h2v-2h2v2h2v-2h2v2.153L38.08,14.973z M35,3    h2.752c0.109,0,0.22,0.009,0.329,0.027L55,5.847V8h-2V6h-2v2h-2V6h-2v2h-2V6h-2v2h-6.101c-0.385-1.89-1.845-3.381-3.707-3.841    C33.51,3.477,34.199,3,35,3z M32,6c1.654,0,3,1.346,3,3s-1.346,3-3,3s-3-1.346-3-3S30.346,6,32,6z M55,21h4v2h-4V21z M21,21h4v2    h-4V21z M19,61v-2h2v-2h-2v-2h2v-2h-2v-2h2v-2h-2v-2h2v-2h-2v-2h2v-2h-2V25h8h26h8v16h-2v2h2v2h-2v2h2v2h-2v2h2v2h-2v2h2v2h-2v2h2    v2H19z"/>
		<rect x="53" y="29" style="fill:#333333;" width="6" height="2"/>
		<polygon style="fill:#333333;" points="25,27 23,27 23,29 21,29 21,31 23,31 23,33 25,33 25,31 27,31 27,29 25,29   "/>
		<polygon style="fill:#333333;" points="39.034,49.551 29.74,39.327 28.26,40.673 38.966,52.449 41.962,49.453 50.257,58.669     51.743,57.331 42.038,46.547   "/>
		<rect x="31" y="8" style="fill:#333333;" width="2" height="2"/>
	</g>
</g>

	</svg>
