<svg xmlns="http://www.w3.org/2000/svg" xmlns:xlink="http://www.w3.org/1999/xlink" version="1.1" id="rot-039" x="0px" y="0px" viewBox="0 0 64 64" style="enable-background:new 0 0 64 64;" xml:space="preserve">
<g>
	<polygon style="fill:#F4C70E;" points="42,24 42,22 39.82,22 38.98,17.804 37.02,18.196 37.846,22.331 33.077,23.921    32.342,23.553 33.268,21.701 28.905,18.43 27.98,13.804 26.02,14.196 26.882,18.505 23.259,20.679 20.8,17.4 19.2,18.6    22.741,23.321 27.938,20.203 30.732,22.299 29.658,24.447 32,25.618 32,30 34,30 34,25.72 39.161,24  "/>
	<rect x="26" y="52" style="fill:#F4C70E;" width="19" height="2"/>
	<path style="fill:#333333;" d="M33,5h-9.515L18,12.68V15h15V5z M31,13H20.229l4.286-6H31V13z"/>
	<path style="fill:#333333;" d="M49,12.68L43.515,5H34v10h15V12.68z M41.78,13l-0.615-2.464l1.282-0.642l-0.895-1.789l-2.718,1.358   L39.72,13H36V7h6.485l4.286,6H41.78z"/>
	<path style="fill:#333333;" d="M15,26c-1.654,0-3,1.346-3,3s1.346,3,3,3s3-1.346,3-3S16.654,26,15,26z M15,30c-0.552,0-1-0.448-1-1   s0.448-1,1-1s1,0.448,1,1S15.552,30,15,30z"/>
	<path style="fill:#333333;" d="M49,26c-1.654,0-3,1.346-3,3s1.346,3,3,3s3-1.346,3-3S50.654,26,49,26z M49,30c-0.552,0-1-0.448-1-1   s0.448-1,1-1s1,0.448,1,1S49.552,30,49,30z"/>
	<path style="fill:#333333;" d="M53,52h10.254l-0.277-1.222C61.952,46.271,57.757,43,53,43c-3.575,0-6.815,1.9-8.599,5H26.599   c-1.023-1.778-2.535-3.144-4.305-4h5.404l3,2H40V36h22v-2h-8.111c1.074-1.051,1.807-2.444,2.031-4H60c2.479,0,3-1.632,3-3v-9   c0-2.479-2.022-4.677-3.758-4.97l-3.997-1c-1.006-0.255-1.588-0.648-2.432-1.611l-5.025-7.035C46.498,1.735,45.021,1,43,1H24   c-2.022,0-3.5,0.735-4.813,2.419l-4.941,6.925c-0.898,1.034-1.583,1.504-2.409,1.67l-6.04,1.007C2.928,13.618,1,16.021,1,19v7   c0,2.168,1.832,4,4,4h3.08c0.488,3.386,3.401,6,6.92,6h15.697l-3,2H1v2h27.303l3-2H38v6h-6.697l-3-2H1v2h12.572   c-2.751,1.298-4.865,3.758-5.547,6.779L7.749,52H18v2H7.747l0.277,1.222C9.049,59.729,13.243,63,18,63c3.575,0,6.815-1.9,8.599-5   h17.803c1.783,3.1,5.023,5,8.599,5c4.763,0,8.958-3.271,9.977-7.779L63.252,54H53V52z M49,34c-2.757,0-5-2.243-5-5s2.243-5,5-5   s5,2.243,5,5S51.757,34,49,34z M3,26v-5h2v2h2v-2c0-1.29-0.71-2-2-2H3c0-2.474,1.655-3.699,3.164-4.014l6.032-1.006   c1.306-0.262,2.369-0.957,3.617-2.399l4.975-6.966C21.708,3.438,22.579,3,24,3h19c1.42,0,2.291,0.438,3.187,1.581l5.059,7.075   c0.98,1.128,1.91,1.908,3.513,2.313l4.074,1.016C59.685,15.132,61,16.491,61,18v1h-2v2h2v6c0,0.859-0.141,1-1,1h-4.08   c-0.488-3.386-3.401-6-6.92-6s-6.432,2.614-6.92,6H21.92c-0.488-3.386-3.401-6-6.92-6s-6.432,2.614-6.92,6H5   C3.935,28,3,27.065,3,26z M10,29c0-2.757,2.243-5,5-5s5,2.243,5,5s-2.243,5-5,5S10,31.757,10,29z M19.889,34   c1.074-1.051,1.807-2.444,2.031-4h20.16c0.224,1.556,0.957,2.949,2.031,4H19.889z M60.633,56c-1.23,2.922-4.306,5-7.633,5   c-3.02,0-5.742-1.703-7.104-4.445L45.62,56H25.38l-0.275,0.555C23.742,59.297,21.02,61,18,61c-3.322,0-6.397-2.078-7.631-5H20v-6   h-9.632c1.23-2.922,4.306-5,7.632-5c3.02,0,5.742,1.703,7.104,4.445L25.38,50h20.24l0.275-0.555C47.258,46.703,49.98,45,53,45   c3.323,0,6.397,2.078,7.632,5H51v6H60.633z"/>
	<rect x="26" y="52" style="fill:#333333;" width="2" height="2"/>
	<rect x="30" y="52" style="fill:#333333;" width="2" height="2"/>
	<rect x="34" y="40" style="fill:#333333;" width="2" height="2"/>
	<rect x="6" y="34" style="fill:#333333;" width="2" height="2"/>
	<rect x="2" y="34" style="fill:#333333;" width="2" height="2"/>
</g>

	</svg>
