<svg xmlns="http://www.w3.org/2000/svg" xmlns:xlink="http://www.w3.org/1999/xlink" version="1.1" id="rot-040" x="0px" y="0px" viewBox="0 0 64 64" style="enable-background:new 0 0 64 64;" xml:space="preserve">
<g>
	<g>
		<rect x="11" y="59" style="fill:#F4C70E;" width="18" height="4"/>
	</g>
	<g>
		<rect x="35" y="59" style="fill:#F4C70E;" width="18" height="4"/>
	</g>
	<g>
		<rect x="13" y="3" style="fill:#F4C70E;" width="8" height="12"/>
	</g>
	<g>
		<path style="fill:#333333;" d="M58.853,33c-1.506,0-2.896,0.817-3.626,2.134L55,35.542V33h3V1H6v32h3v2.542l-0.227-0.408    C8.043,33.817,6.653,33,5.147,33C2.86,33,1,34.86,1,37.213c0,0.679,0.169,1.354,0.487,1.952L9,53.25V63h2v-2h14v-2H11v-6.25    L3.253,38.224C3.087,37.914,3,37.564,3,37.147C3,35.963,3.963,35,5.147,35c0.78,0,1.499,0.423,1.878,1.104L11.411,44H12    c3.859,0,7,3.141,7,7v3h2v-3c0-4.761-3.717-8.671-8.4-8.98L10.922,39H11v-6h3v6h2v-6h3v6h2v-6h3v6h2v-6h3v26h-2v2h2v2h2V33h2v30h2    v-2h14v-2H35V33h3v6h2v-6h3v6h2v-6h3v6h2v-6h3v6h0.078L51.4,42.02c-4.684,0.31-8.4,4.22-8.4,8.98v3h2v-3c0-3.859,3.141-7,7-7    h0.589l4.386-7.896C57.354,35.423,58.072,35,58.853,35C60.037,35,61,35.963,61,37.213c0,0.352-0.087,0.701-0.253,1.011L53,52.75    V59h-2v2h2v2h2v-9.75l7.513-14.085C62.831,38.566,63,37.892,63,37.147C63,34.86,61.14,33,58.853,33z M56,31H28V3h28V31z M8,3h18    v28H8V3z"/>
		<rect x="30" y="27" style="fill:#333333;" width="2" height="2"/>
		<rect x="34" y="27" style="fill:#333333;" width="2" height="2"/>
		<rect x="38" y="27" style="fill:#333333;" width="2" height="2"/>
		<rect x="30" y="23" style="fill:#333333;" width="2" height="2"/>
		<rect x="30" y="20" style="fill:#333333;" width="2" height="2"/>
		<rect x="34" y="23" style="fill:#333333;" width="2" height="2"/>
	</g>
</g>

	</svg>
