<svg xmlns="http://www.w3.org/2000/svg" xmlns:xlink="http://www.w3.org/1999/xlink" version="1.1" id="rot-042" x="0px" y="0px" viewBox="0 0 64 64" style="enable-background:new 0 0 64 64;" xml:space="preserve">
<g>
	<g>
		<rect x="36" y="23" style="fill:#F4C70E;" width="8" height="14"/>
	</g>
	<g>
		<path style="fill:#333333;" d="M33,21V1h-5.468l-5.885,7.062l3.887,3.886l-10.393,9.008l4.168-8.336l-5-3L18.618,1H1v20    c0,7.681,5.53,14.281,13,15.702V57h-3.528c-3.14,0-5.962,1.744-7.367,4.553L2.382,63H30h1.618H63V21H33z M5.891,61    c1.161-1.262,2.804-2,4.582-2H16V34.977l-0.868-0.116C8.216,33.936,3,27.978,3,21V3h12.382l-3.69,7.381l5,3L8.859,29.045    l19.607-16.992l-4.113-4.114L28.468,3H31v18c0,6.978-5.216,12.936-12.132,13.86L18,34.977V59h5.528c1.778,0,3.421,0.738,4.582,2    H5.891z M61,61H30.569c-1.485-2.475-4.118-4-7.041-4H20V36.702C26.811,35.407,31.995,29.801,32.859,23H61V61z"/>
		<rect x="57" y="57" style="fill:#333333;" width="2" height="2"/>
		<rect x="53" y="57" style="fill:#333333;" width="2" height="2"/>
		<rect x="49" y="57" style="fill:#333333;" width="2" height="2"/>
		<rect x="57" y="53" style="fill:#333333;" width="2" height="2"/>
		<rect x="57" y="49" style="fill:#333333;" width="2" height="2"/>
		<rect x="53" y="53" style="fill:#333333;" width="2" height="2"/>
	</g>
</g>

	</svg>
