<svg xmlns="http://www.w3.org/2000/svg" xmlns:xlink="http://www.w3.org/1999/xlink" version="1.1" id="rot-044" x="0px" y="0px" viewBox="0 0 64 64" style="enable-background:new 0 0 64 64;" xml:space="preserve">
<g>
	<g>
		<circle style="fill:#F4C70E;" cx="57" cy="32" r="4"/>
	</g>
	<g>
		<circle style="fill:#F4C70E;" cx="49" cy="32" r="4"/>
	</g>
	<g>
		<circle style="fill:#F4C70E;" cx="15" cy="32" r="4"/>
	</g>
	<g>
		<circle style="fill:#F4C70E;" cx="7" cy="32" r="4"/>
	</g>
	<g>
		<path style="fill:#333333;" d="M56,1H8C4.141,1,1,4.141,1,8v39c0,1.654,1.346,3,3,3h2v10c0,1.654,1.346,3,3,3h4    c1.654,0,3-1.346,3-3V50h5.184c0.414,1.161,1.514,2,2.816,2h16c1.302,0,2.402-0.839,2.816-2H48v10c0,1.654,1.346,3,3,3h4    c1.654,0,3-1.346,3-3V50h2c1.654,0,3-1.346,3-3V8C63,4.141,59.859,1,56,1z M8,3h48c2.757,0,5,2.243,5,5v32H42.816    c-0.414-1.161-1.514-2-2.816-2H24c-1.302,0-2.402,0.839-2.816,2H3V8C3,5.243,5.243,3,8,3z M21,42v2H3v-2H21z M14,60    c0,0.552-0.448,1-1,1h-1v-2h-2v2H9c-0.552,0-1-0.448-1-1V50h2v7h2v-7h2V60z M6,48H4c-0.552,0-1-0.448-1-1v-1h18v2h-5H6z M41,49    c0,0.552-0.448,1-1,1H24c-0.552,0-1-0.448-1-1v-8c0-0.552,0.448-1,1-1h16c0.552,0,1,0.448,1,1V49z M56,60c0,0.552-0.448,1-1,1h-1    v-2h-2v2h-1c-0.552,0-1-0.448-1-1V50h2v7h2v-7h2V60z M60,48h-2H48h-5v-2h2v-2h-2v-2h18v2H47v2h14v1C61,47.552,60.552,48,60,48z"/>
		<path style="fill:#333333;" d="M57,10c0-1.654-1.346-3-3-3H10c-1.654,0-3,1.346-3,3v18h50V10z M55,26H43.72l-3.772-11.316    l-1.896,0.633L41.613,26H25.72l-3.772-11.316l-1.896,0.633L23.613,26H9V10c0-0.552,0.448-1,1-1h44c0.552,0,1,0.448,1,1V26z"/>
	</g>
</g>

	</svg>
