<svg xmlns="http://www.w3.org/2000/svg" xmlns:xlink="http://www.w3.org/1999/xlink" version="1.1" id="rot-045" x="0px" y="0px" viewBox="0 0 64 64" style="enable-background:new 0 0 64 64;" xml:space="preserve">
<g>
	<path style="fill:#333333;" d="M58,5h-1c0-2.206-1.794-4-4-4s-4,1.794-4,4H15c0-2.206-1.794-4-4-4S7,2.794,7,5H6   c-2.757,0-5,2.243-5,5v36c0,2.757,2.243,5,5,5h17v-2H6c-1.654,0-3-1.346-3-3V17h58v29c0,1.654-1.346,3-3,3h-5v2h5   c2.757,0,5-2.243,5-5V10C63,7.243,60.757,5,58,5z M51,5c0-1.103,0.897-2,2-2s2,0.897,2,2v4c0,1.103-0.897,2-2,2s-2-0.897-2-2V5z    M9,5c0-1.103,0.897-2,2-2s2,0.897,2,2v4c0,1.103-0.897,2-2,2s-2-0.897-2-2V5z M3,15v-5c0-1.654,1.346-3,3-3h1v2   c0,2.206,1.794,4,4,4s4-1.794,4-4V7h34v2c0,2.206,1.794,4,4,4s4-1.794,4-4V7h1c1.654,0,3,1.346,3,3v5H3z"/>
	<path style="fill:#F4C70E;" d="M38,26c-3.107,0-6.031,0.787-8.581,2.174L20,26l2.173,9.418C20.787,37.969,20,40.893,20,44   c0,9.941,8.059,18,18,18s18-8.059,18-18C56,34.059,47.941,26,38,26z"/>
	<path style="fill:#333333;" d="M26,53h24V35H26V53z M36,37h4v6h-4V37z M28,37h6v8h8v-8h6v14H28V37z"/>
</g>

	</svg>
