<svg xmlns="http://www.w3.org/2000/svg" xmlns:xlink="http://www.w3.org/1999/xlink" version="1.1" id="rot-046" x="0px" y="0px" viewBox="0 0 64 64" style="enable-background:new 0 0 64 64;" xml:space="preserve">
<g>
	<g>
		<rect x="43" y="36" style="fill:#F4C70E;" width="16" height="17"/>
	</g>
	<g>
		<path style="fill:#333333;" d="M58,27H44c-2.757,0-5,2.243-5,5v8.531l-6-1.332v-2.471c2.918-2.106,4.85-5.485,4.979-9.32    C40.568,24.674,42,21.122,42,17.343V13c0-2.532-1.893-4.632-4.338-4.956C35.564,3.745,31.204,1,26.384,1h-1.683    c-3.252,0-6.458,1.1-9.026,3.097C12.068,6.902,10,11.132,10,15.701V17v0.343V30c0,1.654,1.346,3,3,3h2.623    c0.852,1.468,2.005,2.737,3.377,3.727v2.471l-7.82,1.737C5.186,42.268,1,47.485,1,53.626V63h43h14c2.757,0,5-2.243,5-5V32    C63,29.243,60.757,27,58,27z M44,29h14c1.654,0,3,1.346,3,3H41C41,30.346,42.346,29,44,29z M40.026,61h-9.026l6.229-4.672    l-2.966-6.92L39,46.566V58C39,59.13,39.391,60.162,40.026,61z M61,34v21H41V34H61z M39,45.723l-2.176-3.627L39,42.58V45.723z     M34.16,41.504l-0.018,0.01l2.485,4.143l-4.891,2.935l3.034,7.08L27.667,61h-0.358l5.405-19.817L34.16,41.504z M12,15.701    c0-3.948,1.787-7.603,4.903-10.026C19.122,3.95,21.892,3,24.701,3h1.683c4.226,0,8.032,2.51,9.697,6.394L36.341,10H37    c1.654,0,3,1.346,3,3v4.343c0,2.456-0.703,4.802-2,6.82V16h-2.192l-0.345,0.138C29.057,18.7,22.31,20,15.408,20H14v4.163    c-1.297-2.018-2-4.364-2-6.82V17V15.701z M13,31c-0.552,0-1-0.448-1-1v-5.287c0.563,0.963,1.237,1.866,2.021,2.694    c0.042,1.257,0.278,2.462,0.679,3.593H13z M18.019,33h4.165c0.414,1.161,1.514,2,2.816,2h2c1.654,0,3-1.346,3-3s-1.346-3-3-3h-2    c-1.302,0-2.402,0.839-2.816,2h-5.343C16.303,29.774,16,28.422,16,27v-5.003c6.877-0.071,13.602-1.39,20-3.921V27    c0,5.514-4.486,10-10,10C22.739,37,19.846,35.423,18.019,33z M24,32c0-0.552,0.448-1,1-1h2c0.552,0,1,0.448,1,1s-0.448,1-1,1h-2    C24.448,33,24,32.552,24,32z M26,39c1.786,0,3.476-0.403,5-1.105v1.971L26,58.2l-5-18.333v-1.971C22.524,38.597,24.214,39,26,39z     M19.286,41.183L24.691,61h-0.358l-7.104-5.328l3.034-7.08l-4.891-2.935l2.485-4.143l-0.017-0.01L19.286,41.183z M3,53.626    c0-5.195,3.542-9.611,8.613-10.737l3.562-0.792l-2.548,4.246l5.109,3.065l-2.966,6.92L21.001,61H13v-4h-2v4H3V53.626z M58,61H44    c-1.654,0-3-1.346-3-3v-1h20v1C61,59.654,59.654,61,58,61z"/>
		<rect x="48" y="58" style="fill:#333333;" width="6" height="2"/>
	</g>
</g>

	</svg>
