<svg xmlns="http://www.w3.org/2000/svg" xmlns:xlink="http://www.w3.org/1999/xlink" version="1.1" id="rot-047" x="0px" y="0px" viewBox="0 0 64 64" style="enable-background:new 0 0 64 64;" xml:space="preserve">
<g>
	<g>
		<path style="fill:#F4C70E;" d="M50,27c-7.168,0-13-5.832-13-13S42.832,1,50,1s13,5.832,13,13S57.168,27,50,27z"/>
	</g>
	<g>
		<path style="fill:#F4C70E;" d="M50,63c-7.168,0-13-5.832-13-13s5.832-13,13-13s13,5.832,13,13S57.168,63,50,63z"/>
	</g>
	<g>
		<path style="fill:#F4C70E;" d="M14,27C6.832,27,1,21.168,1,14S6.832,1,14,1s13,5.832,13,13S21.168,27,14,27z"/>
	</g>
	<g>
		<path style="fill:#F4C70E;" d="M14,63C6.832,63,1,57.168,1,50s5.832-13,13-13s13,5.832,13,13S21.168,63,14,63z"/>
	</g>
	<g>
		<rect x="29" y="19" style="fill:#F4C70E;" width="6" height="12"/>
	</g>
	<g>
		<rect x="45" y="25.303" style="fill:#333333;" width="2" height="13.395"/>
		<rect x="25.303" y="45" style="fill:#333333;" width="13.395" height="2"/>
		<rect x="17" y="25.303" style="fill:#333333;" width="2" height="13.395"/>
		<rect x="25.303" y="17" style="fill:#333333;" width="13.395" height="2"/>
		<path style="fill:#333333;" d="M48.823,7.591C49.204,7.21,49.711,7,50.249,7C50.971,7,51.642,7.39,52,8.016L54.277,12H52v2h4.535    l2.297-3.445l-1.664-1.109l-1.103,1.654l-2.329-4.076C53.022,5.775,51.687,5,50.249,5c-1.072,0-2.081,0.418-2.84,1.177    l-1.116,1.116l1.414,1.414L48.823,7.591z"/>
		<path style="fill:#333333;" d="M58.724,16.211l-0.829-1.658l-1.789,0.895l0.829,1.658C56.978,17.19,57,17.286,57,17.382    C57,17.723,56.723,18,56.382,18h-4.513l0.963-1.445l-1.664-1.109L48.798,19l2.37,3.555l1.664-1.109L51.869,20h4.513    C57.825,20,59,18.825,59,17.382C59,16.978,58.904,16.572,58.724,16.211z"/>
		<path style="fill:#333333;" d="M47,18h-3.697C42.584,18,42,17.416,42,16.697c0-0.258,0.075-0.508,0.219-0.723L45,11.803    l1.168,1.752l1.664-1.109l-2.19-3.285l-3.325-1.108l-0.633,1.896l1.758,0.586l-2.887,4.331C40.191,15.409,40,16.043,40,16.697    C40,18.519,41.481,20,43.303,20H47V18z"/>
		<path style="fill:#333333;" d="M14,5c-4.963,0-9,4.037-9,9v1h8v5c0,0.552-0.448,1-1,1s-1-0.448-1-1v-1H9v1c0,1.654,1.346,3,3,3    s3-1.346,3-3v-5h8v-1C23,9.037,18.963,5,14,5z M14,7.339c0.918,0.901,2.59,2.895,2.932,5.661h-5.864    C11.41,10.233,13.082,8.24,14,7.339z M11.123,7.625C10.185,8.939,9.266,10.754,9.048,13H7.071    C7.416,10.599,8.987,8.594,11.123,7.625z M18.952,13c-0.217-2.246-1.136-4.061-2.075-5.375c2.137,0.968,3.708,2.974,4.052,5.375    H18.952z"/>
		<polygon style="fill:#333333;" points="19,45.869 20.445,46.832 21.555,45.168 18,42.798 14.445,45.168 15.555,46.832 17,45.869     17,54 11,54 11,45.869 12.445,46.832 13.555,45.168 10,42.798 6.445,45.168 7.555,46.832 9,45.869 9,54 6,54 6,56 22,56 22,54     19,54   "/>
		<path style="fill:#333333;" d="M45,46c0,2.414,1.721,4.434,4,4.899V57h-2v2h6v-2h-2v-6.101c2.279-0.465,4-2.484,4-4.899v-5H45V46z     M53,46c0,1.654-1.346,3-3,3c-0.182,0-0.359-0.023-0.532-0.054l3.221-3.221l-2.229-1.113L51.535,43H53V46z M47,43h2.132    l-1.592,2.388l1.771,0.887l-1.619,1.619C47.266,47.375,47,46.722,47,46V43z"/>
	</g>
</g>

	</svg>
