<svg xmlns="http://www.w3.org/2000/svg" xmlns:xlink="http://www.w3.org/1999/xlink" version="1.1" id="rot-050" x="0px" y="0px" viewBox="0 0 64 64" style="enable-background:new 0 0 64 64;" xml:space="preserve">
<g>
	<rect x="14" y="12" style="fill:#F4C70E;" width="2" height="14"/>
	<rect x="7" y="12" style="fill:#F4C70E;" width="2" height="18"/>
	<rect x="49" y="12" style="fill:#F4C70E;" width="2" height="18"/>
	<rect x="56" y="12" style="fill:#F4C70E;" width="2" height="18"/>
	<rect x="21" y="12" style="fill:#F4C70E;" width="2" height="14"/>
	<rect x="28" y="16" style="fill:#F4C70E;" width="2" height="10"/>
	<rect x="35" y="12" style="fill:#F4C70E;" width="2" height="10"/>
	<rect x="42" y="12" style="fill:#F4C70E;" width="2" height="14"/>
	<rect x="14" y="32" style="fill:#F4C70E;" width="2" height="2"/>
	<rect x="56" y="32" style="fill:#F4C70E;" width="2" height="2"/>
	<rect x="7" y="32" style="fill:#F4C70E;" width="2" height="2"/>
	<rect x="7" y="36" style="fill:#F4C70E;" width="2" height="2"/>
	<rect x="56" y="36" style="fill:#F4C70E;" width="2" height="2"/>
	<rect x="35" y="24" style="fill:#F4C70E;" width="2" height="2"/>
	<rect x="14" y="28" style="fill:#F4C70E;" width="2" height="2"/>
	<rect x="1" y="37" style="fill:#F4C70E;" width="2" height="2"/>
	<rect x="61" y="37" style="fill:#F4C70E;" width="2" height="2"/>
	<rect x="28" y="12" style="fill:#F4C70E;" width="2" height="2"/>
	<path style="fill:#F4C70E;" d="M2,9h60V8c0-1.657-1.343-3-3-3H5C3.343,5,2,6.343,2,8V9z"/>
	<path style="fill:#333333;" d="M18,39.68V42h15V32h-9.515L18,39.68z M31,34v6H20.229l4.286-6H31z"/>
	<path style="fill:#333333;" d="M34,32v10h15v-2.32L43.515,32H34z M36,40v-6h6.485l4.286,6H36z"/>
	<path style="fill:#333333;" d="M59.242,40.03l-3.997-1c-1.006-0.255-1.588-0.648-2.432-1.611l-5.025-7.035   C46.498,28.735,45.021,28,43,28H24c-2.022,0-3.5,0.735-4.813,2.419l-4.941,6.925c-0.898,1.034-1.583,1.504-2.409,1.67l-6.04,1.007   C2.928,40.618,1,43.021,1,46v7c0,2.168,1.832,4,4,4h3.08c0.488,3.386,3.401,6,6.92,6h48v-2h-9.111c1.074-1.051,1.807-2.444,2.031-4   H60c2.479,0,3-1.632,3-3v-9C63,42.521,60.978,40.323,59.242,40.03z M10,56c0-2.757,2.243-5,5-5s5,2.243,5,5s-2.243,5-5,5   S10,58.757,10,56z M19.889,61c1.074-1.051,1.807-2.444,2.031-4h20.16c0.224,1.556,0.957,2.949,2.031,4H19.889z M49,61   c-2.757,0-5-2.243-5-5s2.243-5,5-5s5,2.243,5,5S51.757,61,49,61z M61,54c0,0.859-0.141,1-1,1h-4.08c-0.488-3.386-3.401-6-6.92-6   s-6.432,2.614-6.92,6H21.92c-0.488-3.386-3.401-6-6.92-6s-6.432,2.614-6.92,6H5c-1.065,0-2-0.935-2-2v-5h2v2h2v-2   c0-1.29-0.71-2-2-2H3c0-2.474,1.655-3.699,3.164-4.014l6.032-1.006c1.306-0.262,2.369-0.957,3.617-2.399l4.975-6.966   C21.708,30.438,22.579,30,24,30h19c1.42,0,2.291,0.438,3.187,1.581l5.059,7.075c0.98,1.128,1.91,1.908,3.513,2.313l4.074,1.016   C59.685,42.132,61,43.491,61,45V54z"/>
	<rect x="30" y="44" style="fill:#333333;" width="3" height="2"/>
	<path style="fill:#333333;" d="M15,53c-1.654,0-3,1.346-3,3s1.346,3,3,3s3-1.346,3-3S16.654,53,15,53z M15,57c-0.552,0-1-0.448-1-1   s0.448-1,1-1s1,0.448,1,1S15.552,57,15,57z"/>
	<path style="fill:#333333;" d="M49,53c-1.654,0-3,1.346-3,3s1.346,3,3,3s3-1.346,3-3S50.654,53,49,53z M49,57c-0.552,0-1-0.448-1-1   s0.448-1,1-1s1,0.448,1,1S49.552,57,49,57z"/>
	<rect x="6" y="61" style="fill:#333333;" width="2" height="2"/>
	<rect x="2" y="61" style="fill:#333333;" width="2" height="2"/>
	<path style="fill:#333333;" d="M59,4H46V1h-2v3H20V1h-2v3H5C2.794,4,1,5.794,1,8v2h62V8C63,5.794,61.206,4,59,4z M3,8   c0-1.103,0.897-2,2-2h54c1.103,0,2,0.897,2,2H3z"/>
</g>

	</svg>
