<svg xmlns="http://www.w3.org/2000/svg" xmlns:xlink="http://www.w3.org/1999/xlink" version="1.1" id="rot-049" x="0px" y="0px" viewBox="0 0 64 64" style="enable-background:new 0 0 64 64;" xml:space="preserve">
<g>
	<g>
		<path style="fill:#F4C70E;" d="M15,7c-4.411,0-8,3.589-8,8v22h46V7H15z"/>
	</g>
	<g>
		<path style="fill:#333333;" d="M14,1C6.832,1,1,6.832,1,14v43h40.627C41.232,58.606,41,60.274,41,62v1h22V42v-1V1H14z M43,29v2h-2    V19h2v8h2v-8h6c3.309,0,6,2.691,6,6s-2.691,6-6,6h-6v-2H43z M57.484,29.668L61,32.481v5.668l-5.332-6.665    C56.366,30.979,56.979,30.366,57.484,29.668z M3,55V14C3,7.935,7.935,3,14,3h47v26.919l-2.546-2.037    C58.802,26.987,59,26.017,59,25c0-4.411-3.589-8-8-8H39v16h12c1.017,0,1.987-0.198,2.882-0.546l6.887,8.608    C52.186,41.564,44.986,47.228,42.225,55H3z M61,61H43.026C43.531,51.318,51.318,43.531,61,43.026V61z"/>
		<path style="fill:#333333;" d="M24,41h-8.021c-0.939-1.246-2.416-2-3.979-2c-2.757,0-5,2.243-5,5s2.243,5,5,5    c1.563,0,3.04-0.754,3.979-2H24c1.654,0,3-1.346,3-3S25.654,41,24,41z M24,45h-9.13l-0.289,0.497C14.033,46.438,13.068,47,12,47    c-1.654,0-3-1.346-3-3s1.346-3,3-3c1.068,0,2.033,0.562,2.581,1.503L14.87,43H24c0.552,0,1,0.449,1,1S24.552,45,24,45z"/>
		<rect x="15" y="11" style="fill:#333333;" width="2" height="2"/>
		<rect x="19" y="11" style="fill:#333333;" width="20" height="2"/>
	</g>
</g>

	</svg>
