<svg xmlns="http://www.w3.org/2000/svg" xmlns:xlink="http://www.w3.org/1999/xlink" version="1.1" id="rot-051" x="0px" y="0px" viewBox="0 0 64 64" style="enable-background:new 0 0 64 64;" xml:space="preserve">
<g>
	<g>
		<path style="fill:#F4C70E;" d="M52,37c-6.075,0-11,4.925-11,11c0,2.659,0.944,5.098,2.515,7h16.971C62.056,53.098,63,50.659,63,48    C63,41.925,58.075,37,52,37z"/>
	</g>
	<g>
		<path style="fill:#F4C70E;" d="M33,37c0,6.075-4.925,11-11,11s-11-4.925-11-11H33z"/>
	</g>
	<g>
		<path style="fill:#333333;" d="M50,37c2.757,0,5-2.243,5-5V6c0-2.757-2.243-5-5-5H6C3.243,1,1,3.243,1,6v26    c0,2.414,1.721,4.434,4,4.899V63h34V37H50z M53,12H3V8h50V12z M6,3h44c1.654,0,3,1.346,3,3H3C3,4.346,4.346,3,6,3z M3,32V14h50v18    c0,1.654-1.346,3-3,3H6C4.346,35,3,33.654,3,32z M37,61H7V37h30V61z"/>
		<path style="fill:#333333;" d="M37,33c1.093,0,2.116-0.299,3-0.812C40.884,32.701,41.907,33,43,33c3.309,0,6-2.691,6-6    s-2.691-6-6-6c-1.093,0-2.116,0.299-3,0.812C39.116,21.299,38.093,21,37,21c-3.309,0-6,2.691-6,6S33.691,33,37,33z M40,24.382    c0.615,0.703,1,1.612,1,2.618s-0.385,1.914-1,2.618c-0.615-0.703-1-1.612-1-2.618S39.385,25.086,40,24.382z M47,27    c0,2.206-1.794,4-4,4c-0.468,0-0.91-0.096-1.328-0.244C42.501,29.727,43,28.421,43,27s-0.499-2.727-1.328-3.756    C42.09,23.096,42.532,23,43,23C45.206,23,47,24.794,47,27z M37,23c0.468,0,0.91,0.096,1.328,0.244C37.499,24.273,37,25.579,37,27    s0.499,2.727,1.328,3.756C37.91,30.904,37.468,31,37,31c-2.206,0-4-1.794-4-4S34.794,23,37,23z"/>
		<path style="fill:#333333;" d="M53,55v-1.051c1.692-0.245,3-1.691,3-3.449c0-1.93-1.57-3.5-3.5-3.5h-1c-0.827,0-1.5-0.673-1.5-1.5    s0.673-1.5,1.5-1.5h1c0.827,0,1.5,0.673,1.5,1.5V46h2v-0.5c0-1.758-1.308-3.204-3-3.449V40h-2v2.051c-1.692,0.245-3,1.691-3,3.449    c0,1.93,1.57,3.5,3.5,3.5h1c0.827,0,1.5,0.673,1.5,1.5S53.327,52,52.5,52h-1c-0.827,0-1.5-0.673-1.5-1.5V50h-2v0.5    c0,1.758,1.308,3.204,3,3.449V55H41v8h22v-8H53z M61,61H43v-4h2v2h2v-2h2v2h2v-2h2v2h2v-2h2v2h2v-2h2V61z"/>
	</g>
</g>

	</svg>
