<svg xmlns="http://www.w3.org/2000/svg" xmlns:xlink="http://www.w3.org/1999/xlink" version="1.1" id="rot-053" x="0px" y="0px" viewBox="0 0 64 64" style="enable-background:new 0 0 64 64;" xml:space="preserve">
<g>
	<g>
		<path style="fill:#F4C70E;" d="M53,52c0,3.859-3.141,7-7,7s-7-3.141-7-7H53z"/>
	</g>
	<g>
		<path style="fill:#F4C70E;" d="M26,52c0,3.859-3.141,7-7,7s-7-3.141-7-7H26z"/>
	</g>
	<g>
		<path style="fill:#333333;" d="M61,45.184V31c0-1.654-1.346-3-3-3h-1v-8c0-3.859-3.141-7-7-7H24.821    c-2.708,0-5.197,1.586-6.344,4.04L13.363,28H6c-1.654,0-3,1.346-3,3v14.184C1.839,45.598,1,46.698,1,48v2c0,1.654,1.346,3,3,3    h4.051C8.558,58.598,13.272,63,19,63s10.442-4.402,10.949-10h5.101C35.558,58.598,40.272,63,46,63s10.442-4.402,10.949-10H60    c1.654,0,3-1.346,3-3v-2C63,46.698,62.161,45.598,61,45.184z M6,30h8.637l5.653-12.114C21.108,16.133,22.887,15,24.821,15H50    c2.757,0,5,2.243,5,5v10h3c0.552,0,1,0.448,1,1v14h-7V21c0-1.654-1.346-3-3-3H25.354c-1.234,0-2.327,0.74-2.786,1.886L19,28.808    V45H5V31C5,30.448,5.448,30,6,30z M21,30h14v15H21V30z M21.477,28l2.949-7.371C24.578,20.247,24.943,20,25.354,20H35v8H21.477z     M37,30h2v-2h-2v-8h12c0.552,0,1,0.448,1,1v7h-9v2h9v15H37V30z M19,61c-4.625,0-8.442-3.507-8.941-8h17.882    C27.442,57.493,23.625,61,19,61z M46,61c-4.625,0-8.442-3.507-8.941-8h17.882C54.442,57.493,50.625,61,46,61z M61,50    c0,0.552-0.448,1-1,1H4c-0.552,0-1-0.448-1-1v-2c0-0.552,0.448-1,1-1h56c0.552,0,1,0.448,1,1V50z"/>
		<rect x="28" y="32" style="fill:#333333;" width="5" height="2"/>
		<rect x="43" y="32" style="fill:#333333;" width="5" height="2"/>
		<path style="fill:#333333;" d="M29,8.969V9h20V8.969C49.912,10.194,51.359,11,53,11h4V9h-4c-1.654,0-3-1.346-3-3s1.346-3,3-3h4V1    h-4c-1.641,0-3.088,0.806-4,2.031V3H29v0.031C28.088,1.806,26.641,1,25,1h-4v2h4c1.654,0,3,1.346,3,3s-1.346,3-3,3h-4v2h4    C26.641,11,28.088,10.194,29,8.969z M48.101,5C48.035,5.323,48,5.658,48,6s0.035,0.677,0.101,1H29.899C29.965,6.677,30,6.342,30,6    s-0.035-0.677-0.101-1H48.101z"/>
	</g>
</g>

	</svg>
