<svg xmlns="http://www.w3.org/2000/svg" xmlns:xlink="http://www.w3.org/1999/xlink" version="1.1" id="rot-056" x="0px" y="0px" viewBox="0 0 64 64" style="enable-background:new 0 0 64 64;" xml:space="preserve">
<g>
	<g>
		<path style="fill:#F4C70E;" d="M2,19h17.646c1.453,0,2.791,0.788,3.497,2.057L32,37H2L2,19z"/>
	</g>
	<g>
		<path style="fill:#F4C70E;" d="M53,40h6h0.572c-3.114-5.375-8.914-9-15.572-9C44,35.971,48.029,40,53,40z"/>
	</g>
	<path style="fill:#333333;" d="M25,47c-3.309,0-6,2.691-6,6s2.691,6,6,6s6-2.691,6-6S28.309,47,25,47z M25,57c-2.206,0-4-1.794-4-4   s1.794-4,4-4s4,1.794,4,4S27.206,57,25,57z"/>
	<path style="fill:#333333;" d="M56,34.285V15.414l2.086-2.086C58.667,12.747,59,11.943,59,11.121C59,9.4,57.6,8,55.879,8   c-0.834,0-1.618,0.324-2.207,0.914L37.213,25.372C34.745,16.521,26.628,10,17,10H1v48h15.353c1.732,2.984,4.955,5,8.647,5   s6.915-2.016,8.647-5H63v-9C63,43.072,60.268,37.772,56,34.285z M55.086,10.328C55.298,10.116,55.579,10,55.879,10   C56.497,10,57,10.503,57,11.121c0,0.295-0.12,0.584-0.328,0.793L38.586,30h-0.609c-0.037-0.784-0.128-1.554-0.249-2.314   L55.086,10.328z M54,17.414v15.461C51.091,31.064,47.671,30,44,30h-2.586L54,17.414z M3,56v-3h12c0,1.045,0.163,2.052,0.461,3H3z    M25,61c-4.411,0-8-3.589-8-8s3.589-8,8-8s8,3.589,8,8S29.411,61,25,61z M61,51h-2v2h2v3H34.539C34.837,55.052,35,54.045,35,53h22   v-2H34.798c-0.929-4.559-4.969-8-9.798-8s-8.869,3.441-9.798,8H3V38h44.387c-0.709-0.571-1.326-1.242-1.835-2H3V12h14   c5.075,0,9.847,1.977,13.435,5.564C34.023,21.153,36,25.925,36,31v1h8c9.374,0,17,7.626,17,17V51z"/>
</g>

	</svg>
