<svg xmlns="http://www.w3.org/2000/svg" xmlns:xlink="http://www.w3.org/1999/xlink" version="1.1" id="rot-059" x="0px" y="0px" viewBox="0 0 64 64" style="enable-background:new 0 0 64 64;" xml:space="preserve">
<g>
	<g>
		<rect x="27" y="3" style="fill:#F4C70E;" width="10" height="14"/>
	</g>
	<g>
		<circle style="fill:#F4C70E;" cx="47" cy="31" r="8"/>
	</g>
	<g>
		<path style="fill:#333333;" d="M63,1H1v42h37.438l-3.636,20h2.501l2.57-1.713L41.586,63h2.275l3.001-20.007    C46.909,42.994,46.953,43,47,43s0.091-0.006,0.138-0.007L50.139,63h2.275l1.713-1.713L56.697,63h2.501l-3.636-20H63V1z     M42.175,60.761l-2.047-2.047l-2.86,1.907l3.522-19.372c1.234,0.751,2.608,1.286,4.08,1.551L42.175,60.761z M37,31    c0-5.514,4.486-10,10-10s10,4.486,10,10s-4.486,10-10,10S37,36.514,37,31z M53.873,58.713l-2.047,2.047l-2.694-17.961    c1.471-0.265,2.846-0.801,4.08-1.551l3.522,19.372L53.873,58.713z M61,41h-5.802l-0.197-1.082C57.449,37.719,59,34.541,59,31    c0-6.617-5.383-12-12-12s-12,5.383-12,12c0,3.541,1.551,6.719,3.999,8.918L38.802,41H3V3h58V41z"/>
		<rect x="5" y="37" style="fill:#333333;" width="2" height="2"/>
		<rect x="5" y="33" style="fill:#333333;" width="2" height="2"/>
		<rect x="9" y="37" style="fill:#333333;" width="2" height="2"/>
		<rect x="13" y="37" style="fill:#333333;" width="2" height="2"/>
		<rect x="9" y="33" style="fill:#333333;" width="2" height="2"/>
		<rect x="5" y="29" style="fill:#333333;" width="2" height="2"/>
	</g>
</g>

	</svg>
