<svg xmlns="http://www.w3.org/2000/svg" xmlns:xlink="http://www.w3.org/1999/xlink" version="1.1" id="rot-061" x="0px" y="0px" viewBox="0 0 64 64" style="enable-background:new 0 0 64 64;" xml:space="preserve">
<g>
	<g>
		<circle style="fill:#F4C70E;" cx="23" cy="33" r="14"/>
	</g>
	<g>
		<rect x="52" y="35" style="fill:#F4C70E;" width="4" height="9"/>
	</g>
	<g>
		<path style="fill:#333333;" d="M41,33c0-9.925-8.075-18-18-18S5,23.075,5,33s8.075,18,18,18S41,42.925,41,33z M7,33    c0-8.822,7.178-16,16-16s16,7.178,16,16s-7.178,16-16,16S7,41.822,7,33z"/>
		<path style="fill:#333333;" d="M27,33c0-0.765-0.227-1.473-0.6-2.081l6.353-7.261l-1.506-1.317l-6.292,7.191    C24.375,29.203,23.714,29,23,29c-2.206,0-4,1.794-4,4s1.794,4,4,4S27,35.206,27,33z M21,33c0-1.103,0.897-2,2-2s2,0.897,2,2    s-0.897,2-2,2S21,34.103,21,33z"/>
		<path style="fill:#333333;" d="M45,33c0-10.764-7.773-19.742-18-21.629V9h5V1H14v8h5v2.371C8.773,13.258,1,22.236,1,33    c0,10.051,6.777,18.543,16,21.161V63h46V33H45z M16,3h14v4H16V3z M21,9h4v2.095C24.341,11.035,23.675,11,23,11    s-1.341,0.035-2,0.095V9z M3,33c0-11.028,8.972-20,20-20s20,8.972,20,20s-8.972,20-20,20S3,44.028,3,33z M19,54.629    C20.298,54.868,21.634,55,23,55c11.456,0,20.891-8.803,21.905-20H45v26H19V54.629z M61,61H47V35h14V61z"/>
		<rect x="41" y="57" style="fill:#333333;" width="2" height="2"/>
		<rect x="37" y="57" style="fill:#333333;" width="2" height="2"/>
		<rect x="41" y="53" style="fill:#333333;" width="2" height="2"/>
	</g>
</g>

	</svg>
