<svg xmlns="http://www.w3.org/2000/svg" xmlns:xlink="http://www.w3.org/1999/xlink" version="1.1" id="rot-062" x="0px" y="0px" viewBox="0 0 64 64" style="enable-background:new 0 0 64 64;" xml:space="preserve">
<g>
	<g>
		<circle style="fill:#F4C70E;" cx="32" cy="32" r="20"/>
	</g>
	<g>
		<path style="fill:#333333;" d="M63,41V23h-5.543c-0.316-0.893-0.682-1.774-1.094-2.635l3.921-3.922L47.556,3.716l-3.921,3.921    C42.775,7.226,41.894,6.859,41,6.543V1H23v5.543c-0.894,0.316-1.775,0.683-2.635,1.094l-3.921-3.921L3.716,16.443l3.921,3.922    C7.225,21.226,6.859,22.107,6.543,23H1v18h5.543c0.316,0.892,0.682,1.773,1.094,2.635l-3.921,3.922l12.728,12.728l3.921-3.921    c0.859,0.411,1.741,0.777,2.635,1.094V63h18v-3.999h-0.345l0.435-0.435c0.613,0.314,1.252,0.578,1.91,0.791V63h8v-3.643    c0.658-0.213,1.297-0.477,1.91-0.791l2.575,2.575l5.657-5.656l-2.575-2.575c0.313-0.613,0.578-1.252,0.79-1.91H63v-8h-3.643    c-0.212-0.658-0.477-1.297-0.79-1.91l0.09-0.09H63z M60.657,39L61,38.657V39H60.657z M24.308,55.789    c-1.258-0.407-2.499-0.922-3.686-1.53l-0.648-0.332l-3.529,3.529l-9.9-9.899l3.53-3.53l-0.332-0.648    c-0.611-1.191-1.125-2.432-1.531-3.686L7.987,39H3V25h4.987l0.224-0.692c0.406-1.257,0.921-2.497,1.53-3.686l0.333-0.648    l-3.53-3.53l9.9-9.899l3.529,3.529l0.648-0.332c1.188-0.608,2.428-1.123,3.686-1.53L25,7.987V3h14v4.987l0.692,0.224    c1.258,0.407,2.499,0.922,3.686,1.53l0.648,0.332l3.529-3.529l9.9,9.899l-3.53,3.53l0.333,0.648    c0.609,1.188,1.125,2.429,1.53,3.686L56.013,25H61v13.373l-4.084-4.084C57.573,33.738,58,32.922,58,32c0-1.654-1.346-3-3-3    s-3,1.346-3,3c0,1.174,0.684,2.182,1.669,2.675l-0.759,0.759c-0.613-0.314-1.252-0.578-1.91-0.791V31h-1.051    C49.426,21.541,41.588,14,32,14c-9.925,0-18,8.075-18,18c0,9.587,7.541,17.426,17,17.949V51h3.643    c0.212,0.658,0.477,1.296,0.791,1.91l-0.759,0.759C34.182,52.684,33.174,52,32,52c-1.654,0-3,1.346-3,3s1.346,3,3,3    c0.922,0,1.738-0.427,2.289-1.084L38.373,61H25v-4.987L24.308,55.789z M55,33c-0.551,0-1-0.448-1-1s0.449-1,1-1s1,0.448,1,1    S55.551,33,55,33z M35.433,41.09c-0.314,0.614-0.578,1.252-0.791,1.91H31v0.949C24.851,43.438,20,38.28,20,32    c0-6.617,5.383-12,12-12c6.279,0,11.438,4.85,11.949,11H43v3.643c-0.658,0.213-1.297,0.477-1.91,0.791l-2.575-2.575l-5.657,5.656    L35.433,41.09z M45.949,31C45.433,23.747,39.382,18,32,18c-7.72,0-14,6.28-14,14c0,7.382,5.747,13.433,13,13.949v2    C22.644,47.429,16,40.485,16,32c0-8.822,7.178-16,16-16c8.485,0,15.429,6.644,15.949,15H45.949z M32,56c-0.551,0-1-0.448-1-1    s0.449-1,1-1s1,0.448,1,1S32.551,56,32,56z M39,61h-0.344L39,60.656V61z M61,45v4h-3.168l-0.193,0.75    c-0.257,0.997-0.651,1.948-1.17,2.827l-0.395,0.668l2.24,2.24l-2.829,2.828l-2.24-2.239l-0.667,0.394    c-0.88,0.52-1.831,0.913-2.828,1.17L49,57.832V61h-4v-3.168l-0.75-0.194c-0.997-0.257-1.948-0.65-2.828-1.17l-0.667-0.394    l-2.24,2.239l-2.829-2.828l2.24-2.24l-0.395-0.668c-0.52-0.88-0.913-1.831-1.17-2.827L36.168,49H33v-4h3.168l0.193-0.75    c0.257-0.996,0.651-1.947,1.17-2.827l0.395-0.668l-2.24-2.24l2.829-2.828l2.24,2.239l0.667-0.394    c0.88-0.52,1.831-0.913,2.828-1.17L45,36.168V33h4v3.168l0.75,0.194c0.997,0.257,1.948,0.65,2.828,1.17l0.667,0.394l2.24-2.239    l2.829,2.828l-2.24,2.24l0.395,0.668c0.519,0.879,0.913,1.83,1.17,2.827L57.832,45H61z"/>
		<path style="fill:#333333;" d="M32,12c1.654,0,3-1.346,3-3s-1.346-3-3-3s-3,1.346-3,3S30.346,12,32,12z M32,8c0.551,0,1,0.448,1,1    s-0.449,1-1,1s-1-0.448-1-1S31.449,8,32,8z"/>
		<path style="fill:#333333;" d="M9,29c-1.654,0-3,1.346-3,3s1.346,3,3,3s3-1.346,3-3S10.654,29,9,29z M9,33c-0.551,0-1-0.448-1-1    s0.449-1,1-1s1,0.448,1,1S9.551,33,9,33z"/>
		<path style="fill:#333333;" d="M47,38c-4.962,0-9,4.037-9,9s4.038,9,9,9s9-4.037,9-9S51.962,38,47,38z M47,54c-3.86,0-7-3.141-7-7    s3.14-7,7-7s7,3.141,7,7S50.86,54,47,54z"/>
	</g>
</g>

	</svg>
