<svg xmlns="http://www.w3.org/2000/svg" xmlns:xlink="http://www.w3.org/1999/xlink" version="1.1" id="rot-065" x="0px" y="0px" viewBox="0 0 64 64" style="enable-background:new 0 0 64 64;" xml:space="preserve">
<g>
	<g>
		<rect x="17" y="15" style="fill:#F4C70E;" width="4" height="7"/>
	</g>
	<g>
		<rect x="31" y="13" style="fill:#F4C70E;" width="24" height="18"/>
	</g>
	<g>
		<path style="fill:#333333;" d="M59,15.101V1H5v14.101C2.721,15.566,1,17.586,1,20v32c0,2.757,2.243,5,5,5h13v4h-4v2h34v-2h-4v-4    h13c2.757,0,5-2.243,5-5V20C63,17.586,61.279,15.566,59,15.101z M7,11h50v34H7V11z M57,3v6H7V3H57z M5,17.184V47h54V17.184    c1.161,0.414,2,1.514,2,2.816v29H3V20C3,18.698,3.839,17.598,5,17.184z M43,61H21v-4h22V61z M58,55H6c-1.654,0-3-1.346-3-3v-1h58    v1C61,53.654,59.654,55,58,55z"/>
		<rect x="9" y="5" style="fill:#333333;" width="2" height="2"/>
		<rect x="13" y="5" style="fill:#333333;" width="2" height="2"/>
		<rect x="17" y="5" style="fill:#333333;" width="2" height="2"/>
		<path style="fill:#333333;" d="M9,31h20V13H9V31z M11,15h16v14H11V15z"/>
		<rect x="9" y="33" style="fill:#333333;" width="20" height="2"/>
		<rect x="9" y="37" style="fill:#333333;" width="20" height="2"/>
		<rect x="9" y="41" style="fill:#333333;" width="20" height="2"/>
		<rect x="31" y="33" style="fill:#333333;" width="24" height="2"/>
		<rect x="31" y="37" style="fill:#333333;" width="24" height="2"/>
		<rect x="53" y="41" style="fill:#333333;" width="2" height="2"/>
		<rect x="31" y="41" style="fill:#333333;" width="20" height="2"/>
	</g>
</g>

	</svg>
