<svg xmlns="http://www.w3.org/2000/svg" xmlns:xlink="http://www.w3.org/1999/xlink" version="1.1" id="rot-064" x="0px" y="0px" viewBox="0 0 64 64" style="enable-background:new 0 0 64 64;" xml:space="preserve">
<g>
	<g>
		<polygon style="fill:#F4C70E;" points="30,41 30,1 8,1 8,41 1,41 1,63 63,63 63,41   "/>
	</g>
	<g>
		<rect x="2" y="51" style="fill:#333333;" width="4" height="2"/>
		<rect x="10" y="51" style="fill:#333333;" width="4" height="2"/>
		<rect x="18" y="51" style="fill:#333333;" width="4" height="2"/>
		<rect x="26" y="51" style="fill:#333333;" width="4" height="2"/>
		<rect x="34" y="51" style="fill:#333333;" width="4" height="2"/>
		<rect x="42" y="51" style="fill:#333333;" width="4" height="2"/>
		<rect x="50" y="51" style="fill:#333333;" width="4" height="2"/>
		<rect x="58" y="51" style="fill:#333333;" width="4" height="2"/>
		<path style="fill:#333333;" d="M42,6c-11.579,0-21,9.42-21,21s9.421,21,21,21s21-9.42,21-21S53.579,6,42,6z M42,46    c-10.477,0-19-8.523-19-19S31.523,8,42,8s19,8.523,19,19S52.477,46,42,46z"/>
		<path style="fill:#333333;" d="M42,10c-9.374,0-17,7.626-17,17s7.626,17,17,17s17-7.626,17-17S51.374,10,42,10z M43,41.949V38h-2    v3.949C33.527,41.453,27.547,35.472,27.051,28H31v-2h-3.949C27.547,18.528,33.527,12.547,41,12.051V16h2v-3.949    C50.473,12.547,56.453,18.528,56.949,26H53v2h3.949C56.453,35.472,50.473,41.453,43,41.949z"/>
		<path style="fill:#333333;" d="M50.293,17.293l-7.008,7.008C42.894,24.113,42.462,24,42,24c-1.654,0-3,1.346-3,3    c0,0.462,0.113,0.894,0.301,1.285l-7.008,7.008l1.414,1.414l7.008-7.008C41.106,29.887,41.538,30,42,30c1.654,0,3-1.346,3-3    c0-0.462-0.113-0.894-0.301-1.285l7.008-7.008L50.293,17.293z M42,28c-0.552,0-1-0.449-1-1s0.448-1,1-1s1,0.449,1,1    S42.552,28,42,28z"/>
	</g>
</g>

	</svg>
