<svg xmlns="http://www.w3.org/2000/svg" xmlns:xlink="http://www.w3.org/1999/xlink" version="1.1" id="rot-066" x="0px" y="0px" viewBox="0 0 64 64" style="enable-background:new 0 0 64 64;" xml:space="preserve">
<g>
	<g>
		<rect x="9" y="31" style="fill:#F4C70E;" width="2" height="24"/>
	</g>
	<g>
		<rect x="17" y="31" style="fill:#F4C70E;" width="2" height="24"/>
	</g>
	<g>
		<rect x="25" y="31" style="fill:#F4C70E;" width="2" height="24"/>
	</g>
	<g>
		<rect x="33" y="31" style="fill:#F4C70E;" width="2" height="24"/>
	</g>
	<g>
		<rect x="41" y="31" style="fill:#F4C70E;" width="2" height="24"/>
	</g>
	<g>
		<rect x="49" y="31" style="fill:#F4C70E;" width="2" height="24"/>
	</g>
	<g>
		<path style="fill:#333333;" d="M59.228,27L34.705,15.193C36.082,14.301,37,12.759,37,11V8.858c1.721-0.447,3-2,3-3.858    c0-2.206-1.794-4-4-4s-4,1.794-4,4c0,1.858,1.279,3.411,3,3.858V11c0,1.654-1.346,3-3,3s-3-1.346-3-3V9h-2v2    c0,1.759,0.918,3.301,2.295,4.193L4.772,27H1v36h7h1h46h1h7V27H59.228z M34,5c0-1.103,0.897-2,2-2s2,0.897,2,2s-0.897,2-2,2    S34,6.103,34,5z M9,31h2v24H9V31z M13,31h2v24h-2V31z M17,31h2v24h-2V31z M21,31h2v24h-2V31z M25,31h2v24h-2V31z M29,31h2v24h-2    V31z M33,31h2v24h-2V31z M37,31h2v24h-2V31z M41,31h2v24h-2V31z M45,31h2v24h-2V31z M49,31h2v24h-2V31z M53,31h2v24h-2V31z M9,29    v-1.816L32,16.11l23,11.074V29H9z M7,61H6v-2H4v2H3V29h1v2h2v-2h1V61z M9,61v-4h46v4H9z M61,61h-1v-2h-2v2h-1V29h1v2h2v-2h1V61z"/>
		<rect x="13" y="58" style="fill:#333333;" width="6" height="2"/>
		<rect x="45" y="58" style="fill:#333333;" width="6" height="2"/>
	</g>
</g>

	</svg>
