<svg xmlns="http://www.w3.org/2000/svg" xmlns:xlink="http://www.w3.org/1999/xlink" version="1.1" id="rot-067" x="0px" y="0px" viewBox="0 0 64 64" style="enable-background:new 0 0 64 64;" xml:space="preserve">
<g>
	<path style="fill:#F4C70E;" d="M32,46c-0.912,0-1.77-0.355-2.414-1L25,40.414c-0.645-0.645-1-1.502-1-2.414V26   c0-0.912,0.355-1.77,1-2.414L29.586,19c1.289-1.289,3.539-1.289,4.828,0L39,23.586c0.645,0.645,1,1.502,1,2.414v12   c0,0.912-0.355,1.77-1,2.414L34.414,45C33.77,45.645,32.912,46,32,46z"/>
	<path style="fill:#F4C70E;" d="M32,14.414l-5.086-5.086C26.333,8.747,26,7.943,26,7.121C26,5.4,27.4,4,29.121,4   c0.822,0,1.626,0.333,2.207,0.914L32,5.586l0.672-0.672C33.253,4.333,34.057,4,34.879,4C36.6,4,38,5.4,38,7.121   c0,0.822-0.333,1.626-0.914,2.207L32,14.414z"/>
	<path style="fill:#F4C70E;" d="M7.121,38C5.4,38,4,36.6,4,34.879c0-0.822,0.333-1.626,0.914-2.207L5.586,32l-0.672-0.672   C4.333,30.747,4,29.943,4,29.121C4,27.4,5.4,26,7.121,26c0.822,0,1.626,0.333,2.207,0.914L14.414,32l-5.086,5.086   C8.747,37.667,7.943,38,7.121,38z"/>
	<path style="fill:#F4C70E;" d="M34.879,60c-0.822,0-1.626-0.333-2.207-0.914L32,58.414l-0.672,0.672   C30.747,59.667,29.943,60,29.121,60C27.4,60,26,58.6,26,56.879c0-0.822,0.333-1.626,0.914-2.207L32,49.586l5.086,5.086   C37.667,55.253,38,56.057,38,56.879C38,58.6,36.6,60,34.879,60z"/>
	<path style="fill:#F4C70E;" d="M56.879,38c-0.822,0-1.626-0.333-2.207-0.914L49.586,32l5.086-5.086   C55.253,26.333,56.057,26,56.879,26C58.6,26,60,27.4,60,29.121c0,0.822-0.333,1.626-0.914,2.207L58.414,32l0.672,0.672   C59.667,33.253,60,34.057,60,34.879C60,36.6,58.6,38,56.879,38z"/>
	<path style="fill:#333333;" d="M30.586,25L28,27.586v8.828L30.586,39h2.828L36,36.414v-8.828L33.414,25H30.586z M34,35.586   L32.586,37h-1.172L30,35.586v-7.172L31.414,27h1.172L34,28.414V35.586z"/>
	<path style="fill:#333333;" d="M17.437,13.194L14.192,9.95V7c0-0.833-0.325-1.617-0.914-2.207c-1.15-1.149-3.14-1.185-4.327-0.084   l-2.83-2.83c-1.134-1.134-3.11-1.133-4.243,0C1.312,2.445,1,3.199,1,4s0.312,1.555,0.879,2.121l2.83,2.831   c-0.537,0.578-0.831,1.326-0.831,2.119c0,0.834,0.325,1.618,0.915,2.207c0.59,0.59,1.374,0.915,2.207,0.915h2.95l3.244,3.245   c-0.536,0.578-0.83,1.326-0.83,2.12c0,0.833,0.325,1.617,0.915,2.207c0.59,0.59,1.374,0.915,2.207,0.915h7.192v-7.192   c0-0.833-0.325-1.617-0.914-2.207C20.614,12.129,18.625,12.095,17.437,13.194z M20.678,20.678h-5.192   c-0.299,0-0.581-0.117-0.793-0.329c-0.212-0.211-0.329-0.493-0.329-0.792c0-0.3,0.117-0.581,0.33-0.793   c0.107-0.107,0.242-0.192,0.401-0.251l1.46-0.543l-5.777-5.776H7c-0.299,0-0.581-0.117-0.793-0.329   c-0.212-0.211-0.329-0.493-0.329-0.792c0-0.299,0.117-0.581,0.329-0.792c0.108-0.108,0.243-0.192,0.402-0.252l1.459-0.543   L3.293,4.707C3.104,4.518,3,4.267,3,4s0.104-0.518,0.293-0.707C3.482,3.104,3.733,3,4,3s0.518,0.104,0.707,0.293l4.776,4.776   l0.543-1.459c0.06-0.159,0.144-0.294,0.252-0.402c0.423-0.424,1.161-0.424,1.585,0C12.076,6.419,12.192,6.701,12.192,7v3.778   l5.776,5.777l0.543-1.46c0.059-0.159,0.144-0.294,0.251-0.402c0.423-0.424,1.162-0.424,1.586,0   c0.212,0.212,0.329,0.494,0.329,0.793V20.678z"/>
	<path style="fill:#333333;" d="M13.278,42.236c-0.589,0.59-0.914,1.374-0.914,2.207c0,0.794,0.294,1.542,0.831,2.12L9.95,49.808H7   c-0.833,0-1.617,0.324-2.208,0.914c-0.589,0.59-0.914,1.374-0.914,2.207c0,0.794,0.294,1.542,0.831,2.12l-2.83,2.83   c-1.17,1.17-1.17,3.072,0,4.242C2.445,62.688,3.199,63,4,63s1.555-0.312,2.121-0.879l2.831-2.83   c1.222,1.132,3.138,1.104,4.326-0.083c0.582-0.581,0.915-1.386,0.915-2.208v-2.95l3.244-3.244c1.222,1.132,3.138,1.104,4.326-0.083   c0.582-0.581,0.915-1.386,0.915-2.208v-7.192h-7.192C14.652,41.322,13.869,41.646,13.278,42.236z M20.678,48.515   c0,0.295-0.12,0.584-0.329,0.793c-0.438,0.438-1.148,0.438-1.586,0c-0.107-0.107-0.192-0.243-0.251-0.402l-0.543-1.46l-5.776,5.776   V57c0,0.295-0.12,0.584-0.329,0.793c-0.438,0.438-1.148,0.437-1.586-0.001c-0.107-0.106-0.192-0.242-0.251-0.401l-0.543-1.46   l-4.777,4.776c-0.377,0.379-1.036,0.379-1.414,0c-0.39-0.39-0.39-1.024,0-1.414l4.774-4.774l-1.457-0.544   c-0.16-0.061-0.296-0.145-0.404-0.253c-0.212-0.212-0.329-0.493-0.329-0.793c0-0.299,0.117-0.581,0.328-0.792   C6.416,51.928,6.705,51.808,7,51.808h3.778l5.775-5.774l-1.457-0.544c-0.161-0.061-0.296-0.145-0.402-0.251l-0.001-0.002   c-0.212-0.212-0.329-0.493-0.329-0.793c0-0.299,0.117-0.581,0.328-0.792c0.209-0.209,0.499-0.329,0.793-0.329h5.192V48.515z"/>
	<path style="fill:#333333;" d="M59.291,55.049c0.537-0.578,0.831-1.326,0.831-2.12c0-0.833-0.325-1.617-0.915-2.208   c-0.59-0.589-1.374-0.913-2.207-0.913h-2.95l-3.244-3.244c0.537-0.578,0.831-1.326,0.831-2.12c0-0.833-0.325-1.617-0.915-2.208   c-0.59-0.589-1.374-0.913-2.207-0.913h-7.192v7.192c0,0.822,0.333,1.627,0.915,2.207c1.188,1.188,3.104,1.217,4.327,0.084   l3.244,3.244V57c0,0.822,0.333,1.627,0.915,2.207c1.188,1.188,3.106,1.218,4.326,0.084l2.83,2.83C58.445,62.688,59.199,63,60,63   s1.555-0.312,2.121-0.879c1.17-1.17,1.17-3.072,0-4.242L59.291,55.049z M60.707,60.707c-0.377,0.379-1.036,0.379-1.414,0   l-4.776-4.776l-0.543,1.46c-0.06,0.159-0.144,0.295-0.252,0.402c-0.438,0.438-1.148,0.438-1.586-0.001   c-0.208-0.208-0.328-0.497-0.328-0.792v-3.778l-5.776-5.776l-0.543,1.46c-0.06,0.159-0.144,0.295-0.251,0.402   c-0.438,0.438-1.149,0.437-1.586-0.001c-0.208-0.208-0.328-0.497-0.328-0.792v-5.192h5.192c0.295,0,0.584,0.12,0.792,0.328   c0.212,0.212,0.329,0.494,0.329,0.793c0,0.3-0.117,0.581-0.33,0.794c-0.107,0.107-0.243,0.191-0.403,0.252l-1.457,0.544   l5.774,5.774H57c0.295,0,0.584,0.12,0.792,0.328c0.212,0.212,0.329,0.494,0.329,0.793c0,0.3-0.117,0.581-0.33,0.794   c-0.107,0.107-0.243,0.191-0.403,0.252l-1.457,0.544l4.774,4.774C61.097,59.683,61.097,60.317,60.707,60.707z"/>
	<path style="fill:#333333;" d="M50.722,21.764c0.59-0.59,0.915-1.374,0.915-2.208c0-0.793-0.294-1.541-0.83-2.12l3.244-3.244H57   c0.833,0,1.617-0.325,2.207-0.914c0.59-0.59,0.915-1.374,0.915-2.208c0-0.793-0.294-1.541-0.831-2.119l2.83-2.83   C62.688,5.555,63,4.801,63,4s-0.312-1.555-0.878-2.121c-1.134-1.134-3.11-1.134-4.243,0l-2.831,2.83   c-1.186-1.101-3.176-1.065-4.326,0.084c-0.59,0.59-0.915,1.374-0.915,2.207v2.95l-3.245,3.244   c-1.185-1.099-3.176-1.067-4.326,0.084c-0.59,0.59-0.915,1.374-0.915,2.207v7.192h7.192C49.348,22.678,50.132,22.353,50.722,21.764   z M43.322,15.485c0-0.299,0.117-0.581,0.329-0.793c0.423-0.424,1.161-0.424,1.585,0c0.108,0.108,0.192,0.243,0.252,0.402   l0.543,1.46l5.776-5.777V7c0-0.299,0.117-0.581,0.329-0.793c0.422-0.424,1.161-0.424,1.585,0c0.108,0.108,0.192,0.243,0.252,0.402   l0.543,1.459l4.777-4.776c0.377-0.378,1.036-0.378,1.414,0C60.896,3.482,61,3.733,61,4s-0.104,0.518-0.293,0.707l-4.776,4.776   l1.459,0.543c0.159,0.06,0.294,0.144,0.402,0.252c0.212,0.211,0.329,0.493,0.329,0.792c0,0.3-0.117,0.581-0.329,0.793   S57.299,12.192,57,12.192h-3.778l-5.776,5.776l1.46,0.543c0.159,0.059,0.294,0.144,0.402,0.251   c0.212,0.212,0.329,0.494,0.329,0.793c0,0.3-0.117,0.581-0.329,0.793s-0.494,0.329-0.793,0.329h-5.192V15.485z"/>
</g>

	</svg>
