<svg xmlns="http://www.w3.org/2000/svg" xmlns:xlink="http://www.w3.org/1999/xlink" version="1.1" id="rot-068" x="0px" y="0px" viewBox="0 0 64 64" style="enable-background:new 0 0 64 64;" xml:space="preserve">
<g>
	<g>
		<rect x="5" y="39" style="fill:#F4C70E;" width="54" height="6"/>
	</g>
	<g>
		<path style="fill:#333333;" d="M63,31h-4v-3c0-4.962-4.038-9-9-9h-1.356C50.688,17.349,52,14.826,52,12V9c0-4.411-3.589-8-8-8h-2    c-4.411,0-8,3.589-8,8v3c0,2.826,1.312,5.349,3.356,7H36c-2.826,0-5.349,1.312-7,3.356V14H3v17H1v8h2v24h2V39h54v24h2V39h2V31z     M38.586,21l1.845,1.845l-0.96,0.64L38.477,21H38.586z M42.414,22l-1-1h3.172l-1,1H42.414z M47.414,21h0.109l-0.993,2.484    l-0.96-0.64L47.414,21z M42,3h2c3.309,0,6,2.691,6,6v1.627c-0.245-0.207-0.433-0.483-0.516-0.814l-0.029-0.115    C49.059,8.109,47.638,7,46,7h-6c-1.638,0-3.059,1.109-3.454,2.694l-0.031,0.123c-0.082,0.329-0.27,0.604-0.515,0.81V9    C36,5.691,38.691,3,42,3z M36.054,12.833c1.165-0.361,2.093-1.297,2.4-2.527l0.031-0.123C38.659,9.486,39.282,9,40,9h6    c0.718,0,1.341,0.486,1.516,1.187l0.029,0.115c0.308,1.234,1.236,2.17,2.401,2.531C49.532,16.301,46.578,19,43,19    C39.422,19,36.468,16.301,36.054,12.833z M36,21h0.323l2.207,5.516L42.303,24h1.395l3.773,2.516L49.677,21H50c3.86,0,7,3.14,7,7v3    h-4v-5h-2v5H35v-5h-2v5h-4v-3C29,24.14,32.14,21,36,21z M5,16h22v12v3H5V16z M61,37H3v-4h58V37z"/>
		<rect x="55" y="41" style="fill:#333333;" width="2" height="2"/>
		<rect x="51" y="41" style="fill:#333333;" width="2" height="2"/>
		<rect x="47" y="41" style="fill:#333333;" width="2" height="2"/>
	</g>
	<g>
		<rect x="14" y="16" style="fill:#F4C70E;" width="4" height="8"/>
	</g>
</g>

	</svg>
