<svg xmlns="http://www.w3.org/2000/svg" xmlns:xlink="http://www.w3.org/1999/xlink" version="1.1" id="rot-068" x="0px" y="0px" viewBox="0 0 64 64" style="enable-background:new 0 0 64 64;" xml:space="preserve">
<g>
	<rect x="10" y="13" style="fill:#F4C70E;" width="44" height="22"/>
	<path style="fill:#333333;" d="M60,1H4C2.346,1,1,2.346,1,4v40c0,1.654,1.346,3,3,3h24v5H8v2h48v-2H36v-5h24c1.654,0,3-1.346,3-3V4   C63,2.346,61.654,1,60,1z M34,52h-4v-5h4V52z M61,44c0,0.552-0.448,1-1,1H4c-0.552,0-1-0.448-1-1V4c0-0.552,0.448-1,1-1h56   c0.552,0,1,0.448,1,1V44z"/>
	<path style="fill:#333333;" d="M5,39h54V9H5V39z M7,11h50v26H7V11z"/>
	<rect x="29" y="41" style="fill:#333333;" width="6" height="2"/>
	<path style="fill:#333333;" d="M52,30v-7.867l-7.34-1.049L41.618,15H27.465l-4.038,6.058L14,22.104V30h7.142   c0.447,1.721,1.999,3,3.858,3s3.411-1.279,3.858-3h9.284c0.447,1.721,1.999,3,3.858,3s3.411-1.279,3.858-3H52z M25,31   c-1.103,0-2-0.897-2-2s0.897-2,2-2s2,0.897,2,2S26.103,31,25,31z M42,31c-1.103,0-2-0.897-2-2s0.897-2,2-2s2,0.897,2,2   S43.103,31,42,31z M42,25c-1.859,0-3.411,1.279-3.858,3h-9.284c-0.447-1.721-1.999-3-3.858-3s-3.411,1.279-3.858,3H16v-4.104   l8.573-0.953L28.535,17h11.847l2.958,5.916L50,23.867V28h-4.142C45.411,26.279,43.859,25,42,25z"/>
	<path style="fill:#333333;" d="M30.465,18l-3.333,5h13.256l-1.667-5H30.465z M30.868,21l0.667-1h5.744l0.333,1H30.868z"/>
	<rect x="10" y="13" style="fill:#333333;" width="6" height="2"/>
	<rect x="10" y="17" style="fill:#333333;" width="6" height="2"/>
	<rect x="10" y="22" style="fill:#333333;" width="2" height="2"/>
	<rect x="10" y="33" style="fill:#333333;" width="9" height="2"/>
	<rect x="47" y="13" style="fill:#333333;" width="7" height="2"/>
	<rect x="47" y="17" style="fill:#333333;" width="7" height="2"/>
	<rect x="47" y="33" style="fill:#333333;" width="7" height="2"/>
	<rect x="29" y="33" style="fill:#333333;" width="2" height="2"/>
	<rect x="33" y="33" style="fill:#333333;" width="2" height="2"/>
	<rect x="10" y="26" style="fill:#333333;" width="2" height="2"/>
	<path style="fill:#333333;" d="M56,55c-3.859,0-7,3.141-7,7v1h14v-1C63,58.141,59.859,55,56,55z M51.101,61   c0.465-2.279,2.484-4,4.899-4s4.435,1.721,4.899,4H51.101z"/>
	<path style="fill:#333333;" d="M2,58h3v3H2v2h45v-7H2V58z M7,58h3v3H7V58z M35,61h-3v-3h3V61z M37,58h3v3h-3V58z M30,61h-3v-3h3V61   z M25,61h-3v-3h3V61z M20,61h-3v-3h3V61z M15,61h-3v-3h3V61z M45,61h-3v-3h3V61z"/>
	<rect x="29" y="5" style="fill:#333333;" width="2" height="2"/>
	<rect x="33" y="5" style="fill:#333333;" width="2" height="2"/>
</g>

	</svg>
