<svg xmlns="http://www.w3.org/2000/svg" xmlns:xlink="http://www.w3.org/1999/xlink" version="1.1" id="rot-069" x="0px" y="0px" viewBox="0 0 64 64" style="enable-background:new 0 0 64 64;" xml:space="preserve">
<g>
	<path style="fill:#F4C70E;" d="M29,17c9.941,0,18,8.059,18,18h15C62,16.774,47.226,2,29,2V17z"/>
	<path style="fill:#333333;" d="M29,51c8.822,0,16-7.178,16-16s-7.178-16-16-16s-16,7.178-16,16S20.178,51,29,51z M29,21   c7.72,0,14,6.28,14,14s-6.28,14-14,14s-14-6.28-14-14S21.28,21,29,21z"/>
	<path style="fill:#333333;" d="M29,40c2.757,0,5-2.243,5-5s-2.243-5-5-5s-5,2.243-5,5S26.243,40,29,40z M29,32c1.654,0,3,1.346,3,3   s-1.346,3-3,3s-3-1.346-3-3S27.346,32,29,32z"/>
	<path style="fill:#333333;" d="M29,29c1.654,0,3-1.346,3-3s-1.346-3-3-3s-3,1.346-3,3S27.346,29,29,29z M29,25c0.552,0,1,0.448,1,1   s-0.448,1-1,1s-1-0.448-1-1S28.448,25,29,25z"/>
	<path style="fill:#333333;" d="M29,41c-1.654,0-3,1.346-3,3s1.346,3,3,3s3-1.346,3-3S30.654,41,29,41z M29,45c-0.552,0-1-0.448-1-1   s0.448-1,1-1s1,0.448,1,1S29.552,45,29,45z"/>
	<path style="fill:#333333;" d="M38,38c1.654,0,3-1.346,3-3s-1.346-3-3-3s-3,1.346-3,3S36.346,38,38,38z M38,34c0.552,0,1,0.448,1,1   s-0.448,1-1,1s-1-0.448-1-1S37.448,34,38,34z"/>
	<path style="fill:#333333;" d="M23,35c0-1.654-1.346-3-3-3s-3,1.346-3,3s1.346,3,3,3S23,36.654,23,35z M19,35c0-0.552,0.448-1,1-1   s1,0.448,1,1s-0.448,1-1,1S19,35.552,19,35z"/>
	<path style="fill:#333333;" d="M36.177,7.955l-0.518,1.932c8.94,2.394,15.98,9.433,18.375,18.372l1.932-0.518   C53.388,18.114,45.805,10.532,36.177,7.955z"/>
	<path style="fill:#333333;" d="M63,35C63,16.252,47.748,1,29,1h-1v6.025C13.023,7.555,1,19.896,1,35c0,15.439,12.561,28,28,28   c15.104,0,27.445-12.023,27.975-27H63V35z M29,61C14.663,61,3,49.337,3,35C3,20.998,14.125,9.553,28,9.025v4.383   c-4.74,1.518-7.507,3.716-7.628,3.814l1.256,1.557c0.026-0.02,2.356-1.87,6.372-3.262V18h1c9.374,0,17,7.626,17,17v1h3.078   C49.68,38.285,50,40.633,50,43h2c0-2.363-0.3-4.71-0.859-7h3.834C54.447,49.875,43.002,61,29,61z M47.974,34   C47.469,24.318,39.682,16.531,30,16.026V3.016C46.851,3.536,60.464,17.149,60.984,34H47.974z"/>
	<rect x="56" y="30" style="fill:#333333;" width="2" height="2"/>
	<rect x="52" y="30" style="fill:#333333;" width="2" height="2"/>
	<rect x="32" y="5" style="fill:#333333;" width="2" height="2"/>
	<path style="fill:#333333;" d="M44.355,46.09l1.861,0.73c0.273-0.697,0.519-1.405,0.729-2.105l-1.916-0.576   C44.836,44.787,44.608,45.444,44.355,46.09z"/>
	<path style="fill:#333333;" d="M40.226,53.237l1.561,1.25c0.463-0.578,0.908-1.179,1.322-1.785l-1.65-1.129   C41.071,52.139,40.656,52.698,40.226,53.237z"/>
	<path style="fill:#333333;" d="M42.561,49.82l1.73,1.002c0.371-0.641,0.721-1.302,1.04-1.965l-1.803-0.867   C43.231,48.607,42.906,49.224,42.561,49.82z"/>
	<path style="fill:#333333;" d="M17.774,16.763l-1.561-1.25c-0.463,0.578-0.908,1.179-1.322,1.785l1.65,1.129   C16.929,17.861,17.344,17.302,17.774,16.763z"/>
	<path style="fill:#333333;" d="M11.783,23.18c-0.273,0.697-0.519,1.405-0.729,2.105l1.916,0.576   c0.194-0.648,0.422-1.306,0.675-1.951L11.783,23.18z"/>
	<path style="fill:#333333;" d="M15.439,20.18l-1.73-1.002c-0.371,0.641-0.721,1.302-1.04,1.965l1.803,0.867   C14.769,21.393,15.094,20.776,15.439,20.18z"/>
	<path style="fill:#333333;" d="M9.513,47.786c0.578,0.463,1.179,0.908,1.785,1.322l1.129-1.65   c-0.565-0.387-1.125-0.802-1.664-1.232L9.513,47.786z"/>
	<path style="fill:#333333;" d="M17.18,52.217c0.697,0.273,1.405,0.519,2.105,0.729l0.576-1.916   c-0.648-0.194-1.306-0.422-1.951-0.675L17.18,52.217z"/>
	<path style="fill:#333333;" d="M13.178,50.291c0.641,0.371,1.302,0.721,1.965,1.04l0.867-1.803   c-0.617-0.297-1.233-0.622-1.83-0.968L13.178,50.291z"/>
	<path style="fill:#333333;" d="M21,56v2c10.046,0,16.364-5.009,16.628-5.222l-1.256-1.557C36.313,51.27,30.346,56,21,56z"/>
	<path style="fill:#333333;" d="M6,27c0,10.046,5.009,16.364,5.222,16.628l1.557-1.256C12.73,42.313,8,36.346,8,27H6z"/>
</g>

	</svg>
