<svg xmlns="http://www.w3.org/2000/svg" xmlns:xlink="http://www.w3.org/1999/xlink" version="1.1" id="rot-070" x="0px" y="0px" viewBox="0 0 64 64" style="enable-background:new 0 0 64 64;" xml:space="preserve">
<g>
	<g>
		<rect x="27" y="37" style="fill:#F4C70E;" width="10" height="14"/>
	</g>
	<g>
		<path style="fill:#333333;" d="M63,7V5h-8V4c0-1.654-1.346-3-3-3s-3,1.346-3,3v1h-8v2h10v4h-2v2h-2.695    c-0.199-0.42-0.425-0.827-0.705-1.199C44.285,10.047,42.191,9,40,9H24c-2.191,0-4.285,1.047-5.6,2.8    c-0.28,0.373-0.506,0.78-0.705,1.2H15v-2h-2V7h10V5h-8V4c0-1.654-1.346-3-3-3S9,2.346,9,4v1H1v2h10v4H9v7c0,1.654,1.346,3,3,3    c1.302,0,2.402-0.839,2.816-2H17v6.382L9.764,29C8.059,29.853,7,31.566,7,33.472V50H5v6h6v7h42v-7h6v-6h-2V33.472    c0-1.905-1.059-3.619-2.764-4.472L47,25.382V19h2.184c0.414,1.161,1.514,2,2.816,2c1.654,0,3-1.346,3-3v-7h-2V7H63z M11,4    c0-0.552,0.449-1,1-1s1,0.448,1,1v1h-2V4z M40,11c0.339,0,0.673,0.042,1,0.109V15h-2v-2h-2v2h-2v-2h-2v2h-2v-2h-2v2h-2v-2h-2v2h-2    v-3.891C23.327,11.042,23.661,11,24,11H40z M20,13c0.285-0.38,0.626-0.707,1-0.987V17h22v-4.987c0.374,0.28,0.715,0.608,1,0.988    c0.645,0.858,1,1.924,1,2.999v5h-2v2h2v2H19v-2h22v-2H19v-5C19,14.925,19.355,13.859,20,13z M13,18c0,0.552-0.449,1-1,1    s-1-0.448-1-1v-5h2V18z M15,17v-2h2.082C17.034,15.331,17,15.665,17,16v1H15z M7,54v-2h4v2H7z M51,61H13V37h38V61z M57,54h-4v-2h4    V54z M55,33.472V50h-2V35H11v15H9V33.472c0-1.144,0.635-2.171,1.658-2.683L18.236,27H19v2h2v-2h3v2h2v-2h12v2h2v-2h3v2h2v-2h0.764    l7.578,3.789C54.365,31.301,55,32.328,55,33.472z M46.918,15H49v2h-2v-1C47,15.665,46.966,15.331,46.918,15z M53,18    c0,0.552-0.449,1-1,1s-1-0.448-1-1v-5h2V18z M51,4c0-0.552,0.449-1,1-1s1,0.448,1,1v1h-2V4z"/>
		<rect x="47" y="57" style="fill:#333333;" width="2" height="2"/>
		<rect x="43" y="57" style="fill:#333333;" width="2" height="2"/>
		<rect x="47" y="53" style="fill:#333333;" width="2" height="2"/>
		<rect x="47" y="49" style="fill:#333333;" width="2" height="2"/>
		<rect x="43" y="53" style="fill:#333333;" width="2" height="2"/>
		<rect x="39" y="57" style="fill:#333333;" width="2" height="2"/>
	</g>
</g>

	</svg>
