<svg xmlns="http://www.w3.org/2000/svg" xmlns:xlink="http://www.w3.org/1999/xlink" version="1.1" id="rot-071" x="0px" y="0px" viewBox="0 0 64 64" style="enable-background:new 0 0 64 64;" xml:space="preserve">
<g>
	<path style="fill:#333333;" d="M58.677,34H41h-2h-5.938v-4h-2v4H5.319L0.594,46H5v17h34h2h18V46h4.477L58.677,34z M3.531,44   l3.149-8h31.843l-3.2,8H3.531z M39,61H7V46h29.677L39,40.192V61z M57,61H41V40.192L43.323,46H57V61z M44.677,44l-3.2-8h15.847   l3.2,8H44.677z"/>
	<circle style="fill:#F4C70E;" cx="32.063" cy="16" r="14.937"/>
	<rect x="35.062" y="57" style="fill:#333333;" width="2" height="2"/>
	<polygon style="fill:#333333;" points="48.77,4.707 47.355,3.293 29.01,21.638 22.713,16.241 21.412,17.759 29.115,24.362  "/>
	<rect x="31.062" y="57" style="fill:#333333;" width="2" height="2"/>
	<rect x="35.062" y="53" style="fill:#333333;" width="2" height="2"/>
</g>

	</svg>
