<svg xmlns="http://www.w3.org/2000/svg" xmlns:xlink="http://www.w3.org/1999/xlink" version="1.1" id="rot-076" x="0px" y="0px" viewBox="0 0 64 64" style="enable-background:new 0 0 64 64;" xml:space="preserve">
<g>
	<g>
		<polygon style="fill:#F4C70E;" points="51,38 1,38 1,26 51,26 57,32   "/>
	</g>
	<g>
		<rect x="1" y="31" style="fill:#333333;" width="2" height="2"/>
		<rect x="5" y="31" style="fill:#333333;" width="2" height="2"/>
		<rect x="9" y="31" style="fill:#333333;" width="47" height="2"/>
		<path style="fill:#333333;" d="M32,1C18.635,1,6.954,9.414,2.672,22H1v2h48v-3.454L59.636,32L49,43.454V40H1v2h1.672    C6.954,54.586,18.635,63,32,63c17.094,0,31-13.907,31-31S49.094,1,32,1z M33,3.994c2.267,1.821,6.575,5.781,9.814,11.727    c-2.634,1.193-5.901,2.101-9.814,2.239V3.994z M31,3.997v13.962c-3.905-0.139-7.171-1.05-9.807-2.246    C24.43,9.783,28.734,5.822,31,3.997z M19.389,14.809c-3.341-1.857-5.4-3.995-6.192-4.922c4.334-3.687,9.74-6.055,15.613-6.694    C26.267,5.359,22.393,9.243,19.389,14.809z M31,19.96V22H18.516c0.494-1.585,1.088-3.077,1.75-4.474    C23.134,18.831,26.702,19.821,31,19.96z M33,19.96c4.299-0.139,7.868-1.129,10.736-2.434c0.661,1.396,1.255,2.888,1.748,4.475H33    V19.96z M45.533,16.627c0.517-0.285,1.006-0.574,1.467-0.868v4.448C46.562,18.952,46.068,17.759,45.533,16.627z M44.616,14.818    c-3.013-5.585-6.902-9.478-9.445-11.641c5.915,0.647,11.298,3.08,15.603,6.747C49.967,10.868,47.925,12.981,44.616,14.818z     M11.719,11.246c0.942,1.112,3.168,3.408,6.748,5.381c-0.783,1.658-1.474,3.452-2.034,5.373H4.795    C6.316,17.848,8.698,14.202,11.719,11.246z M47.179,15.646c2.603-1.694,4.279-3.434,5.077-4.372    c5.053,4.939,8.316,11.701,8.704,19.214L47.179,15.646z M33,46.041c3.905,0.139,7.171,1.05,9.807,2.246    C39.57,54.217,35.266,58.178,33,60.003V46.041z M33,44.04V42h12.484c-0.494,1.585-1.088,3.077-1.75,4.474    C40.866,45.169,37.298,44.179,33,44.04z M31,44.04c-4.299,0.139-7.868,1.129-10.736,2.434c-0.661-1.396-1.255-2.888-1.748-4.475    H31V44.04z M31,46.041v13.966c-2.267-1.821-6.575-5.781-9.814-11.727C23.82,47.087,27.087,46.179,31,46.041z M28.809,60.806    c-5.874-0.639-11.28-3.007-15.614-6.695c0.789-0.927,2.842-3.071,6.189-4.929C22.389,54.752,26.266,58.639,28.809,60.806z     M44.611,49.191c3.303,1.836,5.35,3.944,6.161,4.887c-4.305,3.666-9.687,6.099-15.602,6.746    C37.713,58.661,41.599,54.771,44.611,49.191z M45.533,47.373c0.534-1.132,1.029-2.325,1.467-3.58v4.448    C46.539,47.947,46.05,47.658,45.533,47.373z M4.795,42h11.637c0.56,1.921,1.251,3.715,2.034,5.373    c-3.58,1.973-5.806,4.269-6.748,5.381C8.698,49.798,6.316,46.152,4.795,42z M52.257,52.725c-0.798-0.938-2.474-2.678-5.077-4.372    l13.781-14.842C60.573,41.024,57.309,47.786,52.257,52.725z"/>
	</g>
</g>

	</svg>
