<svg xmlns="http://www.w3.org/2000/svg" xmlns:xlink="http://www.w3.org/1999/xlink" version="1.1" id="rot-073" x="0px" y="0px" viewBox="0 0 64 64" style="enable-background:new 0 0 64 64;" xml:space="preserve">
<g>
	<g>
		<polygon style="fill:#F4C70E;" points="33,41 33,59 19,59 19,41 16,41 16,59 13,59 13,61 35,61 35,60 35,59 35,41   "/>
	</g>
	<g>
		<rect x="46" y="34" style="fill:#F4C70E;" width="6" height="10"/>
	</g>
	<g>
		<path style="fill:#333333;" d="M36.895,32c0.649-1.407,1.029-2.958,1.085-4.593C40.568,24.674,42,21.122,42,17.343V13    c0-2.532-1.893-4.632-4.338-4.956C35.565,3.745,31.205,1,26.384,1h-1.684c-3.252,0-6.458,1.1-9.025,3.097    C12.069,6.901,10,11.132,10,15.701v1.642c0,3.779,1.432,7.331,4.021,10.064c0.13,3.835,2.061,7.214,4.979,9.32v2.471l-7.82,1.737    C5.186,42.268,1,47.485,1,53.626V63h34h1h27V32H36.895z M21,45.889C22.272,47.19,24.042,48,26,48s3.728-0.81,5-2.111V57H21V45.889    z M33,36.727c0.734-0.529,1.404-1.138,2-1.816v4.731l-2-0.444V36.727z M12,15.701c0-3.948,1.787-7.603,4.903-10.026    C19.122,3.95,21.891,3,24.701,3h1.684c4.226,0,8.032,2.51,9.697,6.394L36.34,10H37c1.654,0,3,1.346,3,3v4.343    c0,2.456-0.703,4.802-2,6.82V16h-2.193l-0.344,0.138C29.056,18.7,22.309,20,15.408,20H14v4.163c-1.297-2.018-2-4.364-2-6.82    V15.701z M16,27v-5.003c6.876-0.071,13.6-1.39,20-3.92V27c0,5.514-4.486,10-10,10S16,32.514,16,27z M26,39    c1.786,0,3.476-0.403,5-1.105V40v0.802V41c0,2.757-2.243,5-5,5s-5-2.243-5-5v-0.198V40v-2.105C22.524,38.597,24.214,39,26,39z     M3,53.626c0-5.195,3.542-9.611,8.614-10.737L14,42.358V57h-1h-1h-1v4H3V53.626z M13,61v-2h3V41.913l3-0.667V59h14V41.246l2,0.445    V61H13z M61,61H37V34h24V61z"/>
		<rect x="57" y="57" style="fill:#333333;" width="2" height="2"/>
		<rect x="49" y="57" style="fill:#333333;" width="6" height="2"/>
		<rect x="49" y="53" style="fill:#333333;" width="10" height="2"/>
	</g>
</g>

	</svg>
