<svg xmlns="http://www.w3.org/2000/svg" xmlns:xlink="http://www.w3.org/1999/xlink" version="1.1" id="rot-077" x="0px" y="0px" viewBox="0 0 64 64" style="enable-background:new 0 0 64 64;" xml:space="preserve">
<g>
	<g>
		<path style="fill:#F4C70E;" d="M32,36c-1.046,0-2.053,0.166-3,0.465v19.07C29.947,55.834,30.954,56,32,56c5.523,0,10-4.477,10-10    C42,40.477,37.523,36,32,36z"/>
	</g>
	<g>
		<path style="fill:#333333;" d="M52,13c0-6.617-5.383-12-12-12c-3.075,0-5.874,1.172-8,3.081C29.874,2.172,27.075,1,24,1    c-6.617,0-12,5.383-12,12H1v50h9h15h38V13H52z M61,60.382l-6-3V15h6V60.382z M54,59.118L57.764,61h-7.527L54,59.118z M53,15    v42.382l-6,3V15H53z M50,13H36c0-2.824-0.987-5.418-2.625-7.47C35.141,3.961,37.458,3,40,3C45.514,3,50,7.486,50,13z M36,19.184    c1.161,0.414,2,1.514,2,2.816c0,1.654-1.346,3-3,3s-3-1.346-3-3c0-1.302,0.839-2.402,2-2.816V22h2V19.184z M32,7.026    c1.25,1.669,2,3.733,2,5.974h-4C30,10.759,30.75,8.695,32,7.026z M24,3c2.542,0,4.859,0.961,6.625,2.53    C28.987,7.582,28,10.176,28,13H14C14,7.486,18.486,3,24,3z M14,19.184c1.161,0.414,2,1.514,2,2.816c0,1.654-1.346,3-3,3    s-3-1.346-3-3c0-1.302,0.839-2.402,2-2.816V22h2V19.184z M3,15h9v2.101C9.721,17.566,8,19.586,8,22c0,2.757,2.243,5,5,5    s5-2.243,5-5c0-2.414-1.721-4.434-4-4.899V15h20v2.101c-2.279,0.465-4,2.484-4,4.899c0,2.757,2.243,5,5,5s5-2.243,5-5    c0-2.414-1.721-4.434-4-4.899V15h9v46H28.974C29.609,60.162,30,59.13,30,58v-7.184C30.314,50.928,30.648,51,31,51v2h2v-2    c1.654,0,3-1.346,3-3s-1.346-3-3-3h-2c-0.552,0-1-0.449-1-1s0.448-1,1-1h2c0.552,0,1,0.449,1,1h2c0-1.654-1.346-3-3-3v-2h-2v2    c-0.352,0-0.686,0.072-1,0.184V34c0-2.757-2.243-5-5-5H10c-2.757,0-5,2.243-5,5v24c0,1.13,0.391,2.162,1.026,3H3V15z M30,46.816    C30.314,46.928,30.648,47,31,47h2c0.552,0,1,0.449,1,1s-0.448,1-1,1h-2c-0.552,0-1-0.449-1-1V46.816z M7,58V34    c0-1.302,0.839-2.402,2-2.816v29.631C7.839,60.402,7,59.302,7,58z M11,31h3v30h-3V31z M16,61V31h9c1.654,0,3,1.346,3,3v24    c0,1.654-1.346,3-3,3H16z"/>
		<path style="fill:#333333;" d="M25.698,38.5C25.898,38.02,26,37.517,26,37c0-2.206-1.794-4-4-4s-4,1.794-4,4    c0,0.517,0.102,1.02,0.302,1.5C18.102,38.98,18,39.483,18,40c0,2.206,1.794,4,4,4s4-1.794,4-4C26,39.483,25.898,38.98,25.698,38.5    z M23.72,39.003C23.905,39.323,24,39.658,24,40c0,1.103-0.897,2-2,2s-2-0.897-2-2c0-0.342,0.095-0.677,0.28-0.997l0.293-0.503    l-0.293-0.503C20.095,37.677,20,37.342,20,37c0-1.103,0.897-2,2-2s2,0.897,2,2c0,0.342-0.095,0.677-0.28,0.997L23.427,38.5    L23.72,39.003z"/>
	</g>
</g>

	</svg>
