<svg xmlns="http://www.w3.org/2000/svg" xmlns:xlink="http://www.w3.org/1999/xlink" version="1.1" id="rot-075" x="0px" y="0px" viewBox="0 0 64 64" style="enable-background:new 0 0 64 64;" xml:space="preserve">
<g>
	<g>
		<circle style="fill:#F4C70E;" cx="41" cy="14" r="6"/>
	</g>
	<g>
		<circle style="fill:#F4C70E;" cx="16" cy="21" r="6"/>
	</g>
	<g>
		<circle style="fill:#F4C70E;" cx="23" cy="39" r="6"/>
	</g>
	<path style="fill:#333333;" d="M63,41.465l-9.061-6.041C54.63,33.009,55,30.519,55,28C55,13.112,42.888,1,28,1S1,13.112,1,28   s12.112,27,27,27c1.67,0,3.346-0.165,5-0.477V63h28V46.535l2,1.333V41.465z M47,30.798l-5.725,3.817   c0.403-1.856,0.626-3.733,0.687-5.615h10.999c-0.071,1.779-0.325,3.538-0.77,5.259L47,30.798z M33,46.535v0.897   c-1.5,1.931-2.95,3.411-4,4.388V40.03c1.253,0.04,2.468,0.154,3.641,0.341L31,41.465v6.403L33,46.535z M16,19c1.103,0,2,0.897,2,2   s-0.897,2-2,2s-2-0.897-2-2S14.897,19,16,19z M16.177,24.982C18.299,24.887,20,23.145,20,21c0-1.496-0.835-2.787-2.054-3.473   c0.137-0.364,0.272-0.729,0.42-1.08c2.33,0.834,5.182,1.418,8.634,1.517V27H16.035C16.059,26.331,16.106,25.659,16.177,24.982z    M36.78,14.598c-2.333,0.816-4.939,1.273-7.78,1.36V4.181C30.95,6.002,34.289,9.577,36.78,14.598z M29,17.979   c3.144-0.09,6.039-0.602,8.63-1.531c1.291,3.071,2.21,6.608,2.345,10.552H29V17.979z M39,14c0-1.103,0.897-2,2-2s2,0.897,2,2   s-0.897,2-2,2S39,15.103,39,14z M43.295,10.733C42.644,10.275,41.855,10,41,10c-1.417,0-2.656,0.745-3.367,1.858   c-2.258-3.974-4.918-6.914-6.769-8.689c5.229,0.599,9.971,2.817,13.713,6.14C44.282,9.693,43.861,10.186,43.295,10.733z M27,4.187   v11.779c-3.121-0.095-5.697-0.609-7.798-1.34C21.693,9.592,25.044,6.01,27,4.187z M17.333,13.877   c-3.276-1.52-5.106-3.476-5.922-4.558c3.747-3.331,8.498-5.553,13.737-6.151C23.009,5.226,19.777,8.858,17.333,13.877z M27,29   v9.021c-0.045,0.002-0.089,0.003-0.134,0.005C26.429,36.292,24.869,35,23,35c-2.206,0-4,1.794-4,4c0,0.12,0.025,0.233,0.035,0.35   c-0.221,0.072-0.447,0.141-0.659,0.218C17.082,36.493,16.161,32.95,16.025,29H27z M25,39c0,1.103-0.897,2-2,2s-2-0.897-2-2   s0.897-2,2-2S25,37.897,25,39z M19.688,41.24C20.408,42.301,21.624,43,23,43c1.848,0,3.391-1.265,3.849-2.97   c0.051-0.002,0.1-0.006,0.151-0.008v11.797c-1.951-1.822-5.294-5.401-7.785-10.428C19.366,41.337,19.532,41.291,19.688,41.24z    M25.136,52.831c-5.228-0.599-9.969-2.816-13.711-6.138c0.83-1.067,2.674-3.01,5.901-4.525   C19.758,47.153,22.99,50.774,25.136,52.831z M34.996,38.801c-1.888-0.45-3.896-0.708-5.996-0.771V29h10.962   c-0.085,2.446-0.473,4.885-1.173,7.272L34.996,38.801z M52.975,27H41.976c-0.104-3.31-0.71-6.341-1.619-9.065   C40.567,17.969,40.78,18,41,18c2.206,0,4-1.794,4-4c0-0.625-0.156-1.209-0.413-1.736c0.611-0.581,1.081-1.114,1.437-1.561   C50.123,14.973,52.725,20.687,52.975,27z M9.969,10.709c1.026,1.305,3.074,3.373,6.542,4.982c-0.178,0.425-0.341,0.867-0.505,1.309   C16.004,17.001,16.002,17,16,17c-2.206,0-4,1.794-4,4c0,1.56,0.906,2.899,2.211,3.558c-0.091,0.819-0.149,1.633-0.176,2.442H3.025   C3.275,20.691,5.874,14.979,9.969,10.709z M3.025,29h10.999c0.134,4.264,1.102,8.064,2.472,11.345   c-3.448,1.605-5.493,3.658-6.522,4.95C5.876,41.026,3.275,35.312,3.025,29z M30.841,52.835c0.638-0.616,1.372-1.37,2.159-2.263   v1.91C32.284,52.628,31.565,52.752,30.841,52.835z M51,61h-8V49h8V61z M59,61h-6V47H41v14h-6V45.202l12-8l12,8V61z M61,44.132   l-14-9.334l-14,9.334v-1.597l14-9.333l14,9.333V44.132z"/>
</g>

	</svg>
