<svg xmlns="http://www.w3.org/2000/svg" xmlns:xlink="http://www.w3.org/1999/xlink" version="1.1" id="rot-078" x="0px" y="0px" viewBox="0 0 64 64" style="enable-background:new 0 0 64 64;" xml:space="preserve">
<g>
	<rect x="7" y="8" style="fill:#F4C70E;" width="28" height="14"/>
	<rect x="47" y="13" style="fill:#F4C70E;" width="4" height="3"/>
	<rect x="57" y="13" style="fill:#F4C70E;" width="4" height="3"/>
	<path style="fill:#333333;" d="M21,29c-6.065,0-11,4.935-11,11s4.935,11,11,11s11-4.935,11-11S27.065,29,21,29z M21,31   c1.341,0,2.61,0.303,3.755,0.831L12.831,43.755C12.303,42.61,12,41.341,12,40C12,35.037,16.037,31,21,31z M13.901,45.513   l12.611-12.611c0.593,0.461,1.125,0.993,1.586,1.586L15.487,47.099C14.895,46.638,14.362,46.105,13.901,45.513z M21,49   c-1.341,0-2.61-0.303-3.755-0.831l11.924-11.924C29.697,37.39,30,38.659,30,40C30,44.963,25.963,49,21,49z"/>
	<rect x="20" y="26" style="fill:#333333;" width="2" height="2"/>
	<rect x="20" y="52" style="fill:#333333;" width="2" height="2"/>
	<rect x="33" y="39" style="fill:#333333;" width="2" height="2"/>
	<rect x="7" y="39" style="fill:#333333;" width="2" height="2"/>
	
		<rect x="29" y="29.586" transform="matrix(0.7071 -0.7071 0.7071 0.7071 -13.1335 30.2929)" style="fill:#333333;" width="2" height="2.828"/>
	
		<rect x="11" y="47.586" transform="matrix(0.7071 -0.7071 0.7071 0.7071 -31.1335 22.837)" style="fill:#333333;" width="2" height="2.828"/>
	
		<rect x="28.586" y="48" transform="matrix(0.7071 -0.7071 0.7071 0.7071 -25.8614 35.565)" style="fill:#333333;" width="2.828" height="2"/>
	
		<rect x="10.586" y="30" transform="matrix(0.7071 -0.7071 0.7071 0.7071 -18.4056 17.565)" style="fill:#333333;" width="2.828" height="2"/>
	<rect x="11" y="12" style="fill:#333333;" width="2" height="6"/>
	<rect x="15" y="12" style="fill:#333333;" width="2" height="6"/>
	<rect x="29" y="12" style="fill:#333333;" width="2" height="2"/>
	<rect x="19" y="12" style="fill:#333333;" width="2" height="2"/>
	<rect x="29" y="16" style="fill:#333333;" width="2" height="2"/>
	<path style="fill:#333333;" d="M63,15h-1V8h-2V1h-2v7h-2v7h-1v2h1v8c0,1.302,0.839,2.402,2,2.816V47c0,6.617-5.383,12-12,12h-5v-6   h2c3.859,0,7-3.141,7-7V27.816c1.161-0.414,2-1.514,2-2.816v-8h1v-2h-1V8h-2V1h-2v7h-2v7h-1v2h1v8c0,1.302,0.839,2.402,2,2.816V46   c0,2.757-2.243,5-5,5h-2V4c0-1.654-1.346-3-3-3H4C2.346,1,1,2.346,1,4v56c0,1.654,1.346,3,3,3h34c1.302,0,2.402-0.839,2.816-2H46   c7.72,0,14-6.28,14-14V27.816c1.161-0.414,2-1.514,2-2.816v-8h1V15z M48,10h2v5h-2V10z M50,17v8c0,0.552-0.448,1-1,1s-1-0.448-1-1   v-8H50z M39,60c0,0.552-0.448,1-1,1H4c-0.552,0-1-0.448-1-1V4c0-0.552,0.448-1,1-1h34c0.552,0,1,0.448,1,1V60z M58,10h2v5h-2V10z    M60,25c0,0.552-0.448,1-1,1s-1-0.448-1-1v-8h2V25z"/>
	<rect x="5" y="56" style="fill:#333333;" width="4" height="2"/>
	<rect x="33" y="56" style="fill:#333333;" width="4" height="2"/>
</g>

	</svg>
