<svg xmlns="http://www.w3.org/2000/svg" xmlns:xlink="http://www.w3.org/1999/xlink" version="1.1" id="rot-079" x="0px" y="0px" viewBox="0 0 64 64" style="enable-background:new 0 0 64 64;" xml:space="preserve">
<g>
	<rect x="6" y="5" style="fill:#F4C70E;" width="16" height="4"/>
	<path style="fill:#F4C70E;" d="M53.355,30h-0.71C50.817,37.914,44,43.533,44,50c0,4.971,4.029,9,9,9s9-4.029,9-9   C62,43.533,55.183,37.914,53.355,30z"/>
	<path style="fill:#333333;" d="M45,16c0-1.654-1.346-3-3-3H28.06L45,26.031V16z M43,21.969L33.94,15H42c0.552,0,1,0.448,1,1V21.969   z"/>
	<path style="fill:#333333;" d="M37,39H15c-2.757,0-5,2.243-5,5h2c0-1.654,1.346-3,3-3h22c1.654,0,3,1.346,3,3h2   C42,41.243,39.757,39,37,39z"/>
	<path style="fill:#333333;" d="M37,33H15c-1.654,0-3-1.346-3-3h-2c0,2.757,2.243,5,5,5h22c2.757,0,5-2.243,5-5h-2   C40,31.654,38.654,33,37,33z"/>
	<path style="fill:#333333;" d="M57,50c0,2.206-1.794,4-4,4v2c3.309,0,6-2.691,6-6H57z"/>
	<rect x="6" y="13" style="fill:#333333;" width="2" height="2"/>
	<rect x="10" y="13" style="fill:#333333;" width="2" height="2"/>
	<rect x="14" y="13" style="fill:#333333;" width="2" height="2"/>
	<rect x="6" y="56" style="fill:#333333;" width="2" height="2"/>
	<rect x="10" y="56" style="fill:#333333;" width="2" height="2"/>
	<path style="fill:#333333;" d="M58.809,39.36c-2.112-3.477-4.29-7.074-4.797-11.36h-2.024c-0.166,1.405-0.524,2.73-0.988,4.007V13   c0-2.757-2.243-5-5-5H23V1H5v7.101C2.721,8.566,1,10.586,1,13v45c0,2.757,2.243,5,5,5h40c2.151,0,3.973-1.373,4.677-3.283   C51.424,59.895,52.199,60,53,60c5.514,0,10-4.486,10-10C63,46.264,60.964,42.91,58.809,39.36z M21,8h-2V3h2V8z M11,8V3h2v5H11z    M15,3h2v5h-2V3z M7,3h2v5H7V3z M46,61H6c-1.654,0-3-1.346-3-3V13c0-1.654,1.346-3,3-3h17h23c1.654,0,3,1.346,3,3v23.285   c-0.582,1.043-1.195,2.066-1.809,3.075C45.036,42.91,43,46.264,43,50c0,4.011,2.38,7.469,5.797,9.061C48.366,60.191,47.28,61,46,61   z M53,58c-4.411,0-8-3.589-8-8c0-3.177,1.896-6.298,3.901-9.602c1.466-2.415,3.066-5.05,4.099-8.008   c1.032,2.958,2.633,5.593,4.099,8.008C59.104,43.702,61,46.823,61,50C61,54.411,57.411,58,53,58z"/>
</g>

	</svg>
