<svg xmlns="http://www.w3.org/2000/svg" xmlns:xlink="http://www.w3.org/1999/xlink" version="1.1" id="rot-081" x="0px" y="0px" viewBox="0 0 64 64" style="enable-background:new 0 0 64 64;" xml:space="preserve">
<g>
	<rect x="9" y="36" style="fill:#F4C70E;" width="25" height="4"/>
	<rect x="9" y="58" style="fill:#F4C70E;" width="25" height="4"/>
	<rect x="34" y="53" style="fill:#F4C70E;" width="16" height="4"/>
	<path style="fill:#333333;" d="M35,35H8v7H1v2h7v10H1v2h7v7h27v-5h16V40H35V35z M33,61H10V37h23V61z M35,56v-6h14v6H35z M49,42v6   H35v-6H49z"/>
	<path style="fill:#333333;" d="M58,43c-2.757,0-5,2.243-5,5s2.243,5,5,5s5-2.243,5-5S60.757,43,58,43z M58,51c-1.654,0-3-1.346-3-3   s1.346-3,3-3s3,1.346,3,3S59.654,51,58,51z"/>
	<path style="fill:#333333;" d="M62.714,36.7l-1.428-1.4C60.212,36.396,58.689,37,57,37c-3.309,0-6-2.691-6-6s2.691-6,6-6   c1.69,0,3.213,0.604,4.285,1.699l1.43-1.398C61.263,23.817,59.232,23,57,23c-4.411,0-8,3.589-8,8s3.589,8,8,8   C59.231,39,61.261,38.184,62.714,36.7z"/>
	<path style="fill:#333333;" d="M29,31c6.856,0,13.064-3.682,16.43-9.675C46.506,21.773,47.702,22,49,22c4.963,0,9-4.037,9-9   s-4.037-9-9-9c-0.909,0-1.773,0.115-2.582,0.339c-0.454-0.99-0.992-1.96-1.617-2.894l-1.662,1.113   c1.592,2.378,2.584,4.989,2.867,7.553l1.988-0.221c-0.136-1.226-0.422-2.457-0.833-3.673C47.738,6.077,48.351,6,49,6   c3.859,0,7,3.141,7,7s-3.141,7-7,7c-1.328,0-2.506-0.291-3.5-0.866l-0.922-0.532l-0.474,0.953C41.209,25.381,35.422,29,29,29   c-9.374,0-17-7.626-17-17c0-3.381,0.989-6.646,2.862-9.443L13.2,1.443C11.106,4.57,10,8.221,10,12C10,22.477,18.523,31,29,31z"/>
	<path style="fill:#333333;" d="M29,26v-2c-6.617,0-12-5.383-12-12h-2C15,19.72,21.28,26,29,26z"/>
	<rect x="12" y="57" style="fill:#333333;" width="15" height="2"/>
	<rect x="29" y="57" style="fill:#333333;" width="2" height="2"/>
	<rect x="12" y="39" style="fill:#333333;" width="2" height="2"/>
	<rect x="16" y="39" style="fill:#333333;" width="2" height="2"/>
</g>

	</svg>
