<svg xmlns="http://www.w3.org/2000/svg" xmlns:xlink="http://www.w3.org/1999/xlink" version="1.1" id="rot-081" x="0px" y="0px" viewBox="0 0 64 64" style="enable-background:new 0 0 64 64;" xml:space="preserve">
<g>
	<g>
		<path style="fill:#F4C70E;" d="M24,32c0-1.387,0.354-2.691,0.974-3.828C22.968,24.975,19.488,23,15.688,23H1v7    c0,4.963,4.037,9,9,9h18.13C25.668,37.636,24,35.014,24,32z"/>
	</g>
	<g>
		<path style="fill:#F4C70E;" d="M32,24c1.387,0,2.691,0.354,3.828,0.974C39.025,22.968,41,19.488,41,15.688V1h-7    c-4.963,0-9,4.037-9,9v18.13C26.364,25.668,28.986,24,32,24z"/>
	</g>
	<g>
		<path style="fill:#F4C70E;" d="M54,25H35.87c2.462,1.364,4.13,3.986,4.13,7c0,1.387-0.354,2.691-0.974,3.828    C41.032,39.025,44.512,41,48.312,41H63v-7C63,29.037,58.963,25,54,25z"/>
	</g>
	<g>
		<path style="fill:#F4C70E;" d="M32,40c-1.387,0-2.691-0.354-3.828-0.974C24.975,41.032,23,44.512,23,48.312V63h7    c4.963,0,9-4.037,9-9V35.87C37.636,38.332,35.014,40,32,40z"/>
	</g>
	<g>
		<path style="fill:#333333;" d="M41,32c0-0.338-0.022-0.671-0.059-1H47c1.565,0,3.061,0.748,4,2l1.2,1.6l1.6-1.199L52.6,31.8    C51.285,30.047,49.191,29,47,29h-6.525c-1.239-3.49-4.565-6-8.475-6c-0.338,0-0.671,0.022-1,0.059V17c0-1.565,0.748-3.061,2.001-4    l1.6-1.2l-1.201-1.6l-1.599,1.2C30.047,12.715,29,14.809,29,17v6.525c-3.49,1.239-6,4.565-6,8.475c0,0.338,0.022,0.671,0.059,1H17    c-1.565,0-3.061-0.748-4-2l-1.2-1.6l-1.6,1.2l1.2,1.6c1.314,1.753,3.408,2.8,5.6,2.8h6.525c1.239,3.49,4.565,6,8.475,6    c0.338,0,0.671-0.022,1-0.059V47c0,1.565-0.748,3.061-2.001,4l-1.6,1.2l1.201,1.6l1.599-1.2C33.953,51.285,35,49.191,35,47v-6.525    C38.49,39.236,41,35.91,41,32z M32,39c-3.859,0-7-3.141-7-7c0-3.86,3.141-7,7-7s7,3.14,7,7C39,35.859,35.859,39,32,39z"/>
		<path style="fill:#333333;" d="M32,27c-2.757,0-5,2.243-5,5s2.243,5,5,5s5-2.243,5-5S34.757,27,32,27z M32,35    c-1.654,0-3-1.346-3-3s1.346-3,3-3s3,1.346,3,3S33.654,35,32,35z"/>
		<path style="fill:#333333;" d="M56.141,17.819l1.723-1.015C54.551,11.175,49.406,6.713,43.38,4.24l-0.76,1.851    C48.246,8.399,53.047,12.564,56.141,17.819z"/>
		<path style="fill:#333333;" d="M57.908,21.379l1.85-0.759c-0.263-0.642-0.554-1.285-0.862-1.91l-1.793,0.888    C57.392,20.181,57.662,20.78,57.908,21.379z"/>
		<path style="fill:#333333;" d="M50.149,19.564l1.648-1.133c-2.137-3.11-5.014-5.708-8.319-7.512l-0.957,1.756    C45.552,14.329,48.189,16.711,50.149,19.564z"/>
		<path style="fill:#333333;" d="M52.251,23.392l1.84-0.783c-0.301-0.708-0.641-1.41-1.01-2.086l-1.756,0.958    C51.663,22.1,51.975,22.743,52.251,23.392z"/>
		<path style="fill:#333333;" d="M20.414,6.509l-0.828-1.82C12.602,7.868,7.151,13.526,4.24,20.62l1.85,0.76    C8.808,14.758,13.896,9.477,20.414,6.509z"/>
		<path style="fill:#333333;" d="M23.31,5.382L22.69,3.48c-0.554,0.18-1.101,0.377-1.64,0.588l0.73,1.862    C22.283,5.733,22.793,5.55,23.31,5.382z"/>
		<path style="fill:#333333;" d="M10.919,20.521l1.756,0.958c1.655-3.033,4.038-5.671,6.891-7.629L18.435,12.2    C15.322,14.336,12.724,17.213,10.919,20.521z"/>
		<path style="fill:#333333;" d="M9.792,49.045l-1.586,1.219c3.233,4.207,7.526,7.49,12.414,9.496l0.76-1.85    C16.817,56.038,12.811,52.973,9.792,49.045z"/>
		<path style="fill:#333333;" d="M7.483,45.522l-1.75,0.967c0.387,0.701,0.808,1.395,1.25,2.062l1.666-1.105    C8.237,46.823,7.845,46.177,7.483,45.522z"/>
		<path style="fill:#333333;" d="M13.852,44.437l-1.648,1.133c2.135,3.108,5.011,5.706,8.317,7.512l0.959-1.756    C18.447,49.67,15.81,47.288,13.852,44.437z"/>
		<path style="fill:#333333;" d="M57.91,42.62c-2.591,6.311-7.388,11.454-13.51,14.483l0.887,1.793    c6.559-3.245,11.698-8.756,14.473-15.517L57.91,42.62z"/>
		<path style="fill:#333333;" d="M40.689,58.619l0.621,1.9c0.704-0.229,1.4-0.486,2.07-0.762l-0.762-1.85    C41.995,58.165,41.346,58.404,40.689,58.619z"/>
		<path style="fill:#333333;" d="M53.081,43.479l-1.756-0.959c-1.846,3.383-4.56,6.236-7.848,8.251l1.045,1.705    C48.108,50.279,51.067,47.168,53.081,43.479z"/>
	</g>
</g>

	</svg>
