<svg xmlns="http://www.w3.org/2000/svg" xmlns:xlink="http://www.w3.org/1999/xlink" version="1.1" id="rot-081" x="0px" y="0px" viewBox="0 0 64 64" style="enable-background:new 0 0 64 64;" xml:space="preserve">
<g>
	<g>
		<rect x="30" y="31" style="fill:#F4C70E;" width="22" height="16"/>
	</g>
	<g>
		<polygon style="fill:#333333;" points="34,12 32,12 32,10 30,10 30,14 34,14   "/>
		<path style="fill:#333333;" d="M51,12h12V6H51c-2.505,0-4.701,1.327-5.938,3.312C44.753,9.117,44.391,9,44,9h-6    c-0.391,0-0.753,0.117-1.062,0.312C35.701,7.327,33.505,6,31,6c-3.86,0-7,3.14-7,7c0,2.968,1.859,5.504,4.472,6.52    C28.172,20.309,28,21.142,28,22v1h-3c-4.962,0-9,4.038-9,9v22c0,1.654-1.346,3-3,3s-3-1.346-3-3V25.618    c0.615-0.704,1-1.613,1-2.618c0-0.769-0.231-1.526-0.659-2.176l2.64-13.634L13,1H1v6l2.659,13.824C3.231,21.475,3,22.231,3,23    c0,1.005,0.385,1.914,1,2.617V54c0,4.962,4.038,9,9,9s9-4.038,9-9V32c0-1.654,1.346-3,3-3h3v34h26V22c0-0.681-0.109-1.353-0.302-2    H63v-6H51c-0.551,0-1-0.449-1-1S50.449,12,51,12z M38,11h6v4h-6V11z M26,13c0-2.757,2.243-5,5-5s5,2.243,5,5s-2.243,5-5,5    S26,15.757,26,13z M3.019,7H7V5H3V3h8v2H9v2h1.982L8.203,21.348l0.312,0.366C8.736,21.975,9,22.409,9,23c0,1.103-0.897,2-2,2    s-2-0.897-2-2c0-0.591,0.264-1.025,0.486-1.286l0.311-0.366L3.019,7z M25,27c-2.757,0-5,2.243-5,5v22c0,3.86-3.14,7-7,7    s-7-3.14-7-7V26.858C6.322,26.941,6.653,27,7,27c0.347,0,0.678-0.058,1-0.142V54c0,2.757,2.243,5,5,5s5-2.243,5-5V32    c0-3.86,3.14-7,7-7h3v2H25z M52,22v39H30V22c0-0.706,0.153-1.393,0.436-2.029C30.622,19.986,30.81,20,31,20    c2.373,0,4.47-1.189,5.736-3H38h6h1.264c1.267,1.811,3.364,3,5.736,3h0.578C51.852,20.628,52,21.309,52,22z M51,16h10v2H51    c-2.757,0-5-2.243-5-5s2.243-5,5-5h10v2H51c-1.654,0-3,1.346-3,3S49.346,16,51,16z"/>
		<rect x="48" y="41" style="fill:#333333;" width="2" height="2"/>
		<rect x="32" y="41" style="fill:#333333;" width="14" height="2"/>
	</g>
</g>

	</svg>
