<svg xmlns="http://www.w3.org/2000/svg" xmlns:xlink="http://www.w3.org/1999/xlink" version="1.1" id="rot-085" x="0px" y="0px" viewBox="0 0 64 64" style="enable-background:new 0 0 64 64;" xml:space="preserve">
<g>
	<g>
		<rect x="3" y="48" style="fill:#F4C70E;" width="10" height="2"/>
	</g>
	<g>
		<g>
			<rect x="52" y="44" style="fill:#F4C70E;" width="4" height="6"/>
		</g>
		<g>
			<rect x="52" y="30" style="fill:#F4C70E;" width="4" height="6"/>
		</g>
		<g>
			<rect x="52" y="16" style="fill:#F4C70E;" width="4" height="6"/>
		</g>
		<g>
			<rect x="52" y="3" style="fill:#F4C70E;" width="4" height="6"/>
		</g>
	</g>
	<g>
		<path style="fill:#333333;" d="M9,54c-1.654,0-3,1.346-3,3s1.346,3,3,3s3-1.346,3-3S10.654,54,9,54z M9,58c-0.552,0-1-0.448-1-1    s0.448-1,1-1s1,0.448,1,1S9.552,58,9,58z"/>
		<path style="fill:#333333;" d="M35,51c-2.206,0-4,1.794-4,4s1.794,4,4,4s4-1.794,4-4S37.206,51,35,51z M35,57    c-1.103,0-2-0.897-2-2s0.897-2,2-2s2,0.897,2,2S36.103,57,35,57z"/>
		<path style="fill:#333333;" d="M45,1v13v1v13v1v13v1v13h-2V25h-5h-1h-2v2h2v20.263c-0.062-0.016-0.124-0.034-0.187-0.048L29.75,23    H10c-1.654,0-3,1.346-3,3v14H5.236c-1.144,0-2.172,0.636-2.684,1.658l-1.236,2.473C1.109,44.545,1,45.009,1,45.473V58h2.09    c0.478,2.833,2.942,5,5.91,5s5.431-2.167,5.91-5h12.679c1.19,2.928,4.061,5,7.411,5s6.221-2.072,7.411-5H45h1h17V43v-1V29v-1V15    v-1V1H45z M39,27h2v22.726c-0.572-0.65-1.247-1.206-2-1.644V27z M26,47h-8.333l-4-3h10.919L26,45.414V47z M29.726,49    c-0.927,0.816-1.665,1.838-2.137,3h-3.256l-4-3H29.726z M34.667,47h-0.117l-6.275-9.86l1.433-1.433l-1.414-1.414l-4,4l1.414,1.414    l1.118-1.118L32.178,47H28v-2.414L25.414,42H13V25h15.25L34.667,47z M9,61c-2.206,0-4-1.794-4-4s1.794-4,4-4s4,1.794,4,4    S11.206,61,9,61z M14.91,56c-0.478-2.833-2.942-5-5.91-5s-5.431,2.167-5.91,5H3v-8h2v2h2v-2h2v2h2v-2h2v-2H3v-0.527    c0-0.154,0.036-0.31,0.105-0.447l1.236-2.473C4.512,42.212,4.854,42,5.236,42H9V26c0-0.552,0.448-1,1-1h1v19.5L23.667,54h3.402    C27.028,54.328,27,54.661,27,55s0.028,0.672,0.069,1H14.91z M35,61c-3.309,0-6-2.691-6-6s2.691-6,6-6s6,2.691,6,6S38.309,61,35,61    z M61,56H47V44h14V56z M47,42V30h14v12H47z M47,28V16h14v12H47z M47,14V3h14v11H47z"/>
	</g>
</g>

	</svg>
