<svg xmlns="http://www.w3.org/2000/svg" xmlns:xlink="http://www.w3.org/1999/xlink" version="1.1" id="rot-086" x="0px" y="0px" viewBox="0 0 64 64" style="enable-background:new 0 0 64 64;" xml:space="preserve">
<g>
	<g>
		<rect x="55" y="20" style="fill:#333333;" width="2" height="5"/>
	</g>
	<g>
		<path style="fill:#F4C70E;" d="M50.303,25H1V1h49.303l9.756,6.504C61.9,8.732,63,10.787,63,13s-1.1,4.268-2.941,5.496L50.303,25z"/>
	</g>
	<g>
		<rect x="9" y="29" style="fill:#F4C70E;" width="6" height="14"/>
	</g>
	<g>
		<polygon style="fill:#333333;" points="9,14 13,14 13,12 9,12 9,9 15,9 15,7 7,7 7,19 9,19   "/>
		<path style="fill:#333333;" d="M19,14h2.5c0.827,0,1.5,0.673,1.5,1.5V19h2v-3.5c0-0.979-0.403-1.864-1.053-2.5    C24.597,12.364,25,11.479,25,10.5C25,8.57,23.43,7,21.5,7H17v12h2V14z M19,9h2.5c0.827,0,1.5,0.673,1.5,1.5S22.327,12,21.5,12H19    V9z"/>
		<polygon style="fill:#333333;" points="35,17 29,17 29,14 33,14 33,12 29,12 29,9 35,9 35,7 27,7 27,19 35,19   "/>
		<polygon style="fill:#333333;" points="45,17 39,17 39,14 43,14 43,12 39,12 39,9 45,9 45,7 37,7 37,19 45,19   "/>
		<path style="fill:#333333;" d="M55,17c0.704,0,1.357-0.199,1.932-0.519l1.739,2.086C60.173,20.37,61,22.654,61,25h2    c0-2.812-0.991-5.552-2.792-7.714l-1.82-2.184C58.77,14.49,59,13.773,59,13c0-2.206-1.794-4-4-4s-4,1.794-4,4S52.794,17,55,17z     M55,11c1.103,0,2,0.897,2,2s-0.897,2-2,2s-2-0.897-2-2S53.897,11,55,11z"/>
		<path style="fill:#333333;" d="M1,63h62V27H1V63z M61,61H23V29h38V61z M3,29h18v32H3V29z"/>
		<rect x="25" y="57" style="fill:#333333;" width="2" height="2"/>
		<rect x="29" y="57" style="fill:#333333;" width="2" height="2"/>
		<rect x="33" y="57" style="fill:#333333;" width="2" height="2"/>
		<rect x="25" y="53" style="fill:#333333;" width="2" height="2"/>
		<rect x="29" y="53" style="fill:#333333;" width="2" height="2"/>
		<rect x="25" y="49" style="fill:#333333;" width="2" height="2"/>
	</g>
</g>

	</svg>
