<svg xmlns="http://www.w3.org/2000/svg" xmlns:xlink="http://www.w3.org/1999/xlink" version="1.1" id="rot-087" x="0px" y="0px" viewBox="0 0 64 64" style="enable-background:new 0 0 64 64;" xml:space="preserve">
<g>
	<g>
		<g>
			<path style="fill:#F4C70E;" d="M32,25H12c-1.654,0-3-1.346-3-3v-8c0-1.654,1.346-3,3-3h20c1.654,0,3,1.346,3,3v8     C35,23.654,33.654,25,32,25z"/>
		</g>
	</g>
	<g>
		<path style="fill:#F4C70E;" d="M50.237,13.233L56,5l5.763,8.233c0.805,1.15,1.237,2.52,1.237,3.924v0    C63,20.936,59.936,24,56.157,24h-0.314C52.064,24,49,20.936,49,17.157v0C49,15.753,49.432,14.383,50.237,13.233z"/>
	</g>
	<g>
		<path style="fill:#333333;" d="M60,30v-2h-4.618L53,32.764V58c0,1.654-1.346,3-3,3s-3-1.346-3-3V42c0-2.757-2.243-5-5-5h-3V9h2    c1.103,0,2-0.897,2-2V3c0-1.103-0.897-2-2-2H3C1.897,1,1,1.897,1,3v4c0,1.103,0.897,2,2,2h2v54h34V39h3c1.654,0,3,1.346,3,3v16    c0,2.757,2.243,5,5,5s5-2.243,5-5V40h2c1.103,0,2-0.897,2-2v-4c0-1.103-0.897-2-2-2h-1.382l1-2H60z M3,7V3h38l0.001,4H39H5H3z     M37,61H7V9h30V61z M57,38h-2v-4h2V38z"/>
		<rect x="11" y="27" style="fill:#333333;" width="2" height="2"/>
		<rect x="15" y="27" style="fill:#333333;" width="2" height="2"/>
		<rect x="19" y="27" style="fill:#333333;" width="2" height="2"/>
		<rect x="23" y="27" style="fill:#333333;" width="2" height="2"/>
		<rect x="27" y="27" style="fill:#333333;" width="2" height="2"/>
		<rect x="31" y="27" style="fill:#333333;" width="2" height="2"/>
		<rect x="13" y="19" style="fill:#333333;" width="2" height="2"/>
		<rect x="17" y="19" style="fill:#333333;" width="14" height="2"/>
	</g>
</g>

	</svg>
