<svg xmlns="http://www.w3.org/2000/svg" xmlns:xlink="http://www.w3.org/1999/xlink" version="1.1" id="rot-089" x="0px" y="0px" viewBox="0 0 64 64" style="enable-background:new 0 0 64 64;" xml:space="preserve">
<g>
	<path style="fill:#F4C70E;" d="M48,25c-2.209,0-4,1.791-4,4v7h-8v3c0,2.209-1.791,4-4,4s-4-1.791-4-4v-3h-8v-7c0-2.209-1.791-4-4-4   s-4,1.791-4,4v22c0,2.209,1.791,4,4,4s4-1.791,4-4v-7h8v7c0,2.209,1.791,4,4,4s4-1.791,4-4v-7h8v7c0,2.209,1.791,4,4,4s4-1.791,4-4   V29C52,26.791,50.209,25,48,25z"/>
	<path style="fill:#F4C70E;" d="M24,10c0,4.418,3.582,8,8,8s8-3.582,8-8V6c0-2.209-1.791-4-4-4h-8c-2.209,0-4,1.791-4,4V10z"/>
	<path style="fill:#333333;" d="M58,17H37.645C39.688,15.349,41,12.826,41,10V6c0-2.757-2.243-5-5-5h-8c-2.757,0-5,2.243-5,5v4   c0,2.826,1.312,5.349,3.355,7H6c-2.757,0-5,2.243-5,5v36c0,2.757,2.243,5,5,5h52c2.757,0,5-2.243,5-5V22C63,19.243,60.757,17,58,17   z M35,43v8c0,1.654-1.346,3-3,3s-3-1.346-3-3v-8H19v8c0,1.654-1.346,3-3,3s-3-1.346-3-3V29c0-1.654,1.346-3,3-3s3,1.346,3,3v8h8v2   c0,2.757,2.243,5,5,5s5-2.243,5-5v-2h8v-8c0-1.654,1.346-3,3-3s3,1.346,3,3v22c0,1.654-1.346,3-3,3s-3-1.346-3-3v-8H35z M29,18.475   C29.94,18.809,30.947,19,32,19s2.06-0.191,3-0.525V39c0,1.654-1.346,3-3,3s-3-1.346-3-3V18.475z M25,10V9.974   C25.838,10.609,26.87,11,28,11h6V9h-6c-1.654,0-3-1.346-3-3s1.346-3,3-3h8c1.654,0,3,1.346,3,3s-1.346,3-3,3v2   c1.13,0,2.162-0.391,3-1.026V10c0,3.859-3.141,7-7,7S25,13.859,25,10z M61,58c0,1.654-1.346,3-3,3H6c-1.654,0-3-1.346-3-3V22   c0-1.654,1.346-3,3-3h21v16h-6v-6c0-2.757-2.243-5-5-5s-5,2.243-5,5v22c0,2.757,2.243,5,5,5s5-2.243,5-5v-6h6v6   c0,2.757,2.243,5,5,5s5-2.243,5-5v-6h6v6c0,2.757,2.243,5,5,5s5-2.243,5-5V29c0-2.757-2.243-5-5-5s-5,2.243-5,5v6h-6V19h21   c1.654,0,3,1.346,3,3V58z"/>
	<rect x="8" y="12" style="fill:#333333;" width="12" height="2"/>
	<rect x="16" y="8" style="fill:#333333;" width="4" height="2"/>
	<rect x="48" y="13" style="fill:#333333;" width="10" height="2"/>
	<rect x="45" y="9" style="fill:#333333;" width="7" height="2"/>
	<rect x="57" y="57" style="fill:#333333;" width="2" height="2"/>
	<rect x="53" y="57" style="fill:#333333;" width="2" height="2"/>
	<rect x="5" y="57" style="fill:#333333;" width="2" height="2"/>
	<rect x="12" y="8" style="fill:#333333;" width="2" height="2"/>
</g>

	</svg>
