<svg xmlns="http://www.w3.org/2000/svg" xmlns:xlink="http://www.w3.org/1999/xlink" version="1.1" id="rot-091" x="0px" y="0px" viewBox="0 0 64 64" style="enable-background:new 0 0 64 64;" xml:space="preserve">
<g>
	<g>
		<circle style="fill:#F4C70E;" cx="32" cy="18" r="9"/>
	</g>
	<g>
		<rect x="50" y="31" style="fill:#F4C70E;" width="6" height="10"/>
	</g>
	<g>
		<path style="fill:#333333;" d="M32,31c7.168,0,13-5.832,13-13S39.168,5,32,5s-13,5.832-13,13S24.832,31,32,31z M32,7    c6.065,0,11,4.935,11,11s-4.935,11-11,11s-11-4.935-11-11S25.935,7,32,7z"/>
		<path style="fill:#333333;" d="M45.618,29l1.587-3.174C48.379,23.478,49,20.849,49,18.223V18c0-9.374-7.626-17-17-17    S15,8.626,15,18v0.223c0,2.625,0.621,5.254,1.794,7.603L18.382,29H1v34h62V29H45.618z M17,18c0-8.271,6.729-15,15-15    s15,6.729,15,15v0.223c0,2.317-0.547,4.636-1.583,6.708L34,47.764C33.619,48.526,32.853,49,32,49s-1.619-0.474-2-1.236    L18.583,24.931C17.547,22.859,17,20.54,17,18.223V18z M3,31h16.382l8.829,17.658C28.933,50.103,30.385,51,32,51    s3.067-0.897,3.789-2.342L43,34.237V61H3V31z M61,61H45V31h16V61z"/>
		<polygon style="fill:#333333;" points="38.743,13.669 37.257,12.331 28.962,21.547 24.707,17.293 23.293,18.707 29.038,24.453       "/>
	</g>
</g>

	</svg>
