<svg xmlns="http://www.w3.org/2000/svg" xmlns:xlink="http://www.w3.org/1999/xlink" version="1.1" id="rot-090" x="0px" y="0px" viewBox="0 0 64 64" style="enable-background:new 0 0 64 64;" xml:space="preserve">
<g>
	<g>
		<circle style="fill:#F4C70E;" cx="52" cy="12" r="6"/>
	</g>
	<g>
		<rect x="15" y="57" style="fill:#333333;" width="12" height="2"/>
		<path style="fill:#333333;" d="M63,12c0-6.065-4.935-11-11-11c-5.71,0-10.415,4.375-10.947,10H41V6c0-2.757-2.243-5-5-5H6    C3.243,1,1,3.243,1,6v52c0,2.757,2.243,5,5,5h30c2.757,0,5-2.243,5-5v-7h22V12.063h-0.004C62.996,12.042,63,12.021,63,12z M43,32    v7h18v4H43v6h-4V32H17v17h-4V32H7v-5h6V13h4v14h31.526l1.093,1.7C50.143,29.515,51.033,30,52,30s1.857-0.485,2.382-1.3l1.093-1.7    H61v5H43z M61,34v3H45v-3H61z M37,49H19V34h18V49z M7,34h4v15H7V34z M7,25V13h4v12H7z M42.747,18.012L47.24,25H19V13h22.067    C41.219,14.78,41.774,16.499,42.747,18.012z M56.76,25L61,18.405V25H56.76z M52,3c4.962,0,9,4.037,9,9.062    c0,1.729-0.494,3.413-1.43,4.867L52.7,27.618c-0.308,0.479-1.092,0.479-1.399,0L44.43,16.93C43.494,15.476,43,13.792,43,12    C43,7.037,47.038,3,52,3z M6,3h30c1.654,0,3,1.346,3,3v1H3V6C3,4.346,4.346,3,6,3z M36,61H6c-1.654,0-3-1.346-3-3v-3h36v3    C39,59.654,37.654,61,36,61z M39,53H3V9h36v2H5v40h34V53z M45,49v-4h16v4H45z"/>
	</g>
</g>

	</svg>
