<svg xmlns="http://www.w3.org/2000/svg" xmlns:xlink="http://www.w3.org/1999/xlink" version="1.1" id="rot-092" x="0px" y="0px" viewBox="0 0 64 64" style="enable-background:new 0 0 64 64;" xml:space="preserve">
<g>
	<g>
		<rect x="35" y="17" style="fill:#F4C70E;" width="22" height="12"/>
	</g>
	<g>
		<path style="fill:#333333;" d="M63,1H9v14h2v15.363C5.276,31.723,1,36.866,1,43v0.366c0,2.575,0.755,5.069,2.184,7.212    l6.875,10.312C10.938,62.211,12.412,63,14,63s3.062-0.789,3.941-2.109L23.202,53H61V15h2V1z M16.277,59.781    C15.769,60.545,14.917,61,14,61s-1.769-0.455-2.277-1.219L4.848,49.469C3.639,47.655,3,45.545,3,43.366V43c0-6.065,4.935-11,11-11    s11,4.935,11,11v0.366c0,2.179-0.639,4.289-1.848,6.103L16.277,59.781z M59,51H24.535l0.281-0.422    C26.245,48.436,27,45.941,27,43.366V43c0-7.168-5.832-13-13-13c-0.338,0-0.669,0.025-1,0.051V15h46V51z M61,13H11V3h50V13z"/>
		<rect x="47" y="31" style="fill:#333333;" width="10" height="2"/>
		<rect x="55" y="35" style="fill:#333333;" width="2" height="2"/>
		<rect x="47" y="35" style="fill:#333333;" width="6" height="2"/>
	</g>
	<g>
		<circle style="fill:#F4C70E;" cx="14" cy="43" r="8"/>
	</g>
</g>

	</svg>
