<svg xmlns="http://www.w3.org/2000/svg" xmlns:xlink="http://www.w3.org/1999/xlink" version="1.1" id="rot-092" x="0px" y="0px" viewBox="0 0 64 64" style="enable-background:new 0 0 64 64;" xml:space="preserve">
<g>
	<g>
		<circle style="fill:#F4C70E;" cx="14" cy="12" r="6"/>
	</g>
	<g>
		<circle style="fill:#F4C70E;" cx="50" cy="41" r="6"/>
	</g>
	<path style="fill:#333333;" d="M55.159,53.38l4.094-6.369C60.396,45.233,61,43.176,61,41c0-4.683-2.947-8.681-7.08-10.265   C53.262,19.056,43.776,10,32,10c-2.419,0-4.777,0.412-7.042,1.181C24.537,5.498,19.789,1,14,1C7.935,1,3,5.935,3,12.063   c0,2.113,0.604,4.17,1.747,5.948l4.094,6.369C4.807,25.004,1,26.473,1,29c0,2.618,4.162,4.237,9.124,4.786   C11.04,45.187,20.471,54,32,54c3.977,0,7.837-1.081,11.24-3.111l1.601,2.491C40.807,54.004,37,55.473,37,58c0,3.283,6.54,5,13,5   s13-1.717,13-5C63,55.473,59.193,54.004,55.159,53.38z M59,41.063c0,1.729-0.494,3.412-1.43,4.867l-6.871,10.688   c-0.308,0.479-1.091,0.479-1.398,0L42.43,45.93C41.494,44.475,41,42.792,41,41c0-4.962,4.038-9,9-9S59,36.038,59,41.063z    M23.029,25.313c0.27-0.875,0.576-1.719,0.924-2.517c2.127,0.706,4.485,1.095,7.047,1.177V31h-4.96c0.605-0.585,0.96-1.25,0.96-2   C27,27.327,25.327,26.12,23.029,25.313z M20.993,21.527c0.356,0.189,0.721,0.366,1.093,0.533c-0.367,0.854-0.69,1.758-0.978,2.696   c-0.634-0.149-1.288-0.274-1.949-0.377L20.993,21.527z M41.937,33.552c-1.785,1.937-2.891,4.512-2.929,7.361   c-1.862-0.515-3.874-0.806-6.008-0.876V33h8.972C41.963,33.177,41.95,33.365,41.937,33.552z M33,31v-7.033   c2.791-0.091,5.121-0.539,7.042-1.172c1.045,2.394,1.796,5.142,1.933,8.205H33z M33,21.968v-8.841   c1.623,1.471,4.186,4.148,6.165,7.855C37.48,21.509,35.439,21.884,33,21.968z M35.021,12.247c4.029,0.601,7.645,2.377,10.496,4.991   c-0.732,0.786-2.13,2.014-4.427,3.032C39.214,16.649,36.803,13.941,35.021,12.247z M31,13.128v8.846   c-2.24-0.076-4.303-0.403-6.163-0.992C26.817,17.276,29.375,14.597,31,13.128z M22.056,33H31v7.033   c-2.789,0.09-5.117,0.538-7.036,1.17c-1.044-2.392-1.792-5.137-1.929-8.197C22.042,33.005,22.048,33.002,22.056,33z M31,42.032   v8.841c-1.623-1.472-4.183-4.15-6.16-7.856C26.524,42.49,28.563,42.116,31,42.032z M28.979,51.751   c-4.011-0.606-7.627-2.387-10.481-5.006c0.737-0.787,2.133-2.007,4.417-3.018C24.791,47.348,27.199,50.056,28.979,51.751z    M33,50.876v-8.839c2.218,0.078,4.283,0.415,6.159,1.008C37.189,46.733,34.626,49.407,33,50.876z M50,30   c-1.656,0-3.221,0.378-4.631,1.038V31h-1.394c-0.133-3.352-0.922-6.338-2.032-8.929c2.485-1.112,4.084-2.47,4.98-3.411   c2.762,3.1,4.556,7.08,4.952,11.511C51.264,30.066,50.64,30,50,30z M24.908,13.322c1.324-0.505,2.688-0.86,4.082-1.072   c-1.771,1.689-4.163,4.386-6.043,8.005c-0.295-0.132-0.587-0.267-0.87-0.414l1.177-1.83C24.161,16.599,24.713,15.006,24.908,13.322   z M5,12c0-4.962,4.038-9,9-9s9,4.038,9,9.063c0,1.729-0.494,3.412-1.43,4.867l-6.871,10.688c-0.308,0.479-1.091,0.479-1.398,0   L6.43,16.93C5.494,15.475,5,13.792,5,12z M3,29c0-0.693,2.079-2.17,7.035-2.764l1.584,2.463C12.142,29.514,13.032,30,14,30   s1.858-0.486,2.382-1.301l1.584-2.463C22.921,26.83,25,28.307,25,29c0,1.018-3.883,3-11,3S3,30.018,3,29z M14,34   c2.083,0,4.171-0.181,6.049-0.533c0.185,3.163,0.957,5.989,2.015,8.459c-2.476,1.107-4.072,2.457-4.971,3.398   c-2.739-3.072-4.528-7.007-4.949-11.376C12.76,33.979,13.379,34,14,34z M34.983,51.775c1.45-1.384,3.328-3.456,5.004-6.159   c0.219,0.481,0.472,0.947,0.76,1.396l1.412,2.196C39.941,50.521,37.513,51.394,34.983,51.775z M50,61c-7.117,0-11-1.982-11-3   c0-0.693,2.079-2.17,7.035-2.764l1.584,2.463C48.142,58.514,49.032,59,50,59s1.858-0.486,2.382-1.301l1.584-2.463   C58.921,55.83,61,57.307,61,58C61,59.018,57.117,61,50,61z"/>
</g>

	</svg>
