<svg xmlns="http://www.w3.org/2000/svg" xmlns:xlink="http://www.w3.org/1999/xlink" version="1.1" id="rot-093" x="0px" y="0px" viewBox="0 0 64 64" style="enable-background:new 0 0 64 64;" xml:space="preserve">
<g>
	<g>
		<circle style="fill:#F4C70E;" cx="38" cy="12" r="5"/>
	</g>
	<g>
		<circle style="fill:#F4C70E;" cx="27" cy="24" r="5"/>
	</g>
	<g>
		<circle style="fill:#F4C70E;" cx="10" cy="30" r="5"/>
	</g>
	<g>
		<circle style="fill:#F4C70E;" cx="17" cy="16" r="5"/>
	</g>
	<g>
		<rect x="54" y="45" style="fill:#F4C70E;" width="4" height="6"/>
	</g>
	<g>
		<path style="fill:#333333;" d="M41,12c0-1.654-1.346-3-3-3s-3,1.346-3,3c0,0.489,0.129,0.944,0.337,1.353l-7.12,7.911    C27.845,21.097,27.434,21,27,21c-0.744,0-1.417,0.282-1.942,0.733l-5.304-4.547C19.911,16.822,20,16.422,20,16    c0-1.654-1.346-3-3-3s-3,1.346-3,3c0,0.65,0.213,1.248,0.565,1.74l-4.225,9.295C10.227,27.021,10.117,27,10,27    c-1.654,0-3,1.346-3,3s1.346,3,3,3s3-1.346,3-3c0-0.815-0.329-1.554-0.859-2.095l4.098-9.015C16.484,18.955,16.736,19,17,19    c0.502,0,0.968-0.135,1.384-0.354l5.666,4.857C24.023,23.665,24,23.83,24,24c0,1.654,1.346,3,3,3s3-1.346,3-3    c0-0.489-0.129-0.945-0.337-1.353l7.12-7.911C37.156,14.903,37.566,15,38,15C39.654,15,41,13.654,41,12z M10,31    c-0.551,0-1-0.448-1-1s0.449-1,1-1s1,0.448,1,1S10.551,31,10,31z M16,16c0-0.552,0.449-1,1-1s1,0.448,1,1s-0.449,1-1,1    S16,16.552,16,16z M27,25c-0.551,0-1-0.448-1-1s0.449-1,1-1s1,0.448,1,1S27.551,25,27,25z M38,13c-0.551,0-1-0.448-1-1    s0.449-1,1-1s1,0.448,1,1S38.551,13,38,13z"/>
		<rect x="39" y="31" style="fill:#333333;" width="2" height="2"/>
		<rect x="29" y="31" style="fill:#333333;" width="8" height="2"/>
		<path style="fill:#333333;" d="M30.277,43l-0.8-2H47v-6h-2V7h2V1H1v6h2v28H1v6h17.535l-8.466,21.636l1.862,0.729L20.682,41H23v22    h2V41h2.323L29,45.193V63h34V43H30.277z M3,3h42v2H3V3z M5,7h38v28H5V7z M3,37h42v2H3V37z M31,45h18v16H31V45z M61,61H51V45h10V61    z"/>
		<rect x="45" y="57" style="fill:#333333;" width="2" height="2"/>
		<rect x="41" y="57" style="fill:#333333;" width="2" height="2"/>
		<rect x="45" y="53" style="fill:#333333;" width="2" height="2"/>
	</g>
</g>

	</svg>
