<svg xmlns="http://www.w3.org/2000/svg" xmlns:xlink="http://www.w3.org/1999/xlink" version="1.1" id="rot-094" x="0px" y="0px" viewBox="0 0 64 64" style="enable-background:new 0 0 64 64;" xml:space="preserve">
<g>
	<g>
		<path style="fill:#F4C70E;" d="M46,2H18c-1.105,0-2,0.895-2,2v3h32V4C48,2.895,47.105,2,46,2z"/>
	</g>
	<g>
		<polygon style="fill:#F4C70E;" points="9,56 16,32 48,32 55,56   "/>
	</g>
	<g>
		<path style="fill:#333333;" d="M62.787,56.124l-7.989-27.518C54.182,26.482,52.207,25,49.996,25H43v-6h3c1.654,0,3-1.346,3-3V4    c0-1.654-1.346-3-3-3H18c-1.654,0-3,1.346-3,3v12c0,1.654,1.346,3,3,3h3v6h-6.996c-2.211,0-4.186,1.482-4.802,3.605L1.213,56.124    C1.072,56.612,1,57.116,1,57.623C1,60.588,3.412,63,6.377,63h51.245C60.588,63,63,60.588,63,57.623    C63,57.115,62.928,56.61,62.787,56.124z M18,17c-0.551,0-1-0.448-1-1v-5h26V9H17V4c0-0.552,0.449-1,1-1h1v4h2V3h2v4h2V3h2v4h2V3h2    v4h2V3h2v4h2V3h2v4h2V3h2v4h2V3h1c0.551,0,1,0.448,1,1v5h-2v2h2v5c0,0.552-0.449,1-1,1h-3H21H18z M23,19h18v6H23V19z M57.623,61    H6.377C4.515,61,3,59.485,3,57.623c0-0.318,0.045-0.636,0.134-0.941l7.989-27.518v-0.001C11.493,27.89,12.677,27,14.004,27H21h22    h6.996c1.327,0,2.511,0.89,2.881,2.163l7.989,27.519C60.955,56.987,61,57.305,61,57.623C61,59.485,59.485,61,57.623,61z"/>
		<rect x="18" y="38" style="fill:#333333;" width="28" height="2"/>
		<rect x="18" y="42" style="fill:#333333;" width="28" height="2"/>
		<rect x="44" y="46" style="fill:#333333;" width="2" height="2"/>
		<rect x="18" y="46" style="fill:#333333;" width="24" height="2"/>
	</g>
</g>

	</svg>
