<svg xmlns="http://www.w3.org/2000/svg" xmlns:xlink="http://www.w3.org/1999/xlink" version="1.1" id="rot-095" x="0px" y="0px" viewBox="0 0 64 64" style="enable-background:new 0 0 64 64;" xml:space="preserve">
<g>
	<g>
		<polygon style="fill:#F4C70E;" points="24.051,39.949 29.82,43.18 43.786,29.214 40.732,23.268   "/>
	</g>
	<g>
		<path style="fill:#333333;" d="M60.071,45.929c-2.132-2.133-5.083-3.162-8.05-2.868L38.057,15.868    C42.1,9.657,43.175,4.745,40.704,2.274c-3.867-3.866-13.634,1.09-25.487,12.943C3.365,27.069-1.594,36.835,2.274,40.704    c0.888,0.888,2.09,1.318,3.555,1.318c2.882,0,6.781-1.675,11.289-4.81L43.095,51.76c-0.381,3.054,0.64,6.117,2.833,8.311    c1.95,1.949,4.51,2.924,7.071,2.924c2.561,0,5.122-0.975,7.071-2.924C61.96,58.183,63,55.671,63,53S61.96,47.817,60.071,45.929z     M3.688,39.29c-2.414-2.414,1.257-10.973,12.943-22.659C26.069,7.194,33.465,2.985,37.234,2.985c0.898,0,1.591,0.239,2.056,0.704    c2.446,2.446-1.192,11.285-12.754,22.847C14.974,38.099,6.135,41.736,3.688,39.29z M27.95,27.95    c3.598-3.598,6.557-7.042,8.822-10.204l2.738,5.33L27.043,35.543l1.414,1.414L40.47,24.945l11.796,22.968    c0.567,1.225,0.307,2.688-0.646,3.641c-0.984,0.983-2.482,1.226-3.684,0.627L25.692,39.722l1.647-1.647l-1.414-1.414l-2.046,2.046    L18.9,35.919C21.741,33.779,24.784,31.115,27.95,27.95z M58.657,58.657c-3.119,3.118-8.194,3.12-11.314,0    c-1.556-1.557-2.371-3.661-2.327-5.822l1.983,1.111c0.745,0.372,1.545,0.553,2.338,0.553c1.355,0,2.691-0.527,3.696-1.532    c1.544-1.544,1.965-3.913,1.029-5.932l-1.038-2.021c2.095,0.006,4.121,0.817,5.632,2.329C60.168,48.854,61,50.863,61,53    S60.168,57.146,58.657,58.657z"/>
		<path style="fill:#333333;" d="M37.171,5.829c-0.838-0.837-2.507-1.112-8.53,3.229c-3.492,2.517-7.547,5.966-10.582,9.002    c-0.157,0.157-15.416,15.928-12.23,19.113c0.3,0.3,0.717,0.437,1.227,0.437c4.505,0,16.229-10.632,18.075-12.479    C27.185,23.075,40.125,8.782,37.171,5.829z M23.716,23.716C17.821,29.61,9.439,35.477,7.336,35.673    c0.233-2.041,5.943-10.005,12.137-16.2c6.194-6.194,14.159-11.904,16.199-12.137C35.477,9.439,29.611,17.821,23.716,23.716z"/>
		<path style="fill:#333333;" d="M53,57v2c0.81,0,1.596-0.158,2.336-0.472l-0.779-1.842C54.064,56.895,53.541,57,53,57z"/>
		<path style="fill:#333333;" d="M56.782,48.342l-1.262,1.553C56.461,50.658,57,51.791,57,53c0,1.095-0.434,2.116-1.222,2.877    l1.39,1.439C58.349,56.175,59,54.643,59,53C59,51.186,58.191,49.488,56.782,48.342z"/>
	</g>
</g>

	</svg>
