<svg xmlns="http://www.w3.org/2000/svg" xmlns:xlink="http://www.w3.org/1999/xlink" version="1.1" id="rot-100" x="0px" y="0px" viewBox="0 0 64 64" style="enable-background:new 0 0 64 64;" xml:space="preserve">
<g>
	<path style="fill:#F4C70E;" d="M29,8C14.088,8,2,20.088,2,35s12.088,27,27,27s27-12.088,27-27S43.912,8,29,8z M29,58   C16.297,58,6,47.703,6,35c0-12.703,10.297-23,23-23s23,10.297,23,23C52,47.703,41.703,58,29,58z"/>
	<circle style="fill:#F4C70E;" cx="29" cy="35" r="8"/>
	<path style="fill:#333333;" d="M35,35c0-3.309-2.691-6-6-6s-6,2.691-6,6s2.691,6,6,6S35,38.309,35,35z M25,35c0-2.206,1.794-4,4-4   s4,1.794,4,4s-1.794,4-4,4S25,37.206,25,35z"/>
	<rect x="55" y="7" style="fill:#333333;" width="2" height="4"/>
	<path style="fill:#333333;" d="M58,8h2c0-2.206-1.794-4-4-4s-4,1.794-4,4h2c0-1.103,0.897-2,2-2S58,6.897,58,8z"/>
	<path style="fill:#333333;" d="M58.012,20C57.55,19.988,57,19.806,57,19v-1h2v-3.685c2.361-1.126,4-3.53,4-6.315   c0-3.859-3.141-7-7-7s-7,3.141-7,7c0,2.785,1.639,5.188,4,6.315V18h2v1c0,2.201,1.794,3,3,3c2.823,0,2.994,2.504,3,3v32   c0,0.163-0.068,4-6,4c-3.454,0-5.765-2.062-7.907-4.655C53.147,51.205,57,43.546,57,35C57,19.561,44.439,7,29,7S1,19.561,1,35   s12.561,28,28,28c6.176,0,11.888-2.014,16.523-5.414C47.929,60.506,50.69,63,55,63c7.908,0,8-5.94,8-6V25   C63,23.271,61.955,20,58.012,20z M51,8c0-2.757,2.243-5,5-5s5,2.243,5,5s-2.243,5-5,5S51,10.757,51,8z M56,15   c0.34,0,0.672-0.033,1-0.08V16h-2v-1.08C55.328,14.967,55.66,15,56,15z M39.863,58.613l-1.138-2.747l-1.848,0.766l1.14,2.753   c-2.514,0.932-5.21,1.483-8.018,1.589V58h-2v2.975c-2.808-0.107-5.505-0.657-8.018-1.589l1.14-2.753l-1.848-0.766l-1.138,2.747   c-2.502-1.156-4.791-2.695-6.789-4.547l2.096-2.096l-1.414-1.414l-2.096,2.096c-1.851-1.998-3.391-4.287-4.547-6.789l2.747-1.138   l-0.766-1.848l-2.753,1.14C3.682,41.505,3.132,38.808,3.025,36H6v-2H3.025c0.107-2.808,0.657-5.505,1.589-8.018l2.753,1.14   l0.766-1.848l-2.747-1.138c1.156-2.502,2.695-4.791,4.547-6.789l2.096,2.096l1.414-1.414l-2.096-2.096   c1.998-1.851,4.287-3.391,6.789-4.547l1.138,2.747l1.848-0.766l-1.14-2.753c2.514-0.932,5.21-1.483,8.018-1.589V12h2V9.025   c2.808,0.107,5.505,0.657,8.018,1.589l-1.14,2.753l1.848,0.766l1.138-2.747c2.502,1.156,4.791,2.695,6.789,4.547l-2.096,2.096   l1.414,1.414l2.096-2.096c1.851,1.998,3.391,4.287,4.547,6.789l-2.747,1.138l0.766,1.848l2.753-1.14   c0.932,2.514,1.483,5.21,1.589,8.018H52v2h2.975c-0.107,2.808-0.657,5.505-1.589,8.018l-2.753-1.14l-0.766,1.848l2.747,1.138   c-1.156,2.502-2.695,4.791-4.547,6.789l-2.096-2.096l-1.414,1.414l2.096,2.096c-0.263,0.243-0.531,0.48-0.804,0.712   c-0.158-0.205-0.316-0.411-0.475-0.618c-1.031-1.347-2.114-2.754-3.348-4.016C46.287,46.474,49,41.052,49,35   c0-11.028-8.972-20-20-20S9,23.972,9,35s8.972,20,20,20c4.259,0,8.203-1.349,11.45-3.626c1.179,1.186,2.246,2.579,3.336,4.002   c0.164,0.214,0.328,0.428,0.493,0.642C42.903,57.022,41.425,57.892,39.863,58.613z M25.966,49.691l-0.976-6.833l-1.232-0.828   l-6.911,1.728c-0.889-1.23-1.599-2.595-2.085-4.065l5.792-3.861v-1.664l-5.792-3.861c0.486-1.47,1.195-2.834,2.085-4.065   l6.911,1.728l1.232-0.828l0.976-6.833C26.946,20.107,27.961,20,29,20s2.054,0.107,3.034,0.309l0.976,6.833l1.232,0.828l6.911-1.728   c0.889,1.23,1.599,2.595,2.085,4.065l-5.792,3.861v1.664l5.792,3.861c-0.486,1.47-1.196,2.834-2.085,4.065l-6.911-1.728   l-1.232,0.828l-0.452,3.165c-1.604,0.147-3.986,1.111-4.464,3.93C27.371,49.911,26.658,49.834,25.966,49.691z M23.857,49.073   c-2.127-0.78-4.033-2.018-5.586-3.61l4.895-1.223L23.857,49.073z M14,35c0-0.9,0.094-1.777,0.246-2.634L18.197,35l-3.951,2.634   C14.094,36.777,14,35.9,14,35z M18.272,24.537c1.553-1.592,3.458-2.83,5.586-3.61l-0.69,4.833L18.272,24.537z M34.143,20.927   c2.127,0.78,4.033,2.018,5.586,3.61l-4.895,1.223L34.143,20.927z M44,35c0,0.9-0.094,1.777-0.246,2.634L39.803,35l3.951-2.634   C43.906,33.223,44,34.1,44,35z M32.263,48.088l-0.229,1.603c-0.615,0.127-1.247,0.202-1.886,0.251   C30.518,48.697,31.528,48.247,32.263,48.088z M34.283,48.088c0.507,0.064,0.993,0.16,1.454,0.295   c-0.515,0.26-1.047,0.489-1.594,0.689L34.283,48.088z M34.566,46.111l0.267-1.872l4.895,1.223   c-0.572,0.587-1.197,1.119-1.858,1.606C36.874,46.599,35.777,46.269,34.566,46.111z M46,35c0-9.374-7.626-17-17-17s-17,7.626-17,17   s7.626,17,17,17c3.307,0,6.386-0.964,9-2.604c0.31,0.19,0.609,0.4,0.901,0.62C36.058,51.897,32.657,53,29,53   c-9.925,0-18-8.075-18-18s8.075-18,18-18s18,8.075,18,18c0,5.53-2.511,10.481-6.449,13.786c-0.264-0.216-0.534-0.424-0.812-0.622   C43.557,45.044,46,40.303,46,35z"/>
	<path style="fill:#333333;" d="M29,3V1C17.952,1,7.554,6.392,1.183,15.424l1.635,1.152C8.813,8.075,18.602,3,29,3z"/>
	<rect x="28" y="21" style="fill:#333333;" width="2" height="2"/>
	<rect x="28" y="25" style="fill:#333333;" width="2" height="2"/>
	<rect x="17" y="28" style="fill:#333333;" width="2" height="2"/>
</g>

	</svg>
