<svg xmlns="http://www.w3.org/2000/svg" xmlns:xlink="http://www.w3.org/1999/xlink" version="1.1" id="rot-101" x="0px" y="0px" viewBox="0 0 64 64" style="enable-background:new 0 0 64 64;" xml:space="preserve">
<g>
	<g>
		<path style="fill:#F4C70E;" d="M16,17l-5.319-6.206C10.241,10.282,10,9.629,10,8.954V8.828C10,7.266,11.266,6,12.828,6l0,0    c0.75,0,1.47,0.298,2,0.828L16,8l1.172-1.172c0.53-0.53,1.25-0.828,2-0.828l0,0C20.734,6,22,7.266,22,8.828v0.125    c0,0.675-0.242,1.328-0.681,1.841L16,17z"/>
	</g>
	<g>
		<g>
			<path style="fill:#F4C70E;" d="M53,24H33c-2.757,0-5-2.243-5-5v-8c0-2.757,2.243-5,5-5h20c2.757,0,5,2.243,5,5v8     C58,21.757,55.757,24,53,24z"/>
		</g>
	</g>
	<g>
		<path style="fill:#333333;" d="M40,28h-8c-1.103,0-2,0.897-2,2v8c0,1.103,0.897,2,2,2h8c1.103,0,2-0.897,2-2v-8    C42,28.897,41.103,28,40,28z M32,38v-8h8l0.002,8H32z"/>
		<path style="fill:#333333;" d="M54,28h-8c-1.103,0-2,0.897-2,2v8c0,1.103,0.897,2,2,2h8c1.103,0,2-0.897,2-2v-8    C56,28.897,55.103,28,54,28z M46,38v-8h8l0.002,8H46z"/>
		<path style="fill:#333333;" d="M40,42h-8c-1.103,0-2,0.897-2,2v8c0,1.103,0.897,2,2,2h8c1.103,0,2-0.897,2-2v-8    C42,42.897,41.103,42,40,42z M32,52v-8h8l0.002,8H32z"/>
		<path style="fill:#333333;" d="M54,42h-8c-1.103,0-2,0.897-2,2v8c0,1.103,0.897,2,2,2h8c1.103,0,2-0.897,2-2v-8    C56,42.897,55.103,42,54,42z M46,52v-8h8l0.002,8H46z"/>
		<path style="fill:#333333;" d="M54,1H32c-1.407,0-2.785,0.353-4.043,0.99C27.127,1.376,26.11,1,25,1H6C3.243,1,1,3.243,1,6v12    c0,2.757,2.243,5,5,5h5v33.351l5,6.25l5-6.25v-7.886L18.803,47L21,45.535v-9.07L18.803,35L21,33.535V23h2v31c0,4.963,4.037,9,9,9    h22c4.963,0,9-4.037,9-9V10C63,5.037,58.963,1,54,1z M19,23v9.465L15.197,35L19,37.535v6.93L15.197,47L19,49.535v6.114l-2,2.5V54    h-2v4.149l-2-2.5V23c0-1.103-0.897-2-2-2H6c-1.654,0-3-1.346-3-3V6c0-1.654,1.346-3,3-3h19c1.654,0,3,1.346,3,3v12    c0,1.654-1.346,3-3,3h-4C19.897,21,19,21.897,19,23z M61,54c0,3.859-3.141,7-7,7H32c-3.859,0-7-3.141-7-7V23c2.757,0,5-2.243,5-5    V6c0-0.897-0.256-1.727-0.671-2.456C30.176,3.191,31.081,3,32,3h22c3.859,0,7,3.141,7,7V54z"/>
		<rect x="33" y="18" style="fill:#333333;" width="2" height="2"/>
		<rect x="37" y="18" style="fill:#333333;" width="16" height="2"/>
		<rect x="15" y="23" style="fill:#333333;" width="2" height="9"/>
		<rect x="15" y="38" style="fill:#333333;" width="2" height="6"/>
		<rect x="15" y="50" style="fill:#333333;" width="2" height="2"/>
	</g>
</g>

	</svg>
