<svg xmlns="http://www.w3.org/2000/svg" xmlns:xlink="http://www.w3.org/1999/xlink" version="1.1" id="rot-102" x="0px" y="0px" viewBox="0 0 64 64" style="enable-background:new 0 0 64 64;" xml:space="preserve">
<g>
	<g>
		<rect x="25" y="14" style="fill:#F4C70E;" width="7" height="15"/>
	</g>
	<g>
		<rect x="7" y="31" style="fill:#F4C70E;" width="6" height="9"/>
	</g>
	<g>
		<path style="fill:#333333;" d="M57.537,13h-7.331C49.541,13,49,12.459,49,11.794V5.5C49,3.019,46.981,1,44.5,1S40,3.019,40,5.5    v5.152c0,2.28-1.769,4.134-4.004,4.313C35.977,13.327,34.642,12,33,12h-9c-1.654,0-3,1.346-3,3v14H1v34h50V35h6.537    C60.55,35,63,32.55,63,29.537V18.463C63,15.45,60.55,13,57.537,13z M23,15c0-0.552,0.448-1,1-1h9c0.552,0,1,0.448,1,1v17    c0,0.552-0.448,1-1,1h-9c-0.552,0-1-0.448-1-1V15z M3,31h14v30H3V31z M49,61H19V31h2v1c0,1.654,1.346,3,3,3h9c1.654,0,3-1.346,3-3    h1.197c0.794,0,1.53,0.395,1.971,1.055C39.98,34.272,41.339,35,42.803,35H49V61z M61,29.537C61,31.446,59.446,33,57.537,33H42.803    c-0.794,0-1.53-0.395-1.971-1.055C40.02,30.728,38.661,30,37.197,30H36V16.99c3.339-0.181,6-2.954,6-6.338V5.5    C42,4.121,43.121,3,44.5,3S47,4.121,47,5.5v6.294C47,13.562,48.438,15,50.206,15h7.331C59.446,15,61,16.554,61,18.463V29.537z"/>
		<rect x="25" y="29" style="fill:#333333;" width="7" height="2"/>
		<rect x="21" y="57" style="fill:#333333;" width="2" height="2"/>
		<rect x="25" y="57" style="fill:#333333;" width="2" height="2"/>
		<rect x="29" y="57" style="fill:#333333;" width="2" height="2"/>
		<rect x="21" y="53" style="fill:#333333;" width="2" height="2"/>
		<rect x="25" y="53" style="fill:#333333;" width="2" height="2"/>
		<rect x="21" y="49" style="fill:#333333;" width="2" height="2"/>
	</g>
</g>

	</svg>
