<svg xmlns="http://www.w3.org/2000/svg" xmlns:xlink="http://www.w3.org/1999/xlink" version="1.1" id="rot-103" x="0px" y="0px" viewBox="0 0 64 64" style="enable-background:new 0 0 64 64;" xml:space="preserve">
<g>
	<g>
		<circle style="fill:#F4C70E;" cx="32" cy="18" r="9"/>
	</g>
	<g>
		<path style="fill:#333333;" d="M58.5,27l-3,4h-2.96l-6,7H44v-3.566l-1.96-1.176l3.893-5.562C47.939,24.83,49,21.465,49,17.967    C49,8.611,41.389,1,31.967,1C22.611,1,15,8.611,15,17.967c0,3.348,0.981,6.568,2.823,9.351l-8.565-2.284L5.465,25L1,31.697v15.947    l11,5v2.622L16.42,63h15.857l5-3H40v-3h0.697l9,6H54v-5.236l-1.92-3.841L52.721,52h3.693L60,48.414V38.333l3-4V27H58.5z M32.033,3    C40.286,3,47,9.714,47,17.967c0,3.086-0.936,6.054-2.706,8.583l-9.967,14.238C33.796,41.547,32.926,42,32,42    s-1.796-0.453-2.328-1.212L19.706,26.55C17.936,24.021,17,21.053,17,17.967C17,9.714,23.714,3,32.033,3z M6.535,27h2.334    l10.709,2.856l8.455,12.079C28.939,43.228,30.422,44,32,44s3.061-0.772,3.966-2.065l4.924-7.034L42,35.566V39v1v8H27.454l-7-8H3    v-7.697L6.535,27z M14,54.734v-3.378l-11-5V42h16.546L26,49.376V61h-8.42L14,54.734z M61,33.667l-3,4v9.919L55.586,50h-4.307    l-1.359,4.077L52,58.236V61h-1.697l-9-6H38v3h-1.277l-5,3H28V50h16V40h3.46l6-7h3.04l3-4H61V33.667z"/>
		<path style="fill:#333333;" d="M32,31c7.168,0,13-5.832,13-13S39.168,5,32,5s-13,5.832-13,13S24.832,31,32,31z M32,7    c6.065,0,11,4.935,11,11s-4.935,11-11,11s-11-4.935-11-11S25.935,7,32,7z"/>
	</g>
</g>

	</svg>
