<svg xmlns="http://www.w3.org/2000/svg" xmlns:xlink="http://www.w3.org/1999/xlink" version="1.1" id="rot-104" x="0px" y="0px" viewBox="0 0 64 64" style="enable-background:new 0 0 64 64;" xml:space="preserve">
<g>
	<path style="fill:#F4C70E;" d="M29,8C14.088,8,2,20.088,2,35s12.088,27,27,27s27-12.088,27-27S43.912,8,29,8z M29,58   C16.297,58,6,47.703,6,35c0-12.703,10.297-23,23-23c12.703,0,23,10.297,23,23C52,47.703,41.703,58,29,58z"/>
	<circle style="fill:#F4C70E;" cx="29" cy="35" r="7"/>
	<path style="fill:#333333;" d="M34,35c0-2.757-2.243-5-5-5s-5,2.243-5,5s2.243,5,5,5S34,37.757,34,35z M26,35c0-1.654,1.346-3,3-3   s3,1.346,3,3s-1.346,3-3,3S26,36.654,26,35z"/>
	<rect x="28" y="15" style="fill:#333333;" width="2" height="2"/>
	<rect x="28" y="19" style="fill:#333333;" width="2" height="2"/>
	<rect x="28" y="45" style="fill:#333333;" width="2" height="2"/>
	<path style="fill:#333333;" d="M29,11C15.767,11,5,21.767,5,35s10.767,24,24,24s24-10.767,24-24S42.233,11,29,11z M51,35   c0,2.176-0.322,4.277-0.914,6.264L39.908,35l10.178-6.264C50.678,30.723,51,32.824,51,35z M46.349,21.496l-12.437,4.145   l-0.817-12.253C38.449,14.401,43.121,17.358,46.349,21.496z M24.905,13.388l-0.817,12.253l-12.437-4.145   C14.879,17.358,19.551,14.401,24.905,13.388z M7,35c0-2.176,0.322-4.277,0.914-6.264L18.092,35L7.914,41.264   C7.322,39.277,7,37.176,7,35z M11.651,48.504l12.437-4.145l0.817,12.253C19.551,55.599,14.879,52.642,11.651,48.504z M26.929,56.9   l-0.931-13.966l-1.314-0.882l-14.238,4.746c-0.724-1.135-1.347-2.339-1.856-3.602l11.935-7.344v-1.703L8.59,26.804   c0.509-1.263,1.132-2.467,1.856-3.602l14.238,4.746l1.314-0.882L26.929,13.1C27.611,13.036,28.301,13,29,13s1.389,0.036,2.071,0.1   l0.931,13.966l1.314,0.882l14.238-4.746c0.724,1.135,1.347,2.339,1.856,3.602l-11.935,7.344v1.703l11.935,7.344   c-0.509,1.263-1.132,2.467-1.856,3.602l-14.238-4.746l-1.314,0.882L31.071,56.9C30.389,56.964,29.699,57,29,57   S27.611,56.964,26.929,56.9z M33.095,56.612l0.817-12.253l12.437,4.145C43.121,52.642,38.449,55.599,33.095,56.612z"/>
	<path style="fill:#333333;" d="M29,7C13.561,7,1,19.561,1,35s12.561,28,28,28s28-12.561,28-28S44.439,7,29,7z M29,61   C14.663,61,3,49.337,3,35S14.663,9,29,9s26,11.663,26,26S43.337,61,29,61z"/>
	<rect x="59" y="57" style="fill:#333333;" width="4" height="2"/>
	<rect x="53" y="57" style="fill:#333333;" width="4" height="2"/>
	<rect x="57" y="59" style="fill:#333333;" width="2" height="4"/>
	<rect x="57" y="53" style="fill:#333333;" width="2" height="4"/>
	<rect x="54" y="8" style="fill:#333333;" width="6" height="2"/>
	<rect x="46" y="8" style="fill:#333333;" width="6" height="2"/>
	<rect x="52" y="10" style="fill:#333333;" width="2" height="6"/>
	<rect x="52" y="2" style="fill:#333333;" width="2" height="6"/>
	<rect x="7" y="5" style="fill:#333333;" width="4" height="2"/>
	<rect x="1" y="5" style="fill:#333333;" width="4" height="2"/>
	<rect x="5" y="7" style="fill:#333333;" width="2" height="4"/>
	<rect x="5" y="1" style="fill:#333333;" width="2" height="4"/>
</g>

	</svg>
