<svg xmlns="http://www.w3.org/2000/svg" xmlns:xlink="http://www.w3.org/1999/xlink" version="1.1" id="rot-105" x="0px" y="0px" viewBox="0 0 64 64" style="enable-background:new 0 0 64 64;" xml:space="preserve">
<g>
	<g>
		<circle style="fill:#F4C70E;" cx="34" cy="34" r="9"/>
	</g>
	<g>
		<path style="fill:#333333;" d="M34,21c-7.168,0-13,5.832-13,13s5.832,13,13,13s13-5.832,13-13S41.168,21,34,21z M34,45    c-6.065,0-11-4.935-11-11s4.935-11,11-11s11,4.935,11,11S40.065,45,34,45z"/>
		<path style="fill:#333333;" d="M61.464,54.05l-8.55-8.55l1.793-1.793l-1.414-1.414L51.5,44.086l-1.623-1.623    C51.229,39.938,52,37.058,52,34c0-5.781-2.751-10.921-7-14.216V1H1v44h18.784c3.296,4.249,8.435,7,14.216,7    c3.058,0,5.938-0.771,8.463-2.123l1.623,1.623l-1.793,1.793l1.414,1.414l1.793-1.793l8.55,8.55c0.99,0.99,2.307,1.536,3.707,1.536    C60.648,63,63,60.648,63,57.757C63,56.357,62.455,55.041,61.464,54.05z M43,18.435c-1.248-0.724-2.586-1.304-4-1.714V3h4V18.435z     M16.271,37H9v-4h7.051C16.032,33.333,16,33.662,16,34C16,35.024,16.106,36.022,16.271,37z M9,9h28v4H9V9z M37,7H9V3h28V7z     M16.271,31H9v-4h8.417C16.881,28.264,16.506,29.609,16.271,31z M18.435,25H9v-4h12.584C20.354,22.175,19.295,23.52,18.435,25z     M9,19v-4h28v1.271C36.022,16.106,35.024,16,34,16c-3.698,0-7.138,1.124-10,3.044V19H9z M3,3h4v40H3V3z M9,43v-4h7.721    c0.41,1.414,0.99,2.752,1.714,4H9z M18,34c0-8.822,7.178-16,16-16s16,7.178,16,16s-7.178,16-16,16S18,42.822,18,34z     M44.216,48.802c1.791-1.24,3.346-2.795,4.586-4.586l1.284,1.284L45.5,50.086L44.216,48.802z M57.757,61    c-0.866,0-1.68-0.337-2.293-0.95l-8.55-8.55l4.586-4.586l8.55,8.55c0.612,0.613,0.95,1.427,0.95,2.293    C61,59.545,59.545,61,57.757,61z"/>
		<rect x="33" y="29" style="fill:#333333;" width="2" height="4"/>
		<rect x="33" y="35" style="fill:#333333;" width="2" height="4"/>
		<rect x="35" y="33" style="fill:#333333;" width="4" height="2"/>
		<rect x="29" y="33" style="fill:#333333;" width="4" height="2"/>
	</g>
</g>

	</svg>
