<svg xmlns="http://www.w3.org/2000/svg" xmlns:xlink="http://www.w3.org/1999/xlink" version="1.1" id="rot-106" x="0px" y="0px" viewBox="0 0 64 64" style="enable-background:new 0 0 64 64;" xml:space="preserve">
<g>
	<path style="fill:#F4C70E;" d="M2,34h6c1.269,0,2,0.731,2,2v2c0,1.268-0.731,2-2,2H2V34z"/>
	<circle style="fill:#F4C70E;" cx="23" cy="51" r="8"/>
	<path style="fill:#333333;" d="M52,7H41c-2.617,0-4.766,1.295-5.934,3.641L29.544,25H52V7z M50,23H32.455l4.439-11.553   C37.684,9.869,39.142,9,41,9h9V23z"/>
	<rect x="46" y="27" style="fill:#333333;" width="6" height="2"/>
	<rect x="55" y="27" style="fill:#333333;" width="2" height="2"/>
	<rect x="46" y="11" style="fill:#333333;" width="2" height="2"/>
	<rect x="42" y="11" style="fill:#333333;" width="2" height="2"/>
	<path style="fill:#333333;" d="M41,1c-5.259,0-9.266,2.887-11.939,8.658l-3.973,10.933c-0.284,0.634-0.818,1.189-1.472,1.611   L8.707,7.293C8.613,7.199,6.364,5,2,5v2c2.737,0,4.38,1.001,5,1.468v16.35C3.447,27.105,1,31.304,1,36v9c0,3.394,2.453,7,7,7h3.051   c0.312,3.755,2.353,7.023,5.33,9H2v2h43v-2H29.619c2.977-1.977,5.018-5.245,5.33-9H62v-2H34.949C34.438,43.85,29.28,39,23,39   s-11.438,4.85-11.949,11H8c-3.248,0-5-2.576-5-5v-4h5c1.822,0,3-1.178,3-3v-2c0-1.822-1.178-3-3-3H3.403   c1.222-4.558,5.118-8,9.597-8h8c2.493,0,4.979-1.51,5.939-3.658l3.968-10.921C33.225,5.428,36.525,3,41,3h21V1H41z M23,41   c5.514,0,10,4.486,10,10s-4.486,10-10,10s-10-4.486-10-10S17.486,41,23,41z M8,35c0.72,0,1,0.28,1,1v2c0,0.72-0.28,1-1,1H3v-3   c0-0.337,0.019-0.67,0.048-1H8z M13,23c-1.397,0-2.741,0.289-4,0.789V10.414L21.546,22.96C21.364,22.982,21.182,23,21,23H13z"/>
	<path style="fill:#333333;" d="M23,57c3.309,0,6-2.691,6-6s-2.691-6-6-6s-6,2.691-6,6S19.691,57,23,57z M23,47c2.206,0,4,1.794,4,4   s-1.794,4-4,4s-4-1.794-4-4S20.794,47,23,47z"/>
	<polygon style="fill:#333333;" points="55,25 62,25 62,23 57,23 57,9 62,9 62,7 55,7  "/>
	<rect x="47" y="61" style="fill:#333333;" width="2" height="2"/>
	<rect x="39" y="56" style="fill:#333333;" width="23" height="2"/>
</g>

	</svg>
