<svg xmlns="http://www.w3.org/2000/svg" xmlns:xlink="http://www.w3.org/1999/xlink" version="1.1" id="rot-107" x="0px" y="0px" viewBox="0 0 64 64" style="enable-background:new 0 0 64 64;" xml:space="preserve">
<g>
	<path style="fill:#F4C70E;" d="M51,26c-1.898,0-3.617,0.758-4.878,1.985C46.68,29.555,47,31.238,47,33s-0.32,3.445-0.878,5.015   C47.383,39.242,49.102,40,51,40c3.866,0,7-3.134,7-7C58,29.134,54.866,26,51,26z"/>
	<path style="fill:#F4C70E;" d="M17,33c0-1.762,0.32-3.445,0.878-5.015C16.617,26.758,14.898,26,13,26c-3.866,0-7,3.134-7,7   c0,3.866,3.134,7,7,7c1.898,0,3.617-0.758,4.878-1.985C17.32,36.445,17,34.762,17,33z"/>
	<circle style="fill:#F4C70E;" cx="32" cy="33" r="11"/>
	<path style="fill:#333333;" d="M6.413,43.02l-5.054,4.212l1.281,1.537l5.669-4.724C9.752,44.659,11.336,45,13,45   c2.259,0,5.104-0.939,6.463-2.09C22.396,46.613,26.921,49,32,49c5.159,0,9.742-2.465,12.67-6.267l-0.212,0.324   C46.406,44.328,48.67,45,51.005,45c1.662,0,3.246-0.341,4.686-0.955l5.668,4.724l1.281-1.537l-5.053-4.211   C60.844,40.873,63,37.186,63,33c0-6.617-5.381-12-11.995-12c-2.337,0-4.603,0.673-6.552,1.944l0.168,0.258   C41.692,19.437,37.13,17,32,17c-5.079,0-9.604,2.387-12.537,6.09C18.104,21.939,15.259,21,13,21C6.383,21,1,26.383,1,33   C1,37.185,3.156,40.872,6.413,43.02z M51.005,23C56.517,23,61,27.486,61,33s-4.483,10-9.995,10c-1.931,0-3.802-0.554-5.415-1.597   C47.108,38.957,48,36.084,48,33c0-1.638-0.249-3.218-0.709-4.706c0.793-0.629,1.72-1.039,2.714-1.205V29h2v-1.91   c2.833,0.478,5,2.942,5,5.91c0,1.453-0.535,2.919-1.446,4H54v2h2.42l0.295-0.301c1.455-1.486,2.29-3.563,2.29-5.699   c0-4.411-3.589-8-8-8c-1.618,0-3.157,0.476-4.466,1.361c-0.28-0.61-0.598-1.198-0.95-1.764C47.203,23.554,49.074,23,51.005,23z    M32,19c7.72,0,14,6.28,14,14s-6.28,14-14,14s-14-6.28-14-14S24.28,19,32,19z M13,23c1.986,0,4.52,0.934,5.293,1.707l0.128-0.128   c-0.355,0.571-0.677,1.164-0.959,1.78C16.154,25.475,14.616,25,13,25c-4.411,0-8,3.589-8,8c0,2.104,0.812,4.093,2.284,5.597   l1.43-1.398C7.846,36.312,7.29,35.2,7.089,34H9v-2H7.09c0.423-2.507,2.403-4.486,4.91-4.91V29h2v-1.911   c0.992,0.165,1.917,0.575,2.709,1.202C16.25,29.78,16,31.361,16,33c0,3.092,0.896,5.971,2.421,8.421l-0.128-0.128   C17.52,42.066,14.986,43,13,43C7.486,43,3,38.514,3,33S7.486,23,13,23z"/>
	<path style="fill:#333333;" d="M22.162,39.546l0.487,0.747l2.798-1.398l-0.895-1.789l-1.178,0.589   c-0.714-1.257-1.142-2.492-1.3-3.694H24v-2h-1.949c0.112-1.127,0.421-2.194,0.877-3.18l1.518,1.012l1.109-1.664l-1.607-1.072   c0.604-0.821,1.328-1.545,2.149-2.149l1.072,1.607l1.664-1.109l-1.012-1.518c0.986-0.456,2.053-0.764,3.18-0.877V25h2v-1.949   c1.127,0.112,2.194,0.421,3.18,0.877l-1.012,1.518l1.664,1.109l1.072-1.607c0.821,0.604,1.545,1.328,2.149,2.149l-1.607,1.072   l1.109,1.664l1.518-1.012c0.456,0.986,0.764,2.053,0.877,3.18H40v2h1.925c-0.157,1.202-0.586,2.438-1.3,3.694l-1.178-0.589   l-0.895,1.789l2.798,1.398l0.487-0.747C43.272,37.346,44,35.143,44,33c0-6.617-5.383-12-12-12s-12,5.383-12,12   C20,35.143,20.728,37.346,22.162,39.546z"/>
	<rect x="27" y="41" style="fill:#333333;" width="10" height="2"/>
	<rect x="30" y="44" style="fill:#333333;" width="4" height="2"/>
	<polygon style="fill:#333333;" points="34,37 34,35 32.469,35 27.769,29.359 26.231,30.641 30,35.163 30,37  "/>
	<rect x="14" y="39" style="fill:#333333;" width="2" height="2"/>
	<rect x="10" y="39" style="fill:#333333;" width="2" height="2"/>
	<rect x="50" y="39" style="fill:#333333;" width="2" height="2"/>
	
		<rect x="50.5" y="32.5" transform="matrix(0.8001 -0.5998 0.5998 0.8001 -9.501 38.4878)" style="fill:#333333;" width="5" height="1.999"/>
	<rect x="12" y="30" style="fill:#333333;" width="2" height="4"/>
	<rect x="61" y="61" style="fill:#333333;" width="2" height="2"/>
	<rect x="1" y="61" style="fill:#333333;" width="58" height="2"/>
	<rect x="31" y="1" style="fill:#333333;" width="2" height="9"/>
	<rect x="31" y="12" style="fill:#333333;" width="2" height="2"/>
	
		<rect x="21.5" y="3.136" transform="matrix(0.7071 -0.7071 0.7071 0.7071 -0.1274 18.6924)" style="fill:#333333;" width="2" height="12.728"/>
	
		<rect x="35.136" y="8.5" transform="matrix(0.7071 -0.7071 0.7071 0.7071 5.4376 32.1274)" style="fill:#333333;" width="12.728" height="2"/>
	<path style="fill:#333333;" d="M21,55h22c2.206,0,4,1.794,4,4h2c0-3.309-2.691-6-6-6H21c-3.309,0-6,2.691-6,6h2   C17,56.794,18.794,55,21,55z"/>
	<rect x="18" y="47" style="fill:#333333;" width="2" height="2"/>
	<rect x="14" y="47" style="fill:#333333;" width="2" height="2"/>
	<rect x="44" y="47" style="fill:#333333;" width="2" height="2"/>
</g>

	</svg>
