<?xml version="1.0" encoding="UTF-8"?>
<svg xmlns="http://www.w3.org/2000/svg" xmlns:xlink="http://www.w3.org/1999/xlink" version="1.1" id="rot-108" x="0px" y="0px" viewBox="0 0 64 64" style="enable-background:new 0 0 64 64;" xml:space="preserve">
<g>
	<path style="fill:#333333;" d="M7.555,45.372L5,24.938V22h17.526c0.914,1.207,2.348,2,3.974,2s3.061-0.793,3.974-2H48v2.938   l-1.395,11.161l1.984,0.248l1.402-11.223l0.006-3.308C51.161,21.403,52,20.303,52,19c0-1.654-1.346-3-3-3H31V5.5   C31,3.019,28.981,1,26.5,1S22,3.019,22,5.5V16H4c-1.654,0-3,1.346-3,3c0,1.302,0.839,2.402,2,2.816V25l2.57,20.62   C5.882,48.117,8.015,50,10.531,50H36.16v-2H10.531C9.021,48,7.742,46.87,7.555,45.372z M26.5,22c-1.654,0-3-1.346-3-3s1.346-3,3-3   s3,1.346,3,3S28.154,22,26.5,22z M50,19c0,0.552-0.448,1-1,1H31.399c0.066-0.323,0.101-0.658,0.101-1s-0.035-0.677-0.101-1H49   C49.552,18,50,18.448,50,19z M26.5,3C27.879,3,29,4.121,29,5.5v9.196C28.262,14.265,27.415,14,26.5,14s-1.762,0.265-2.5,0.696V12h3   v-2h-3V8h3V6h-3V5.5C24,4.121,25.121,3,26.5,3z M4,18h17.601c-0.066,0.323-0.101,0.658-0.101,1s0.035,0.677,0.101,1H4   c-0.552,0-1-0.448-1-1S3.448,18,4,18z"/>
	<path style="fill:#333333;" d="M10,27v16c0,1.654,1.346,3,3,3s3-1.346,3-3V27c0-1.654-1.346-3-3-3S10,25.346,10,27z M14,27v16   c0,0.552-0.448,1-1,1s-1-0.448-1-1V27c0-0.552,0.448-1,1-1S14,26.448,14,27z"/>
	<path style="fill:#333333;" d="M19,27v16c0,1.654,1.346,3,3,3s3-1.346,3-3V27c0-1.654-1.346-3-3-3S19,25.346,19,27z M23,27v16   c0,0.552-0.448,1-1,1s-1-0.448-1-1V27c0-0.552,0.448-1,1-1S23,26.448,23,27z"/>
	<path style="fill:#333333;" d="M28,27v16c0,1.654,1.346,3,3,3s3-1.346,3-3V27c0-1.654-1.346-3-3-3S28,25.346,28,27z M32,27v16   c0,0.552-0.448,1-1,1s-1-0.448-1-1V27c0-0.552,0.448-1,1-1S32,26.448,32,27z"/>
	<path style="fill:#333333;" d="M40,24c-1.654,0-3,1.346-3,3v15.094h2V27c0-0.552,0.448-1,1-1s1,0.448,1,1v11.058h2V27   C43,25.346,41.654,24,40,24z"/>
	<circle style="fill:#F4C70E;" cx="49" cy="49" r="14"/>
	<path style="fill:#333333;" d="M50,41.051V39h-2v2.051c-2.244,0.252-4,2.139-4,4.449c0,2.481,2.019,4.5,4.5,4.5h1   c1.379,0,2.5,1.121,2.5,2.5S50.879,55,49.5,55h-1c-1.379,0-2.5-1.121-2.5-2.5V52h-2v0.5c0,2.31,1.756,4.197,4,4.449V59h2v-2.051   c2.244-0.252,4-2.139,4-4.449c0-2.481-2.019-4.5-4.5-4.5h-1c-1.379,0-2.5-1.121-2.5-2.5s1.121-2.5,2.5-2.5h1   c1.379,0,2.5,1.121,2.5,2.5V46h2v-0.5C54,43.19,52.244,41.303,50,41.051z"/>
	<rect x="56" y="48" style="fill:#333333;" width="2" height="2"/>
	<rect x="40" y="48" style="fill:#333333;" width="2" height="2"/>
</g>

	</svg>
