<svg xmlns="http://www.w3.org/2000/svg" xmlns:xlink="http://www.w3.org/1999/xlink" version="1.1" id="rot-109" x="0px" y="0px" viewBox="0 0 64 64" style="enable-background:new 0 0 64 64;" xml:space="preserve">
<g>
	<g>
		<rect x="22" y="50" style="fill:#F4C70E;" width="39" height="2"/>
	</g>
	<g>
		<rect x="51" y="17" style="fill:#F4C70E;" width="4" height="7"/>
	</g>
	<g>
		<rect x="51" y="3" style="fill:#F4C70E;" width="4" height="7"/>
	</g>
	<path style="fill:#333333;" d="M63,15h-2V1H45v14h-2v17h-6.141C37.562,31.111,38,30.004,38,28.785V16   c0-1.574-0.746-2.964-1.887-3.881C37.841,11.065,39,9.168,39,7c0-3.309-2.691-6-6-6s-6,2.691-6,6c0,2.168,1.159,4.065,2.887,5.119   C28.746,13.036,28,14.426,28,16v0.586L25.586,19H23c-1.758,0-3.204,1.308-3.449,3h-1.107c-0.694-1.19-1.97-2-3.444-2h-4v8h2.926   l-0.857,12H11v3.048c-4.692,0.436-8.7,3.902-9.733,8.564l-0.147,0.669l1.897,1.265C3.007,53.701,3,53.853,3,54c0,4.963,4.037,9,9,9   c4.229,0,7.853-2.957,8.769-7.008L22.854,56l0.091-0.899C22.98,54.738,23,54.372,23,54h19c0,4.963,4.037,9,9,9s9-4.037,9-9h3   v-3.095c0-2.034-0.326-4.046-0.971-5.979c-1.624-4.873-5.09-8.735-9.47-10.927H63V15z M47,3h12v12H47V3z M34,37   c2.757,0,5,2.243,5,5s-2.243,5-5,5h-5V34h3.785c0.074,0,0.142-0.019,0.215-0.022V37H34z M30,29v-2h6v1.785   C36,30.558,34.558,32,32.785,32H29c-1.103,0-2,0.897-2,2v7h-3V31c0-1.103,0.897-2,2-2H30z M24,43h3v4h-3V43z M29,7   c0-2.206,1.794-4,4-4s4,1.794,4,4s-1.794,4-4,4S29,9.206,29,7z M36,16v9h-6v-0.602c0.057-0.053,0.117-0.101,0.172-0.156   l4.535-4.535l-1.414-1.414L30.5,21.086L28.414,19l3.293-3.293l-1.261-1.261C30.974,13.583,31.916,13,33,13   C34.654,13,36,14.346,36,16z M23,21h3.414L27,20.414l2.086,2.086l-0.328,0.328C28.002,23.584,26.997,24,25.929,24H23   c-0.827,0-1.5-0.673-1.5-1.5S22.173,21,23,21z M19.851,24c0.564,1.178,1.758,2,3.149,2h2.929c0.719,0,1.416-0.132,2.071-0.373V27   h-2c-2.206,0-4,1.794-4,4v16h-1.521c-0.705-0.852-1.538-1.591-2.465-2.2L19,28v-4H19.851z M13,22h2c1.103,0,2,0.897,2,2   s-0.897,2-2,2h-2V22z M14.931,42l1.009-14.123c0.379-0.092,0.733-0.242,1.062-0.434l0,0.499L16.07,43.79   c-0.965-0.386-1.994-0.641-3.07-0.739V42H14.931z M12,61c-3.859,0-7-3.141-7-7h2.901l0.101,0.02C8.013,56.217,9.801,58,12,58   c1.626,0,3.043-1.004,3.656-2.449l2.148,0.43l0.898,0.003C17.839,58.908,15.135,61,12,61z M13.619,55.144   C13.256,55.661,12.663,56,12,56c-0.955,0-1.753-0.674-1.951-1.57L13.619,55.144z M18.099,54l-9.902-1.98L4.303,52l-0.912-0.607   c0.227-0.749,0.554-1.452,0.956-2.101L5.764,50h3.127l8.893,1.977l0.434-1.953l-9-2L6.236,48l-0.625-0.313   C7.264,46.021,9.547,45,12,45c4.963,0,9,4.037,9,9H18.099z M51,61c-3.859,0-7-3.141-7-7h3c0,2.206,1.794,4,4,4s4-1.794,4-4h3   C58,57.859,54.859,61,51,61z M53,54c0,1.103-0.897,2-2,2s-2-0.897-2-2H53z M60.132,45.56c0.267,0.799,0.466,1.615,0.61,2.44H41v2   h19.964C60.98,50.301,61,50.602,61,50.905V52H22.809c-0.196-1.062-0.545-2.068-1.023-3H22h7h5c3.859,0,7-3.141,7-7   c0-3.521-2.612-6.442-6-6.929V34h8h1.095C51.383,34,57.827,38.646,60.132,45.56z M61,32H45V17h16V32z"/>
</g>

	</svg>
