<svg xmlns="http://www.w3.org/2000/svg" xmlns:xlink="http://www.w3.org/1999/xlink" version="1.1" id="rot-110" x="0px" y="0px" viewBox="0 0 64 64" style="enable-background:new 0 0 64 64;" xml:space="preserve">
<g>
	<rect x="15" y="28" style="fill:#F4C70E;" width="6" height="6"/>
	<path style="fill:#F4C70E;" d="M24,7v5c0,4.972,4.028,9,9,9c4.972,0,9-4.028,9-9V7H24z"/>
	<path style="fill:#333333;" d="M58,34h5v-8h-5v-3H34v-1.051c5.046-0.504,9-4.773,9-9.949V1H23v11c0,3.522,1.836,6.619,4.596,8.401   L23.697,23H23c-1.654,0-3,1.346-3,3v1h-6v8h6c0,1.654,1.346,3,3,3h9v5.998C32,44.049,31.95,49,29,49v2c3.955,0,5-4.579,5-7v-6   h2.382l8.07,16.14l1.049-0.225l4.192,4.192l4.012-1.003C53.049,58.577,50.918,61,44,61H1v2h43c10.032,0,11.678-4.801,11.947-6.456   L59,55.781v-4.758l1.42-0.304L54.246,37H58V34z M61,28v4h-3v-4H61z M25,12V3h16v9c0,4.411-3.589,8-8,8S25,16.411,25,12z    M29.674,21.419c0.741,0.263,1.517,0.449,2.326,0.53V23h-4.697L29.674,21.419z M16,33v-4h4v4H16z M23,36c-0.552,0-1-0.448-1-1v-8   v-1c0-0.552,0.448-1,1-1h9v11H23z M57,54.219l-6.693,1.674l-2.477-2.477L57,51.451V54.219z M56,35h-2.653l-2.435-5.41l-1.824,0.82   l8.492,18.871L45.548,51.86L37.618,36H34V25h22v1v8V35z"/>
	<rect x="5" y="30" style="fill:#333333;" width="7" height="2"/>
	<rect x="1" y="30" style="fill:#333333;" width="2" height="2"/>
	
		<rect x="6.25" y="16.532" transform="matrix(0.7071 -0.7071 0.7071 0.7071 -14.3168 11.9363)" style="fill:#333333;" width="2" height="13.435"/>
	
		<rect x="-0.071" y="38" transform="matrix(0.7071 -0.7071 0.7071 0.7071 -25.5269 16.3726)" style="fill:#333333;" width="14.142" height="2"/>
	<rect x="36" y="27" style="fill:#333333;" width="2" height="2"/>
	<rect x="40" y="27" style="fill:#333333;" width="2" height="2"/>
	<rect x="3" y="25" style="fill:#333333;" width="2" height="2"/>
	<rect x="3" y="35" style="fill:#333333;" width="2" height="2"/>
</g>

	</svg>
