<svg xmlns="http://www.w3.org/2000/svg" xmlns:xlink="http://www.w3.org/1999/xlink" version="1.1" id="rot-111" x="0px" y="0px" viewBox="0 0 64 64" style="enable-background:new 0 0 64 64;" xml:space="preserve">
<g>
	<g>
		<rect x="17" y="47" style="fill:#F4C70E;" width="16" height="12"/>
	</g>
	<path style="fill:#333333;" d="M63,13c0-4.962-4.038-9-9-9c-2.375,0-4.618,0.926-6.294,2.569C43.41,3.09,37.946,1,32,1   c-3.286,0-6.422,0.643-9.299,1.801C21.019,1.625,19.063,1,17,1c-5.199,0-9.483,3.988-9.957,9.065C3.634,10.533,1,13.464,1,17   c0,3.552,2.661,6.487,6.092,6.934C7.036,24.616,7,25.304,7,26v1h0.643l19.556,16H13v20h38V43H36.801l19.556-16H57v-1   c0-1.5-0.14-2.968-0.395-4.396C60.363,20.473,63,17.005,63,13z M32.002,3.223c1.933,1.47,8.673,7.612,8.981,21.777H23.018   c0.185-8.408,2.654-13.919,4.745-17.091C29.467,5.323,31.176,3.849,32.002,3.223z M21.017,25H9.021   C9.503,13.791,18.048,4.641,28.987,3.203C25.964,6.222,21.266,12.853,21.017,25z M40.301,27L32,41.941L23.699,27H40.301z    M42.983,25c-0.248-12.147-4.947-18.778-7.97-21.797C45.952,4.641,54.497,13.791,54.979,25H42.983z M3,17c0-2.757,2.243-5,5-5h1v-1   c0-4.411,3.589-8,8-8c1.227,0,2.401,0.295,3.48,0.823C13.629,7.397,8.632,14.047,7.336,21.933C4.895,21.604,3,19.529,3,17z    M21.412,27l8.842,15.915L10.801,27H21.412z M15,45h20v16H15V45z M49,61H37V45h3v7h6v-7h3V61z M42,45h2v5h-2V45z M33.747,42.915   L42.588,27h10.61L33.747,42.915z M56.174,19.628c-1.199-4.544-3.65-8.581-6.957-11.729C50.508,6.686,52.204,6,54,6   c3.86,0,7,3.14,7,7C61,16.06,59.014,18.702,56.174,19.628z"/>
</g>

	</svg>
