<svg xmlns="http://www.w3.org/2000/svg" xmlns:xlink="http://www.w3.org/1999/xlink" version="1.1" id="rot-112" x="0px" y="0px" viewBox="0 0 64 64" style="enable-background:new 0 0 64 64;" xml:space="preserve">
<g>
	<path style="fill:#F4C70E;" d="M41,62h-3c-1.105,0-2-0.895-2-2V45c0-1.105,0.895-2,2-2h3V62z"/>
	<path style="fill:#F4C70E;" d="M41,21h-3c-1.105,0-2-0.895-2-2V4c0-1.105,0.895-2,2-2h3V21z"/>
	<path style="fill:#F4C70E;" d="M26,33H8c-1.654,0-3-1.346-3-3v-8c0-1.654,1.346-3,3-3h18c1.654,0,3,1.346,3,3v8   C29,31.654,27.654,33,26,33z"/>
	<path style="fill:#333333;" d="M48.443,6.12C46.785,2.354,42.914,1,40,1h-2c-1.654,0-3,1.346-3,3v15c0,1.654,1.346,3,3,3h2   c2.634,0,6.16-1.681,7.938-4.814C51.432,18.442,53,23.072,53,32c0,8.64-1.434,12.632-5.065,13.826C46.482,43.383,43.643,42,40,42   h-2c-1.654,0-3,1.346-3,3v15c0,1.654,1.346,3,3,3h2c2.453,0,6.931-1.095,8.723-5.12C60.477,55.442,62,42.801,62,32   C62,16.273,57.688,8.028,48.443,6.12z M47.827,56.015l-0.57,0.1l-0.197,0.544C45.818,60.086,42.038,61,40,61h-2   c-0.552,0-1-0.449-1-1V45c0-0.551,0.448-1,1-1h2c1.869,0,5.199,0.442,6.501,3.402l0.328,0.747l0.797-0.171   C54.106,46.586,55,39.477,55,32c0-7.167-0.838-15.575-7.374-16.978l-0.797-0.171l-0.328,0.747C45.166,18.634,41.896,20,40,20h-2   c-0.552,0-1-0.449-1-1V4c0-0.551,0.448-1,1-1h2c2.401,0,5.618,1.137,6.778,4.341l0.197,0.544l0.57,0.1   C56.043,9.478,60,17.109,60,32C60,47.129,56.246,54.536,47.827,56.015z"/>
	<path style="fill:#333333;" d="M30,15H9V5c0-2.206-1.794-4-4-4S1,2.794,1,5v55c0,1.654,1.346,3,3,3h26c1.654,0,3-1.346,3-3V18   C33,16.346,31.654,15,30,15z M31,60c0,0.551-0.448,1-1,1H4c-0.552,0-1-0.449-1-1V5c0-1.103,0.897-2,2-2s2,0.897,2,2v12h23   c0.552,0,1,0.449,1,1V60z"/>
	<path style="fill:#333333;" d="M13,35H8c-1.654,0-3,1.346-3,3v5c0,1.654,1.346,3,3,3h5c1.654,0,3-1.346,3-3v-5   C16,36.346,14.654,35,13,35z M14,43c0,0.551-0.448,1-1,1H8c-0.552,0-1-0.449-1-1v-5c0-0.551,0.448-1,1-1h5c0.552,0,1,0.449,1,1V43z   "/>
	<path style="fill:#333333;" d="M26,35h-5c-1.654,0-3,1.346-3,3v5c0,1.654,1.346,3,3,3h5c1.654,0,3-1.346,3-3v-5   C29,36.346,27.654,35,26,35z M27,43c0,0.551-0.448,1-1,1h-5c-0.552,0-1-0.449-1-1v-5c0-0.551,0.448-1,1-1h5c0.552,0,1,0.449,1,1V43   z"/>
	<path style="fill:#333333;" d="M13,48H8c-1.654,0-3,1.346-3,3v5c0,1.654,1.346,3,3,3h5c1.654,0,3-1.346,3-3v-5   C16,49.346,14.654,48,13,48z M14,56c0,0.551-0.448,1-1,1H8c-0.552,0-1-0.449-1-1v-5c0-0.551,0.448-1,1-1h5c0.552,0,1,0.449,1,1V56z   "/>
	<path style="fill:#333333;" d="M26,48h-5c-1.654,0-3,1.346-3,3v5c0,1.654,1.346,3,3,3h5c1.654,0,3-1.346,3-3v-5   C29,49.346,27.654,48,26,48z M27,56c0,0.551-0.448,1-1,1h-5c-0.552,0-1-0.449-1-1v-5c0-0.551,0.448-1,1-1h5c0.552,0,1,0.449,1,1V56   z"/>
	<rect x="9" y="27" style="fill:#333333;" width="2" height="2"/>
	<rect x="13" y="27" style="fill:#333333;" width="12" height="2"/>
	<rect x="23" y="40" style="fill:#333333;" width="2" height="2"/>
	<rect x="10" y="40" style="fill:#333333;" width="2" height="2"/>
	<rect x="10" y="53" style="fill:#333333;" width="2" height="2"/>
	<rect x="23" y="53" style="fill:#333333;" width="2" height="2"/>
</g>

	</svg>
