<svg xmlns="http://www.w3.org/2000/svg" xmlns:xlink="http://www.w3.org/1999/xlink" version="1.1" id="rot-113" x="0px" y="0px" viewBox="0 0 64 64" style="enable-background:new 0 0 64 64;" xml:space="preserve">
<g>
	<rect x="42" y="44" style="fill:#F4C70E;" width="5" height="14"/>
	<rect x="17" y="44" style="fill:#F4C70E;" width="5" height="14"/>
	<rect x="14" y="10" style="fill:#F4C70E;" width="36" height="4"/>
	<rect x="16" y="61" style="fill:#333333;" width="2" height="2"/>
	<rect x="38" y="9" style="fill:#333333;" width="2" height="2"/>
	<path style="fill:#333333;" d="M32,43c-4.411,0-8,3.589-8,8s3.589,8,8,8s8-3.589,8-8S36.411,43,32,43z M32,57c-3.309,0-6-2.691-6-6   s2.691-6,6-6s6,2.691,6,6S35.309,57,32,57z"/>
	<path style="fill:#333333;" d="M38,33v-6h4.323l2,5H51V4.307l-0.648-0.243C50.018,3.938,42.065,1,32,1S13.982,3.938,13.648,4.063   L13,4.307V32h6.677l2-5H26v6c0,2.853,0,4.604-3.538,10H16v16h7.529c2.242,2.619,5.161,4,8.471,4s6.229-1.381,8.471-4H48V43h-6.462   C38,37.604,38,35.853,38,33z M32,3c8.089,0,14.92,2.027,17,2.713V9h-7v2h7v2H15v-2h21V9H15V5.713C17.08,5.027,23.911,3,32,3z    M20.323,25l-2,5H15V15h34v15h-3.323l-2-5H20.323z M46,50h-4v2h4v5h-6.481l-0.301,0.377C37.303,59.781,34.874,61,32,61   s-5.303-1.219-7.218-3.623L24.481,57H18v-5h4v-2h-4v-5h5.535l0.297-0.445C28,38.303,28,36.078,28,33v-6h8v6   c0,3.078,0,5.303,4.168,11.555L40.465,45H46V50z"/>
	<path style="fill:#333333;" d="M9.707,54.293C7.379,51.965,5.993,48.865,6,46.002c0.007-2.835,1.427-6.014,3.707-8.295   l-1.414-1.414C5.612,38.975,4.008,42.603,4,45.998c-0.008,3.383,1.597,7.013,4.293,9.709L9.707,54.293z"/>
	<path style="fill:#333333;" d="M3,50H1c0,7.168,5.832,13,13,13v-2C7.935,61,3,56.065,3,50z"/>
	<path style="fill:#333333;" d="M55.707,55.707c2.696-2.696,4.301-6.326,4.293-9.709c-0.008-3.396-1.612-7.023-4.293-9.705   l-1.414,1.414c2.28,2.281,3.7,5.46,3.707,8.295c0.007,2.863-1.379,5.963-3.707,8.291L55.707,55.707z"/>
	<path style="fill:#333333;" d="M61,50c0,6.065-4.935,11-11,11v2c7.168,0,13-5.832,13-13H61z"/>
	<rect x="30" y="29" style="fill:#333333;" width="2" height="2"/>
	<rect x="30" y="33" style="fill:#333333;" width="2" height="2"/>
</g>

	</svg>
