<svg xmlns="http://www.w3.org/2000/svg" xmlns:xlink="http://www.w3.org/1999/xlink" version="1.1" id="rot-115" x="0px" y="0px" viewBox="0 0 64 64" style="enable-background:new 0 0 64 64;" xml:space="preserve">
<g>
	<g>
		<path style="fill:#F4C70E;" d="M8,36h48c1.657,0,3,1.343,3,3v0c0,1.657-1.343,3-3,3H8c-1.657,0-3-1.343-3-3v0    C5,37.343,6.343,36,8,36z"/>
	</g>
	<g>
		<g>
			<rect x="16" y="16" style="fill:#F4C70E;" width="4" height="8"/>
		</g>
		<g>
			<rect x="44" y="12" style="fill:#F4C70E;" width="4" height="8"/>
		</g>
	</g>
	<g>
		<path style="fill:#333333;" d="M56,32H30V14H6v18.295C3.112,33.158,1,35.836,1,39c0,3.859,3.14,7,7,7h1v17h2V46h2v17h2V46h34v17h2    V46h2v17h2V46h1c3.86,0,7-3.141,7-7S59.86,32,56,32z M8,16h20v16H8V16z M56,44h-3v-2h-2v2h-6v-2h-2v2h-6v-2h-2v2h-6v-2h-2v2h-6v-2    h-2v2h-6v-2h-2v2H8c-2.757,0-5-2.243-5-5s2.243-5,5-5h3v2h2v-2h6v2h2v-2h6v2h2v-2h6v2h2v-2h6v2h2v-2h6v2h2v-2h3    c2.757,0,5,2.243,5,5S58.757,44,56,44z"/>
		<path style="fill:#333333;" d="M56,36c-1.654,0-3,1.346-3,3s1.346,3,3,3s3-1.346,3-3S57.654,36,56,36z M56,40    c-0.551,0-1-0.448-1-1s0.449-1,1-1s1,0.448,1,1S56.551,40,56,40z"/>
		<path style="fill:#333333;" d="M48,36c-1.654,0-3,1.346-3,3s1.346,3,3,3s3-1.346,3-3S49.654,36,48,36z M48,40    c-0.551,0-1-0.448-1-1s0.449-1,1-1s1,0.448,1,1S48.551,40,48,40z"/>
		<path style="fill:#333333;" d="M40,36c-1.654,0-3,1.346-3,3s1.346,3,3,3s3-1.346,3-3S41.654,36,40,36z M40,40    c-0.551,0-1-0.448-1-1s0.449-1,1-1s1,0.448,1,1S40.551,40,40,40z"/>
		<path style="fill:#333333;" d="M32,36c-1.654,0-3,1.346-3,3s1.346,3,3,3s3-1.346,3-3S33.654,36,32,36z M32,40    c-0.551,0-1-0.448-1-1s0.449-1,1-1s1,0.448,1,1S32.551,40,32,40z"/>
		<path style="fill:#333333;" d="M24,36c-1.654,0-3,1.346-3,3s1.346,3,3,3s3-1.346,3-3S25.654,36,24,36z M24,40    c-0.551,0-1-0.448-1-1s0.449-1,1-1s1,0.448,1,1S24.551,40,24,40z"/>
		<path style="fill:#333333;" d="M16,36c-1.654,0-3,1.346-3,3s1.346,3,3,3s3-1.346,3-3S17.654,36,16,36z M16,40    c-0.551,0-1-0.448-1-1s0.449-1,1-1s1,0.448,1,1S16.551,40,16,40z"/>
		<path style="fill:#333333;" d="M8,36c-1.654,0-3,1.346-3,3s1.346,3,3,3s3-1.346,3-3S9.654,36,8,36z M8,40c-0.551,0-1-0.448-1-1    s0.449-1,1-1s1,0.448,1,1S8.551,40,8,40z"/>
		<path style="fill:#333333;" d="M58,10h-5V8c0-2.206-1.794-4-4-4V1h-2v3h-2V1h-2v3c-2.206,0-4,1.794-4,4v2h-5v20h24V10z M41,8    c0-1.103,0.897-2,2-2h6c1.103,0,2,0.897,2,2v2H41V8z M56,28H36V12h20V28z"/>
	</g>
</g>

	</svg>
