<svg xmlns="http://www.w3.org/2000/svg" xmlns:xlink="http://www.w3.org/1999/xlink" version="1.1" id="rot-114" x="0px" y="0px" viewBox="0 0 64 64" style="enable-background:new 0 0 64 64;" xml:space="preserve">
<g>
	<g>
		<rect x="24" y="33" style="fill:#F4C70E;" width="16" height="4"/>
	</g>
	<g>
		<rect x="24" y="45" style="fill:#F4C70E;" width="16" height="4"/>
	</g>
	<g>
		<rect x="24" y="57" style="fill:#F4C70E;" width="16" height="4"/>
	</g>
	<path style="fill:#333333;" d="M63,3H37.274C35.864,1.759,34.021,1,32,1s-3.864,0.759-5.274,2H1v2h24.082   C24.398,6.178,24,7.542,24,9v4H1v2h21.458L7,28.547V48h9v15h32V48h9V28.547L41.542,15H63v-2H40V9c0-1.458-0.398-2.822-1.082-4H63V3   z M32,3c3.309,0,6,2.691,6,6v2.726C36.533,10.059,34.39,9,32,9s-4.533,1.059-6,2.726V9C26,5.691,28.691,3,32,3z M40,55H24v-4h16V55   z M40,43H28v2h12v4H24v-4h2v-2h-2v-4h16V43z M24,57h16v4H24V57z M40,37H24v-4h16V37z M19.802,31l8.468-6.929   C29.384,24.662,30.653,25,32,25s2.616-0.338,3.731-0.929L44.198,31H19.802z M32,23c-3.309,0-6-2.691-6-6s2.691-6,6-6s6,2.691,6,6   S35.309,23,32,23z M9,46V29.453l15.037-13.178C24.015,16.514,24,16.755,24,17c0,2.32,0.999,4.406,2.582,5.869L16,31.526V46H9z    M18,33h4v28h-4V33z M42,61V33h4v28H42z M55,46h-7V31.526l-10.582-8.657C39.001,21.406,40,19.32,40,17   c0-0.245-0.015-0.486-0.037-0.725L55,29.453V46z"/>
</g>

	</svg>
