<svg xmlns="http://www.w3.org/2000/svg" xmlns:xlink="http://www.w3.org/1999/xlink" version="1.1" id="rot-116" x="0px" y="0px" viewBox="0 0 64 64" style="enable-background:new 0 0 64 64;" xml:space="preserve">
<g>
	<g>
		<path style="fill:#F4C70E;" d="M54.352,27.99L47,32l-7.352-4.01C37.399,26.763,36,24.406,36,21.845V6h22v15.845    C58,24.406,56.601,26.763,54.352,27.99z"/>
	</g>
	<g>
		<path style="fill:#333333;" d="M31,1v12H1v50h50V35.237l5.652-2.637C60.508,30.8,63,26.887,63,22.631V1H31z M38.206,33L43,35.237    V37H9v-4h2v-2H9v-4h22.917c0.667,1.534,1.677,2.906,2.957,4H13v2H38.206z M43,49h-2v2h2v4H9v-4h30v-2H9v-4h34V49z M31.261,25H9v-4    h22v1.631C31,23.437,31.09,24.231,31.261,25z M43,43H9v-4h34V43z M49,61H3V15h28v4H7v38h38V36.17l2,0.933l2-0.933V61z M61,22.631    c0,3.482-2.039,6.683-5.194,8.156L47,34.896l-8.806-4.109C35.039,29.314,33,26.113,33,22.631V3h28V22.631z"/>
		<polygon style="fill:#333333;" points="43,14.635 43,27 45,27 45,13 44.962,13 47,11.302 49.038,13 49,13 49,27 51,27 51,14.635     52.36,15.768 53.64,14.232 47,8.698 40.36,14.232 41.64,15.768   "/>
	</g>
</g>

	</svg>
