<svg xmlns="http://www.w3.org/2000/svg" xmlns:xlink="http://www.w3.org/1999/xlink" version="1.1" id="rot-117" x="0px" y="0px" viewBox="0 0 64 64" style="enable-background:new 0 0 64 64;" xml:space="preserve">
<g>
	<g>
		<circle style="fill:#F4C70E;" cx="47" cy="32" r="16"/>
	</g>
	<g>
		<circle style="fill:#F4C70E;" cx="20" cy="42" r="7"/>
	</g>
	<g>
		<path style="fill:#333333;" d="M38.365,35l4.624,5.549l18.77-21.898l-1.519-1.302l-17.23,20.102L39,32.638V29h-4V16    c0-8.271-6.729-15-15-15S5,7.729,5,16v13H1v6h2v22H1v6h38v-6h-2V35H38.365z M7,16C7,8.832,12.832,3,20,3s13,5.832,13,13v13h-4V16    c0-4.962-4.038-9-9-9s-9,4.038-9,9v13H7V16z M27,29H13V16c0-3.86,3.14-7,7-7s7,3.14,7,7V29z M3,31h2h30h2v2H3V31z M37,61H3v-2h34    V61z M35,37h-2v2h2v14h-2v2h2v2H5v-2h2v-2H5V39h2v-2H5v-2h30V37z"/>
		<path style="fill:#333333;" d="M19,46.899V55h2v-8.101c2.279-0.465,4-2.484,4-4.899c0-2.757-2.243-5-5-5s-5,2.243-5,5    C15,44.414,16.721,46.434,19,46.899z M20,39c1.654,0,3,1.346,3,3s-1.346,3-3,3s-3-1.346-3-3S18.346,39,20,39z"/>
	</g>
</g>

	</svg>
