<svg xmlns="http://www.w3.org/2000/svg" xmlns:xlink="http://www.w3.org/1999/xlink" version="1.1" id="rot-118" x="0px" y="0px" viewBox="0 0 64 64" style="enable-background:new 0 0 64 64;" xml:space="preserve">
<g>
	<rect x="6" y="51" style="fill:#F4C70E;" width="52" height="3"/>
	<rect x="6" y="18" style="fill:#F4C70E;" width="52" height="3"/>
	<rect x="2" y="13" style="fill:#F4C70E;" width="60" height="2"/>
	<rect x="2" y="57" style="fill:#F4C70E;" width="60" height="2"/>
	<path style="fill:#333333;" d="M60,19c1.654,0,3-1.346,3-3v-4c0-1.654-1.346-3-3-3h-1V7h-2v2H42.414l-4-4H23V1h-9v4h-1.5l-3,4H7V7   H5v2H4c-1.654,0-3,1.346-3,3v4c0,1.654,1.346,3,3,3h1v34H4c-1.654,0-3,1.346-3,3v4c0,1.654,1.346,3,3,3h56c1.654,0,3-1.346,3-3v-4   c0-1.654-1.346-3-3-3h-1V19H60z M16,3h5v2h-5V3z M13.5,7H14h9h14.586l2,2H12L13.5,7z M3,16v-4c0-0.552,0.448-1,1-1h56   c0.552,0,1,0.448,1,1v4c0,0.552-0.448,1-1,1H4C3.448,17,3,16.552,3,16z M51,53V19h2v34H51z M13,19v34h-2V19H13z M15,19h2v34h-2V19z    M19,19h2v34h-2V19z M23,19h2v34h-2V19z M27,19h2v34h-2V19z M31,19h2v34h-2V19z M35,19h2v34h-2V19z M39,19h2v34h-2V19z M43,19h2v34   h-2V19z M47,19h2v34h-2V19z M7,19h2v34H7V19z M61,56v4c0,0.552-0.448,1-1,1h-6H4c-0.552,0-1-0.448-1-1v-4c0-0.552,0.448-1,1-1h50h6   C60.552,55,61,55.448,61,56z M57,53h-2V19h2V53z"/>
	<path style="fill:#333333;" d="M57,58c0-1.654-1.346-3-3-3s-3,1.346-3,3s1.346,3,3,3S57,59.654,57,58z M54,59c-0.552,0-1-0.448-1-1   s0.448-1,1-1s1,0.448,1,1S54.552,59,54,59z"/>
	<rect x="10" y="13" style="fill:#333333;" width="2" height="2"/>
	<rect x="6" y="13" style="fill:#333333;" width="2" height="2"/>
	<rect x="14" y="13" style="fill:#333333;" width="2" height="2"/>
	<rect x="56" y="13" style="fill:#333333;" width="2" height="2"/>
</g>

	</svg>
