<svg xmlns="http://www.w3.org/2000/svg" xmlns:xlink="http://www.w3.org/1999/xlink" version="1.1" id="rot-119" x="0px" y="0px" viewBox="0 0 64 64" style="enable-background:new 0 0 64 64;" xml:space="preserve">
<g>
	<rect x="15" y="46" style="fill:#F4C70E;" width="5" height="4"/>
	<rect x="10" y="5" style="fill:#F4C70E;" width="18" height="12"/>
	<path style="fill:#333333;" d="M46,32h-9.515L31,39.68V42h15V32z M44,40H33.229l4.286-6H44V40z"/>
	<path style="fill:#333333;" d="M47,32v10h15v-2.32L56.515,32H47z M49,40v-6h6.485l4.286,6H49z"/>
	<rect x="43" y="44" style="fill:#333333;" width="3" height="2"/>
	<path style="fill:#333333;" d="M28,53c-1.654,0-3,1.346-3,3s1.346,3,3,3s3-1.346,3-3S29.654,53,28,53z M28,57c-0.552,0-1-0.448-1-1   s0.448-1,1-1s1,0.448,1,1S28.552,57,28,57z"/>
	<path style="fill:#333333;" d="M62,49c-3.519,0-6.432,2.614-6.92,6H34.92c-0.488-3.386-3.401-6-6.92-6s-6.432,2.614-6.92,6H18   c-1.065,0-2-0.935-2-2v-2h5v-6h-4.89c0.381-1.805,1.766-2.745,3.054-3.014l6.032-1.006c1.306-0.262,2.369-0.957,3.617-2.399   l4.975-6.966C34.708,30.438,35.579,30,37,30h19c1.42,0,2.291,0.438,3.168,1.555l2,3l1.664-1.109l-2.044-3.062   C59.498,28.735,58.021,28,56,28H39v-8v-2v-1c0-4.072-3.06-7.436-7-7.931V6c0-2.757-2.243-5-5-5H11C8.243,1,6,3.243,6,6v36H1v10h13   v1c0,2.168,1.832,4,4,4h3.08c0.224,1.556,0.957,2.949,2.031,4H9v2h25v-2h-1.111c1.074-1.051,1.807-2.444,2.031-4h20.16   c0.224,1.556,0.957,2.949,2.031,4H43v2h20v-2h-1c-2.757,0-5-2.243-5-5s2.243-5,5-5h1v-2H62z M19,49h-3v-2h3V49z M37,18v2   c0,0.552-0.448,1-1,1s-1-0.448-1-1v-2c0-0.552,0.448-1,1-1S37,17.448,37,18z M36.681,15.085C36.461,15.034,36.235,15,36,15   c-1.654,0-3,1.346-3,3v2c0,1.654,1.346,3,3,3c0.352,0,0.686-0.072,1-0.184V28c-2.022,0-3.5,0.735-4.813,2.419L32,30.68V11.09   C34.193,11.461,35.983,13.021,36.681,15.085z M8,6c0-1.654,1.346-3,3-3h16c1.654,0,3,1.346,3,3v27.483l-2.755,3.861   c-0.898,1.034-1.583,1.504-2.409,1.67l-6.04,1.007c-1.376,0.287-2.527,0.997-3.362,1.979H8V6z M3,50v-6h11.319   C14.116,44.625,14,45.294,14,46v4H3z M28,61c-2.757,0-5-2.243-5-5s2.243-5,5-5s5,2.243,5,5S30.757,61,28,61z"/>
	<path style="fill:#333333;" d="M59,56c0,1.654,1.346,3,3,3h1v-2h-1c-0.552,0-1-0.448-1-1s0.448-1,1-1h1v-2h-1   C60.346,53,59,54.346,59,56z"/>
	<rect x="39" y="61" style="fill:#333333;" width="2" height="2"/>
	<rect x="4.875" y="61" style="fill:#333333;" width="2" height="2"/>
	<rect x="10" y="19" style="fill:#333333;" width="18" height="2"/>
	<rect x="10" y="23" style="fill:#333333;" width="4" height="2"/>
	<rect x="24" y="23" style="fill:#333333;" width="4" height="2"/>
	<rect x="1" y="61" style="fill:#333333;" width="2" height="2"/>
</g>

	</svg>
