<svg xmlns="http://www.w3.org/2000/svg" xmlns:xlink="http://www.w3.org/1999/xlink" version="1.1" id="rot-119" x="0px" y="0px" viewBox="0 0 64 64" style="enable-background:new 0 0 64 64;" xml:space="preserve">
<g>
	<rect x="13" y="12" style="fill:#F4C70E;" width="2" height="26"/>
	<path style="fill:#F4C70E;" d="M57,42c0,3.313-2.687,6-6,6h-6c-3.314,0-6-2.687-6-6V14c0-3.314,2.686-6,6-6h6c3.313,0,6,2.686,6,6   V42z"/>
	<rect x="7" y="41" style="fill:#333333;" width="2" height="2"/>
	<path style="fill:#333333;" d="M21,44v4h2v-4c0-1.654-1.346-3-3-3h-9v2h9C20.552,43,21,43.448,21,44z"/>
	<path style="fill:#333333;" d="M56,1H40c-3.859,0-7,3.141-7,7v40c0,3.859,3.141,7,7,7h6.936c-0.638,5.688-6.671,6-7.936,6   c-3.061,0-7.98-1.213-12.454-2.542C26.835,57.692,27,56.866,27,56V44c0-3.519-2.614-6.432-6-6.92V10V8V7.586l-7-7L5.713,8.873   L7.798,12l-2,3l2,3l-1.952,2.928L7,23.236V37.08C3.614,37.568,1,40.481,1,44v12c0,3.859,3.141,7,7,7h12   c2.259,0,4.266-1.081,5.547-2.747C30.266,61.669,35.604,63,39,63c4.701,0,9.437-2.487,9.949-8H56c3.859,0,7-3.141,7-7V8   C63,4.141,59.859,1,56,1z M8.202,15l2-3L8.287,9.127L14,3.414l5,5V10v27H9V22.764l-0.846-1.691L10.202,18L8.202,15z M20,61H8   c-2.757,0-5-2.243-5-5V44c0-2.757,2.243-5,5-5h1h10h1c2.757,0,5,2.243,5,5v12c0,0.663-0.136,1.294-0.372,1.874   c-1.734-0.541-3.336-1.073-4.663-1.528C19.978,56.231,20,56.118,20,56c0-1.654-1.346-3-3-3h-6c-1.654,0-3,1.346-3,3s1.346,3,3,3h6   c0.805,0,1.534-0.323,2.073-0.84c1.239,0.428,2.738,0.929,4.374,1.446C22.548,60.465,21.338,61,20,61z M16.352,55.063l-0.703,1.873   c0.028,0.01,0.092,0.034,0.171,0.063H11c-0.552,0-1-0.448-1-1s0.448-1,1-1h6c0.422,0,0.78,0.264,0.926,0.635   C16.96,55.291,16.381,55.075,16.352,55.063z M61,48c0,2.757-2.243,5-5,5H40c-2.757,0-5-2.243-5-5V8c0-2.757,2.243-5,5-5h16   c2.757,0,5,2.243,5,5V48z"/>
	<path style="fill:#333333;" d="M51,7h-6c-3.859,0-7,3.141-7,7v28c0,3.859,3.141,7,7,7h6c3.859,0,7-3.141,7-7V14   C58,10.141,54.859,7,51,7z M51,47h-6c-2.757,0-5-2.243-5-5V29h16v13C56,44.757,53.757,47,51,47z M56,27H40V14c0-2.757,2.243-5,5-5   h6c2.757,0,5,2.243,5,5V27z"/>
	<path style="fill:#333333;" d="M50,12h-4c-1.542,0-3,1.458-3,3h2c0-0.448,0.552-1,1-1h4c0.448,0,1,0.552,1,1v2h-8v7h10v-9   C53,13.458,51.542,12,50,12z M51,22h-6v-3h6V22z"/>
	<path style="fill:#333333;" d="M50,32h-4c-1.542,0-3,1.458-3,3v9h10v-9C53,33.458,51.542,32,50,32z M45,42v-3h6v3H45z M51,37h-6v-2   c0-0.448,0.552-1,1-1h4c0.448,0,1,0.552,1,1V37z"/>
	<rect x="38" y="5" style="fill:#333333;" width="2" height="2"/>
	<rect x="50" y="50" style="fill:#333333;" width="2" height="2"/>
	<rect x="54" y="50" style="fill:#333333;" width="2" height="2"/>
</g>

	</svg>
