<svg xmlns="http://www.w3.org/2000/svg" xmlns:xlink="http://www.w3.org/1999/xlink" version="1.1" id="rot-120" x="0px" y="0px" viewBox="0 0 64 64" style="enable-background:new 0 0 64 64;" xml:space="preserve">
<g>
	<g>
		<rect x="5" y="37" style="fill:#F4C70E;" width="20" height="22"/>
	</g>
	<g>
		<path style="fill:#333333;" d="M1,1v62h48V9.586L40.414,1H1z M41,4.414L45.586,9H41V4.414z M3,61V3h36v8h8v50H3z"/>
		<path style="fill:#333333;" d="M35,31V17h2v-2h-2v-4H23.414l-4-4H16v2h2.586l2,2H15v20h4.586l-2,2H15v2h3.414l4-4H35z M24,13h2v6    h-2V13z M17,13h5v8h6v-8h5v2.586l-3.707,3.707l1.414,1.414L33,18.414V29H17V13z"/>
		<rect x="5" y="7" style="fill:#333333;" width="9" height="2"/>
		<rect x="39" y="15" style="fill:#333333;" width="6" height="2"/>
		<rect x="5" y="33" style="fill:#333333;" width="8" height="2"/>
		<rect x="27" y="37" style="fill:#333333;" width="18" height="2"/>
		<rect x="27" y="41" style="fill:#333333;" width="18" height="2"/>
		<rect x="27" y="45" style="fill:#333333;" width="18" height="2"/>
		<rect x="27" y="49" style="fill:#333333;" width="18" height="2"/>
		<rect x="27" y="53" style="fill:#333333;" width="18" height="2"/>
		<rect x="43" y="57" style="fill:#333333;" width="2" height="2"/>
		<rect x="27" y="57" style="fill:#333333;" width="14" height="2"/>
		<path style="fill:#333333;" d="M57,1.279l-6,8.4V57c0,3.309,2.691,6,6,6s6-2.691,6-6V9.68L57,1.279z M60.057,9h-6.114L57,4.721    L60.057,9z M61,50v2h-8v-2H61z M58,48v-2h-2v2h-3V11h3v33h2V11h3v37H58z M57,61c-2.206,0-4-1.794-4-4v-3h8v3    C61,59.206,59.206,61,57,61z"/>
	</g>
</g>

	</svg>
