<svg xmlns="http://www.w3.org/2000/svg" xmlns:xlink="http://www.w3.org/1999/xlink" version="1.1" id="rot-121" x="0px" y="0px" viewBox="0 0 64 64" style="enable-background:new 0 0 64 64;" xml:space="preserve">
<g>
	<g>
		<polygon style="fill:#F4C70E;" points="48,18 35,18 35,8 48,8 55,13   "/>
	</g>
	<g>
		<rect x="49" y="29" style="fill:#F4C70E;" width="6" height="10"/>
	</g>
	<g>
		<circle style="fill:#F4C70E;" cx="18" cy="23" r="9"/>
	</g>
	<g>
		<path style="fill:#333333;" d="M35,27V6h-8V4h-4.432C21.785,2.201,20.003,1,18,1s-3.785,1.201-4.568,3H9v2H1v42h8v15h54V27H35z     M27,12h2v30H7V12h2h1h16H27z M11,6h3.916l0.194-0.75C15.453,3.925,16.641,3,18,3s2.547,0.925,2.89,2.25L21.084,6H25v4H11V6z M3,8    h6v2H5v34h26V10h-4V8h6v38H3V8z M11,48h24V29h6v32H11V48z M61,61H43V29h18V61z"/>
		<rect x="9" y="34" style="fill:#333333;" width="18" height="2"/>
		<rect x="9" y="38" style="fill:#333333;" width="18" height="2"/>
		<polygon style="fill:#333333;" points="27.743,15.669 26.257,14.331 17.888,23.63 13.625,20.219 12.375,21.781 18.112,26.37   "/>
		<polygon style="fill:#333333;" points="45,24.869 62.803,13 45,1.131 45,6 37,6 37,8 47,8 47,4.869 59.197,13 47,21.131 47,18     37,18 37,20 45,20   "/>
		<rect x="41" y="12" style="fill:#333333;" width="14" height="2"/>
		<rect x="37" y="12" style="fill:#333333;" width="2" height="2"/>
	</g>
</g>

	</svg>
