<svg xmlns="http://www.w3.org/2000/svg" xmlns:xlink="http://www.w3.org/1999/xlink" version="1.1" id="rot-122" x="0px" y="0px" viewBox="0 0 64 64" style="enable-background:new 0 0 64 64;" xml:space="preserve">
<g>
	<path style="fill:#F4C70E;" d="M32,1C14.879,1,1,14.879,1,32s13.879,31,31,31s31-13.879,31-31S49.121,1,32,1z M32,6   c6.627,0,12,3.134,12,7c0,3.866-5.373,7-12,7s-12-3.134-12-7C20,9.134,25.373,6,32,6z M13,44c-3.866,0-7-5.373-7-12   c0-6.627,3.134-12,7-12s7,5.373,7,12C20,38.627,16.866,44,13,44z M32,58c-6.627,0-12-3.134-12-7c0-3.866,5.373-7,12-7   s12,3.134,12,7C44,54.866,38.627,58,32,58z M51,44c-3.866,0-7-5.373-7-12c0-6.627,3.134-12,7-12s7,5.373,7,12   C58,38.627,54.866,44,51,44z"/>
	<path style="fill:#333333;" d="M32,21c-7.29,0-13-3.514-13-8s5.71-8,13-8s13,3.514,13,8S39.29,21,32,21z M32,7   c-5.963,0-11,2.748-11,6s5.037,6,11,6s11-2.748,11-6S37.963,7,32,7z"/>
	<path style="fill:#333333;" d="M13,45c-4.486,0-8-5.71-8-13s3.514-13,8-13s8,5.71,8,13S17.486,45,13,45z M13,21   c-3.252,0-6,5.037-6,11s2.748,11,6,11s6-5.037,6-11S16.252,21,13,21z"/>
	<path style="fill:#333333;" d="M51,45c-4.486,0-8-5.71-8-13s3.514-13,8-13s8,5.71,8,13S55.486,45,51,45z M51,21   c-3.252,0-6,5.037-6,11s2.748,11,6,11s6-5.037,6-11S54.252,21,51,21z"/>
	<path style="fill:#333333;" d="M32,59c-7.29,0-13-3.514-13-8s5.71-8,13-8s13,3.514,13,8S39.29,59,32,59z M32,45   c-5.963,0-11,2.748-11,6s5.037,6,11,6s11-2.748,11-6S37.963,45,32,45z"/>
	<path style="fill:#333333;" d="M32,37c-4.486,0-8-2.196-8-5s3.514-5,8-5s8,2.196,8,5S36.486,37,32,37z M32,29c-3.536,0-6,1.581-6,3   s2.464,3,6,3s6-1.581,6-3S35.536,29,32,29z"/>
	<rect x="39" y="39" style="fill:#333333;" width="2" height="2"/>
	<rect x="39" y="23" style="fill:#333333;" width="2" height="2"/>
	<rect x="23" y="39" style="fill:#333333;" width="2" height="2"/>
	<rect x="23" y="23" style="fill:#333333;" width="2" height="2"/>
</g>

	</svg>
