<svg xmlns="http://www.w3.org/2000/svg" xmlns:xlink="http://www.w3.org/1999/xlink" version="1.1" id="rot-125" x="0px" y="0px" viewBox="0 0 64 64" style="enable-background:new 0 0 64 64;" xml:space="preserve">
<g>
	<g>
		<path style="fill:#F4C70E;" d="M32,1C14.879,1,1,14.879,1,32s13.879,31,31,31s31-13.879,31-31S49.121,1,32,1z M13,44    c-3.314,0-6-5.373-6-12c0-6.627,2.686-12,6-12s6,5.373,6,12C19,38.627,16.314,44,13,44z M32,57c-6.627,0-12-2.686-12-6    c0-3.314,5.373-6,12-6s12,2.686,12,6C44,54.314,38.627,57,32,57z M32,19c-6.627,0-12-2.686-12-6c0-3.314,5.373-6,12-6    s12,2.686,12,6C44,16.314,38.627,19,32,19z M51,44c-3.314,0-6-5.373-6-12c0-6.627,2.686-12,6-12s6,5.373,6,12    C57,38.627,54.314,44,51,44z"/>
	</g>
	<path style="fill:#333333;" d="M51,19c-2.792,0-5.147,2.898-6.278,7.19c-1.4-3.052-3.86-5.512-6.912-6.912   C42.103,18.148,45,15.792,45,13c0-3.925-5.71-7-13-7s-13,3.075-13,7c0,2.792,2.897,5.148,7.19,6.278   c-3.052,1.4-5.512,3.86-6.912,6.912C18.147,21.898,15.792,19,13,19c-3.925,0-7,5.71-7,13s3.075,13,7,13   c2.792,0,5.147-2.898,6.278-7.19c1.4,3.052,3.86,5.512,6.912,6.912C21.897,45.852,19,48.208,19,51c0,3.925,5.71,7,13,7   s13-3.075,13-7c0-2.792-2.897-5.148-7.19-6.278c3.052-1.4,5.512-3.86,6.912-6.912C45.853,42.102,48.208,45,51,45   c3.925,0,7-5.71,7-13S54.925,19,51,19z M36.899,31c-0.13-0.637-0.384-1.229-0.732-1.753l4.988-4.987   c1.569,1.852,2.582,4.183,2.795,6.741H36.899z M32,35c-1.654,0-3-1.346-3-3s1.346-3,3-3s3,1.346,3,3S33.654,35,32,35z    M34.753,27.833c-0.524-0.348-1.116-0.602-1.753-0.732v-7.05c2.558,0.213,4.888,1.226,6.741,2.795L34.753,27.833z M31,27.101   c-0.637,0.13-1.228,0.384-1.753,0.732l-4.988-4.988c1.852-1.569,4.183-2.582,6.741-2.795V27.101z M27.833,29.247   c-0.348,0.525-0.602,1.116-0.732,1.753h-7.05c0.213-2.558,1.226-4.888,2.795-6.741L27.833,29.247z M27.101,33   c0.13,0.637,0.384,1.229,0.732,1.753l-4.988,4.987c-1.569-1.852-2.582-4.183-2.795-6.741H27.101z M29.247,36.167   c0.524,0.348,1.116,0.602,1.753,0.732v7.05c-2.558-0.213-4.888-1.226-6.741-2.795L29.247,36.167z M33,36.899   c0.637-0.13,1.228-0.384,1.753-0.732l4.988,4.988c-1.852,1.569-4.183,2.582-6.741,2.795V36.899z M36.167,34.753   c0.348-0.525,0.602-1.116,0.732-1.753h7.05c-0.213,2.558-1.226,4.888-2.795,6.741L36.167,34.753z M21,13c0-2.365,4.518-5,11-5   s11,2.635,11,5s-4.518,5-11,5S21,15.365,21,13z M13,43c-2.365,0-5-4.518-5-11s2.635-11,5-11s5,4.518,5,11S15.365,43,13,43z M43,51   c0,2.365-4.518,5-11,5s-11-2.635-11-5s4.518-5,11-5S43,48.635,43,51z M51,43c-2.365,0-5-4.518-5-11s2.635-11,5-11s5,4.518,5,11   S53.365,43,51,43z"/>
</g>

	</svg>
