<svg xmlns="http://www.w3.org/2000/svg" xmlns:xlink="http://www.w3.org/1999/xlink" version="1.1" id="rot-126" x="0px" y="0px" viewBox="0 0 64 64" style="enable-background:new 0 0 64 64;" xml:space="preserve">
<g>
	<g>
		<rect x="29" y="45" style="fill:#F4C70E;" width="18" height="14"/>
	</g>
	<g>
		<polygon style="fill:#F4C70E;" points="1,21 5,29 14,29 14,11 5,11 1,19   "/>
	</g>
	<g>
		<path style="fill:#333333;" d="M44.259,31c2.633,0,5.231-0.884,7.316-2.489L62.64,20l-11.064-8.511C49.49,9.884,46.892,9,44.259,9    H25.618l-1.648-3.295C22.52,2.803,19.603,1,16.358,1H4v2.721l5.772,1.924c2.091,0.697,3.662,2.377,4.228,4.502V11H9v2h5v2H7v2h7v2    H5v2h9v2H7v2h7v2H9v2h5v0.853c-0.566,2.125-2.136,3.806-4.228,4.502L4,36.279V39h12.358c3.244,0,6.161-1.803,7.612-4.705    L25.618,31H33v7.389l-0.414-0.69C31.956,36.651,30.807,36,29.585,36H28.5c-1.93,0-3.5,1.57-3.5,3.5c0,0.539,0.133,1.044,0.351,1.5    H11v22h40V41h-8.351C42.867,40.544,43,40.039,43,39.5c0-1.93-1.57-3.5-3.5-3.5h-1.085c-1.222,0-2.371,0.651-3.001,1.699L35,38.389    V31H44.259z M27,39.5c0-0.827,0.673-1.5,1.5-1.5h1.085c0.523,0,1.017,0.279,1.286,0.729L32.234,41H31h-2.5    C27.673,41,27,40.327,27,39.5z M18,43h2v6h-2V43z M13,43h3v8h6v-8h3v18H13V43z M49,61H27V43h1.5H31h1.725    c-0.739,2.469-2.246,4.641-4.325,6.2l1.199,1.6c1.934-1.45,3.432-3.362,4.4-5.535c0.969,2.173,2.467,4.085,4.4,5.535l1.199-1.6    c-2.078-1.559-3.585-3.731-4.324-6.2H37h2.5H49V61z M37.129,38.729C37.398,38.279,37.892,38,38.415,38H39.5    c0.827,0,1.5,0.673,1.5,1.5S40.327,41,39.5,41H37h-1.234L37.129,38.729z M44,13h-2v2h2v2h-2v2h2v2h-2v2h2v2h-2v2h2v2h-9V11h9V13z     M59.36,20l-9.004,6.926c-1.275,0.981-2.78,1.634-4.356,1.915V11.158c1.577,0.281,3.082,0.935,4.356,1.915L59.36,20z     M10.405,3.748L8.162,3h8.196c2.481,0,4.713,1.379,5.823,3.599L23.382,9h-7.653C14.862,6.525,12.926,4.588,10.405,3.748z     M22.182,33.401C21.071,35.621,18.84,37,16.358,37H8.162l2.243-0.748c2.521-0.841,4.457-2.778,5.324-5.252h7.653L22.182,33.401z     M16,29V11h17v18H16z"/>
		<rect x="1" y="19" style="fill:#333333;" width="2" height="2"/>
		<rect x="3" y="15" style="fill:#333333;" width="2" height="2"/>
		<rect x="5" y="11" style="fill:#333333;" width="2" height="2"/>
		<rect x="3" y="23" style="fill:#333333;" width="2" height="2"/>
		<rect x="5" y="27" style="fill:#333333;" width="2" height="2"/>
	</g>
</g>

	</svg>
