<svg xmlns="http://www.w3.org/2000/svg" xmlns:xlink="http://www.w3.org/1999/xlink" version="1.1" id="rot-127" x="0px" y="0px" viewBox="0 0 64 64" style="enable-background:new 0 0 64 64;" xml:space="preserve">
<g>
	<path style="fill:#F4C70E;" d="M49.556,24.444l-10-10l-2.042,2.042c-2.761,2.761-2.761,7.239,0,10l0,0   c2.761,2.761,7.239,2.761,10,0L49.556,24.444z"/>
	<path style="fill:#333333;" d="M51.586,35l-28,28h22.828L63,46.414V35H51.586z M61,45.586L45.586,61h-7.172l15.293-15.293   l-1.414-1.414L35.586,61h-7.172l24-24H61V45.586z"/>
	
		<rect x="54.586" y="41" transform="matrix(0.7071 -0.7071 0.7071 0.7071 -13.2965 51.8995)" style="fill:#333333;" width="2.828" height="2"/>
	<path style="fill:#333333;" d="M40.414,1H17.586L1,17.586V29h11.414L40.414,1z M3,27v-8.586L18.414,3h7.172L10.293,18.293   l1.414,1.414L28.414,3h7.172l-24,24H3z"/>
	
		<rect x="6.586" y="21" transform="matrix(0.7071 -0.7071 0.7071 0.7071 -13.2132 12.1005)" style="fill:#333333;" width="2.828" height="2"/>
	<path style="fill:#333333;" d="M39.557,13.029L1,51.586V63h11.414l38.557-38.557L39.557,13.029z M11.586,61H4.414l33.863-33.863   c-0.265-0.199-0.522-0.411-0.763-0.651c-0.241-0.241-0.453-0.498-0.651-0.763L3,59.586v-7.172l36.557-36.557l8.586,8.586L11.586,61   z"/>
	<path style="fill:#F4C70E;" d="M53.003,21.001c-0.914,0-1.771-0.355-2.416-1c-1.104-1.104-1.104-2.898-0.001-4.001l2-2   C52.853,13.732,53,13.378,53,13s-0.147-0.732-0.414-1L52,11.414c-0.535-0.533-1.465-0.533-2,0l-2,2c-1.104,1.104-2.896,1.104-4,0   c-0.645-0.645-1-1.502-1-2.413c0-0.912,0.355-1.771,1-2.415L50.586,2c1.289-1.289,3.539-1.289,4.828,0L62,8.586   c0.645,0.645,1,1.502,1,2.414s-0.355,1.77-1,2.414l-6.587,6.587C54.77,20.645,53.914,21,53.003,21.001z"/>
</g>

	</svg>
