<svg xmlns="http://www.w3.org/2000/svg" xmlns:xlink="http://www.w3.org/1999/xlink" version="1.1" id="rot-129" x="0px" y="0px" viewBox="0 0 64 64" style="enable-background:new 0 0 64 64;" xml:space="preserve">
<g>
	<g>
		<path style="fill:#F4C70E;" d="M19,10v4h6c0-1.488,0.468-2.866,1.26-4H19z"/>
	</g>
	<g>
		<path style="fill:#F4C70E;" d="M37.74,10c0.792,1.134,1.26,2.512,1.26,4h6v-4H37.74z"/>
	</g>
	<g>
		<rect x="15" y="26" style="fill:#F4C70E;" width="3" height="6"/>
	</g>
	<g>
		<rect x="15" y="34" style="fill:#F4C70E;" width="4" height="6"/>
	</g>
	<g>
		<rect x="46" y="26" style="fill:#F4C70E;" width="3" height="6"/>
	</g>
	<g>
		<rect x="45" y="34" style="fill:#F4C70E;" width="4" height="6"/>
	</g>
	<path style="fill:#333333;" d="M52,43h-1V27.417c0-4.324-2.648-8.041-6.407-9.614C46.053,16.707,47,14.962,47,13V7   c0-3.309-2.691-6-6-6H23c-3.309,0-6,2.691-6,6v6c0,1.962,0.947,3.707,2.407,4.803C15.648,19.376,13,23.093,13,27.417V43h-1   c-1.654,0-3,1.346-3,3v4c0,1.654,1.346,3,3,3h5.341l-1.054,3.013C16.096,56.556,16,57.122,16,57.696v0.209   C16,60.715,18.286,63,21.095,63c2.162,0,4.095-1.371,4.809-3.412L28.209,53h7.581l2.306,6.588C38.811,61.629,40.744,63,42.905,63   C45.714,63,48,60.715,48,57.905v-0.209c0-0.574-0.096-1.141-0.286-1.684L46.659,53H52c1.654,0,3-1.346,3-3v-4   C55,44.346,53.654,43,52,43z M49,27.417V43h-5.841l-0.378-1.079C44.614,41.556,46,39.938,46,38V25c0-2.757-2.243-5-5-5h-3.726   c0.348-0.306,0.671-0.639,0.961-1h2.348C45.225,19,49,22.775,49,27.417z M38,26v10.089C37.704,36.035,37.403,36,37.095,36   C34.286,36,32,38.285,32,41.095C32,38.285,29.714,36,26.905,36c-0.308,0-0.609,0.035-0.905,0.089V26h-2v10.916   c-0.862,0.599-1.541,1.46-1.904,2.497l-0.202,0.577C20.841,39.933,20,39.066,20,38V25c0-1.654,1.346-3,3-3h9h9c1.654,0,3,1.346,3,3   v13c0,1.066-0.841,1.933-1.895,1.989l-0.202-0.577c-0.363-1.037-1.042-1.898-1.903-2.497V26H38z M32.291,43h-0.581l0.004-0.013   C31.904,42.444,32,41.878,32,41.304c0,0.574,0.096,1.141,0.286,1.684L32.291,43z M26,14c0-3.309,2.691-6,6-6s6,2.691,6,6   s-2.691,6-6,6S26,17.309,26,14z M19,13V7c0-2.206,1.794-4,4-4h18c2.206,0,4,1.794,4,4v6c0,2.206-1.794,4-4,4h-0.417h-1.172   C39.788,16.073,40,15.061,40,14c0-4.411-3.589-8-8-8s-8,3.589-8,8c0,1.061,0.212,2.073,0.589,3h-1.172H23   C20.794,17,19,15.206,19,13z M15,27.417C15,22.775,18.775,19,23.417,19h2.348c0.29,0.361,0.614,0.694,0.961,1H23   c-2.757,0-5,2.243-5,5v13c0,1.938,1.386,3.556,3.218,3.921L20.84,43H15V27.417z M12,51c-0.551,0-1-0.448-1-1v-4   c0-0.552,0.449-1,1-1h8.141l-2.1,6H12z M24.016,58.928C23.582,60.167,22.408,61,21.095,61C19.388,61,18,59.611,18,57.905v-0.209   c0-0.35,0.059-0.693,0.174-1.023l5.81-16.601C24.418,38.833,25.592,38,26.905,38C28.612,38,30,39.389,30,41.095v0.209   c0,0.35-0.059,0.693-0.174,1.023L24.016,58.928z M28.909,51l2.1-6h1.981l2.1,6H28.909z M46,57.905C46,59.611,44.612,61,42.905,61   c-1.313,0-2.487-0.833-2.921-2.072l-5.81-16.601C34.059,41.997,34,41.653,34,41.304v-0.209C34,39.389,35.388,38,37.095,38   c1.313,0,2.487,0.833,2.921,2.072l5.811,16.601C45.941,57.003,46,57.347,46,57.696V57.905z M53,50c0,0.552-0.449,1-1,1h-6.041   l-2.1-6H52c0.551,0,1,0.448,1,1V50z"/>
</g>

	</svg>
