<svg xmlns="http://www.w3.org/2000/svg" xmlns:xlink="http://www.w3.org/1999/xlink" version="1.1" id="rot-131" x="0px" y="0px" viewBox="0 0 64 64" style="enable-background:new 0 0 64 64;" xml:space="preserve">
<g>
	<g>
		<rect x="14" y="15" style="fill:#F4C70E;" width="19" height="18"/>
	</g>
	<g>
		<rect x="42" y="13" style="fill:#F4C70E;" width="5" height="9"/>
	</g>
	<path style="fill:#333333;" d="M63,32C63,14.907,49.093,1,32,1S1,14.907,1,32s13.907,31,31,31c8.648,0,16.923-3.643,22.786-10H63   v-2h-8.021v-9H57v7h2v-7h4v-2h-1.067C62.627,37.397,63,34.716,63,32z M52.979,49.176l-4.099,0.82H36.078l-9.774-1.955l-4.818-2.377   c-0.423-0.208-0.602-0.709-0.407-1.14c0.101-0.223,0.284-0.389,0.517-0.466s0.479-0.056,0.694,0.062l3.435,1.877h9.491l3.946-1.973   l-5.59-2.97c-0.458-0.244-0.682-0.782-0.532-1.279c0.087-0.287,0.283-0.52,0.55-0.656c0.267-0.136,0.569-0.156,0.854-0.056   l8.086,2.835l3.147,2.098h7.303V49.176z M29.084,60.853c-6.524-0.654-12.412-3.484-16.939-7.746c0.72-0.959,2.84-3.411,6.82-5.36   C22.129,53.941,26.45,58.457,29.084,60.853z M21.284,47.795l4.252,2.098L31,51.004v8.862   C28.734,57.857,24.505,53.648,21.284,47.795z M33,59.866v-8.455l2.783,0.566l4.305,0.006C37.459,55.666,34.687,58.373,33,59.866z    M27.034,42.026c-0.081-0.241-0.042-0.498,0.106-0.705c0.336-0.467,1.145-0.369,1.358,0.166l1,2.499l-1.802,0.006L27.034,42.026z    M45.471,41.455l-1.937-1.291l-8.428-2.989c-0.802-0.283-1.662-0.226-2.42,0.16c-0.759,0.385-1.312,1.045-1.56,1.859   c-0.427,1.409,0.207,2.934,1.507,3.625l2.164,1.15l-3.148,0.01l-1.294-3.235c-0.425-1.062-1.438-1.748-2.582-1.748   c-0.893,0-1.737,0.433-2.258,1.158c-0.521,0.726-0.662,1.664-0.377,2.51l0.302,0.898l-2.193-1.198   c-0.698-0.381-1.532-0.455-2.287-0.204c-0.724,0.242-1.318,0.772-1.655,1.455c-0.821-2.061-1.474-4.272-1.869-6.615h29.123   C46.308,38.489,45.944,39.979,45.471,41.455z M10,31H3.025C3.258,24.193,5.845,17.976,10,13.137V31z M33,11V4.13   c1.528,1.35,3.946,3.697,6.347,6.87H33z M24.653,11C27.05,7.834,29.47,5.484,31,4.132V11H24.653z M22.175,11H12.031   c4.545-4.324,10.482-7.197,17.065-7.854C27.29,4.796,24.68,7.46,22.175,11z M12,13h23v22H12V13z M37,35V13h15v22H37z M41.825,11   c-2.505-3.54-5.116-6.204-6.922-7.854c6.583,0.657,12.52,3.53,17.065,7.854H41.825z M54,13.137   c4.155,4.839,6.742,11.055,6.975,17.863H54V13.137z M3.025,33H10v4h5.412c0.511,3.243,1.471,6.237,2.685,8.945   c-4.086,1.992-6.395,4.47-7.378,5.729C6.144,46.729,3.271,40.193,3.025,33z M34.907,60.849c1.974-1.805,4.906-4.82,7.607-8.863   l6.564,0.01l3.901-0.78v0.785C48.188,57.022,41.763,60.155,34.907,60.849z M52.979,40v1.996h-5.581   c0.527-1.654,0.921-3.326,1.185-4.996H54v-4h6.962c-0.081,2.379-0.448,4.724-1.101,7H52.979z"/>
</g>

	</svg>
