<svg xmlns="http://www.w3.org/2000/svg" xmlns:xlink="http://www.w3.org/1999/xlink" version="1.1" id="rot-131" x="0px" y="0px" viewBox="0 0 64 64" style="enable-background:new 0 0 64 64;" xml:space="preserve">
<g>
	<g>
		<g>
			<path style="fill:#F4C70E;" d="M29.333,53H19c-7.72,0-14-6.28-14-14s6.28-14,14-14h10.333C31.355,25,33,26.645,33,28.667v20.666     C33,51.355,31.355,53,29.333,53z"/>
		</g>
	</g>
	<g>
		<path style="fill:#333333;" d="M42.708,1c-2.057,0-3.879,1.233-4.643,3.144l-6.749,16.872C31.211,21.01,31.107,21,31,21H19    C9.075,21,1,29.075,1,39c0,9.238,7,16.866,15.972,17.878L14.522,63H63V1H42.708z M61,40h-7V3h7V40z M50,3h2v37    c0,1.103,0.897,2,2,2h7v2h-8c-1.654,0-3-1.346-3-3V3z M3,39c0-8.822,7.178-16,16-16h12c2.206,0,4,1.794,4,4v9v6v9    c0,2.206-1.794,4-4,4H19C10.178,55,3,47.822,3,39z M37,36c0-0.552,0.448-1,1-1s1,0.448,1,1v6c0,0.552-0.448,1-1,1s-1-0.448-1-1V36    z M17.478,61l1.6-4H31c3.309,0,6-2.691,6-6v-6.184C37.314,44.928,37.648,45,38,45c1.654,0,3-1.346,3-3v-6c0-1.654-1.346-3-3-3    c-0.352,0-0.686,0.072-1,0.184V27c0-2.496-1.533-4.639-3.706-5.542l6.629-16.572C40.381,3.74,41.475,3,42.708,3H48v38    c0,2.757,2.243,5,5,5h8v2h-2v2h2v11H17.478z"/>
		
			<rect x="12.93" y="36.242" transform="matrix(0.7071 -0.7071 0.7071 0.7071 -19.9615 26.2931)" style="fill:#333333;" width="17.656" height="2"/>
		
			<rect x="12.733" y="44.355" transform="matrix(0.7071 -0.7071 0.7071 0.7071 -28.0738 22.9329)" style="fill:#333333;" width="1.826" height="2"/>
		<rect x="52" y="48" style="fill:#333333;" width="5" height="2"/>
	</g>
</g>

	</svg>
