<svg xmlns="http://www.w3.org/2000/svg" xmlns:xlink="http://www.w3.org/1999/xlink" version="1.1" id="rot-134" x="0px" y="0px" viewBox="0 0 64 64" style="enable-background:new 0 0 64 64;" xml:space="preserve">
<g>
	<g>
		<rect x="53" y="38" style="fill:#F4C70E;" width="6" height="24"/>
	</g>
	<g>
		<path style="fill:#333333;" d="M26,37c-3.309,0-6,2.691-6,6v2h-7v-5c0-1.842-3.014-2.667-6-2.667S1,38.158,1,40v10    c0,3.309,2.691,6,6,6h13v1c0,3.309,2.691,6,6,6h37V37H26z M7,39.333c1.909,0,3.228,0.371,3.784,0.667    C10.228,40.296,8.909,40.667,7,40.667S3.772,40.296,3.216,40C3.772,39.704,5.091,39.333,7,39.333z M7,54c-2.206,0-4-1.794-4-4    v-7.934c1.112,0.406,2.558,0.601,4,0.601s2.888-0.194,4-0.601V45c0,1.103,0.897,2,2,2h7v7H7z M61,61H28v-2h-2v2    c-2.206,0-4-1.794-4-4V43c0-2.206,1.794-4,4-4v18h2V39h33V61z"/>
		<path style="fill:#333333;" d="M8.553,35.895l0.895-1.789C9.413,34.088,6,32.32,6,27c0-5.09,2.243-6.022,2.316-6.051l-0.633-1.897    C7.533,19.102,4,20.355,4,27C4,33.543,8.367,35.801,8.553,35.895z"/>
		<path style="fill:#333333;" d="M8.438,15.172L9,16l0.555,0.832C9.695,16.738,13,14.472,13,9c0-5.656-3.533-6.898-3.684-6.949    L8.684,3.949C8.707,3.957,11,4.837,11,9C11,13.353,8.543,15.1,8.438,15.172z"/>
		<path style="fill:#333333;" d="M11.277,30.984l1.899-0.626c-0.048-0.151-1.134-3.75,2.585-7.469c3.6-3.6,5.845-2.672,5.917-2.641    l0.895-1.789c-0.143-0.071-3.528-1.682-8.226,3.016C9.721,26.102,11.211,30.787,11.277,30.984z"/>
		<path style="fill:#333333;" d="M33.439,15.111c4-4,2.379-7.376,2.309-7.518l-1.789,0.895c0.011,0.022,1.01,2.266-1.934,5.209    c-3.079,3.078-6.053,2.577-6.176,2.554l-0.384,1.962c0.048,0.01,0.404,0.077,0.979,0.077C27.88,18.29,30.677,17.873,33.439,15.111    z"/>
		<path style="fill:#333333;" d="M16.105,30.553l1.789,0.895C17.912,31.413,19.68,28,25,28c5.09,0,6.022,2.243,6.051,2.316    l1.897-0.633C32.898,29.533,31.645,26,25,26C18.457,26,16.199,30.367,16.105,30.553z"/>
		<path style="fill:#333333;" d="M43,35c5.656,0,6.898-3.533,6.949-3.684l-1.897-0.633C48.043,30.707,47.163,33,43,33    c-4.353,0-6.1-2.457-6.172-2.562l-1.66,1.116C35.262,31.695,37.528,35,43,35z"/>
		<rect x="30" y="57" style="fill:#333333;" width="2" height="2"/>
		<rect x="34" y="57" style="fill:#333333;" width="25" height="2"/>
	</g>
</g>

	</svg>
