<svg xmlns="http://www.w3.org/2000/svg" xmlns:xlink="http://www.w3.org/1999/xlink" version="1.1" id="rot-135" x="0px" y="0px" viewBox="0 0 64 64" style="enable-background:new 0 0 64 64;" xml:space="preserve">
<g>
	<g>
		
			<ellipse transform="matrix(0.7071 -0.7071 0.7071 0.7071 -12.0117 31.9291)" style="fill:#F4C70E;" cx="32.536" cy="30.464" rx="8.5" ry="23.182"/>
	</g>
	<g>
		<path style="fill:#333333;" d="M22.861,10.651c-5.883-2.727-10.444-2.909-12.84-0.513C4.687,15.472,1.558,22.463,1.074,30H1v13v20    h20h11v-0.001c8.296-0.015,16.058-3.216,21.861-9.02c4.758-4.758-1.143-18.114-13.435-30.405    C34.679,17.826,28.441,13.237,22.861,10.651z M11.435,52.565C5.996,47.125,3,39.843,3,32.059c0-6.174,1.891-12.028,5.384-16.902    c0.222,6.339,5.847,16.163,15.072,25.387c9.237,9.238,19.066,14.852,25.404,15.059C43.983,59.105,38.122,61,31.941,61    C24.157,61,16.875,58.004,11.435,52.565z M20.887,60.994c-9.835-0.061-17.82-8.047-17.881-17.881    c1.525,4.041,3.888,7.739,7.015,10.866C13.148,57.106,16.846,59.469,20.887,60.994z M3,61v-9.34    c1.968,4.073,5.268,7.372,9.34,9.34H3z M52.447,52.565c-3.415,3.414-15.311-1.168-27.577-13.435    C12.604,26.864,8.021,14.968,11.435,11.553c0.734-0.733,1.848-1.097,3.267-1.097c1.935,0,4.438,0.676,7.318,2.011    c5.372,2.489,11.406,6.936,16.992,12.521C51.278,37.254,55.862,49.15,52.447,52.565z"/>
		<path style="fill:#333333;" d="M26.252,22.834c-2.089,2.088,0.569,6.933,4.275,10.639c2.805,2.805,6.263,5.01,8.684,5.01    c0.777,0,1.448-0.227,1.955-0.735c2.089-2.09-0.569-6.934-4.275-10.639C33.186,23.404,28.344,20.745,26.252,22.834z     M39.751,36.334c-0.623,0.623-4.062-0.526-7.811-4.275c-3.748-3.749-4.898-7.188-4.275-7.811c0.105-0.105,0.292-0.16,0.546-0.16    c1.25,0,4.15,1.321,7.265,4.435C39.225,32.271,40.375,35.71,39.751,36.334z"/>
		<path style="fill:#333333;" d="M53,28h2c0-0.262-0.071-6.486-6.293-12.707C42.486,9.071,36.262,9,36,9l-0.003,2    c0.056,0,5.694,0.105,11.296,5.707S53,27.947,53,28z"/>
		<path style="fill:#333333;" d="M43.91,5.004l0.178,1.992c0.053-0.003,5.113-0.381,9.206,3.711    c4.093,4.093,3.715,9.155,3.711,9.203l1.992,0.181c0.022-0.244,0.487-6.021-4.289-10.797C49.931,4.516,44.151,4.982,43.91,5.004z"/>
		<path style="fill:#333333;" d="M59.707,4.293C56.452,1.038,52.18,1,52,1v2c0.036,0,3.617,0.031,6.293,2.707    C60.947,8.361,61,11.967,61,12h2C63,11.82,62.962,7.548,59.707,4.293z"/>
		
			<rect x="11.586" y="49" transform="matrix(0.7071 -0.7071 0.7071 0.7071 -31.5477 23.837)" style="fill:#333333;" width="2.828" height="2"/>
		
			<rect x="14.586" y="46" transform="matrix(0.7071 -0.7071 0.7071 0.7071 -28.5477 25.0797)" style="fill:#333333;" width="2.828" height="2"/>
		
			<rect x="17.586" y="43" transform="matrix(0.7071 -0.7071 0.7071 0.7071 -25.5477 26.3223)" style="fill:#333333;" width="2.828" height="2"/>
	</g>
</g>

	</svg>
