<svg xmlns="http://www.w3.org/2000/svg" xmlns:xlink="http://www.w3.org/1999/xlink" version="1.1" id="rot-136" x="0px" y="0px" viewBox="0 0 64 64" style="enable-background:new 0 0 64 64;" xml:space="preserve">
<g>
	<g>
		<rect x="47" y="18" style="fill:#F4C70E;" width="10" height="4"/>
	</g>
	<g>
		<rect x="47" y="12" style="fill:#F4C70E;" width="10" height="4"/>
	</g>
	<g>
		<rect x="47" y="6" style="fill:#F4C70E;" width="10" height="4"/>
	</g>
	<g>
		<path style="fill:#F4C70E;" d="M41.473,39h-5.874C34.588,32.538,32,28,32,28l5-2C37,26,40.19,32.332,41.473,39z"/>
	</g>
	<g>
		<path style="fill:#F4C70E;" d="M20.527,39h5.874C27.412,32.538,30,28,30,28l-5-2C25,26,21.81,32.332,20.527,39z"/>
	</g>
	<g>
		<rect x="53" y="6" style="fill:#333333;" width="2" height="16"/>
		<path style="fill:#333333;" d="M41,22c0-2.273-1.524-4.364-4.105-5.671L34.908,5.403L30,2.132v1.517l-3.957,4.947l-0.971,7.768    C22.519,17.672,21,19.738,21,22c0,1.832,0.965,3.473,2.555,4.708C22.229,29.598,19,37.32,19,44c0,5.966,2.086,12.814,3.329,16.365    C22.88,61.941,24.376,63,26.053,63C28.229,63,30,61.229,30,59.053v-0.566c0-0.425-0.068-0.845-0.203-1.248    C29.33,55.838,27,48.621,27,44c0-7.312,2.755-13.321,3.611-15.013C30.741,28.99,30.869,29,31,29c0.132,0,0.259-0.01,0.39-0.013    C32.247,30.675,35,36.668,35,44c0,4.621-2.33,11.838-2.797,13.238C32.068,57.642,32,58.062,32,58.486v0.566    C32,61.229,33.771,63,35.947,63c1.677,0,3.173-1.059,3.723-2.635C40.914,56.814,43,49.966,43,44c0-6.68-3.229-14.402-4.555-17.292    C40.035,25.473,41,23.832,41,22z M33.092,6.597l1.913,10.505l0.054,0.583l0.083,0.037l-1.871,2.339    c-0.338-0.395-0.771-0.699-1.27-0.877V5.868L33.092,6.597z M32,22c0,0.552-0.448,1-1,1s-1-0.448-1-1s0.448-1,1-1S32,21.448,32,22z     M27.957,9.404L30,6.851v12.333c-0.42,0.15-0.801,0.38-1.111,0.687l-1.854-3.09L27.957,9.404z M25,44    c0,4.807,2.22,11.832,2.9,13.871c0.066,0.199,0.1,0.406,0.1,0.615v0.566C28,60.126,27.126,61,26.053,61    c-0.827,0-1.564-0.521-1.836-1.295C23.016,56.273,21,49.67,21,44c0-1.617,0.218-3.318,0.553-5H24v-2h-1.994    c0.172-0.679,0.355-1.349,0.551-2H25v-2h-1.793c0.242-0.704,0.486-1.377,0.725-2H26v-2h-1.262c0.201-0.475,0.378-0.875,0.538-1.23    c0.956,0.46,2.039,0.801,3.208,1.006C27.318,31.229,25,36.987,25,44z M23,22c0-1.395,0.968-2.728,2.627-3.678l2.407,4.011    C28.202,23.829,29.46,25,31,25c1.516,0,2.76-1.135,2.959-2.598l2.978-3.722C38.247,19.594,39,20.773,39,22c0,2.71-3.663,5-8,5    S23,24.71,23,22z M37.263,29H36v2h2.069c0.239,0.623,0.483,1.296,0.725,2H37v2h2.445c0.196,0.651,0.379,1.321,0.551,2H38v2h2.448    C40.782,40.682,41,42.382,41,44c0,5.67-2.016,12.273-3.218,15.705C37.512,60.479,36.774,61,35.947,61    C34.874,61,34,60.126,34,59.053v-0.566c0-0.209,0.033-0.416,0.1-0.615C34.78,55.832,37,48.807,37,44    c0-7.013-2.318-12.771-3.483-15.224c1.169-0.205,2.252-0.546,3.208-1.006C36.885,28.125,37.062,28.525,37.263,29z"/>
		<path style="fill:#333333;" d="M59,26V7.314C59,3.833,55.859,1,52,1s-7,2.833-7,6.314V26c-2.206,0-4,1.794-4,4s1.794,4,4,4h4v29h6    V34h4c2.206,0,4-1.794,4-4S61.206,26,59,26z M52,3c2.757,0,5,1.936,5,4.314V26h-2v-2h-2v2h-2V6h-2v20h-2V7.314    C47,4.936,49.243,3,52,3z M53,61h-2V34h2V61z M59,32h-4h-6h-4c-1.103,0-2-0.897-2-2s0.897-2,2-2h1h1h10h1h1c1.103,0,2,0.897,2,2    S60.103,32,59,32z"/>
		<path style="fill:#333333;" d="M16,48.76V19.651c3.1-1.787,5-5.047,5-8.651c0-4.229-2.678-8.019-6.662-9.429L13.005,1.1L13,10H9    V1.098L7.667,1.569C3.679,2.979,1,6.769,1,11c0,3.604,1.9,6.864,5,8.651V48.76c-1.888,1.516-3,3.81-3,6.24    c0,4.14,3.232,7.64,7.338,7.967C10.557,62.988,10.777,63,11,63s0.443-0.012,0.642-0.031C15.768,62.64,19,59.14,19,55    C19,52.569,17.888,50.275,16,48.76z M11.463,60.977c-0.305,0.031-0.601,0.033-0.946-0.002C7.423,60.729,5,58.104,5,55    c0-1.955,0.962-3.795,2.572-4.921L8,49.781V18.435l-0.555-0.276C4.703,16.794,3,14.051,3,11c0-2.889,1.561-5.521,4-6.931V10    c0,1.103,0.897,2,2,2h4c1.103,0,2-0.897,2-1.999l0.003-5.93C17.44,5.482,19,8.113,19,11c0,3.051-1.703,5.794-4.445,7.158    L14,18.435v31.347l0.428,0.298C16.038,51.205,17,53.045,17,55C17,58.104,14.577,60.729,11.463,60.977z"/>
		<path style="fill:#333333;" d="M11,51c-2.206,0-4,1.794-4,4s1.794,4,4,4s4-1.794,4-4S13.206,51,11,51z M11,57    c-1.103,0-2-0.897-2-2s0.897-2,2-2s2,0.897,2,2S12.103,57,11,57z"/>
	</g>
	<g>
		<path style="fill:#F4C70E;" d="M11,49L11,49c-0.552,0-1-0.448-1-1V19c0-0.552,0.448-1,1-1h0c0.552,0,1,0.448,1,1v29    C12,48.552,11.552,49,11,49z"/>
	</g>
</g>

	</svg>
