<svg xmlns="http://www.w3.org/2000/svg" xmlns:xlink="http://www.w3.org/1999/xlink" version="1.1" id="rot-138" x="0px" y="0px" viewBox="0 0 64 64" style="enable-background:new 0 0 64 64;" xml:space="preserve">
<g>
	<g>
		<path style="fill:#F4C70E;" d="M32,15c-9.389,0-17,7.611-17,17c0,0.05,0.007,0.098,0.007,0.147C15.661,32.06,16.323,32,17,32    c8.284,0,15,6.716,15,15c0,0.677-0.06,1.339-0.147,1.993C31.902,48.993,31.95,49,32,49c9.389,0,17-7.611,17-17S41.389,15,32,15z"/>
	</g>
	<g>
		<circle style="fill:#F4C70E;" cx="17" cy="47" r="5"/>
	</g>
	<g>
		<path style="fill:#333333;" d="M32,1C14.907,1,1,14.906,1,32c0,2.981,0.438,5.921,1.271,8.755C1.453,42.675,1,44.785,1,47    c0,8.822,7.178,16,16,16c2.215,0,4.326-0.453,6.245-1.271C26.08,62.562,29.02,63,32,63c17.093,0,31-13.906,31-31S49.093,1,32,1z     M3,47c0-7.72,6.28-14,14-14s14,6.28,14,14s-6.28,14-14,14S3,54.72,3,47z M8.014,33h1.257c-0.423,0.234-0.836,0.484-1.235,0.754    C8.027,33.497,8.02,33.243,8.014,33z M31,55.96c-0.244-0.01-0.488-0.012-0.731-0.029c0.262-0.388,0.503-0.791,0.731-1.203V55.96z     M32,61c-2.086,0-4.15-0.233-6.169-0.67c1.089-0.724,2.075-1.586,2.956-2.547C29.852,57.913,30.927,58,32,58    c9.31,0,17.965-5.026,22.589-13.117l-1.736-0.992c-0.273,0.477-0.562,0.942-0.864,1.396l-4.03-2.927l-1.176,1.617l4.021,2.921    c-1.157,1.456-2.469,2.763-3.909,3.902l-2.917-4.016l-1.618,1.176l2.919,4.019c-1.537,1.02-3.191,1.855-4.923,2.501l-1.533-4.718    L36.92,50.38l1.536,4.725C36.693,55.6,34.864,55.888,33,55.966V51h-0.527C32.805,49.719,33,48.383,33,47c0-8.822-7.178-16-16-16    c-1.383,0-2.719,0.195-4,0.527V31H8.025c0.078-1.883,0.375-3.71,0.864-5.457l4.731,1.538l0.618-1.902l-4.734-1.538    c0.65-1.744,1.498-3.393,2.516-4.919l4.02,2.92l1.176-1.617l-4.016-2.917c1.148-1.446,2.458-2.757,3.905-3.905l2.917,4.015    l1.618-1.176l-2.92-4.02c1.526-1.018,3.174-1.866,4.918-2.516l1.539,4.734l1.902-0.619l-1.537-4.73    C27.291,8.401,29.117,8.103,31,8.025V13h2V8.025c1.883,0.078,3.709,0.375,5.457,0.864l-1.537,4.73l1.902,0.619l1.539-4.734    c1.744,0.65,3.392,1.498,4.918,2.516l-2.92,4.02l1.618,1.176l2.917-4.015c1.446,1.148,2.757,2.459,3.905,3.905l-4.016,2.917    l1.176,1.617l4.02-2.92c1.018,1.526,1.866,3.174,2.516,4.919l-4.734,1.538l0.618,1.902l4.731-1.538    c0.489,1.748,0.787,3.574,0.864,5.457H51v2h4.974c-0.076,1.864-0.359,3.689-0.854,5.461l-4.74-1.541l-0.618,1.902l4.735,1.539    c-0.2,0.536-0.412,1.068-0.651,1.592l1.819,0.83C57.214,39.389,58,35.761,58,32C58,17.663,46.336,6,32,6S6,17.663,6,32    c0,0.837,0.039,2.245,0.114,3.308c-0.919,0.857-1.745,1.811-2.443,2.861C3.233,36.151,3,34.086,3,32C3,16.01,16.009,3,32,3    s29,13.01,29,29S47.991,61,32,61z"/>
		<path style="fill:#333333;" d="M34.019,28.567C33.424,28.215,32.74,28,32,28c-2.206,0-4,1.794-4,4s1.794,4,4,4s4-1.794,4-4    c0-0.74-0.215-1.424-0.567-2.019l9.274-9.274l-1.414-1.414L34.019,28.567z M32,34c-1.103,0-2-0.897-2-2s0.897-2,2-2s2,0.897,2,2    S33.103,34,32,34z"/>
		<path style="fill:#333333;" d="M17,35c-6.617,0-12,5.383-12,12s5.383,12,12,12s12-5.383,12-12S23.617,35,17,35z M23.648,54.449    l-1.725-2.374l-1.618,1.176l1.727,2.377c-1.208,0.707-2.571,1.176-4.032,1.322V54h-2v2.949c-1.461-0.146-2.824-0.614-4.032-1.322    l1.726-2.376l-1.618-1.176l-1.724,2.374c-1.059-0.946-1.918-2.109-2.499-3.425l2.799-0.91l-0.618-1.902l-2.802,0.911    C7.083,48.438,7,47.729,7,47s0.083-1.438,0.232-2.122l2.802,0.911l0.618-1.902l-2.799-0.91c0.581-1.316,1.44-2.479,2.499-3.425    l1.724,2.374l1.618-1.176l-1.726-2.376c1.208-0.707,2.572-1.176,4.032-1.322V40h2v-2.949c1.46,0.146,2.824,0.614,4.032,1.322    l-1.727,2.377l1.618,1.176l1.725-2.374c1.059,0.946,1.918,2.109,2.5,3.425l-2.799,0.91l0.618,1.902l2.802-0.911    C26.917,45.562,27,46.271,27,47s-0.083,1.438-0.232,2.122l-2.802-0.911l-0.618,1.902l2.799,0.91    C25.566,52.34,24.707,53.503,23.648,54.449z"/>
		<path style="fill:#333333;" d="M17,45c-0.08,0-0.156,0.014-0.233,0.024L14.8,42.4L13.2,43.6l1.961,2.615    C15.058,46.456,15,46.721,15,47c0,1.103,0.897,2,2,2s2-0.897,2-2S18.103,45,17,45z"/>
	</g>
</g>

	</svg>
