<svg xmlns="http://www.w3.org/2000/svg" xmlns:xlink="http://www.w3.org/1999/xlink" version="1.1" id="rot-137" x="0px" y="0px" viewBox="0 0 64 64" style="enable-background:new 0 0 64 64;" xml:space="preserve">
<g>
	<g>
		<circle style="fill:#F4C70E;" cx="32" cy="15" r="10"/>
	</g>
	<g>
		<path style="fill:#333333;" d="M61.177,50.018L62.03,44.9L58.693,36H45.356l0.783-6H15.122l-3.261,25h2.219    C14.033,55.328,14,55.66,14,56c0,3.86,3.141,7,7,7s7-3.14,7-7c0-0.34-0.033-0.672-0.08-1h13.16C41.033,55.328,41,55.66,41,56    c0,3.86,3.141,7,7,7s7-3.14,7-7h6c1.103,0,2-0.897,2-2v-2C63,50.958,62.196,50.109,61.177,50.018z M59.557,44h-8.71    C50.38,44,50,43.62,50,43.153c0-0.047,0.004-0.094,0.012-0.139L50.847,38h6.46L59.557,44z M43.861,32l-0.783,6H16.095l0.783-6    H43.861z M21,61c-2.757,0-5-2.243-5-5s2.243-5,5-5s5,2.243,5,5S23.757,61,21,61z M21,49c-2.785,0-5.188,1.639-6.315,4h-0.546    l0.913-7H17v-2h-1.687l0.522-4h26.983l-0.522,4H19v2h23.035l-0.913,7H27.315C26.188,50.639,23.785,49,21,49z M48,61    c-2.757,0-5-2.243-5-5s2.243-5,5-5s5,2.243,5,5S50.757,61,48,61z M53,50v1.111C51.728,49.81,49.958,49,48,49    c-1.743,0-3.335,0.644-4.561,1.702L45.095,38h3.724l-0.781,4.687C48.014,42.841,48,42.997,48,43.153    C48,44.723,49.277,46,50.847,46h8.973l-0.667,4H53z M61,54h-6v-2h6V54z"/>
		<rect x="1" y="30" style="fill:#333333;" width="2" height="2"/>
		<rect x="5" y="30" style="fill:#333333;" width="8" height="2"/>
		<rect x="1" y="41" style="fill:#333333;" width="2" height="2"/>
		<rect x="5" y="41" style="fill:#333333;" width="7" height="2"/>
		<rect x="1" y="51" style="fill:#333333;" width="9" height="2"/>
		<path style="fill:#333333;" d="M23,14h2c0-1.103,0.897-2,2-2s2,0.897,2,2v0.382l-6,3V20h8v-2h-4.764L31,15.618V14    c0-2.206-1.794-4-4-4S23,11.794,23,14z"/>
		<path style="fill:#333333;" d="M36.5,10L33,14.667V17h4v3h2v-3h2v-2h-2v-5H36.5z M37,15h-1.75L37,12.667V15z"/>
		<path style="fill:#333333;" d="M32,29c7.72,0,14-6.28,14-14c0-6.091-3.896-11.443-9.692-13.318l-0.615,1.903    C40.661,5.192,44,9.779,44,15c0,6.617-5.383,12-12,12s-12-5.383-12-12c0-2.923,1.085-5.699,3-7.875V10h2V4h-7v2h3.331    C19.202,8.509,18,11.672,18,15C18,22.72,24.28,29,32,29z"/>
		<path style="fill:#333333;" d="M34.153,1.181C33.365,1.059,32.66,1,32,1v2c0.557,0,1.161,0.052,1.847,0.158L34.153,1.181z"/>
	</g>
</g>

	</svg>
