<svg xmlns="http://www.w3.org/2000/svg" xmlns:xlink="http://www.w3.org/1999/xlink" version="1.1" id="rot-139" x="0px" y="0px" viewBox="0 0 64 64" style="enable-background:new 0 0 64 64;" xml:space="preserve">
<g>
	<circle style="fill:#F4C70E;" cx="14" cy="14" r="5"/>
	<rect x="11" y="31" style="fill:#F4C70E;" width="5" height="5"/>
	<rect x="11" y="41" style="fill:#F4C70E;" width="5" height="5"/>
	<rect x="29" y="31" style="fill:#F4C70E;" width="5" height="5"/>
	<rect x="29" y="41" style="fill:#F4C70E;" width="5" height="5"/>
	<path style="fill:#333333;" d="M63,26.828C63,24.718,61.282,23,59.172,23c-1.022,0-1.984,0.398-2.707,1.121L51,29.586V16.903   c0.638,1.301,1,2.724,1,4.097h2c0-3.554,3.584-9,8-9v-2c-4.859,0-8-3.141-8-8h-2c0,1.436-0.363,2.77-1,3.924V4c0-1.654-1.346-3-3-3   H4C2.346,1,1,2.346,1,4v56c0,1.654,1.346,3,3,3h44c1.654,0,3-1.346,3-3V40.414l10.879-10.879C62.602,28.813,63,27.851,63,26.828z    M34.338,49.752l1.911,1.911l-3.344,1.433L34.338,49.752z M38,50.585L35.415,48L53,30.414L55.586,33L38,50.585z M52.928,6.579   c0.966,2.143,2.646,3.755,4.845,4.644c-2.05,1.234-3.676,3.256-4.674,5.373c-1-2.367-2.757-4.34-4.885-5.494   C50.262,10.173,51.92,8.579,52.928,6.579z M49,60c0,0.552-0.448,1-1,1H4c-0.552,0-1-0.448-1-1V4c0-0.552,0.448-1,1-1h44   c0.552,0,1,0.448,1,1v4.282C47.639,9.359,45.909,10,44,10v2c1.931,0,3.651,0.85,5,2.146v17.44l-14,14V40h-7v7h5.586l-0.293,0.293   l-0.137,0.136l-4.061,9.476l9.476-4.061L49,42.415V60z M33,42v3h-3v-3H33z M60.465,28.121L57,31.586L54.414,29l3.465-3.465   C58.219,25.195,58.69,25,59.172,25C60.18,25,61,25.82,61,26.828C61,27.31,60.805,27.781,60.465,28.121z"/>
	<path style="fill:#333333;" d="M14,20c3.309,0,6-2.691,6-6s-2.691-6-6-6s-6,2.691-6,6S10.691,20,14,20z M14,10c2.206,0,4,1.794,4,4   s-1.794,4-4,4s-4-1.794-4-4S11.794,10,14,10z"/>
	<rect x="9" y="22" style="fill:#333333;" width="8" height="2"/>
	<path style="fill:#333333;" d="M17,30h-7v7h7V30z M15,35h-3v-3h3V35z"/>
	<path style="fill:#333333;" d="M10,47h7v-7h-7V47z M12,42h3v3h-3V42z"/>
	<path style="fill:#333333;" d="M28,37h7v-7h-7V37z M30,32h3v3h-3V32z"/>
	<rect x="27" y="11" style="fill:#333333;" width="14" height="2"/>
	<rect x="27" y="17" style="fill:#333333;" width="18" height="2"/>
	<rect x="27" y="23" style="fill:#333333;" width="18" height="2"/>
	<rect x="19" y="31" style="fill:#333333;" width="5" height="2"/>
	<rect x="19" y="35" style="fill:#333333;" width="5" height="2"/>
	<rect x="37" y="31" style="fill:#333333;" width="5" height="2"/>
	<rect x="37" y="35" style="fill:#333333;" width="5" height="2"/>
	<rect x="19" y="43" style="fill:#333333;" width="5" height="2"/>
	<rect x="10" y="51" style="fill:#333333;" width="18" height="2"/>
	<rect x="10" y="55" style="fill:#333333;" width="18" height="2"/>
	<rect x="19" y="22" style="fill:#333333;" width="2" height="2"/>
	<rect x="45" y="57" style="fill:#333333;" width="2" height="2"/>
	<rect x="41" y="57" style="fill:#333333;" width="2" height="2"/>
	<rect x="5" y="57" style="fill:#333333;" width="2" height="2"/>
</g>

	</svg>
