<svg xmlns="http://www.w3.org/2000/svg" xmlns:xlink="http://www.w3.org/1999/xlink" version="1.1" id="rot-140" x="0px" y="0px" viewBox="0 0 64 64" style="enable-background:new 0 0 64 64;" xml:space="preserve">
<g>
	<path style="fill:#F4C70E;" d="M32,2C15.432,2,2,15.432,2,32c0,16.568,13.432,30,30,30c16.568,0,30-13.432,30-30   C62,15.432,48.568,2,32,2z M32,59C17.089,59,5,46.911,5,32C5,17.089,17.089,5,32,5c14.912,0,27,12.089,27,27   C59,46.911,46.912,59,32,59z"/>
	<circle style="fill:#F4C70E;" cx="32" cy="29" r="8"/>
	<path style="fill:#333333;" d="M32,1C14.906,1,1,14.906,1,32s13.906,31,31,31s31-13.906,31-31S49.094,1,32,1z M32,61   C16.01,61,3,47.99,3,32S16.01,3,32,3s29,13.01,29,29S47.99,61,32,61z"/>
	<path style="fill:#333333;" d="M54.697,28.29l0.004-0.004c-0.002-0.002-0.003-0.003-0.005-0.005C52.912,17.361,43.416,9,32,9   S11.088,17.361,9.305,28.281c-0.002,0.002-0.003,0.003-0.005,0.005l0.004,0.004C9.107,29.498,9,30.737,9,32   c0,12.683,10.317,23,23,23s23-10.317,23-23C55,30.737,54.893,29.498,54.697,28.29z M32,11c9.512,0,17.556,6.363,20.129,15.052   C46.469,21.651,39.036,19,32,19c-7.036,0-14.468,2.651-20.129,7.052C14.444,17.363,22.488,11,32,11z M12.289,39.172   C13.683,37.943,17.394,35,21,35c3.645,0,6,2.748,6,7c0,4.063-1.993,7.692-3.085,9.377C18.531,49.122,14.299,44.678,12.289,39.172z    M25.849,52.077C27.1,50.064,29,46.302,29,42c0-5.299-3.29-9-8-9c-3.778,0-7.442,2.525-9.35,4.089C11.241,35.456,11,33.758,11,32   c0-0.935,0.083-1.849,0.202-2.752C16.673,24.15,24.571,21,32,21c7.43,0,15.328,3.15,20.798,8.248C52.917,30.151,53,31.065,53,32   c0,1.758-0.241,3.456-0.65,5.089C50.442,35.525,46.778,33,43,33c-4.71,0-8,3.701-8,9c0,4.302,1.9,8.064,3.151,10.077   C36.205,52.674,34.14,53,32,53S27.795,52.674,25.849,52.077z M40.083,51.378C38.991,49.698,37,46.078,37,42c0-4.252,2.355-7,6-7   c3.596,0,7.314,2.944,8.711,4.174C49.7,44.68,45.468,49.123,40.083,51.378z"/>
	<path style="fill:#333333;" d="M37,29c0-2.757-2.243-5-5-5s-5,2.243-5,5s2.243,5,5,5S37,31.757,37,29z M32,32c-1.654,0-3-1.346-3-3   s1.346-3,3-3s3,1.346,3,3S33.654,32,32,32z"/>
	<path style="fill:#333333;" d="M61.071,15.371l1.857-0.742C60.845,9.419,54.62,3.192,50.447,1.105l-0.895,1.789   C53.326,4.781,59.18,10.643,61.071,15.371z"/>
	<rect x="23" y="28" style="fill:#333333;" width="2" height="2"/>
	<rect x="39" y="28" style="fill:#333333;" width="2" height="2"/>
	<rect x="29" y="57" style="fill:#333333;" width="2" height="2"/>
	<rect x="33" y="57" style="fill:#333333;" width="2" height="2"/>
	<path style="fill:#333333;" d="M2.929,48.629l-1.857,0.742c2.084,5.21,8.309,11.437,12.481,13.523l0.895-1.789   C10.674,59.219,4.82,53.357,2.929,48.629z"/>
</g>

	</svg>
