<svg xmlns="http://www.w3.org/2000/svg" xmlns:xlink="http://www.w3.org/1999/xlink" version="1.1" id="rot-142" x="0px" y="0px" viewBox="0 0 64 64" style="enable-background:new 0 0 64 64;" xml:space="preserve">
<g>
	<g>
		<path style="fill:#F4C70E;" d="M29,8c0,3.314-2.686,6-6,6s-6-2.686-6-6h-1v21h14V8H29z"/>
	</g>
	<g>
		<path style="fill:#F4C70E;" d="M47,8c0,3.314-2.686,6-6,6s-6-2.686-6-6h-1v21h14V8H47z"/>
	</g>
	<g>
		<path style="fill:#333333;" d="M23,1c-3.86,0-7,3.141-7,7s3.14,7,7,7s7-3.141,7-7S26.86,1,23,1z M23,13c-2.757,0-5-2.243-5-5    s2.243-5,5-5s5,2.243,5,5S25.757,13,23,13z"/>
		<path style="fill:#333333;" d="M23,5c-1.654,0-3,1.346-3,3s1.346,3,3,3s3-1.346,3-3S24.654,5,23,5z M23,9c-0.551,0-1-0.448-1-1    s0.449-1,1-1s1,0.448,1,1S23.551,9,23,9z"/>
		<path style="fill:#333333;" d="M23,53c-1.654,0-3,1.346-3,3s1.346,3,3,3s3-1.346,3-3S24.654,53,23,53z M23,57    c-0.551,0-1-0.448-1-1s0.449-1,1-1s1,0.448,1,1S23.551,57,23,57z"/>
		<path style="fill:#333333;" d="M28,29h-2v2h-6v-2h-2v2h-2v2h2v2h-2v2h2v2h-2v2h2v2h-2v2h2v6h0.111C16.81,52.272,16,54.042,16,56    c0,3.859,3.14,7,7,7s7-3.141,7-7c0-1.958-0.81-3.728-2.111-5H28v-6h2v-2h-2v-2h2v-2h-2v-2h2v-2h-2v-2h2v-2h-2V29z M28,56    c0,2.757-2.243,5-5,5s-5-2.243-5-5s2.243-5,5-5S28,53.243,28,56z M26,49.685C25.089,49.251,24.075,49,23,49s-2.089,0.251-3,0.685    V45h6V49.685z M26,43h-6v-2h6V43z M26,39h-6v-2h6V39z M26,35h-6v-2h6V35z"/>
		<rect x="16" y="23" style="fill:#333333;" width="10" height="2"/>
		<path style="fill:#333333;" d="M41,15c3.86,0,7-3.141,7-7s-3.14-7-7-7s-7,3.141-7,7S37.14,15,41,15z M41,3c2.757,0,5,2.243,5,5    s-2.243,5-5,5s-5-2.243-5-5S38.243,3,41,3z"/>
		<path style="fill:#333333;" d="M41,11c1.654,0,3-1.346,3-3s-1.346-3-3-3s-3,1.346-3,3S39.346,11,41,11z M41,7c0.551,0,1,0.448,1,1    s-0.449,1-1,1s-1-0.448-1-1S40.449,7,41,7z"/>
		<path style="fill:#333333;" d="M41,53c-1.654,0-3,1.346-3,3s1.346,3,3,3s3-1.346,3-3S42.654,53,41,53z M41,57    c-0.551,0-1-0.448-1-1s0.449-1,1-1s1,0.448,1,1S41.551,57,41,57z"/>
		<path style="fill:#333333;" d="M46,29h-2v2h-6v-2h-2v2h-2v2h2v2h-2v2h2v2h-2v2h2v2h-2v2h2v6h0.111C34.81,52.272,34,54.042,34,56    c0,3.859,3.14,7,7,7s7-3.141,7-7c0-1.958-0.81-3.728-2.111-5H46v-6h2v-2h-2v-2h2v-2h-2v-2h2v-2h-2v-2h2v-2h-2V29z M46,56    c0,2.757-2.243,5-5,5s-5-2.243-5-5s2.243-5,5-5S46,53.243,46,56z M44,49.685C43.089,49.251,42.075,49,41,49s-2.089,0.251-3,0.685    V45h6V49.685z M44,39v2v2h-6v-2h4v-2h-4v-2h6V39z M44,35h-6v-2h6V35z"/>
		<rect x="34" y="23" style="fill:#333333;" width="10" height="2"/>
	</g>
</g>

	</svg>
