<svg xmlns="http://www.w3.org/2000/svg" xmlns:xlink="http://www.w3.org/1999/xlink" version="1.1" id="rot-143" x="0px" y="0px" viewBox="0 0 64 64" style="enable-background:new 0 0 64 64;" xml:space="preserve">
<g>
	<path style="fill:#F4C70E;" d="M2,23h4v-2c0-0.552-0.448-1-1-1H2V23z"/>
	<rect x="2" y="38" style="fill:#F4C70E;" width="60" height="3"/>
	<rect x="2" y="59" style="fill:#F4C70E;" width="60" height="3"/>
	<path style="fill:#333333;" d="M33,5h-9.515L18,12.68V15h15V5z M31,13H20.229l4.286-6H31V13z"/>
	<path style="fill:#333333;" d="M49,12.68L43.515,5H34v10h15V12.68z M36,13V7h6.485l4.286,6H36z"/>
	<rect x="30" y="16" style="fill:#333333;" width="3" height="2"/>
	<path style="fill:#333333;" d="M15,26c-1.654,0-3,1.346-3,3s1.346,3,3,3s3-1.346,3-3S16.654,26,15,26z M15,30c-0.552,0-1-0.448-1-1   s0.448-1,1-1s1,0.448,1,1S15.552,30,15,30z"/>
	<path style="fill:#333333;" d="M55.92,30H60c2.479,0,3-1.632,3-3v-9c0-2.479-2.022-4.677-3.758-4.97l-3.997-1   c-1.006-0.255-1.588-0.648-2.432-1.611l-5.025-7.035C46.498,1.735,45.021,1,43,1H24c-2.022,0-3.5,0.735-4.813,2.419l-4.941,6.925   c-0.898,1.034-1.583,1.504-2.409,1.67l-6.04,1.007C2.928,13.618,1,16.021,1,19v7c0,2.168,1.832,4,4,4h3.08   c0.224,1.556,0.957,2.949,2.031,4H1v8h17.849l9.75,3l-9.893,3.044l0.034,1.922l9.413,2.534L18.867,55H1v8h62v-8H45.133l-9.286-2.5   l9.413-2.534l0.034-1.922L35.401,45l9.75-3H63v-8h-9.111C54.964,32.949,55.696,31.556,55.92,30z M3,26v-5h2v2h2v-2   c0-1.29-0.71-2-2-2H3c0-2.474,1.655-3.699,3.164-4.014l6.032-1.006c1.306-0.262,2.369-0.957,3.617-2.399l4.975-6.966   C21.708,3.438,22.579,3,24,3h19c1.42,0,2.291,0.438,3.187,1.581l5.059,7.075c0.98,1.128,1.91,1.908,3.513,2.313l4.074,1.016   C59.685,15.132,61,16.491,61,18v9c0,0.859-0.141,1-1,1h-4.08c-0.488-3.386-3.401-6-6.92-6s-6.432,2.614-6.92,6H21.92   c-0.488-3.386-3.401-6-6.92-6s-6.432,2.614-6.92,6H5C3.935,28,3,27.065,3,26z M21.92,30h20.16c0.224,1.556,0.957,2.949,2.031,4   H19.889C20.964,32.949,21.696,31.556,21.92,30z M10,29c0-2.757,2.243-5,5-5s5,2.243,5,5s-2.243,5-5,5S10,31.757,10,29z M61,61H3v-4   h58V61z M37.439,55H26.561L32,53.536L37.439,55z M41.392,48.936L32,51.464l-9.392-2.529L32,46.046L41.392,48.936z M32,43.953   L25.651,42h12.698L32,43.953z M61,36v4H3v-4H61z M44,29c0-2.757,2.243-5,5-5s5,2.243,5,5s-2.243,5-5,5S44,31.757,44,29z"/>
	<path style="fill:#333333;" d="M49,26c-1.654,0-3,1.346-3,3s1.346,3,3,3s3-1.346,3-3S50.654,26,49,26z M49,30c-0.552,0-1-0.448-1-1   s0.448-1,1-1s1,0.448,1,1S49.552,30,49,30z"/>
	<rect x="9" y="44" style="fill:#333333;" width="2" height="5"/>
	<rect x="5" y="46" style="fill:#333333;" width="2" height="7"/>
	<rect x="56" y="44" style="fill:#333333;" width="2" height="4"/>
	<rect x="52" y="44" style="fill:#333333;" width="2" height="9"/>
	<rect x="38" y="24" style="fill:#333333;" width="2" height="2"/>
	<rect x="34" y="24" style="fill:#333333;" width="2" height="2"/>
	<rect x="57" y="24" style="fill:#333333;" width="2" height="2"/>
	<rect x="5" y="58" style="fill:#333333;" width="2" height="2"/>
	<rect x="9" y="58" style="fill:#333333;" width="2" height="2"/>
</g>

	</svg>
