<svg xmlns="http://www.w3.org/2000/svg" xmlns:xlink="http://www.w3.org/1999/xlink" version="1.1" id="rot-144" x="0px" y="0px" viewBox="0 0 64 64" style="enable-background:new 0 0 64 64;" xml:space="preserve">
<g>
	<rect x="46" y="51" style="fill:#F4C70E;" width="5" height="12"/>
	<rect x="13" y="51" style="fill:#F4C70E;" width="5" height="12"/>
	<path style="fill:#F4C70E;" d="M15,19c0-9.39,7.61-17,17-17c9.39,0,17,7.61,17,17H15z"/>
	<path style="fill:#F4C70E;" d="M15,21c0,3.222,7.61,5,17,5c9.39,0,17-1.778,17-5c0-2.209-7.61-4-17-4C22.61,17,15,18.791,15,21z"/>
	<path style="fill:#333333;" d="M59.919,54H60v-6c0-0.129-0.012-3.198-1.081-6.394L55.659,34H53h-2.659l-3.289,7.684   C46.012,44.802,46,47.871,46,48v2h-3c-1.654,0-3-1.346-3-3v-4.165c4.774-2.772,8-7.928,8-13.835v-0.142   c1.721-0.447,3-1.999,3-3.858c0-1.797-0.677-2.932-1.056-3.428C49.978,21.387,50,21.198,50,21v-2c0-9.925-8.075-18-18-18   S14,9.075,14,19v2c0,0.198,0.022,0.387,0.056,0.572C13.677,22.068,13,23.203,13,25c0,1.859,1.279,3.411,3,3.858V29   c0,5.907,3.226,11.063,8,13.835V47c0,1.654-1.346,3-3,3h-5v-1.409c1.966-1.192,3-3.112,3-5.591c0-2.434-1.642-5.268-4.78-5.976   L13,36.749V42h-2v-5.253l-1.222,0.277C6.642,37.738,5,40.57,5,43c0,2.479,1.034,4.398,3,5.591v2.514C3.876,53.006,1,57.169,1,62v1   h2v-1c0-5.176,3.954-9.446,9-9.949V63h2V52h3v11h2V52h2c0.408,0,0.798-0.063,1.178-0.155C23.047,56.479,27.117,60,32,60   s8.953-3.521,9.822-8.155C42.202,51.937,42.592,52,43,52h2v11h2V52h3v11h2V52.051c5.046,0.504,9,4.773,9,9.949v1h2v-1   C63,58.925,61.828,56.126,59.919,54z M9.444,47.104C7.8,46.287,7,44.945,7,43c0-1.285,0.683-2.737,2-3.535V44h6v-4.537   c1.317,0.796,2,2.25,2,3.537c0,1.945-0.8,3.287-2.444,4.104L14,47.38V50h-1c-1.038,0-2.039,0.146-3,0.395V47.38L9.444,47.104z    M48,26.722v-2.58c0.278-0.182,0.534-0.374,0.761-0.579C48.892,23.926,49,24.402,49,25C49,25.737,48.595,26.375,48,26.722z M32,25   c-10.01,0-15.992-2.032-15.999-3.996C16.194,19.984,22.012,18,32,18c9.992,0,15.812,1.985,16,3C48,22.966,42.016,25,32,25z    M31,3.051V10h2V3.051c8.181,0.51,14.703,7.18,14.973,15.423C44.414,16.577,36.944,16,32,16s-12.414,0.577-15.973,2.473   C16.297,10.231,22.819,3.56,31,3.051z M15,25c0-0.599,0.108-1.075,0.239-1.438c0.227,0.206,0.483,0.398,0.761,0.579v2.58   C15.405,26.375,15,25.737,15,25z M18,29v-3.865C22.409,26.815,29.242,27,32,27s9.591-0.185,14-1.865V29c0,7.72-6.28,14-14,14   S18,36.72,18,29z M32,58c-4.097,0-7.481-3.098-7.942-7.074C25.231,50.011,26,48.6,26,47v-3.178C27.855,44.576,29.878,45,32,45   c2.122,0,4.145-0.424,6-1.178V47c0,1.6,0.769,3.011,1.942,3.926C39.481,54.902,36.097,58,32,58z M57.052,42.316   c0.933,2.8,0.948,5.656,0.948,5.685v4.272c-1.034-0.746-2.184-1.341-3.427-1.73C55.426,50.014,56,49.076,56,48   c0-1.302-0.839-2.402-2-2.816V36h0.341L57.052,42.316z M53,47c0.552,0,1,0.448,1,1s-0.448,1-1,1s-1-0.448-1-1S52.448,47,53,47z    M48,48c0-0.028,0.011-2.87,0.919-5.606L51.659,36H52v9.184c-1.161,0.414-2,1.514-2,2.816c0,0.771,0.301,1.468,0.78,2H48V48z"/>
	<polygon style="fill:#333333;" points="33,30 42,30 42,28 31,28 31,38 33,38  "/>
	<rect x="19" y="14" style="fill:#333333;" width="2" height="2"/>
	<rect x="23" y="13" style="fill:#333333;" width="2" height="2"/>
</g>

	</svg>
