<svg xmlns="http://www.w3.org/2000/svg" xmlns:xlink="http://www.w3.org/1999/xlink" version="1.1" id="rot-145" x="0px" y="0px" viewBox="0 0 64 64" style="enable-background:new 0 0 64 64;" xml:space="preserve">
<g>
	<path style="fill:#F4C70E;" d="M42,17H7c-2.761,0-5-2.239-5-5v0h45v0C47,14.761,44.761,17,42,17z"/>
	<path style="fill:#F4C70E;" d="M47,7H2v0c0-2.761,2.239-5,5-5h35C44.761,2,47,4.239,47,7L47,7z"/>
	<path style="fill:#F4C70E;" d="M24,43c0-0.338,0.033-0.667,0.05-1H2c0,2.761,2.239,5,5,5h17.43C24.153,45.709,24,44.373,24,43z"/>
	<path style="fill:#F4C70E;" d="M27.527,32H7c-2.761,0-5,2.239-5,5h22.982C25.583,35.197,26.446,33.518,27.527,32z"/>
	<path style="fill:#F4C70E;" d="M47,22H2v0c0-2.761,2.239-5,5-5h35C44.761,17,47,19.239,47,22L47,22z"/>
	<path style="fill:#F4C70E;" d="M32.78,27H2c0,2.761,2.239,5,5,5h20.527C28.941,30.015,30.724,28.317,32.78,27z"/>
	<path style="fill:#F4C70E;" d="M43,24c-10.493,0-19,8.507-19,19c0,10.493,8.507,19,19,19s19-8.507,19-19C62,32.507,53.493,24,43,24   z M43,58c-8.284,0-15-6.716-15-15c0-8.284,6.716-15,15-15s15,6.716,15,15C58,51.284,51.284,58,43,58z"/>
	<path style="fill:#333333;" d="M48,23.658V22c0-2.086-1.071-3.924-2.69-5c1.62-1.076,2.69-2.914,2.69-5V7c0-3.309-2.691-6-6-6H7   C3.691,1,1,3.691,1,7v5c0,2.086,1.071,3.924,2.69,5C2.071,18.076,1,19.914,1,22v5c0,2.086,1.071,3.924,2.69,5   C2.071,33.076,1,34.914,1,37v5c0,3.309,2.691,6,6,6h16.658C25.887,56.612,33.701,63,43,63c11.028,0,20-8.972,20-20   C63,33.701,56.612,25.887,48,23.658z M58.761,40.347c-0.538-3.205-2.026-6.087-4.173-8.347h2.627   c2.278,2.938,3.666,6.59,3.762,10.564L58.761,40.347z M15.363,31l-3.6-3h8.874l3.6,3H15.363z M52.292,30   c-2.522-1.808-5.584-2.899-8.898-2.98l1.863-1.863c3.917,0.493,7.44,2.245,10.159,4.843H52.292z M40.347,27.239   c-3.205,0.538-6.087,2.026-8.347,4.173v-2.627c2.938-2.278,6.59-3.666,10.564-3.762L40.347,27.239z M27.163,30.833L23.763,28h6.052   C28.842,28.857,27.955,29.805,27.163,30.833z M30,30.584v3.124c-1.808,2.522-2.899,5.584-2.98,8.898l-1.863-1.863   C25.651,36.827,27.402,33.303,30,30.584z M27.239,45.653c0.538,3.205,2.026,6.087,4.173,8.347h-2.627   c-2.278-2.938-3.666-6.59-3.762-10.564L27.239,45.653z M33.708,56c2.522,1.808,5.584,2.899,8.898,2.98l-1.863,1.863   c-3.917-0.493-7.44-2.245-10.159-4.843H33.708z M45.653,58.761c3.205-0.538,6.087-2.026,8.347-4.173v2.627   c-2.938,2.278-6.59,3.666-10.564,3.762L45.653,58.761z M43,57c-7.72,0-14-6.28-14-14s6.28-14,14-14s14,6.28,14,14S50.72,57,43,57z    M43,23c-3.847,0-7.431,1.11-10.483,3H3v-3h6.362l6.001-5h8.874l-3.6,3H20v2H43h3v0.25C45.019,23.101,44.022,23,43,23z M32.637,13   l3.6,3h-8.874l-3.6-3H32.637z M23.763,21l3.6-3h8.874l-3.6,3H23.763z M20.637,13l3.6,3h-8.874l-3.6-3H20.637z M45.858,21H35.763   l3.6-3H42C43.859,18,45.411,19.279,45.858,21z M39.363,16l-3.6-3h10.095c-0.447,1.721-1.999,3-3.858,3H39.363z M45.858,6H43v2h3v3   H3V8h34V6h-1.237l3.6-3H42C43.859,3,45.411,4.279,45.858,6z M23.763,6l3.6-3h8.874l-3.6,3H23.763z M20.637,6h-8.874l3.6-3h8.874   L20.637,6z M7,3h5.237l-3.6,3H3.142C3.589,4.279,5.141,3,7,3z M3.142,13h5.495l3.6,3H7C5.141,16,3.589,14.721,3.142,13z M12.237,18   l-3.6,3H3.142C3.589,19.279,5.141,18,7,18H12.237z M3.142,28h5.495l3.6,3H7C5.141,31,3.589,29.721,3.142,28z M12.237,33l-3.6,3   H3.142C3.589,34.279,5.141,33,7,33H12.237z M3.142,43h5.495l3.6,3H7C5.141,46,3.589,44.721,3.142,43z M15.363,46l-3.6-3H18v-2H3v-3   h15v-2h-6.237l3.6-3h10.343c-0.553,0.953-1.025,1.956-1.417,3H20v2h3.658C23.244,39.601,23,41.271,23,43   c0,1.022,0.101,2.019,0.25,3H15.363z M56,55.416v-3.124c1.808-2.522,2.899-5.584,2.98-8.898l1.863,1.863   C60.349,49.173,58.598,52.697,56,55.416z"/>
	<path style="fill:#333333;" d="M43,33c-5.514,0-10,4.486-10,10s4.486,10,10,10s10-4.486,10-10S48.514,33,43,33z M43,51   c-4.411,0-8-3.589-8-8s3.589-8,8-8s8,3.589,8,8S47.411,51,43,51z"/>
	<rect x="39" y="6" style="fill:#333333;" width="2" height="2"/>
	<rect x="16" y="21" style="fill:#333333;" width="2" height="2"/>
	<rect x="12.041" y="21" style="fill:#333333;" width="2" height="2"/>
	<path style="fill:#333333;" d="M43,54v2c3.204,0,6.282-1.176,8.667-3.311l-1.334-1.49C48.315,53.005,45.711,54,43,54z"/>
	<rect x="20" y="41" style="fill:#333333;" width="2" height="2"/>
	<path style="fill:#333333;" d="M22.939,53.52l-1.754,0.961c1.769,3.228,4.263,6.104,7.212,8.32l1.201-1.6   C26.875,59.155,24.572,56.499,22.939,53.52z"/>
</g>

	</svg>
