<svg xmlns="http://www.w3.org/2000/svg" xmlns:xlink="http://www.w3.org/1999/xlink" version="1.1" id="rot-146" x="0px" y="0px" viewBox="0 0 64 64" style="enable-background:new 0 0 64 64;" xml:space="preserve">
<g>
	<path style="fill:#333333;" d="M36.52,16l-5.601,7h23.222l-5.856-7H36.52z M37.48,18H41v3h-5.919L37.48,18z M43,21v-3h4.351   l2.509,3H43z"/>
	<path style="fill:#333333;" d="M60.251,21.029l-3.006-0.999c-0.283-0.071-0.583-0.485-0.901-0.925   c-0.186-0.256-0.377-0.518-0.544-0.705l-3.012-4.016C51.706,13,50.206,13,49,13H36c-1.206,0-2.706,0-3.8,1.4l-2.955,3.943   c-0.604,0.694-1.948,1.577-2.441,1.676l-4.93,0.985C20.686,21.086,19,21.931,19,24v7c0,0.816,0.345,1.291,0.634,1.546   c0.448,0.393,0.975,0.459,1.275,0.459c0.052,0,0.097-0.002,0.134-0.005h4.058c0.465,2.28,2.485,4,4.899,4s4.434-1.72,4.899-4   h13.202c0.465,2.28,2.485,4,4.899,4c2.414,0,4.434-1.721,4.899-4.001L61,33c1.362,0,1.94-1.152,2-2v-7   C63,22.485,61.589,21.296,60.251,21.029z M30,35c-1.654,0-3-1.347-3-3.001C27,30.346,28.346,29,30,29s3,1.346,3,2.999   C33,33.653,31.654,35,30,35z M53,35c-1.654,0-3-1.347-3-3.001C50,30.346,51.346,29,53,29s3,1.346,3,2.999   C56,33.653,54.654,35,53,35z M60.994,31l-3.095-0.001C57.434,28.72,55.414,27,53,27c-2.415,0-4.435,1.72-4.899,4H34.899   c-0.464-2.28-2.484-4-4.899-4s-4.435,1.72-4.899,4H21v-4h2v-2h-2v-1c0-0.817,0.656-0.978,1.036-1.001l5.159-1.019   c1.153-0.229,2.851-1.509,3.604-2.381l2.988-3.984C34.226,15.056,34.77,15,36,15h13c1.23,0,1.774,0.056,2.2,0.6l3.045,4.057   c0.173,0.199,0.327,0.414,0.479,0.623c0.489,0.676,1.044,1.441,1.959,1.669l3,1l0.148,0.037C60.399,23.083,61,23.604,61,24   l0.003,6.927C61.003,30.928,60.985,30.99,60.994,31z"/>
	<rect x="40" y="24" style="fill:#333333;" width="2" height="2"/>
	<path style="fill:#333333;" d="M17,37V15H4c-1.654,0-3,1.346-3,3v24c0,1.654,1.346,3,3,3h6c0,2.967,2.167,5.431,5,5.91V51h48v-2   h-7.54c0.954-1.063,1.54-2.462,1.54-4h6v-8H53H30H17z M10.35,43H4c-0.552,0-1-0.448-1-1v-3h4v-3H5v1H3V18c0-0.552,0.448-1,1-1h11   v20v2.09C12.837,39.456,11.068,40.978,10.35,43z M12,45c0-2.206,1.794-4,4-4s4,1.794,4,4s-1.794,4-4,4S12,47.206,12,45z M22,45h9   c0,1.538,0.586,2.937,1.54,4H20.46C21.414,47.937,22,46.538,22,45z M33,45c0-2.206,1.794-4,4-4s4,1.794,4,4s-1.794,4-4,4   S33,47.206,33,45z M43,45h2c0,1.538,0.586,2.937,1.54,4H41.46C42.414,47.937,43,46.538,43,45z M47,45c0-2.206,1.794-4,4-4   s4,1.794,4,4s-1.794,4-4,4S47,47.206,47,45z M51,39h10v4h-4.35C55.824,40.673,53.607,39,51,39s-4.824,1.673-5.65,4h-2.7   c-0.826-2.327-3.043-4-5.65-4s-4.824,1.673-5.65,4h-9.7c-0.718-2.022-2.487-3.544-4.65-3.91V39h20H51z"/>
	<path style="fill:#333333;" d="M5,20v11h8V20H5z M11,29H7v-7h4V29z"/>
	<rect x="11" y="32" style="fill:#333333;" width="2" height="2"/>
	<rect x="1" y="55" style="fill:#333333;" width="23" height="2"/>
	<rect x="19" y="61" style="fill:#333333;" width="44" height="2"/>
	<rect x="10" y="1" style="fill:#333333;" width="28" height="2"/>
	<path style="fill:#333333;" d="M59,3c1.103,0,2,0.897,2,2s-0.897,2-2,2H34v2h25c2.206,0,4-1.794,4-4s-1.794-4-4-4s-4,1.794-4,4h2   C57,3.897,57.897,3,59,3z"/>
	<rect x="30" y="7" style="fill:#333333;" width="2" height="2"/>
	<rect x="6" y="1" style="fill:#333333;" width="2" height="2"/>
	<rect x="2" y="1" style="fill:#333333;" width="2" height="2"/>
	<rect x="26" y="55" style="fill:#333333;" width="2" height="2"/>
	<rect x="30" y="55" style="fill:#333333;" width="5" height="2"/>
	<circle style="fill:#F4C70E;" cx="30" cy="32" r="2"/>
	<circle style="fill:#F4C70E;" cx="16" cy="45" r="3"/>
	<circle style="fill:#F4C70E;" cx="37" cy="45" r="3"/>
	<circle style="fill:#F4C70E;" cx="51" cy="45" r="3"/>
	<circle style="fill:#F4C70E;" cx="53" cy="32" r="2"/>
</g>

	</svg>
