<svg xmlns="http://www.w3.org/2000/svg" xmlns:xlink="http://www.w3.org/1999/xlink" version="1.1" id="rot-149" x="0px" y="0px" viewBox="0 0 64 64" style="enable-background:new 0 0 64 64;" xml:space="preserve">
<g>
	<g>
		<rect x="28" y="32" style="fill:#F4C70E;" width="8" height="14"/>
	</g>
	<g>
		<rect x="28" y="10" style="fill:#F4C70E;" width="8" height="10"/>
	</g>
	<g>
		<path style="fill:#333333;" d="M9,51c-2.206,0-4,1.794-4,4s1.794,4,4,4s4-1.794,4-4S11.206,51,9,51z M9,57c-1.103,0-2-0.897-2-2    s0.897-2,2-2s2,0.897,2,2S10.103,57,9,57z"/>
		<path style="fill:#333333;" d="M56,47.069V30h-4V8H12v22h-2V6c0-2.757-2.243-5-5-5H1v2h4c1.654,0,3,1.346,3,3v41.069    C4.06,47.564,1,50.928,1,55c0,4.411,3.589,8,8,8c3.35,0,6.221-2.072,7.411-5h31.178c1.19,2.928,4.061,5,7.411,5    c4.411,0,8-3.589,8-8C63,50.928,59.94,47.564,56,47.069z M14,10h36v20H14V10z M54,32v15.069c-1.027,0.129-1.996,0.449-2.864,0.931    H50v0.765c-1.057,0.849-1.893,1.96-2.411,3.235H16.411c-1.069-2.631-3.498-4.565-6.411-4.931V32H54z M9,61c-3.309,0-6-2.691-6-6    s2.691-6,6-6s6,2.691,6,6S12.309,61,9,61z M16.931,56C16.972,55.672,17,55.339,17,55s-0.028-0.672-0.069-1h30.139    C47.028,54.328,47,54.661,47,55s0.028,0.672,0.069,1H16.931z M55,61c-3.309,0-6-2.691-6-6s2.691-6,6-6s6,2.691,6,6    S58.309,61,55,61z"/>
		<path style="fill:#333333;" d="M55,51c-2.206,0-4,1.794-4,4s1.794,4,4,4s4-1.794,4-4S57.206,51,55,51z M55,57    c-1.103,0-2-0.897-2-2s0.897-2,2-2s2,0.897,2,2S56.103,57,55,57z"/>
		<rect x="46" y="26" style="fill:#333333;" width="2" height="2"/>
		<rect x="42" y="26" style="fill:#333333;" width="2" height="2"/>
		<rect x="46" y="22" style="fill:#333333;" width="2" height="2"/>
		<rect x="46" y="48" style="fill:#333333;" width="2" height="2"/>
		<rect x="50" y="44" style="fill:#333333;" width="2" height="2"/>
	</g>
</g>

	</svg>
