<svg xmlns="http://www.w3.org/2000/svg" xmlns:xlink="http://www.w3.org/1999/xlink" version="1.1" id="rot-148" x="0px" y="0px" viewBox="0 0 64 64" style="enable-background:new 0 0 64 64;" xml:space="preserve">
<g>
	<g>
		<rect x="3" y="23" style="fill:#F4C70E;" width="60" height="5"/>
	</g>
	<g>
		<polygon style="fill:#F4C70E;" points="17,5 20,5 20,3 14,3 14,11 17,11   "/>
	</g>
	<g>
		<rect x="61" y="26" style="fill:#333333;" width="2" height="2"/>
		<path style="fill:#333333;" d="M35,1v4h-4V1H3v20H1v5.526c0,3.782,1.413,7.396,3.978,10.175l4.217,4.568    c2.298,2.489,3.613,5.68,3.773,9.046C12.802,52.923,10.649,55,8,55c-2.757,0-5-2.243-5-5H1c0,3.487,2.566,6.379,5.908,6.906    C6.48,59.231,4.447,61,2,61H1v2h1c2.543,0,4.774-1.363,6-3.397C9.226,61.637,11.457,63,14,63s4.774-1.363,6-3.397    C21.226,61.637,23.457,63,26,63s4.774-1.363,6-3.397C33.226,61.637,35.457,63,38,63s4.774-1.363,6-3.397    C45.226,61.637,47.457,63,50,63s4.774-1.363,6-3.397C57.226,61.637,59.457,63,62,63h1v-2h-1c-2.447,0-4.48-1.769-4.908-4.094    C60.434,56.379,63,53.487,63,50h-2c0,2.757-2.243,5-5,5s-5-2.243-5-5h-2c0,2.757-2.243,5-5,5s-5-2.243-5-5h-2c0,2.757-2.243,5-5,5    s-5-2.243-5-5h-2c0,2.757-2.243,5-5,5s-5-2.243-5-5h-0.047c-0.229-3.754-1.721-7.305-4.288-10.088l-4.217-4.568    C4.561,33.3,3.403,30.733,3.092,28H59v-2H3v-3h60v-1v-1V1H35z M50,53.603c1.047,1.736,2.828,2.976,4.908,3.304    C54.48,59.231,52.447,61,50,61s-4.48-1.769-4.908-4.094C47.172,56.578,48.953,55.339,50,53.603z M38,53.603    c1.047,1.736,2.828,2.976,4.908,3.304C42.48,59.231,40.447,61,38,61s-4.48-1.769-4.908-4.094    C35.172,56.578,36.953,55.339,38,53.603z M26,53.603c1.047,1.736,2.828,2.976,4.908,3.304C30.48,59.231,28.447,61,26,61    s-4.48-1.769-4.908-4.094C23.172,56.578,24.953,55.339,26,53.603z M18.908,56.906C18.48,59.231,16.447,61,14,61    s-4.48-1.769-4.908-4.094c2.08-0.328,3.862-1.567,4.908-3.304C15.047,55.339,16.828,56.578,18.908,56.906z M41,21H19V7h22V21z     M5,3h24v2H17v16H5V3z M43,21V5h-6V3h24v18H43z"/>
	</g>
	<g>
		<g>
			<rect x="46" y="3" style="fill:#F4C70E;" width="6" height="8"/>
		</g>
		<g>
			<rect x="28" y="7" style="fill:#F4C70E;" width="4" height="6"/>
		</g>
	</g>
</g>

	</svg>
