<svg xmlns="http://www.w3.org/2000/svg" xmlns:xlink="http://www.w3.org/1999/xlink" version="1.1" id="rot-151" x="0px" y="0px" viewBox="0 0 64 64" style="enable-background:new 0 0 64 64;" xml:space="preserve">
<g>
	<g>
		<rect x="14" y="38" style="fill:#F4C70E;" width="27" height="8"/>
	</g>
	<path style="fill:#333333;" d="M61,50v-5.181L57.693,36h-6.302C52.457,33.12,53,30.1,53,27C53,12.664,41.336,1,27,1S1,12.664,1,27   c0,8.457,4.107,16.345,11,21.225V55h2.08C14.033,55.328,14,55.66,14,56c0,3.86,3.14,7,7,7s7-3.14,7-7c0-0.34-0.033-0.672-0.08-1   h13.16C41.033,55.328,41,55.66,41,56c0,3.86,3.14,7,7,7s7-3.14,7-7h6c1.103,0,2-0.897,2-2v-2C63,50.897,62.103,50,61,50z    M58.557,44H51c-0.551,0-1-0.449-1-1v-5h6.307L58.557,44z M43,36v-6h-2.177c0.07-0.67,0.117-1.336,0.141-2h10.011   c-0.113,2.76-0.696,5.443-1.733,8H43z M8.866,42.709C5.342,38.642,3.258,33.476,3.031,28h10.006c0.024,0.664,0.07,1.33,0.141,2H12   v10.463C10.491,41.323,9.457,42.156,8.866,42.709z M8.869,11.302c0.968,0.909,3.072,2.553,6.608,3.844   c-1.356,3.141-2.315,6.776-2.453,10.854h-10C3.257,20.392,5.422,15.278,8.869,11.302z M50.975,26h-10   c-0.138-4.078-1.097-7.713-2.453-10.854c3.536-1.292,5.641-2.935,6.608-3.844C48.578,15.278,50.743,20.392,50.975,26z M28,4.123   c1.919,1.717,5.202,5.079,7.684,9.809c-2.106,0.565-4.652,0.965-7.684,1.04V4.123z M26,4.126v10.846   c-3.022-0.076-5.565-0.48-7.673-1.048C20.807,9.205,24.083,5.845,26,4.126z M26,16.972V26H15.026   c0.143-3.83,1.087-7.261,2.406-10.232C19.767,16.425,22.605,16.892,26,16.972z M28,16.972c3.398-0.08,6.237-0.547,8.574-1.205   c1.317,2.97,2.258,6.401,2.4,10.234H28V16.972z M37.662,13.323c-2.389-4.705-5.546-8.141-7.691-10.133   c5.333,0.662,10.128,3.076,13.788,6.652C42.95,10.6,41.023,12.123,37.662,13.323z M16.344,13.312   c-3.346-1.2-5.282-2.717-6.099-3.472c3.66-3.574,8.453-5.987,13.784-6.649C21.886,5.181,18.733,8.613,16.344,13.312z M15.187,30   c-0.075-0.67-0.125-1.336-0.151-2H26v2H15.187z M28,28h10.963c-0.025,0.664-0.075,1.33-0.151,2H28V28z M10.234,44.168   c0.36-0.336,0.944-0.822,1.766-1.365v2.921C11.385,45.23,10.793,44.714,10.234,44.168z M21,61c-2.757,0-5-2.243-5-5s2.243-5,5-5   s5,2.243,5,5S23.757,61,21,61z M41,53H27.315c-1.126-2.361-3.53-4-6.315-4s-5.189,1.639-6.315,4H14V32h27V53z M48,61   c-2.757,0-5-2.243-5-5s2.243-5,5-5s5,2.243,5,5S50.757,61,48,61z M53,50v1.11c-1.272-1.3-3.042-2.11-5-2.11s-3.728,0.81-5,2.11V38   h5v5c0,1.654,1.346,3,3,3h8v4H53z M61,54h-6v-2h6V54z"/>
</g>

	</svg>
