<svg xmlns="http://www.w3.org/2000/svg" xmlns:xlink="http://www.w3.org/1999/xlink" version="1.1" id="rot-150" x="0px" y="0px" viewBox="0 0 64 64" style="enable-background:new 0 0 64 64;" xml:space="preserve">
<g>
	<g>
		<rect x="48" y="15" style="fill:#F4C70E;" width="6" height="12"/>
	</g>
	<g>
		<path style="fill:#333333;" d="M63,13H43.6l12-5L40,1.5V5H9v2h33V4.5L50.4,8L42,11.5V9H5v2h35v2H1v40h0.685    C1.25,53.911,1,54.925,1,56c0,3.86,3.14,7,7,7s7-3.14,7-7c0-1.075-0.25-2.089-0.685-3h13.37C27.25,53.911,27,54.925,27,56    c0,3.86,3.14,7,7,7s7-3.14,7-7c0-1.075-0.25-2.089-0.685-3h9.368C49.238,53.931,49,54.953,49,56c0,3.86,3.14,7,7,7s7-3.14,7-7    c0-1.047-0.238-2.069-0.683-3H63V13z M61,51H41V15h20V51z M3,15h36v36h-0.11c-1.263-1.235-2.988-2-4.89-2s-3.627,0.765-4.89,2    H12.89c-1.263-1.235-2.988-2-4.89-2s-3.627,0.765-4.89,2H3V15z M8,61c-2.757,0-5-2.243-5-5s2.243-5,5-5s5,2.243,5,5    S10.757,61,8,61z M34,61c-2.757,0-5-2.243-5-5s2.243-5,5-5s5,2.243,5,5S36.757,61,34,61z M61,56c0,2.757-2.243,5-5,5s-5-2.243-5-5    c0-1.089,0.376-2.133,1.034-3H56h3.966C60.624,53.867,61,54.911,61,56z"/>
		<path style="fill:#333333;" d="M8,53c-1.654,0-3,1.346-3,3s1.346,3,3,3s3-1.346,3-3S9.654,53,8,53z M8,57c-0.551,0-1-0.449-1-1    s0.449-1,1-1s1,0.449,1,1S8.551,57,8,57z"/>
		<path style="fill:#333333;" d="M34,53c-1.654,0-3,1.346-3,3s1.346,3,3,3s3-1.346,3-3S35.654,53,34,53z M34,57    c-0.551,0-1-0.449-1-1s0.449-1,1-1s1,0.449,1,1S34.551,57,34,57z"/>
		<path style="fill:#333333;" d="M53,56c0,1.654,1.346,3,3,3s3-1.346,3-3s-1.346-3-3-3S53,54.346,53,56z M56,55c0.551,0,1,0.449,1,1    s-0.449,1-1,1s-1-0.449-1-1S55.449,55,56,55z"/>
		<rect x="1" y="9" style="fill:#333333;" width="2" height="2"/>
		<rect x="1" y="5" style="fill:#333333;" width="6" height="2"/>
	</g>
	<g>
		<rect x="31" y="18" style="fill:#F4C70E;" width="4" height="4"/>
	</g>
	<g>
		<rect x="23" y="18" style="fill:#F4C70E;" width="4" height="4"/>
	</g>
	<g>
		<rect x="15" y="18" style="fill:#F4C70E;" width="4" height="4"/>
	</g>
</g>

	</svg>
