<svg xmlns="http://www.w3.org/2000/svg" xmlns:xlink="http://www.w3.org/1999/xlink" version="1.1" id="rot-154" x="0px" y="0px" viewBox="0 0 64 64" style="enable-background:new 0 0 64 64;" xml:space="preserve">
<g>
	<g>
		<polygon style="fill:#F4C70E;" points="32,22 32,29 43,29 43,41 46,41 46,22   "/>
	</g>
	<g>
		<rect x="14" y="31" style="fill:#F4C70E;" width="4" height="6"/>
	</g>
	<g>
		<path style="fill:#333333;" d="M63,11.356L40.217,1h-2.434L15,11.356v6.196l2-0.909V29H9v18h34v-4h18V16.644l2,0.909V11.356z     M11,31h10v14H11V31z M41,45H23V31h18V45z M59,41H43V29H19V15.735L38.217,7h1.566L59,15.735V41z M61,14.447L40.217,5h-2.434    L17,14.447v-1.804L38.217,3h1.566L61,12.644V14.447z"/>
		<path style="fill:#333333;" d="M39.04,52.161c-0.754-0.255-1.589-0.178-2.288,0.202l-2.202,1.204l0.303-0.899    c0.285-0.846,0.144-1.784-0.377-2.51C33.955,49.434,33.111,49,32.218,49c-1.144,0-2.157,0.687-2.582,1.748l-1.299,3.248h-3.08    l-0.054-0.027l2.164-1.149c1.301-0.69,1.935-2.215,1.508-3.625c-0.247-0.814-0.8-1.475-1.559-1.859    c-0.758-0.385-1.618-0.443-2.421-0.16l-8.205,2.878l-2.972,1.943H7.021V50H1v2h4.021v9H1v2h6.021v-1.784l3.804,0.761l13.295,0.02    l10.097-2.02l5.182-2.52c1.396-0.688,1.987-2.34,1.345-3.758C40.416,52.974,39.795,52.413,39.04,52.161z M31.494,51.49    c0.213-0.534,1.021-0.634,1.358-0.165c0.148,0.207,0.187,0.463,0.105,0.704l-0.662,1.967h-1.804L31.494,51.49z M38.515,55.664    l-4.818,2.377l-9.774,1.955H11.12l-4.099-0.82v-5.18h7.303l3.147-2.098l8.086-2.837c0.282-0.099,0.586-0.079,0.854,0.057    c0.268,0.136,0.463,0.369,0.55,0.656c0.15,0.497-0.073,1.034-0.532,1.278l-5.589,2.971l3.946,1.973h9.491l3.435-1.877    c0.216-0.117,0.463-0.142,0.694-0.062c0.232,0.077,0.416,0.243,0.517,0.466C39.117,54.954,38.938,55.455,38.515,55.664z"/>
		<rect x="37" y="41" style="fill:#333333;" width="2" height="2"/>
		<rect x="31" y="41" style="fill:#333333;" width="4" height="2"/>
		<rect x="29" y="37" style="fill:#333333;" width="10" height="2"/>
	</g>
</g>

	</svg>
