<svg xmlns="http://www.w3.org/2000/svg" xmlns:xlink="http://www.w3.org/1999/xlink" version="1.1" id="rot-156" x="0px" y="0px" viewBox="0 0 64 64" style="enable-background:new 0 0 64 64;" xml:space="preserve">
<g>
	<g>
		<g>
			<path style="fill:#F4C70E;" d="M30,25H8c-1.654,0-3-1.346-3-3V8c0-1.654,1.346-3,3-3h22c1.654,0,3,1.346,3,3v14     C33,23.654,31.654,25,30,25z"/>
		</g>
	</g>
	<g>
		<path style="fill:#333333;" d="M49,18c-2.897,0-5.666,0.894-8,2.526v-4.627c2.279-0.465,4-2.484,4-4.899V7h-8V6    c0-2.757-2.243-5-5-5H6C3.243,1,1,3.243,1,6v57h36v-7.826C39.449,59.255,43.904,62,49,62c7.72,0,14-6.28,14-14V32    C63,24.28,56.72,18,49,18z M41,34v-2c0-4.411,3.589-8,8-8s8,3.589,8,8v16c0,4.411-3.589,8-8,8s-8-3.589-8-8V34z M43,11    c0,1.654-1.346,3-3,3h-4c-1.654,0-3-1.346-3-3V9h10V11z M35,44H3V31h32v1V44z M6,3h26c1.654,0,3,1.346,3,3v1h-4v4    c0,2.414,1.721,4.434,4,4.899V29H3V6C3,4.346,4.346,3,6,3z M35,61H3V46h32v2V61z M61,48c0,6.617-5.383,12-12,12s-12-5.383-12-12    V32V16h2v16v2v14c0,5.514,4.486,10,10,10s10-4.486,10-10V32c0-5.514-4.486-10-10-10c-3.273,0-6.175,1.588-8,4.025v-2.953    C43.204,21.095,46.024,20,49,20c6.617,0,12,5.383,12,12V48z"/>
		<path style="fill:#333333;" d="M11,38c0-1.103,0.897-2,2-2h2v-2h-2c-2.206,0-4,1.794-4,4s1.794,4,4,4h10v-2H13    C11.897,40,11,39.103,11,38z"/>
		<rect x="25" y="40" style="fill:#333333;" width="2" height="2"/>
		<path style="fill:#333333;" d="M19,35.5c0-0.276,0.224-0.5,0.5-0.5h1v-2h-1c-1.378,0-2.5,1.122-2.5,2.5s1.122,2.5,2.5,2.5H27v-2    h-7.5C19.224,36,19,35.776,19,35.5z"/>
		<rect x="27" y="19" style="fill:#333333;" width="2" height="2"/>
		<rect x="23" y="19" style="fill:#333333;" width="2" height="2"/>
		<rect x="19" y="19" style="fill:#333333;" width="2" height="2"/>
	</g>
</g>

	</svg>
