<svg xmlns="http://www.w3.org/2000/svg" xmlns:xlink="http://www.w3.org/1999/xlink" version="1.1" id="rot-157" x="0px" y="0px" viewBox="0 0 64 64" style="enable-background:new 0 0 64 64;" xml:space="preserve">
<g>
	<rect x="12" y="46" style="fill:#F4C70E;" width="40" height="5"/>
	<path style="fill:#F4C70E;" d="M20,38c3.594-1.863,7.675-3,12.001-3c4.324,0,8.407,1.138,11.999,3l8-15c-4.786-5.514-12.126-8-20-8   c-7.873,0-15.214,2.487-20,8L20,38z"/>
	<path style="fill:#333333;" d="M58,1H6C3.243,1,1,3.243,1,6v57h2V49c0-3.309,2.691-6,6-6h39.382l-1,2H12v2h40v-2h-2.382l1-2H55   c3.309,0,6,2.691,6,6v14h2V6C63,3.243,60.757,1,58,1z M51.618,41l4.462-8.923l-1.837-5.51l1.641-3.099l-1.768-0.936l-1.99,3.759   l-0.074,0.025l0.024,0.071l-6.959,13.145l1.768,0.936l1.738-3.282l2.371,0.593L49.382,41H7c-0.552,0-1-0.448-1-1V13   c0-0.552,0.448-1,1-1h50c0.552,0,1,0.448,1,1v27c0,0.552-0.448,1-1,1H51.618z M53.92,31.923l-2.012,4.024l-2.323-0.581l3.365-6.355   L53.92,31.923z M59.096,42.141C59.652,41.596,60,40.839,60,40V13c0-1.654-1.346-3-3-3H7c-1.654,0-3,1.346-3,3v27   c0,0.839,0.348,1.596,0.904,2.141C4.19,42.569,3.548,43.104,3,43.726V6c0-1.654,1.346-3,3-3h52c1.654,0,3,1.346,3,3v37.726   C60.452,43.104,59.81,42.569,59.096,42.141z"/>
	<path style="fill:#333333;" d="M32,14c-8.712,0-16.083,2.964-20.755,8.345l-0.451,0.519l8.789,16.479l0.877-0.455   c7.392-3.831,15.687-3.833,23.08,0l0.877,0.455l8.789-16.479l-0.451-0.52C48.084,16.964,40.713,14,32,14z M43.575,36.673   C39.891,34.922,35.91,34,32.001,34c-3.97,0-7.859,0.898-11.576,2.672l-2.248-4.215C21.722,30.291,26.446,29,31,29v-2   c-6.634,0-11.45,2.282-13.773,3.676l-4.015-7.528C17.519,18.533,24.159,16,32,16c7.842,0,14.481,2.533,18.788,7.147L43.575,36.673z   "/>
	<rect x="33" y="27" style="fill:#333333;" width="2" height="2"/>
	<rect x="6" y="58" style="fill:#333333;" width="2" height="2"/>
	<rect x="10" y="58" style="fill:#333333;" width="2" height="2"/>
	<rect x="14" y="58" style="fill:#333333;" width="2" height="2"/>
	<rect x="54" y="6" style="fill:#333333;" width="2" height="2"/>
	<rect x="50" y="6" style="fill:#333333;" width="2" height="2"/>
</g>

	</svg>
