<svg xmlns="http://www.w3.org/2000/svg" xmlns:xlink="http://www.w3.org/1999/xlink" version="1.1" id="rot-158" x="0px" y="0px" viewBox="0 0 64 64" style="enable-background:new 0 0 64 64;" xml:space="preserve">
<g>
	<rect x="52" y="40" style="fill:#F4C70E;" width="10" height="2"/>
	<rect x="52" y="44" style="fill:#F4C70E;" width="10" height="2"/>
	<rect x="52" y="48" style="fill:#F4C70E;" width="10" height="2"/>
	<polygon style="fill:#F4C70E;" points="22,2 34,9 34,24 22,31 10,24 10,9  "/>
	<path style="fill:#333333;" d="M63,10.236V1H51v9.236l2,4V36h-2v22c0,2.757,2.243,5,5,5h2c2.757,0,5-2.243,5-5V36h-2V14.236   L63,10.236z M61,58c0,1.654-1.346,3-3,3h-2c-1.654,0-3-1.346-3-3V38h8V58z M55,36V13.764l-2-4V3h8v6.764l-2,4V36H55z"/>
	<rect x="56" y="40" style="fill:#333333;" width="2" height="2"/>
	<rect x="56" y="44.031" style="fill:#333333;" width="2" height="2"/>
	<rect x="56" y="48" style="fill:#333333;" width="2" height="2"/>
	<path style="fill:#333333;" d="M43,23c0-6.665-3.062-12.788-8.399-16.8L33,4.998v2.261L22,0.843L11,7.259V4.998L9.399,6.2   C4.062,10.21,1,16.333,1,23c0,8.401,4.97,15.645,12.114,19H13v21h2V42.775C17.193,43.554,19.543,44,22,44s4.807-0.446,7-1.225V63h2   V42h-0.114C38.03,38.645,43,31.401,43,23z M22,3.157l11,6.417v13.852l-11,6.417l-11-6.417V9.574L22,3.157z M11,25.741l11,6.416   l11-6.416v1.685l-11,6.417l-11-6.417V25.741z M3,23c0-5.331,2.163-10.277,6-13.859v15.434v4l13,7.583l13-7.583v-4V9.142   c3.836,3.583,6,8.529,6,13.858c0,10.477-8.523,19-19,19S3,33.477,3,23z"/>
	<polygon style="fill:#333333;" points="21,24 23,24 23,17 30,17 30,15 23,15 23,8 21,8 21,15 14,15 14,17 21,17  "/>
	<path style="fill:#333333;" d="M33.538,45.113l0.924,1.773c6.592-3.437,11.513-9.493,13.501-16.618l-1.926-0.537   C44.196,36.325,39.641,41.932,33.538,45.113z"/>
	<path style="fill:#333333;" d="M33.538,51.113l0.924,1.773c2.029-1.058,4.104-2.44,6.167-4.109l-1.258-1.555   C37.412,48.808,35.449,50.117,33.538,51.113z"/>
	<rect x="17" y="46" style="fill:#333333;" width="2" height="2"/>
	<rect x="17" y="50" style="fill:#333333;" width="2" height="2"/>
	<path style="fill:#333333;" d="M38.6,1.2L37.4,2.8c4.326,3.245,7.232,7.44,8.637,12.469l1.926-0.537   C46.438,9.269,43.288,4.716,38.6,1.2z"/>
</g>

	</svg>
